<svg width="112" height="96" viewBox="0 0 112 96" fill="none" xmlns="http://www.w3.org/2000/svg">
<mask id="mask0_1107_4473" style="mask-type:alpha" maskUnits="userSpaceOnUse" x="4" y="4" width="104" height="88">
<path d="M108 4H4V92H108V4Z" fill="url(#paint0_radial_1107_4473)"/>
</mask>
<g mask="url(#mask0_1107_4473)">
<g opacity="0.1" filter="url(#filter0_f_1107_4473)">
<path d="M56 89C78.0914 89 96 71.0914 96 49C96 26.9086 78.0914 9 56 9C33.9086 9 16 26.9086 16 49C16 71.0914 33.9086 89 56 89Z" stroke="#111827" stroke-width="2"/>
</g>
<g opacity="0.1" filter="url(#filter1_f_1107_4473)">
<path d="M56 97C82.5097 97 104 75.5097 104 49C104 22.4903 82.5097 1 56 1C29.4903 1 8 22.4903 8 49C8 75.5097 29.4903 97 56 97Z" stroke="#111827" stroke-width="2"/>
</g>
<g opacity="0.1" filter="url(#filter2_f_1107_4473)">
<path d="M56 81C73.6731 81 88 66.6731 88 49C88 31.3269 73.6731 17 56 17C38.3269 17 24 31.3269 24 49C24 66.6731 38.3269 81 56 81Z" stroke="#111827" stroke-width="2"/>
</g>
<g opacity="0.1" filter="url(#filter3_f_1107_4473)">
<path d="M55.5 72C68.4787 72 79 61.4787 79 48.5C79 35.5213 68.4787 25 55.5 25C42.5213 25 32 35.5213 32 48.5C32 61.4787 42.5213 72 55.5 72Z" stroke="#111827" stroke-width="1.46875"/>
</g>
</g>
<path d="M33.25 24V26.25M39.084 26.416L37.493 28.007M41.5 32.25H39.25M29.007 36.493L27.417 38.083M27.25 32.25H25M29.007 28.007L27.417 26.417" stroke="#4F46E5" stroke-width="1.5" stroke-linecap="round" stroke-linejoin="round"/>
<g opacity="0.3" filter="url(#filter4_f_1107_4473)">
<path d="M33.9912 62H79.4912L87.7878 45.407C89.9487 41.0849 86.806 36 81.974 36H31.5084C26.6764 36 23.5337 41.0849 25.6946 45.407L33.9912 62Z" fill="#4F46E5"/>
</g>
<path d="M32.3438 61.2188C32.3438 62.6936 33.5408 63.8906 35.0156 63.8906H75.9844C77.4592 63.8906 78.6562 62.6936 78.6562 61.2188" stroke="#F5F6FF" stroke-width="2.71429" stroke-linecap="round" stroke-linejoin="round"/>
<path d="M66.1875 33.25V35.0312V33.25ZM66.1875 42.1562V43.9375V42.1562ZM66.1875 51.0625V52.8438V51.0625ZM66.1875 59.9687V61.75V59.9687ZM44.8125 49.2812H57.2812H44.8125ZM44.8125 54.625H51.9375H44.8125ZM35.0156 31.4688C33.5407 31.4688 32.3438 32.6657 32.3438 34.1406V41.3274C33.4285 41.9519 34.3295 42.8514 34.9561 43.935C35.5826 45.0187 35.9124 46.2483 35.9124 47.5C35.9124 48.7517 35.5826 49.9813 34.9561 51.065C34.3295 52.1486 33.4285 53.0481 32.3438 53.6726V60.8594C32.3438 62.3342 33.5407 63.5312 35.0156 63.5312H75.9844C77.4592 63.5312 78.6562 62.3342 78.6562 60.8594V53.6726C77.5715 53.0481 76.6705 52.1486 76.0439 51.065C75.4174 49.9813 75.0876 48.7517 75.0876 47.5C75.0876 46.2483 75.4174 45.0187 76.0439 43.935C76.6705 42.8514 77.5715 41.9519 78.6562 41.3274V34.1406C78.6562 32.6657 77.4592 31.4688 75.9844 31.4688H35.0156Z" fill="white"/>
<path d="M66.1875 33.25V35.0312M66.1875 42.1562V43.9375M66.1875 51.0625V52.8437M66.1875 59.9687V61.75M44.8125 49.2812H57.2812M44.8125 54.625H51.9375M35.0156 31.4688C33.5407 31.4688 32.3438 32.6657 32.3438 34.1406V41.3274C33.4285 41.9519 34.3295 42.8514 34.9561 43.935C35.5826 45.0187 35.9124 46.2483 35.9124 47.5C35.9124 48.7517 35.5826 49.9813 34.9561 51.065C34.3295 52.1486 33.4285 53.0481 32.3438 53.6726V60.8594C32.3438 62.3342 33.5407 63.5312 35.0156 63.5312H75.9844C77.4592 63.5312 78.6562 62.3342 78.6562 60.8594V53.6726C77.5715 53.0481 76.6705 52.1486 76.0439 51.065C75.4174 49.9813 75.0876 48.7517 75.0876 47.5C75.0876 46.2483 75.4174 45.0187 76.0439 43.935C76.6705 42.8514 77.5715 41.9519 78.6562 41.3274V34.1406C78.6562 32.6657 77.4592 31.4688 75.9844 31.4688H35.0156Z" stroke="#E6E8EB" stroke-width="1.5" stroke-linecap="round" stroke-linejoin="round"/>
<path d="M66.1875 32.2188V35.0337V32.2188ZM66.1875 42.1587V43.9399V42.1587ZM66.1875 51.0649V52.8462V51.0649ZM66.1875 59.9712V62.7831V59.9712ZM44.8125 49.2837H57.2812H44.8125ZM44.8125 54.6274H51.9375H44.8125Z" fill="white"/>
<path d="M64.8304 35.0337C64.8304 35.7832 65.438 36.3908 66.1875 36.3908C66.937 36.3908 67.5446 35.7832 67.5446 35.0337H64.8304ZM67.5446 42.1587C67.5446 41.4092 66.937 40.8016 66.1875 40.8016C65.438 40.8016 64.8304 41.4092 64.8304 42.1587H67.5446ZM64.8304 43.9399C64.8304 44.6895 65.438 45.2971 66.1875 45.2971C66.937 45.2971 67.5446 44.6895 67.5446 43.9399H64.8304ZM67.5446 51.0649C67.5446 50.3154 66.937 49.7078 66.1875 49.7078C65.438 49.7078 64.8304 50.3154 64.8304 51.0649H67.5446ZM64.8304 52.8462C64.8304 53.5957 65.438 54.2033 66.1875 54.2033C66.937 54.2033 67.5446 53.5957 67.5446 52.8462H64.8304ZM67.5446 59.9712C67.5446 59.2217 66.937 58.6141 66.1875 58.6141C65.438 58.6141 64.8304 59.2217 64.8304 59.9712H67.5446ZM44.8125 47.9266C44.063 47.9266 43.4554 48.5342 43.4554 49.2837C43.4554 50.0332 44.063 50.6408 44.8125 50.6408V47.9266ZM57.2812 50.6408C58.0308 50.6408 58.6384 50.0332 58.6384 49.2837C58.6384 48.5342 58.0308 47.9266 57.2812 47.9266V50.6408ZM44.8125 53.2703C44.063 53.2703 43.4554 53.8779 43.4554 54.6274C43.4554 55.377 44.063 55.9846 44.8125 55.9846V53.2703ZM51.9375 55.9846C52.687 55.9846 53.2946 55.377 53.2946 54.6274C53.2946 53.8779 52.687 53.2703 51.9375 53.2703V55.9846ZM64.8304 32.2188V35.0337H67.5446V32.2188H64.8304ZM64.8304 42.1587V43.9399H67.5446V42.1587H64.8304ZM64.8304 51.0649V52.8462H67.5446V51.0649H64.8304ZM64.8304 59.9712V62.7831H67.5446V59.9712H64.8304ZM44.8125 50.6408H57.2812V47.9266H44.8125V50.6408ZM44.8125 55.9846H51.9375V53.2703H44.8125V55.9846Z" fill="#4F46E5"/>
<defs>
<filter id="filter0_f_1107_4473" x="14.5" y="7.5" width="83" height="83" filterUnits="userSpaceOnUse" color-interpolation-filters="sRGB">
<feFlood flood-opacity="0" result="BackgroundImageFix"/>
<feBlend mode="normal" in="SourceGraphic" in2="BackgroundImageFix" result="shape"/>
<feGaussianBlur stdDeviation="0.25" result="effect1_foregroundBlur_1107_4473"/>
</filter>
<filter id="filter1_f_1107_4473" x="6.5" y="-0.5" width="99" height="99" filterUnits="userSpaceOnUse" color-interpolation-filters="sRGB">
<feFlood flood-opacity="0" result="BackgroundImageFix"/>
<feBlend mode="normal" in="SourceGraphic" in2="BackgroundImageFix" result="shape"/>
<feGaussianBlur stdDeviation="0.25" result="effect1_foregroundBlur_1107_4473"/>
</filter>
<filter id="filter2_f_1107_4473" x="22.5" y="15.5" width="67" height="67" filterUnits="userSpaceOnUse" color-interpolation-filters="sRGB">
<feFlood flood-opacity="0" result="BackgroundImageFix"/>
<feBlend mode="normal" in="SourceGraphic" in2="BackgroundImageFix" result="shape"/>
<feGaussianBlur stdDeviation="0.25" result="effect1_foregroundBlur_1107_4473"/>
</filter>
<filter id="filter3_f_1107_4473" x="30.8984" y="23.8984" width="49.2031" height="49.2031" filterUnits="userSpaceOnUse" color-interpolation-filters="sRGB">
<feFlood flood-opacity="0" result="BackgroundImageFix"/>
<feBlend mode="normal" in="SourceGraphic" in2="BackgroundImageFix" result="shape"/>
<feGaussianBlur stdDeviation="0.183594" result="effect1_foregroundBlur_1107_4473"/>
</filter>
<filter id="filter4_f_1107_4473" x="5.5" y="16.5" width="102.484" height="65" filterUnits="userSpaceOnUse" color-interpolation-filters="sRGB">
<feFlood flood-opacity="0" result="BackgroundImageFix"/>
<feBlend mode="normal" in="SourceGraphic" in2="BackgroundImageFix" result="shape"/>
<feGaussianBlur stdDeviation="9.75" result="effect1_foregroundBlur_1107_4473"/>
</filter>
<radialGradient id="paint0_radial_1107_4473" cx="0" cy="0" r="1" gradientUnits="userSpaceOnUse" gradientTransform="translate(56 48) rotate(90) scale(69 72.9204)">
<stop offset="0.231884" stop-color="#C4C4C4"/>
<stop offset="0.724638" stop-color="#C4C4C4" stop-opacity="0"/>
</radialGradient>
</defs>
</svg>
