<svg width="112" height="96" viewBox="0 0 112 96" fill="none" xmlns="http://www.w3.org/2000/svg">
<mask id="mask0_1106_4402" style="mask-type:alpha" maskUnits="userSpaceOnUse" x="4" y="4" width="104" height="88">
<path d="M108 4H4V92H108V4Z" fill="url(#paint0_radial_1106_4402)"/>
</mask>
<g mask="url(#mask0_1106_4402)">
<g opacity="0.1" filter="url(#filter0_f_1106_4402)">
<path d="M56 89C78.0914 89 96 71.0914 96 49C96 26.9086 78.0914 9 56 9C33.9086 9 16 26.9086 16 49C16 71.0914 33.9086 89 56 89Z" stroke="#111827" stroke-width="2"/>
</g>
<g opacity="0.1" filter="url(#filter1_f_1106_4402)">
<path d="M56 97C82.5097 97 104 75.5097 104 49C104 22.4903 82.5097 1 56 1C29.4903 1 8 22.4903 8 49C8 75.5097 29.4903 97 56 97Z" stroke="#111827" stroke-width="2"/>
</g>
<g opacity="0.1" filter="url(#filter2_f_1106_4402)">
<path d="M56 81C73.6731 81 88 66.6731 88 49C88 31.3269 73.6731 17 56 17C38.3269 17 24 31.3269 24 49C24 66.6731 38.3269 81 56 81Z" stroke="#111827" stroke-width="2"/>
</g>
<g opacity="0.1" filter="url(#filter3_f_1106_4402)">
<path d="M55.5 72C68.4787 72 79 61.4787 79 48.5C79 35.5213 68.4787 25 55.5 25C42.5213 25 32 35.5213 32 48.5C32 61.4787 42.5213 72 55.5 72Z" stroke="#111827" stroke-width="1.46875"/>
</g>
</g>
<g opacity="0.3" filter="url(#filter4_f_1106_4402)">
<path d="M42.0018 73H70.0018L75.1074 62.7889C76.4372 60.1292 74.5032 57 71.5297 57H40.4739C37.5004 57 35.5664 60.1292 36.8962 62.7889L42.0018 73Z" fill="#4F46E5"/>
</g>
<path d="M50.75 50.9402L61.25 40.4402L50.75 50.9402ZM69.125 34.3274V59.6341C69.125 61.7565 66.9814 63.2077 65.0108 62.4195L63.6767 61.8858C62.9614 61.5997 62.1636 61.5997 61.4483 61.8858L57.1142 63.6195C56.3989 63.9056 55.6011 63.9056 54.8858 63.6195L50.5517 61.8858C49.8364 61.5997 49.0386 61.5997 48.3233 61.8858L46.9892 62.4195C45.0186 63.2077 42.875 61.7565 42.875 59.6341V34.3274C42.875 32.3884 44.2855 30.7277 46.2123 30.5037C52.7156 29.7488 59.2844 29.7488 65.7878 30.5037C67.7127 30.7277 69.125 32.3884 69.125 34.3274ZM52.0625 41.7597C52.0625 41.7558 52.0656 41.7527 52.0695 41.7527C52.0734 41.7527 52.0765 41.7558 52.0765 41.7597C52.0765 41.7635 52.0734 41.7667 52.0695 41.7667C52.0656 41.7667 52.0625 41.7635 52.0625 41.7597ZM52.7188 41.7527C52.7188 41.9267 52.6496 42.0936 52.5265 42.2167C52.4035 42.3398 52.2365 42.4089 52.0625 42.4089C51.8885 42.4089 51.7215 42.3398 51.5985 42.2167C51.4754 42.0936 51.4062 41.9267 51.4062 41.7527C51.4062 41.5786 51.4754 41.4117 51.5985 41.2886C51.7215 41.1656 51.8885 41.0964 52.0625 41.0964C52.2365 41.0964 52.4035 41.1656 52.5265 41.2886C52.6496 41.4117 52.7188 41.5786 52.7188 41.7527ZM59.9375 49.6347C59.9375 49.6308 59.9406 49.6277 59.9445 49.6277C59.9484 49.6277 59.9515 49.6308 59.9515 49.6347C59.9515 49.6385 59.9484 49.6417 59.9445 49.6417C59.9406 49.6417 59.9375 49.6385 59.9375 49.6347ZM60.5938 49.6277C60.5938 49.8017 60.5246 49.9686 60.4015 50.0917C60.2785 50.2148 60.1115 50.2839 59.9375 50.2839C59.7635 50.2839 59.5965 50.2148 59.4735 50.0917C59.3504 49.9686 59.2812 49.8017 59.2812 49.6277C59.2812 49.4536 59.3504 49.2867 59.4735 49.1636C59.5965 49.0406 59.7635 48.9714 59.9375 48.9714C60.1115 48.9714 60.2785 49.0406 60.4015 49.1636C60.5246 49.2867 60.5938 49.4536 60.5938 49.6277Z" fill="white"/>
<path d="M50.75 50.9402L61.25 40.4402M69.125 34.3274V59.6341C69.125 61.7565 66.9814 63.2077 65.0108 62.4195L63.6767 61.8858C62.9614 61.5997 62.1636 61.5997 61.4483 61.8858L57.1142 63.6195C56.3989 63.9056 55.6011 63.9056 54.8858 63.6195L50.5517 61.8858C49.8364 61.5997 49.0386 61.5997 48.3233 61.8858L46.9892 62.4195C45.0186 63.2077 42.875 61.7565 42.875 59.6341V34.3274C42.875 32.3884 44.2855 30.7277 46.2123 30.5037C52.7156 29.7488 59.2844 29.7488 65.7878 30.5037C67.7128 30.7277 69.125 32.3884 69.125 34.3274ZM52.7188 41.7527C52.7188 41.9267 52.6496 42.0936 52.5265 42.2167C52.4035 42.3398 52.2365 42.4089 52.0625 42.4089C51.8885 42.4089 51.7215 42.3398 51.5985 42.2167C51.4754 42.0936 51.4062 41.9267 51.4062 41.7527C51.4062 41.5786 51.4754 41.4117 51.5985 41.2886C51.7215 41.1656 51.8885 41.0964 52.0625 41.0964C52.2365 41.0964 52.4035 41.1656 52.5265 41.2886C52.6496 41.4117 52.7188 41.5786 52.7188 41.7527ZM60.5938 49.6277C60.5938 49.8017 60.5246 49.9686 60.4015 50.0917C60.2785 50.2148 60.1115 50.2839 59.9375 50.2839C59.7635 50.2839 59.5965 50.2148 59.4735 50.0917C59.3504 49.9686 59.2812 49.8017 59.2812 49.6277C59.2812 49.4536 59.3504 49.2867 59.4735 49.1636C59.5965 49.0406 59.7635 48.9714 59.9375 48.9714C60.1115 48.9714 60.2785 49.0406 60.4015 49.1636C60.5246 49.2867 60.5938 49.4536 60.5938 49.6277ZM59.9515 49.6347V49.6347C59.9515 49.6308 59.9484 49.6277 59.9445 49.6277V49.6277C59.9406 49.6277 59.9375 49.6308 59.9375 49.6347V49.6347C59.9375 49.6385 59.9406 49.6417 59.9445 49.6417V49.6417C59.9484 49.6417 59.9515 49.6385 59.9515 49.6347ZM52.0765 41.7597V41.7597C52.0765 41.7558 52.0734 41.7527 52.0695 41.7527V41.7527C52.0656 41.7527 52.0625 41.7558 52.0625 41.7597V41.7597C52.0625 41.7635 52.0656 41.7667 52.0695 41.7667V41.7667C52.0734 41.7667 52.0765 41.7635 52.0765 41.7597Z" stroke="#CECFD9" stroke-width="1.5" stroke-linecap="round" stroke-linejoin="round"/>
<path d="M39.4802 21.4973C39.5225 21.3941 39.5945 21.3058 39.6871 21.2437C39.7797 21.1816 39.8887 21.1484 40.0002 21.1484C40.1117 21.1484 40.2206 21.1816 40.3132 21.2437C40.4058 21.3058 40.4779 21.3941 40.5202 21.4973L42.6452 26.6083C42.6849 26.7039 42.7503 26.7867 42.8341 26.8476C42.9179 26.9084 43.0169 26.945 43.1202 26.9533L48.6382 27.3953C49.1372 27.4353 49.3392 28.0583 48.9592 28.3833L44.7552 31.9853C44.6766 32.0525 44.6181 32.14 44.586 32.2382C44.5539 32.3365 44.5494 32.4417 44.5732 32.5423L45.8582 37.9273C45.884 38.0353 45.8772 38.1486 45.8387 38.2528C45.8002 38.357 45.7317 38.4474 45.6418 38.5127C45.5519 38.5779 45.4447 38.6151 45.3337 38.6195C45.2227 38.6239 45.1129 38.5953 45.0182 38.5373L40.2932 35.6523C40.2049 35.5984 40.1036 35.5698 40.0002 35.5698C39.8968 35.5698 39.7954 35.5984 39.7072 35.6523L34.9822 38.5383C34.8874 38.5963 34.7776 38.6249 34.6666 38.6205C34.5556 38.6161 34.4484 38.5789 34.3585 38.5137C34.2686 38.4484 34.2001 38.358 34.1616 38.2538C34.1231 38.1496 34.1163 38.0363 34.1422 37.9283L35.4272 32.5423C35.451 32.4417 35.4466 32.3364 35.4145 32.2382C35.3824 32.1399 35.3238 32.0524 35.2452 31.9853L31.0412 28.3833C30.9565 28.3111 30.8952 28.2154 30.8649 28.1084C30.8347 28.0013 30.8369 27.8877 30.8713 27.7819C30.9056 27.6761 30.9706 27.5829 31.058 27.5141C31.1454 27.4452 31.2513 27.4039 31.3622 27.3953L36.8802 26.9533C36.9834 26.945 37.0824 26.9084 37.1662 26.8476C37.25 26.7867 37.3154 26.7039 37.3552 26.6083L39.4802 21.4973Z" fill="#4F46E5" stroke="#4F46E5" stroke-width="1.5" stroke-linecap="round" stroke-linejoin="round"/>
<defs>
<filter id="filter0_f_1106_4402" x="14.5" y="7.5" width="83" height="83" filterUnits="userSpaceOnUse" color-interpolation-filters="sRGB">
<feFlood flood-opacity="0" result="BackgroundImageFix"/>
<feBlend mode="normal" in="SourceGraphic" in2="BackgroundImageFix" result="shape"/>
<feGaussianBlur stdDeviation="0.25" result="effect1_foregroundBlur_1106_4402"/>
</filter>
<filter id="filter1_f_1106_4402" x="6.5" y="-0.5" width="99" height="99" filterUnits="userSpaceOnUse" color-interpolation-filters="sRGB">
<feFlood flood-opacity="0" result="BackgroundImageFix"/>
<feBlend mode="normal" in="SourceGraphic" in2="BackgroundImageFix" result="shape"/>
<feGaussianBlur stdDeviation="0.25" result="effect1_foregroundBlur_1106_4402"/>
</filter>
<filter id="filter2_f_1106_4402" x="22.5" y="15.5" width="67" height="67" filterUnits="userSpaceOnUse" color-interpolation-filters="sRGB">
<feFlood flood-opacity="0" result="BackgroundImageFix"/>
<feBlend mode="normal" in="SourceGraphic" in2="BackgroundImageFix" result="shape"/>
<feGaussianBlur stdDeviation="0.25" result="effect1_foregroundBlur_1106_4402"/>
</filter>
<filter id="filter3_f_1106_4402" x="30.8984" y="23.8984" width="49.2031" height="49.2031" filterUnits="userSpaceOnUse" color-interpolation-filters="sRGB">
<feFlood flood-opacity="0" result="BackgroundImageFix"/>
<feBlend mode="normal" in="SourceGraphic" in2="BackgroundImageFix" result="shape"/>
<feGaussianBlur stdDeviation="0.183594" result="effect1_foregroundBlur_1106_4402"/>
</filter>
<filter id="filter4_f_1106_4402" x="24.4688" y="45" width="63.0625" height="40" filterUnits="userSpaceOnUse" color-interpolation-filters="sRGB">
<feFlood flood-opacity="0" result="BackgroundImageFix"/>
<feBlend mode="normal" in="SourceGraphic" in2="BackgroundImageFix" result="shape"/>
<feGaussianBlur stdDeviation="6" result="effect1_foregroundBlur_1106_4402"/>
</filter>
<radialGradient id="paint0_radial_1106_4402" cx="0" cy="0" r="1" gradientUnits="userSpaceOnUse" gradientTransform="translate(56 48) rotate(90) scale(69 72.9204)">
<stop offset="0.231884" stop-color="#C4C4C4"/>
<stop offset="0.724638" stop-color="#C4C4C4" stop-opacity="0"/>
</radialGradient>
</defs>
</svg>
