<svg width="112" height="96" viewBox="0 0 112 96" fill="none" xmlns="http://www.w3.org/2000/svg">
<mask id="mask0_1106_4143" style="mask-type:alpha" maskUnits="userSpaceOnUse" x="4" y="4" width="104" height="88">
<path d="M108 4H4V92H108V4Z" fill="url(#paint0_radial_1106_4143)"/>
</mask>
<g mask="url(#mask0_1106_4143)">
<g opacity="0.1" filter="url(#filter0_f_1106_4143)">
<path d="M56 89C78.0914 89 96 71.0914 96 49C96 26.9086 78.0914 9 56 9C33.9086 9 16 26.9086 16 49C16 71.0914 33.9086 89 56 89Z" stroke="#111827" stroke-width="2"/>
</g>
<g opacity="0.1" filter="url(#filter1_f_1106_4143)">
<path d="M56 97C82.5097 97 104 75.5097 104 49C104 22.4903 82.5097 1 56 1C29.4903 1 8 22.4903 8 49C8 75.5097 29.4903 97 56 97Z" stroke="#111827" stroke-width="2"/>
</g>
<g opacity="0.1" filter="url(#filter2_f_1106_4143)">
<path d="M56 81C73.6731 81 88 66.6731 88 49C88 31.3269 73.6731 17 56 17C38.3269 17 24 31.3269 24 49C24 66.6731 38.3269 81 56 81Z" stroke="#111827" stroke-width="2"/>
</g>
<g opacity="0.1" filter="url(#filter3_f_1106_4143)">
<path d="M56 73C69.2548 73 80 62.2548 80 49C80 35.7452 69.2548 25 56 25C42.7452 25 32 35.7452 32 49C32 62.2548 42.7452 73 56 73Z" stroke="#111827" stroke-width="2"/>
</g>
<g opacity="0.1" filter="url(#filter4_f_1106_4143)">
<path d="M56 65C64.8366 65 72 57.8366 72 49C72 40.1634 64.8366 33 56 33C47.1634 33 40 40.1634 40 49C40 57.8366 47.1634 65 56 65Z" stroke="#111827" stroke-width="2"/>
</g>
</g>
<g opacity="0.2" filter="url(#filter5_f_1106_4143)">
<path d="M41.4075 28.6547C41.7865 28.2377 42.3238 28 42.8873 28H49.2681C49.7423 28 50.201 28.1685 50.5625 28.4754L53.1742 30.6928C54.7363 32.372 57.2689 32.372 58.831 30.6928L61.4427 28.4754C61.8042 28.1685 62.2629 28 62.7371 28H69.1179C69.6813 28 70.2187 28.2377 70.5977 28.6547L77.9373 36.7282C78.9096 37.7977 78.4612 39.5138 77.0899 39.9709L72.2313 41.5904C71.4837 41.8396 70.9521 42.5046 70.8737 43.2888L70.0926 51.1001C70.0354 51.6721 69.7346 52.1915 69.24 52.4845C67.4427 53.5495 62.5913 56 56.0026 56C49.4139 56 44.5625 53.5495 42.7652 52.4845C42.2706 52.1915 41.9698 51.6721 41.9126 51.1001L41.1315 43.2888C41.0531 42.5046 40.5215 41.8396 39.7739 41.5904L34.9153 39.9709C33.544 39.5138 33.0956 37.7977 34.0679 36.7282L41.4075 28.6547Z" fill="#4F46E5"/>
</g>
<path d="M53 40L70.5 40.5L71 56L51 58.5L53 40Z" fill="white"/>
<path d="M70.2313 46.2625C70.6277 46.2625 71.0202 46.1844 71.3865 46.0327C71.7527 45.881 72.0855 45.6586 72.3658 45.3783C72.6461 45.098 72.8685 44.7652 73.0202 44.399C73.1719 44.0327 73.25 43.6402 73.25 43.2438C73.25 42.8473 73.1719 42.4548 73.0202 42.0885C72.8685 41.7223 72.6461 41.3895 72.3658 41.1092C72.0855 40.8289 71.7527 40.6065 71.3865 40.4548C71.0202 40.3031 70.6277 40.225 70.2313 40.225H64.4813M70.2313 46.2625H73.1063C73.9069 46.2625 74.6747 46.5805 75.2408 47.1467C75.807 47.7128 76.125 48.4806 76.125 49.2812C76.125 50.0819 75.807 50.8497 75.2408 51.4158C74.6747 51.982 73.9069 52.3 73.1063 52.3H70.2313M70.2313 46.2625L58.875 46.4062L70.2313 46.2625ZM57.4375 52.3H70.2313H57.4375ZM70.2313 52.3C71.0319 52.3 71.7997 52.618 72.3658 53.1842C72.932 53.7503 73.25 54.5181 73.25 55.3187C73.25 56.1194 72.932 56.8872 72.3658 57.4533C71.7997 58.0195 71.0319 58.3375 70.2313 58.3375H50.25M64.4813 40.225C65.2819 40.225 66.0497 39.907 66.6158 39.3408C67.182 38.7747 67.5 38.0069 67.5 37.2062C67.5 36.4056 67.182 35.6378 66.6158 35.0717C66.0497 34.5055 65.2819 34.1875 64.4813 34.1875H48.8125C45.3813 34.1875 42.0906 35.5506 39.6643 37.9768C37.2381 40.4031 35.875 43.6938 35.875 47.125V50.9928C35.8753 53.6615 36.9357 56.2207 38.8228 58.1075L42.1425 61.4272C44.0293 63.3143 46.5885 64.3747 49.2572 64.375L53.1365 64.3808C53.4758 64.3826 53.8005 64.5191 54.0393 64.7603C54.3196 65.0406 54.6525 65.2631 55.0189 65.4148C55.3852 65.5666 55.7779 65.6447 56.1744 65.6447C56.571 65.6447 56.9636 65.5666 57.33 65.4148C57.6963 65.2631 58.0292 65.0406 58.3096 64.7603C58.59 64.4799 58.8124 64.147 58.9641 63.7806C59.1159 63.4143 59.194 63.0216 59.194 62.6251C59.194 62.2285 59.1159 61.8359 58.9641 61.4695C58.8124 61.1032 58.59 60.7703 58.3096 60.4899C56.9438 59.1223 55.0923 58.3506 53.1595 58.3433M64.4813 40.225H56H64.4813ZM47.7238 52.2425C48.5251 53.0423 49.1607 53.9924 49.5942 55.0383C50.0277 56.0842 50.2506 57.2053 50.25 58.3375M50.25 58.3413V58.3375V58.3413Z" fill="white"/>
<path d="M70.2313 46.2625C70.6277 46.2625 71.0202 46.1844 71.3865 46.0327C71.7527 45.881 72.0855 45.6586 72.3658 45.3783C72.6461 45.098 72.8685 44.7652 73.0202 44.399C73.1719 44.0327 73.25 43.6402 73.25 43.2438C73.25 42.8473 73.1719 42.4548 73.0202 42.0885C72.8685 41.7223 72.6461 41.3895 72.3658 41.1092C72.0855 40.8289 71.7527 40.6065 71.3865 40.4548C71.0202 40.3031 70.6277 40.225 70.2313 40.225H64.4813M70.2313 46.2625H73.1062C73.9069 46.2625 74.6747 46.5805 75.2408 47.1467C75.807 47.7128 76.125 48.4806 76.125 49.2812C76.125 50.0819 75.807 50.8497 75.2408 51.4158C74.6747 51.982 73.9069 52.3 73.1062 52.3H70.2313M70.2313 46.2625L58.875 46.4062M64.4813 40.225C65.2819 40.225 66.0497 39.907 66.6158 39.3408C67.182 38.7747 67.5 38.0069 67.5 37.2062C67.5 36.4056 67.182 35.6378 66.6158 35.0717C66.0497 34.5055 65.2819 34.1875 64.4813 34.1875H48.8125C45.3813 34.1875 42.0906 35.5506 39.6643 37.9768C37.2381 40.4031 35.875 43.6938 35.875 47.125V50.9928C35.8753 53.6615 36.9357 56.2207 38.8228 58.1075L42.1425 61.4272C44.0293 63.3143 46.5885 64.3747 49.2572 64.375L53.1365 64.3807C53.4758 64.3826 53.8005 64.5191 54.0393 64.7602C54.3196 65.0406 54.6525 65.2631 55.0189 65.4148C55.3852 65.5666 55.7779 65.6447 56.1744 65.6447C56.571 65.6447 56.9636 65.5666 57.33 65.4148C57.6963 65.2631 58.0292 65.0406 58.3096 64.7602C58.59 64.4799 58.8124 64.147 58.9641 63.7806C59.1159 63.4143 59.194 63.0216 59.194 62.6251C59.194 62.2285 59.1159 61.8359 58.9641 61.4695C58.8124 61.1032 58.59 60.7703 58.3096 60.4899C56.9438 59.1223 55.0923 58.3506 53.1595 58.3433M64.4813 40.225H56M70.2313 52.3H57.4375M70.2313 52.3C71.0319 52.3 71.7997 52.618 72.3658 53.1842C72.932 53.7503 73.25 54.5181 73.25 55.3187C73.25 56.1194 72.932 56.8872 72.3658 57.4533C71.7997 58.0195 71.0319 58.3375 70.2313 58.3375H50.25M50.25 58.3375C50.2506 57.2053 50.0277 56.0842 49.5942 55.0383C49.1607 53.9924 48.5251 53.0423 47.7238 52.2425M50.25 58.3375V58.3413" stroke="#CECFD9" stroke-linecap="round" stroke-linejoin="round"/>
<path d="M87.1497 75C83.6726 78.9946 79.2205 82.1182 74.1641 84" stroke="#4F46E5" stroke-width="2" stroke-linecap="round"/>
<path d="M80.7761 74.8231L87.4638 73.337C88.1783 73.1782 88.8157 73.8156 88.6569 74.5301L87.1708 81.2178C86.9996 81.9881 86.0454 82.266 85.4875 81.708L80.2859 76.5064C79.7279 75.9485 80.0058 74.9943 80.7761 74.8231Z" fill="#4F46E5"/>
<path d="M30.0156 20C33.4927 16.0054 37.9448 12.8818 43.0012 11" stroke="#4F46E5" stroke-width="2" stroke-linecap="round"/>
<path d="M36.3819 20.1708L29.6942 21.6569C28.9797 21.8157 28.3423 21.1783 28.5011 20.4638L29.9872 13.7761C30.1584 13.0058 31.1126 12.7279 31.6705 13.2859L36.8721 18.4875C37.4301 19.0454 37.1522 19.9996 36.3819 20.1708Z" fill="#4F46E5"/>
<defs>
<filter id="filter0_f_1106_4143" x="14.5" y="7.5" width="83" height="83" filterUnits="userSpaceOnUse" color-interpolation-filters="sRGB">
<feFlood flood-opacity="0" result="BackgroundImageFix"/>
<feBlend mode="normal" in="SourceGraphic" in2="BackgroundImageFix" result="shape"/>
<feGaussianBlur stdDeviation="0.25" result="effect1_foregroundBlur_1106_4143"/>
</filter>
<filter id="filter1_f_1106_4143" x="6.5" y="-0.5" width="99" height="99" filterUnits="userSpaceOnUse" color-interpolation-filters="sRGB">
<feFlood flood-opacity="0" result="BackgroundImageFix"/>
<feBlend mode="normal" in="SourceGraphic" in2="BackgroundImageFix" result="shape"/>
<feGaussianBlur stdDeviation="0.25" result="effect1_foregroundBlur_1106_4143"/>
</filter>
<filter id="filter2_f_1106_4143" x="22.5" y="15.5" width="67" height="67" filterUnits="userSpaceOnUse" color-interpolation-filters="sRGB">
<feFlood flood-opacity="0" result="BackgroundImageFix"/>
<feBlend mode="normal" in="SourceGraphic" in2="BackgroundImageFix" result="shape"/>
<feGaussianBlur stdDeviation="0.25" result="effect1_foregroundBlur_1106_4143"/>
</filter>
<filter id="filter3_f_1106_4143" x="30.5" y="23.5" width="51" height="51" filterUnits="userSpaceOnUse" color-interpolation-filters="sRGB">
<feFlood flood-opacity="0" result="BackgroundImageFix"/>
<feBlend mode="normal" in="SourceGraphic" in2="BackgroundImageFix" result="shape"/>
<feGaussianBlur stdDeviation="0.25" result="effect1_foregroundBlur_1106_4143"/>
</filter>
<filter id="filter4_f_1106_4143" x="38.5" y="31.5" width="35" height="35" filterUnits="userSpaceOnUse" color-interpolation-filters="sRGB">
<feFlood flood-opacity="0" result="BackgroundImageFix"/>
<feBlend mode="normal" in="SourceGraphic" in2="BackgroundImageFix" result="shape"/>
<feGaussianBlur stdDeviation="0.25" result="effect1_foregroundBlur_1106_4143"/>
</filter>
<filter id="filter5_f_1106_4143" x="13.5469" y="8" width="84.9141" height="68" filterUnits="userSpaceOnUse" color-interpolation-filters="sRGB">
<feFlood flood-opacity="0" result="BackgroundImageFix"/>
<feBlend mode="normal" in="SourceGraphic" in2="BackgroundImageFix" result="shape"/>
<feGaussianBlur stdDeviation="10" result="effect1_foregroundBlur_1106_4143"/>
</filter>
<radialGradient id="paint0_radial_1106_4143" cx="0" cy="0" r="1" gradientUnits="userSpaceOnUse" gradientTransform="translate(56 48) rotate(90) scale(69 72.9204)">
<stop offset="0.231884" stop-color="#C4C4C4"/>
<stop offset="0.724638" stop-color="#C4C4C4" stop-opacity="0"/>
</radialGradient>
</defs>
</svg>
