<svg width="28" height="25" viewBox="0 0 28 25" fill="none" xmlns="http://www.w3.org/2000/svg">
<path d="M7.43246 1.98061C5.6061 2.00563 5.08696 3.5547 5.05569 4.3261V10.9561H3.0542V4.3261C3.17234 2.76593 4.20089 -6.53281e-06 7.43246 0C10.664 6.53282e-06 11.6856 3.00221 11.8003 4.3261H9.93432C9.86135 3.53385 9.25882 1.95559 7.43246 1.98061Z" fill="#8254f8"/>
<path d="M1.48047 14.8828H26.4991V18.448C26.4991 21.9023 23.6988 24.7026 20.2444 24.7026H7.73512C4.28077 24.7026 1.48047 21.9023 1.48047 18.448V14.8828Z" fill="#8254f8"/>
<path d="M0 11.9356C0 11.3887 0.443382 10.9453 0.99032 10.9453H27.0097C27.5566 10.9453 28 11.3887 28 11.9356V11.9356C28 12.4826 27.5566 12.926 27.0097 12.926H0.99032C0.443381 12.926 0 12.4826 0 11.9356V11.9356Z" fill="#8254f8"/>
<path d="M7.88086 7.04157C7.88086 5.46531 9.15867 4.1875 10.7349 4.1875H11.0104C12.5867 4.1875 13.8645 5.46531 13.8645 7.04157V7.04157C13.8645 7.08885 13.8261 7.12719 13.7789 7.12719H7.96648C7.91919 7.12719 7.88086 7.08885 7.88086 7.04157V7.04157Z" fill="#8254f8"/>
</svg>
