<svg width="28" height="27" viewBox="0 0 28 27" fill="none" xmlns="http://www.w3.org/2000/svg">
<path d="M22.642 20.766V19.0662C22.642 18.8191 22.5318 18.5848 22.3415 18.4272L12.9409 10.6396C12.5424 10.3095 11.9652 10.3099 11.5672 10.6406L2.19552 18.4272C2.00576 18.5849 1.896 18.8188 1.896 19.0655V20.766C1.896 24.1609 4.64809 26.913 8.04296 26.913H16.495C19.8899 26.913 22.642 24.1609 22.642 20.766Z" fill="#8254f8"/>
<rect x="9.45703" y="17.043" width="6.05475" height="6.42357" rx="0.338083" fill="white"/>
<rect y="14.9102" width="16.7668" height="2.33584" rx="1.16792" transform="rotate(-42.2154 0 14.9102)" fill="#8254f8"/>
<path d="M11.5813 6.16112L22.2565 15.8476C22.7342 16.2811 23.4728 16.2452 23.9063 15.7675C24.3397 15.2898 24.3039 14.5512 23.8262 14.1178L22.4729 12.8898L22.4729 7.77787C22.4729 6.92916 21.7849 6.24114 20.9362 6.24114L20.844 6.24114C19.9953 6.24114 19.3072 6.92916 19.3072 7.77788L19.3072 10.0174L13.1509 4.43127C12.6733 3.99782 11.9346 4.03369 11.5012 4.51137C11.0677 4.98906 11.1036 5.72768 11.5813 6.16112Z" fill="#8254f8"/>
</svg>
