<svg width="29" height="25" viewBox="0 0 29 25" fill="none" xmlns="http://www.w3.org/2000/svg">
<path d="M13.4486 0.583296C13.8363 0.248039 14.4108 0.246852 14.7998 0.580504L26.2416 10.3945C26.971 11.0201 26.5286 12.2154 25.5676 12.2154H2.77931C1.82051 12.2154 1.37693 11.0245 2.10211 10.3972L13.4486 0.583296Z" fill="#8254f8"/>
<path d="M3.83008 12.1133H10.0672C7.50891 13.1994 8.60955 17.8511 8.34605 22.5008C8.33929 22.6199 8.24224 22.7141 8.12294 22.7174C5.87091 22.7802 4.80396 22.425 3.96557 20.7025C3.87222 20.5107 3.83008 20.2978 3.83008 20.0845V12.1133Z" fill="#8254f8"/>
<path d="M24.6899 12.0859H18.4528C21.0112 13.1747 19.9104 17.8381 20.174 22.4993C20.1807 22.6184 20.2778 22.7126 20.3971 22.7159C22.6496 22.7789 23.7166 22.4227 24.555 20.6949C24.648 20.5034 24.6899 20.2909 24.6899 20.0781V12.0859Z" fill="#8254f8"/>
<path d="M10.4556 15.3487C10.4556 14.634 11.0349 14.0547 11.7496 14.0547H16.7703C17.485 14.0547 18.0643 14.634 18.0643 15.3487V23.6939C18.0643 24.2525 17.4413 24.5852 16.977 24.2747L14.9899 22.9454C14.5557 22.6549 13.9895 22.654 13.5543 22.9431L11.541 24.2808C11.0766 24.5894 10.4556 24.2564 10.4556 23.6988V15.3487Z" fill="#8254f8"/>
</svg>
