<svg width="28" height="19" viewBox="0 0 28 19" fill="none" xmlns="http://www.w3.org/2000/svg">
<path d="M5.89404 10.9055C5.21685 6.61996 2.2391 6.14727 0.452795 6.50961C0.181217 6.5647 0.00559958 6.81923 0.0205371 7.09593C0.327231 12.7772 2.61798 15.3649 3.89187 16.0488C3.9827 16.0976 4.03094 16.2013 4.00286 16.3005C3.74442 17.2134 3.35182 18.7606 3.83483 18.8633C4.30885 18.9642 5.20288 17.3997 5.4288 16.3792C5.45724 16.2508 5.58915 16.1676 5.71312 16.2117C7.09219 16.7021 10.2129 17.9132 13.565 17.9132C16.9562 17.9132 20.934 16.9962 22.6239 16.2398C22.7461 16.1851 22.8888 16.2534 22.9171 16.3842C23.127 17.3571 23.4249 18.8968 24.0278 18.8633C24.629 18.8299 24.3432 16.8048 24.0365 15.8896C23.9954 15.7672 24.0643 15.6304 24.1864 15.5883C26.7645 14.6988 27.754 9.87796 27.9689 7.11336C27.9911 6.82749 27.8041 6.56571 27.523 6.50934C24.0106 5.80514 22.3531 9.01364 21.8949 10.9871C21.8649 11.1161 21.7269 11.1887 21.6058 11.1349C20.1291 10.4782 16.8137 9.01281 13.565 9.23616C10.4006 9.45371 7.52266 10.3422 6.22601 11.0661C6.09199 11.141 5.918 11.0571 5.89404 10.9055Z" fill="#8254f8"/>
<path d="M13.8855 0C8.283 -2.94256e-05 4.86164 2.00176 3.35801 3.67346C3.04216 4.0246 3.32333 4.53875 3.77669 4.67115C5.40803 5.14756 6.54398 6.65966 7.07247 7.69675C7.18581 7.91918 7.40871 8.07028 7.65836 8.07028H8.14212C8.20826 8.07028 8.2733 8.05966 8.33638 8.0398C9.20474 7.7663 11.4065 7.24624 14.0343 7.13161C16.5881 7.0202 18.4923 7.62187 19.261 7.99665C19.3555 8.04269 19.4582 8.07028 19.5632 8.07028H20.2661C20.5134 8.07028 20.7346 7.9209 20.8467 7.70053C21.6756 6.07211 23.039 5.20336 24.1163 4.80038C24.5759 4.62848 24.7951 4.03049 24.4366 3.69546C22.8447 2.20757 19.4792 2.9381e-05 13.8855 0Z" fill="#8254f8"/>
</svg>
