<svg width="28" height="27" viewBox="0 0 28 27" fill="none" xmlns="http://www.w3.org/2000/svg">
<path d="M1.92529 13.7852H26.0022V22.5892C26.0022 24.9419 24.0949 26.8491 21.7422 26.8491H6.18529C3.83256 26.8491 1.92529 24.9419 1.92529 22.5891V13.7852Z" fill="#8254f8"/>
<rect y="11.293" width="27.9897" height="2.84" rx="1.26222" fill="#8254f8"/>
<path d="M13.426 0.534995C13.7447 0.262862 14.2139 0.262861 14.5326 0.534994L27.7252 11.8012H0.233398L13.426 0.534995Z" fill="#8254f8"/>
<path d="M12.7166 9.13648C12.7869 8.71318 13.154 8.40234 13.5835 8.40234H14.4372C14.8667 8.40234 15.2338 8.71318 15.3041 9.13648L15.4204 9.8347C15.4751 10.1658 15.7203 10.4314 16.0296 10.561C16.3405 10.6891 16.6974 10.6719 16.9707 10.4767L17.5463 10.0651C17.7156 9.94408 17.9223 9.88708 18.1297 9.90424C18.3371 9.9214 18.5317 10.0116 18.6788 10.1588L19.2825 10.7633C19.5871 11.0671 19.6261 11.5459 19.3762 11.8958L18.9646 12.4713C18.7694 12.7447 18.7522 13.1008 18.881 13.4117C19.0099 13.7217 19.2754 13.9662 19.6074 14.0209L20.3048 14.138C20.7289 14.2083 21.0389 14.5746 21.0389 15.0041V15.8585C21.0389 16.2881 20.7289 16.6552 20.3048 16.7255L19.6066 16.8418C19.2754 16.8965 19.0099 17.1409 18.881 17.451C18.7522 17.7618 18.7694 18.118 18.9646 18.3913L19.3762 18.9677C19.6261 19.3168 19.5863 19.7956 19.2825 20.1001L18.678 20.7039C18.5309 20.8509 18.3365 20.9409 18.1293 20.9581C17.9221 20.9753 17.7155 20.9184 17.5463 20.7976L16.9699 20.386C16.6966 20.1907 16.3404 20.1736 16.0304 20.3024C15.7196 20.4313 15.4759 20.6968 15.4204 21.028L15.3041 21.7262C15.2338 22.1495 14.8667 22.4603 14.4372 22.4603H13.5827C13.1532 22.4603 12.7869 22.1495 12.7158 21.7262L12.6002 21.028C12.5448 20.6968 12.3003 20.4313 11.9903 20.3016C11.6794 20.1736 11.3233 20.1907 11.05 20.386L10.4736 20.7976C10.1245 21.0475 9.64573 21.0077 9.34114 20.7039L8.73742 20.0994C8.59023 19.9523 8.50002 19.7577 8.48285 19.5503C8.46569 19.3429 8.52269 19.1362 8.6437 18.9669L9.05529 18.3913C9.25054 18.118 9.26772 17.7618 9.13964 17.451C9.01077 17.1409 8.74445 16.8965 8.41331 16.8418L7.7151 16.7247C7.29179 16.6544 6.98096 16.2873 6.98096 15.8585V15.0041C6.98096 14.5746 7.29179 14.2075 7.7151 14.1372L8.41331 14.0209C8.74445 13.9662 9.01077 13.7217 9.13964 13.4117C9.2685 13.1008 9.25132 12.7447 9.05529 12.4713L8.64449 11.895C8.52347 11.7257 8.46647 11.5189 8.48364 11.3116C8.5008 11.1042 8.59101 10.9096 8.7382 10.7625L9.34192 10.1588C9.48901 10.0116 9.68357 9.9214 9.89095 9.90424C10.0983 9.88708 10.3051 9.94408 10.4744 10.0651L11.05 10.4767C11.3233 10.6719 11.6802 10.6891 11.9903 10.5602C12.3003 10.4314 12.5448 10.1658 12.5995 9.8347L12.7166 9.13648Z" fill="white"/>
<path d="M16.354 15.4328C16.354 16.0542 16.1071 16.6502 15.6677 17.0896C15.2283 17.529 14.6324 17.7758 14.011 17.7758C13.3896 17.7758 12.7936 17.529 12.3542 17.0896C11.9148 16.6502 11.668 16.0542 11.668 15.4328C11.668 14.8114 11.9148 14.2155 12.3542 13.7761C12.7936 13.3367 13.3896 13.0898 14.011 13.0898C14.6324 13.0898 15.2283 13.3367 15.6677 13.7761C16.1071 14.2155 16.354 14.8114 16.354 15.4328Z" fill="#8254f8"/>
</svg>
