<svg width="28" height="26" viewBox="0 0 28 26" fill="none" xmlns="http://www.w3.org/2000/svg">
<path d="M12.0116 0.566726C12.3667 0.204263 12.8527 0 13.3601 0H14.272C14.7696 0 15.247 0.196424 15.6005 0.546558L24.7405 9.60024C25.9383 10.7868 25.0981 12.829 23.4121 12.829H4.49145C2.81913 12.829 1.97274 10.8151 3.14298 9.62041L12.0116 0.566726Z" fill="#8254f8"/>
<rect x="2.90137" y="14.7539" width="22.1273" height="10.8714" rx="1.88764" fill="#8254f8"/>
<path d="M11.8245 23.8516V17.7297H14.4743C15.0224 17.7297 15.4946 17.8201 15.8911 18.0008C16.2876 18.1757 16.5937 18.4294 16.8094 18.7617C17.0251 19.094 17.133 19.4905 17.133 19.9511C17.133 20.4058 17.0251 20.7994 16.8094 21.1317C16.5937 21.464 16.2876 21.7206 15.8911 21.9013C15.4946 22.0762 15.0224 22.1637 14.4743 22.1637H12.6115L13.2412 21.5253V23.8516H11.8245ZM13.2412 21.6827L12.6115 21.0093H14.3956C14.8329 21.0093 15.1594 20.916 15.3751 20.7294C15.5908 20.5429 15.6987 20.2834 15.6987 19.9511C15.6987 19.6129 15.5908 19.3505 15.3751 19.164C15.1594 18.9774 14.8329 18.8841 14.3956 18.8841H12.6115L13.2412 18.2107V21.6827Z" fill="white"/>
<path d="M13.5732 11V5.40289L14.1854 6.01507H12.3488V4.87816H14.99V11H13.5732Z" fill="white"/>
</svg>
