<svg width="24" height="24" viewBox="0 0 24 24" fill="none" xmlns="http://www.w3.org/2000/svg">
<path d="M15.3621 5.21438C17.087 5.98515 18.4951 7.32444 19.3513 9.00852C20.2076 10.6926 20.46 12.6195 20.0665 14.4673C19.6729 16.3151 18.6573 17.9719 17.1891 19.161C15.721 20.35 13.8894 20.9993 12.0001 21.0004C10.3839 21.0005 8.8033 20.5259 7.45449 19.6355C6.10568 18.7451 5.0481 17.4782 4.41306 15.992C3.77802 14.5058 3.59349 12.8658 3.88239 11.2757C4.17129 9.6855 4.92089 8.21522 6.03812 7.04737C6.80754 8.12284 7.82315 8.99856 9.00012 9.60137C9.02073 8.28 9.33264 6.97945 9.9136 5.79246C10.4946 4.60548 11.3303 3.5613 12.3611 2.73438C13.1479 3.78957 14.1768 4.64014 15.3611 5.21438H15.3621Z" fill="#8254f8" stroke="#8254f8" stroke-width="1.5" stroke-linecap="round" stroke-linejoin="round"/>
<path d="M11.9999 17.9993C12.9526 18.0008 13.8701 17.6397 14.5663 16.9893C15.2624 16.3389 15.6848 15.4479 15.7478 14.4973C15.8109 13.5467 15.5097 12.6077 14.9055 11.8711C14.3013 11.1345 13.4394 10.6554 12.4949 10.5312C11.4622 11.4553 10.7819 12.7088 10.5699 14.0783C9.79948 13.8895 9.07438 13.5492 8.43687 13.0773C8.25153 13.6406 8.20243 14.2398 8.29361 14.8258C8.38479 15.4118 8.61364 15.9678 8.96139 16.4482C9.30913 16.9286 9.76584 17.3196 10.294 17.5892C10.8222 17.8589 11.4068 17.9994 11.9999 17.9993Z" fill="white" stroke="white" stroke-width="1.5" stroke-linecap="round" stroke-linejoin="round"/>
</svg>
