<svg width="547" height="446" viewBox="0 0 547 446" fill="none" xmlns="http://www.w3.org/2000/svg">
<path d="M546 445H2L187.5 264.5L192.5 274.5L367.5 103L455.5 284L479.5 262.5L546 445Z" fill="#090909" stroke="#090909"/>
<path d="M293 143L295.5 132.5C297.1 133.7 304.833 133.333 308.5 133C307.7 136.2 306.5 139.667 306 141C304 141 303.167 142.333 303 143C300.2 142.6 295.167 142.833 293 143Z" fill="#FB7E60" stroke="#FB7E60"/>
<path d="M289.5 161L293 143.5V143C295.4 142.2 300.667 142.667 303 143C301.5 145.5 300 156.5 304 156.5C312 156.5 314 159.5 314 161C308 160.6 295.167 160.834 289.5 161Z" fill="#6696F8" stroke="#6696F8"/>
<path d="M303.996 156.5C299.996 156.5 301.496 145.5 302.996 143C303.164 142.333 304 141 306 141C305.17 146.147 304.604 156.521 308.95 156.995L309 157C308.983 156.998 308.967 156.997 308.95 156.995L303.996 156.5Z" fill="white"/>
<path d="M303.996 156.5C299.996 156.5 301.496 145.5 302.996 143C303.164 142.333 304 141 306 141C305.167 146.167 304.6 156.6 309 157L303.996 156.5Z" stroke="white"/>
<path d="M229.156 216.99C229.556 214.99 234.348 208.719 236.514 205.719L248.498 212.501C246.665 214.667 242.598 219.201 240.998 220.001C234.998 222.501 229.156 217.99 229.156 216.99Z" fill="#FB7E60" stroke="#FB7E60"/>
<path d="M233 236C230.5 235 230 224.5 237.5 221C238 221.001 239.076 221.923 240.676 221.123C237.208 226.243 231.899 235.626 236.86 236.965L237 237C236.953 236.989 236.906 236.977 236.86 236.965L233 236Z" fill="white"/>
<path d="M233 236L232.815 236.464C232.836 236.473 232.857 236.48 232.879 236.485L233 236ZM237.5 221L237.502 220.5C237.428 220.5 237.356 220.516 237.289 220.547L237.5 221ZM240.676 221.123L241.09 221.404L242.162 219.821L240.452 220.676L240.676 221.123ZM237 237L236.888 237.487C237.155 237.549 237.422 237.384 237.487 237.117C237.551 236.85 237.388 236.581 237.122 236.515L237 237ZM233.186 235.536C233.009 235.465 232.801 235.288 232.595 234.951C232.391 234.618 232.213 234.165 232.08 233.611C231.816 232.502 231.753 231.053 231.994 229.515C232.477 226.437 234.157 223.112 237.712 221.453L237.289 220.547C233.344 222.388 231.524 226.063 231.006 229.36C230.748 231.01 230.81 232.592 231.108 233.843C231.257 234.468 231.469 235.026 231.742 235.473C232.012 235.915 232.366 236.285 232.815 236.464L233.186 235.536ZM237.499 221.5C237.491 221.5 237.51 221.499 237.573 221.518C237.633 221.536 237.706 221.562 237.805 221.6C237.995 221.672 238.256 221.774 238.556 221.848C239.179 222.001 239.973 222.034 240.899 221.571L240.452 220.676C239.778 221.013 239.235 220.985 238.795 220.877C238.564 220.82 238.362 220.741 238.159 220.665C238.063 220.628 237.957 220.589 237.857 220.559C237.759 220.53 237.634 220.5 237.502 220.5L237.499 221.5ZM240.262 220.843C238.522 223.411 236.299 227.079 235.137 230.292C234.559 231.89 234.218 233.44 234.379 234.708C234.461 235.351 234.674 235.942 235.07 236.426C235.469 236.913 236.024 237.257 236.73 237.448L236.99 236.482C236.456 236.338 236.092 236.096 235.844 235.793C235.594 235.488 235.436 235.086 235.372 234.582C235.241 233.554 235.515 232.187 236.077 230.632C237.196 227.539 239.362 223.954 241.09 221.404L240.262 220.843ZM236.73 237.448C236.782 237.462 236.834 237.475 236.888 237.487L237.113 236.513C237.071 236.503 237.03 236.493 236.99 236.482L236.73 237.448ZM237.122 236.515L236.981 236.48L236.739 237.45L236.879 237.485L237.122 236.515ZM236.981 236.48L233.122 235.515L232.879 236.485L236.739 237.45L236.981 236.48Z" fill="white"/>
<path d="M216.5 237L229 217L237.588 220.884C230.088 224.384 230.5 235 233 236C239.5 237 241.5 240 240.5 240C237.7 239.2 223.333 237.667 216.5 237Z" fill="#6696F8" stroke="#6696F8"/>
<path d="M195.997 140C200.397 129.6 211.805 112 216.959 104.5C219.359 106.366 230.442 112.176 234 115.697C230.5 118.394 198 165 194.5 170.5C191 176 195.5 183 193 183C190.5 183 192 176.5 191 177C187.5 179 184 189.5 183 188C182 186.5 188.5 176.5 186 177C183.5 177.5 179 187 178 185C177 183 185 175 182.5 175C180 175 175.5 181.5 175 179.5C174.5 177.5 184.497 169 180.497 171C176.497 173 170.997 176 177.997 170C184.997 164 190.497 153 195.997 140Z" fill="#FB7E60" stroke="#FB7E60" stroke-linecap="round"/>
<path d="M216.469 104.055C216.469 105.055 233.188 113.742 234.688 117.242" stroke="#090909" stroke-linecap="round"/>
<path d="M274 85C274.666 86.8871 275.532 89.4247 276.361 92C276.813 92.1413 278.787 91.7696 281.5 92C277.934 89.9867 275.084 87.2666 274 85Z" fill="#090909" stroke="#090909"/>
<path d="M280.003 129.998C273.503 131.998 273.503 114.998 272.003 118.998C271.319 120.824 271.883 126.918 272.415 135C273.779 134.166 277.206 131.997 280.003 129.998Z" fill="#090909" stroke="#090909"/>
<path d="M273.003 102.001C276.002 100.002 275.504 102.999 279 102.002C278.003 109.498 295.501 99.0005 308 104C313.859 106.344 312.508 121.204 311.326 128.5C310.964 130.739 310.617 132.265 310.5 132.5C310 133.5 295.5 133.5 295.5 132.5C295.658 131.08 295.766 129.71 295.793 128.5C295.851 125.874 295.527 124 294.5 124C288.5 124 286.5 128 280 130C273.5 132 273.5 115 272 119C270.5 123 275 147.5 272 168.5C269.581 185.432 257.41 203.665 252 210.093C250.7 211.637 249.791 212.5 249.5 212.5C248 212.5 236.003 206 235.503 205C235.33 204.653 235.698 203.222 236.462 201C237.9 196.819 240.738 189.836 244.003 182C249.003 170 246.503 161.5 244.003 154.5C242.003 148.9 241.805 130.167 241.955 121.5C245.159 119.803 249.715 117.288 254.5 114.459C261.275 110.454 268.508 105.822 273.003 102.001Z" fill="#464C7D"/>
<path d="M241.003 122.001C241.305 121.843 241.623 121.676 241.955 121.5M279.003 102.001C275.503 103.001 276.003 100.001 273.003 102.001C268.508 105.822 261.275 110.454 254.5 114.459M241.955 121.5C241.805 130.167 242.003 148.9 244.003 154.5C246.503 161.5 249.003 170 244.003 182C240.738 189.836 237.9 196.819 236.462 201M241.955 121.5C245.159 119.803 249.715 117.288 254.5 114.459M279 102C278 109.5 295.5 99 308 104C313.859 106.344 312.508 121.204 311.326 128.5M295.793 128.5C295.851 125.874 295.527 124 294.5 124C288.5 124 286.5 128 280 130C273.5 132 273.5 115 272 119C270.5 123 275 147.5 272 168.5C269.581 185.432 257.41 203.665 252 210.093M295.793 128.5C295.766 129.71 295.658 131.08 295.5 132.5C295.5 133.5 310 133.5 310.5 132.5C310.617 132.265 310.964 130.739 311.326 128.5M295.793 128.5H311.326M254.5 114.459C257 125.639 261.3 151.9 258.5 167.5C255.7 183.1 247.669 199.333 244.003 205.5M244.003 205.5L236.462 201M244.003 205.5C246.002 206.562 250.4 208.967 252 210.093M236.462 201C235.698 203.222 235.33 204.653 235.503 205C236.003 206 248 212.5 249.5 212.5C249.791 212.5 250.7 211.637 252 210.093" stroke="#464C7D"/>
<path d="M295.791 128.502H311.325M254.499 114.461C256.999 125.641 261.299 151.902 258.499 167.502C255.699 183.102 247.668 199.335 244.002 205.502M244.002 205.502L236.461 201.002M244.002 205.502C246.001 206.564 250.399 208.969 251.999 210.095" stroke="#090909" stroke-linecap="round" stroke-linejoin="round"/>
<path d="M328.797 140.929L367.498 103L389.62 148.5L371.998 138L357.498 156.5L349.501 135.27L328.797 140.929Z" fill="white" stroke="white"/>
<path d="M334.461 139.401L334.503 1" stroke="#223257" stroke-linecap="round"/>
<path d="M321.502 60.5003C309.902 70.9003 297.132 73.1669 292.198 73.0003C292.571 76.7182 291.5 87.5157 290.594 91.5002C308.186 92.0002 323.502 74.5002 329.002 68.5002C334.502 62.5002 338.002 63.5002 338.502 62.0002C339.002 60.5002 337.002 60.0003 339.002 55.0003C340.602 51.0003 336.833 50.6667 336.5 51C330.5 53 336.002 47.5003 321.502 60.5003Z" fill="#FB7E60" stroke="#FB7E60"/>
<path d="M290.664 92.8923C291.664 92.8923 293.337 74.5781 292.337 72.0781" stroke="#090909" stroke-linecap="round"/>
<path d="M260 71C264.118 71 264.592 68.4777 265.2 67C264.467 65 263 59.8 263 55C264 54.8333 266 54 266 52C266 49.5 264.5 49 263 49C261.5 49 260.5 50 261 55H259C259.333 54 259.4 52 257 52C254 52 249 52.5 249 54C249 55.5 252.5 62.5 258 64C258 66 256.5 68.4618 258 70.7309C258.528 70.8984 259.174 71 260 71Z" fill="#FB7E60"/>
<path d="M258 64C252.5 62.5 249 55.5 249 54C249 52.5 254 52 257 52C259.4 52 259.333 54 259 55H261C260.5 50 261.5 49 263 49C264.5 49 266 49.5 266 52C266 54 264 54.8333 263 55C263 59.8 264.467 65 265.2 67C264.592 68.4777 264.118 71 260 71C259.174 71 258.528 70.8984 258 70.7309C256.5 68.4618 258 66 258 64ZM258 64C258.5 63.6667 259.6 62.8 260 62" stroke="#FB7E60"/>
<path d="M257.188 69.9966C257.885 70.4885 258.924 70.5 260.5 70.5C264.618 70.5 264.592 67.8761 265.2 66.3984" stroke="white" stroke-linecap="round"/>
<path d="M273 103C265 109.8 248.333 118.168 241 122.001C241.667 118.001 242.8 110 242 110C241 110 235.5 117.5 235 117C233.5 113.5 216.5 105 216.5 104C217.5 99 241 69.5 249 68C257 66.5 254.5 71 260 71C265.5 71 264.5 66.5 266 66C267.5 65.5 270.5 63.5 278.5 68C284.9 71.6 290.167 72.1667 292 72C293 74.5 291 93 290 93C281.6 95 275.833 87.8333 274 84C276 89.6667 279.8 101.2 279 102.001C275.5 103.001 275.5 101.5 273 103Z" fill="#FEB824"/>
<path d="M242 110C241 110 235.5 117.5 235 117C233.5 113.5 216.5 105 216.5 104C217.5 99 241 69.5 249 68C257 66.5 254.5 71 260 71C265.5 71 264.5 66.5 266 66C267.5 65.5 270.5 63.5 278.5 68C284.9 71.6 290.167 72.1667 292 72C293 74.5 291 93 290 93C281.6 95 275.833 87.8333 274 84C276 89.6667 279.8 101.2 279 102.001C275.5 103.001 275.5 101.5 273 103C265 109.8 248.333 118.168 241 122.001C241.667 118.001 242.8 110 242 110ZM242 110C244.333 106.333 249.4 98 251 94" stroke="#FEB824"/>
<path d="M242 110C244.333 106.333 249.4 98 251 94" stroke="#090909" stroke-linecap="round"/>
<path d="M257 59C257 59.5556 256.6 60.7333 255 61" stroke="#090909" stroke-width="0.6" stroke-linecap="round"/>
<path d="M262.5 53.9982C262.333 52.4982 262.4 49.9982 264 51.9982" stroke="#090909" stroke-width="0.7" stroke-linecap="round"/>
<path d="M257.5 64.5C258 64.1667 259.604 62.8 260.004 62" stroke="#090909" stroke-width="0.5" stroke-linecap="round"/>
<path d="M266 51.9992C266 53.9992 264 54.8325 263 54.9992L263.5 59.5001C265.167 57.3334 268 53 267.5 51C266.905 49.8837 266.42 48.9002 266 48.0448L265.949 47.9404C263.594 43.143 263.261 42.464 256.5 44.9992C248.5 47.9992 242 41.9992 242 44.9992C242 47.9992 243.5 47.4992 244 49.9992C244.4 53.9992 247.861 55.5216 249.541 55.7828C249.187 54.9853 249 54.3456 249 53.9992C249 52.4992 254 51.9992 257 51.9992C259.4 51.9992 259.333 53.9992 259 54.9992H261C260.5 49.9992 261.5 48.9992 263 48.9992C264.5 48.9992 266 49.4992 266 51.9992Z" fill="#090909"/>
<path d="M266 48.0448C263.598 43.153 263.309 42.4457 256.5 44.9992C248.5 47.9992 242 41.9992 242 44.9992C242 47.9992 243.5 47.4992 244 49.9992C244.4 53.9992 247.861 55.5216 249.541 55.7828C249.187 54.9853 249 54.3456 249 53.9992C249 52.4992 254 51.9992 257 51.9992C259.4 51.9992 259.333 53.9992 259 54.9992H261C260.5 49.9992 261.5 48.9992 263 48.9992C264.5 48.9992 266 49.4992 266 51.9992C266 53.9992 264 54.8325 263 54.9992L263.5 59.5001C265.167 57.3334 268 53 267.5 51C266.905 49.8837 266.42 48.9002 266 48.0448ZM266 48.0448C266.333 47.3632 267 45.4 267 43" stroke="#090909" stroke-linecap="round" stroke-linejoin="round"/>
<path d="M299.649 151.398C301.014 151.565 304.289 151.778 306.476 151.299M301.268 154.956C302.201 154.961 304.464 154.619 306.056 153.208M302.757 157.285C304.078 157.042 306.885 156.352 307.545 155.537" stroke="#090909" stroke-width="0.874124" stroke-linecap="round" stroke-linejoin="round"/>
<path d="M231.237 229.555C232.263 229.681 234.726 229.841 236.371 229.481M232.454 232.231C233.156 232.235 234.858 231.978 236.055 230.917M233.574 233.983C234.568 233.8 236.679 233.281 237.175 232.668" stroke="#090909" stroke-width="0.657385" stroke-linecap="round" stroke-linejoin="round"/>
<path d="M299.566 145.884C301.171 146.131 304.795 146.494 306.454 145.962M306.454 145.962C308.528 145.296 308.448 140.198 311.98 144.646C313.342 146.039 307.278 146.246 306.454 145.962ZM306.454 145.962C307.827 146.436 310.683 149.729 309.02 150.537C307.959 150.939 305.961 150.586 306.454 145.962Z" stroke="#090909" stroke-width="0.871339" stroke-linecap="round" stroke-linejoin="round"/>
<path d="M231.851 222.42C233.65 223.104 237.74 224.448 239.7 224.355M239.7 224.355C242.151 224.238 242.702 219.045 246.171 224.509C247.55 226.289 240.604 224.865 239.7 224.355ZM239.7 224.355C241.207 225.206 244.051 229.315 242.052 229.687C240.791 229.809 238.555 228.912 239.7 224.355Z" stroke="#090909" stroke-width="0.871339" stroke-linecap="round" stroke-linejoin="round"/>
<path d="M58.0001 229C58.0001 231.5 54.5001 233 53.0001 233C52.0933 233 52.6522 235.285 53.3391 237.264C55.8925 236.01 60.9993 232.7 60.9993 229.5C60.9993 225.5 64.501 217.5 53.0001 217C43.7994 216.6 40.4993 226.167 39.9993 231C34.9993 234.834 25.1993 244.2 25.9993 251C26.7993 257.8 32.3331 263.167 35 265L45.0001 241.5C46.501 239 48.4993 232 47.9993 232C47.4993 232 45.5001 231.5 45.0001 230C44.5001 228.5 47.5001 225.5 49.0001 227C51.0001 229 55.0001 222 57.0001 222C59.0001 222 58.0001 226.5 58.0001 229Z" fill="#090909"/>
<path d="M39.9993 231C40.4993 226.167 43.7994 216.6 53.0001 217C64.501 217.5 60.9993 225.5 60.9993 229.5C60.9993 232.7 55.8925 236.01 53.3391 237.264C52.6522 235.285 52.0933 233 53.0001 233C54.5001 233 58.0001 231.5 58.0001 229C58.0001 226.5 59.0001 222 57.0001 222C55.0001 222 51.0001 229 49.0001 227C47.5001 225.5 44.5001 228.5 45.0001 230C45.5001 231.5 47.4993 232 47.9993 232C48.4993 232 46.501 239 45.0001 241.5L35 265C32.3331 263.167 26.7993 257.8 25.9993 251C25.1993 244.2 34.9993 234.834 39.9993 231ZM39.9993 231C35.3328 233.334 25.7 239.9 24.5 247.5" stroke="#090909"/>
<path d="M54.0009 239C52.0009 241.4 47.1675 241.667 45.0009 241.5C46.5017 239 48.5 232 48 232C47.5 232 45.5009 231.5 45.0009 230C44.5009 228.5 47.5009 225.5 49.0009 227C51.0009 229 55.0009 222 57.0009 222C59.0009 222 58.0009 226.5 58.0009 229C58.0009 231.5 54.5009 233 53.0009 233C51.8009 233 53.1675 237 54.0009 239Z" fill="#FB7E60" stroke="#FB7E60"/>
<path d="M132.5 318V222" stroke="#223257"/>
<path d="M47 229C47.25 229.167 47.8 229.6 48 230" stroke="#090909" stroke-linecap="round"/>
<path d="M53.5 228.5C53.8333 228.833 54.8 229.5 56 229.5" stroke="#090909" stroke-linecap="round"/>
<path d="M111 243C101.8 249.4 91.1667 249.333 87 248.5C85.8 250.5 82.8333 259.667 81.5 264C101.5 270 125.5 244.5 127.5 242C129.5 239.5 131.5 239 133 239C139.5 238 139 229 137 229C129 229 122.5 235 111 243Z" fill="#FB7E60" stroke="#FB7E60"/>
<path d="M117 180.501C109.8 196.501 89.3333 215.168 80 222.501C84 230.503 85.6667 235.834 86 237.5C93.5 233.5 119.5 198 123 193.5C126.5 189 137.5 181 136 181C134.5 181 130 185 129.5 184C129 183 138 174.5 136.5 174.5C135 174.5 128.5 182.5 128 181C127.5 179.5 135 170 133.5 170C132 170 125.5 179.501 125.5 178C125.5 176.499 130 168.5 128.5 168.5C127 168.5 122.5 178.001 121 179.501C119.5 181.001 119.5 171.001 118.5 172.501C117.5 174.001 117.5 176.501 117 180.501Z" fill="#FB7E60" stroke="#FB7E60"/>
<path d="M3.5 410L19 394L26 401C21 403 13.5 415.5 18 419C22.5 422.5 22 426 22 427C22 428 21.5 428.5 21 428C20.6 426.8 9.16667 415.5 3.5 410Z" fill="#464C7D" stroke="#464C7D"/>
<path d="M2.44531 410.363C8.11198 415.863 20.5995 427.801 20.9995 429.001C21.4995 429.501 21.9995 429.001 21.9995 428.001" stroke="white"/>
<path d="M19 394L27.5 384L39 395L30 402.5C30.5 402 31.2 401 30 401H26L19 394Z" fill="#FB7E60" stroke="#FB7E60"/>
<path d="M25.9997 401.502C20.9997 403.502 13.4997 415.502 17.9997 419.002C19.3118 420.022 20.1989 421.043 20.7971 422.001C20.6981 420.835 20.4 418.001 20 416.001C19.2002 410.401 27.5435 404.547 30.5435 402.047C29.3435 401.247 26.9998 401.168 25.9997 401.502Z" fill="white" stroke="white"/>
<path d="M105 338L104 316L110.5 313.5C111 317.167 112.4 324.8 114 326C122 331.5 124.5 327 126 327C127.5 327 138 330 133 331C129 331.4 112.667 335.833 105 338Z" fill="#464C7D" stroke="#464C7D"/>
<path d="M23.1631 401.86C24.1342 403.032 26.4502 405.54 27.9449 406.199M27.9449 406.199C29.8134 407.022 32.9284 403.397 32.6381 408.714C32.7271 410.537 28.3452 406.911 27.9449 406.199ZM27.9449 406.199C28.6121 407.385 28.567 411.471 26.8987 411.003C25.9049 410.625 24.7228 409.135 27.9449 406.199Z" stroke="#090909" stroke-width="0.816738" stroke-linecap="round" stroke-linejoin="round"/>
<path d="M14.4919 410.898C15.822 411.307 19.0485 412.102 21.3135 412.013M15.4727 414.732C16.4015 414.903 18.7185 414.964 20.5555 413.841M16.5427 417.318C17.9025 417.311 20.8229 417.122 21.6254 416.427" stroke="#090909" stroke-width="0.884997" stroke-linecap="round" stroke-linejoin="round"/>
<path d="M104.656 339.141C112.323 336.974 128.996 332.4 132.996 332C134.68 331.663 134.606 331.1 133.709 330.5" stroke="white"/>
<path d="M104 316L103.5 303L116 300V307.5C115.5 307.167 114.4 307.2 114 308C112.4 312.4 111.333 312.833 111 313L104 316Z" fill="#FB7E60" stroke="#FB7E60"/>
<path d="M125.884 327.01C125.923 327.004 125.962 327.001 126 327.001C125.961 327.004 125.922 327.007 125.884 327.01C124.369 327.223 121.797 331.361 114 326.001C112.4 324.801 111 317.167 110.5 313.5C111.167 312.833 111.438 311.055 113.5 308.999C114.5 308.002 115.5 308 116 308.499C115.833 312.833 115.7 320.801 116.5 322.001C117.494 323.492 119.476 327.452 125.884 327.01Z" fill="white"/>
<path d="M126 327.001C124.5 327.001 122 331.501 114 326.001C112.4 324.801 111 317.167 110.5 313.5C111.167 312.833 111.438 311.055 113.5 308.999C114.5 308.002 115.5 308 116 308.499C115.833 312.833 115.7 320.801 116.5 322.001C117.5 323.501 119.5 327.5 126 327.001Z" stroke="white"/>
<path d="M113 328C114.333 327.167 117.4 325 119 323M117 330C117.833 329.333 119.6 327.4 120 325M120 331C121 329.833 123 327.2 123 326" stroke="#090909" stroke-linecap="round" stroke-linejoin="round"/>
<path d="M109 316.501C110.833 316.167 114.9 315.201 116.5 314.001M116.5 314.001C118.5 312.5 116.5 307.001 122 310.501C124 311.5 117.5 314.001 116.5 314.001ZM116.5 314.001C118.167 314 122.5 316.5 121 318C120 318.834 117.7 319.201 116.5 314.001Z" stroke="#090909" stroke-linecap="round" stroke-linejoin="round"/>
<path d="M334.5 25.5H332.5M332.5 25.5V24.5H331M332.5 25.5V26.5H328.5V24.5H330M331 24.5V23H330V24.5M331 24.5H330" stroke="#223257"/>
<path d="M335 5.5H333M333 5.5V4.5H331.5M333 5.5V6.5H329V4.5H330.5M331.5 4.5V3H330.5V4.5M331.5 4.5H330.5" stroke="#223257"/>
<path d="M363 10.5013C367.4 -0.298658 345.833 3.00134 334.5 6.00134V25.5C338 23.5 345.6 20.2 348 23C356.8 37.8 378.333 21.1667 388 11C378.333 14.3333 359.8 18.9003 363 10.5013Z" fill="#090909" stroke="#090909"/>
<path d="M73.0587 254.5C70.5439 259.056 71.0589 263.38 73.6136 269.287C73.8337 269.057 75.2964 268.237 79.3869 266.798C76.8087 266.027 73.4216 262.945 73.0587 254.5Z" fill="#090909" stroke="#090909"/>
<path d="M81.7812 307.637L73.4516 299.444C73.3122 299.307 73.0787 299.431 73.1131 299.623C74.3532 306.561 74.9217 313.139 74.951 319.351C76.9118 312.431 80.0819 308.871 81.7812 307.637Z" fill="#090909" stroke="#090909"/>
<path d="M26.8594 382.742C30.6927 386.909 38.6593 395.318 39.8593 395.318" stroke="#090909" stroke-linecap="round"/>
<path d="M102.789 303.15C104.789 303.831 116.458 299.836 117.958 299.336" stroke="#090909" stroke-linecap="round"/>
<path d="M78 278C59.5625 293.691 43.894 301.687 38 303.68C39 309.12 41 323.199 41 335.999C41 351.999 42.5 356.999 39 363.999C36.2 369.599 29.8333 378.665 27 382.499C30.8333 386.665 38.8 394.999 40 394.999C41.5 394.999 84.5 361.499 73 298.999L82.5 306.999C87.5 301.332 97.9 289.999 99.5 289.999C101.5 289.999 101 302.317 103 302.999C105 303.68 116.5 299.499 118 298.999C119.667 285.999 120 260.599 108 262.999C96 265.399 83 274 78 278Z" fill="white" stroke="white"/>
<path d="M79.2031 221.91C83.2055 227.91 86.5019 236.667 87.5 240.5" stroke="#090909" stroke-linecap="round"/>
<path d="M87.172 247.965C85.8387 251.654 83.0375 260.574 81.4375 266.974" stroke="#090909" stroke-linecap="round"/>
<path d="M44.7656 241.874C47.527 241.874 50.6218 240.769 54.078 239.156" stroke="white" stroke-linecap="round"/>
<path d="M45.0029 242C55.0029 242 71.8362 228.667 79.0029 222C83.0052 228 86.0019 237.167 87 241C83.5456 243.569 80.7345 245.839 78.5 247.934H87C85.6667 251.623 82.6 260.6 81 267C78.5391 267.167 73.5056 264.9 73.0587 254.5C69.4547 261.03 71.3895 266.363 77.3164 277.281C53.8164 297.281 35.5029 305.5 35.5029 304C36.0029 286 34.0029 279.5 35.0029 265.5C36.0029 251.5 42.5029 242 45.0029 242Z" fill="#1934BE"/>
<path d="M78.5 247.934C80.7345 245.839 83.5456 243.569 87 241C86.0019 237.167 83.0052 228 79.0029 222C71.8362 228.667 55.0029 242 45.0029 242C42.5029 242 36.0029 251.5 35.0029 265.5C34.0029 279.5 36.0029 286 35.5029 304C35.5029 305.5 53.8164 297.281 77.3164 277.281C71.3895 266.363 69.4547 261.03 73.0587 254.5M78.5 247.934H87C85.6667 251.623 82.6 260.6 81 267C78.5391 267.167 73.5056 264.9 73.0587 254.5M78.5 247.934C75.9903 250.287 74.208 252.418 73.0587 254.5" stroke="#1934BE"/>
<path d="M78.4374 250.434C75.9277 252.786 74.29 254.543 73.1406 256.625" stroke="#090909" stroke-linecap="round"/>
<path d="M102 299.998C103.327 299.335 106.023 298.261 109.5 297.386M118.5 295.998C115.222 296.171 112.137 296.721 109.5 297.386M109.5 297.386C109.833 289.423 108.8 273.698 102 274.498C95.2 275.298 80.6667 292.666 74.5 301M51.5 297.386C57.5 316.59 62.9 361.2 36.5 386M36.5 386C35.3333 384.667 32.3 381.4 29.5 379M36.5 386C38.1667 387.333 41.9 390.5 43.5 392.5" stroke="#090909" stroke-linecap="round" stroke-linejoin="round"/>
<circle cx="54.5" cy="225.5" r="0.5" fill="#090909"/>
<circle cx="57.5" cy="225.5" r="0.5" fill="#090909"/>
<circle cx="254.5" cy="55.5" r="0.5" fill="#090909"/>
<circle cx="251.5" cy="57.5" r="0.5" fill="#090909"/>
</svg>
