<svg width="1056" height="694" viewBox="0 0 1056 694" fill="none" xmlns="http://www.w3.org/2000/svg">
<path d="M339.267 1.59998C338.6 2.53333 336.333 10.5333 334.467 19.3333C332.467 28.1333 330.067 39.2 329 43.9999C327.8 48.8 325.8 59.2 324.333 67.3333C322.867 75.3333 320.6 88.5333 319.133 96.6666C310.333 144.933 298.6 240.267 291 325.333C289.533 342.533 287.8 361.6 287.267 367.6C286.333 377.6 286.467 378.667 288.6 378.667C291.133 378.667 291.667 376.267 293 361.333C297.667 304.533 308.733 196.533 313 165.333C314.067 157.6 316.467 140.267 318.333 126.667C323.933 86.4 337.933 8.79999 340.2 6.39996C340.6 5.86664 343.667 13.0667 346.867 22.4C356.333 49.8666 374.333 99.7333 387.267 134C393.8 151.6 400.733 170.133 402.6 175.333C404.467 180.4 406.467 185.733 407.133 187.067C407.8 188.4 408.067 190 407.667 190.667C407.133 191.467 407.4 192 408.067 192C408.867 192 409.8 193.6 410.467 195.6C411.8 200.4 411.667 200 413.533 204.667C420.467 220.8 449 304.4 460.333 341.467L464.6 355.6L459.133 365.733C456.2 371.2 453.667 377.067 453.667 378.533C453.667 380.133 453.133 381.333 452.333 381.333C451.533 381.333 451.533 382.533 452.333 384.533C453 386.267 453.133 388.133 452.733 388.533C452.333 388.933 452.733 390.133 453.667 391.333C454.6 392.533 455 393.733 454.6 394.133C454.2 394.667 455 396.133 456.333 397.733C457.8 399.2 458.6 401.067 458.2 401.867C457.8 402.667 458.333 402.267 459.533 400.8C461 398.933 461.267 397.6 460.2 395.733C459.533 394.4 459.267 392.667 459.667 392C460.067 391.2 459.8 390.667 459 390.667C456.467 390.667 457.8 379.867 461.4 370.267C463.267 365.333 465.267 361.333 466.067 361.333C466.733 361.333 466.867 362.4 466.333 363.6C462.6 372.933 461.533 377.867 462.2 382.4C462.733 385.067 463.133 388.4 463.267 389.6C463.4 390.933 464.067 392 464.733 392C465.4 392 465.533 393.067 465.133 394.267C464.6 395.6 464.6 396.133 465 395.733C465.533 395.2 467.267 395.333 468.867 396C472.6 397.333 472.6 395.333 468.467 386.267C465.667 379.733 464.6 372.533 466.867 373.867C467.4 374.267 467.667 372.933 467.267 370.933C466.867 368.933 467 367.733 467.533 368.133C469.133 369.6 477.8 401.333 477 402.667C476.6 403.467 476.733 404 477.4 404C478.067 404 478.6 406.4 478.467 409.333C478.333 412.267 478.867 414.667 479.533 414.667C481.4 414.667 477.4 418.4 475 418.933C473.933 419.2 472.2 420.133 471.133 421.067C470.2 422 468.333 422.4 467.267 422C466.067 421.6 465.533 421.6 465.933 422.133C466.467 422.533 464.733 424.4 462.067 426.267C459.533 428 457.133 429.333 457 429.067C456.733 428.8 456.333 426.533 456.067 424C455.933 421.467 455.4 419.067 455 418.667C454.6 418.267 451.533 414.8 447.933 410.8C442.733 404.933 441.667 402.8 441.667 398.4C441.667 395.467 442.333 392 443 390.533C443.8 389.2 443.933 388 443.267 388C441.133 388 439 394.667 439 400.933C439 406.533 439.533 407.733 445 412.933C449.667 417.333 451.4 420.133 452.467 425.2C453.8 431.733 453.8 432 448.467 438.933C445.533 442.8 442.6 447.6 441.933 449.467C440.6 452.667 439.667 453.067 430.733 453.733C425.4 454.267 413.933 455.6 405.4 456.933C391.4 458.933 389.667 459.467 389.667 461.733C389.667 463.867 390.333 464.267 393.667 463.6C401.533 462 436.467 458.4 437.133 459.067C437.533 459.467 437 462.933 435.933 466.933C434.333 472.4 431 494 431 498.933C431 499.467 427.533 500.133 423.4 500.667C419.133 501.067 413.667 501.733 411.4 502.133L407 502.8V496.267C407 488.933 403.133 481.867 397.667 478.933C394.6 477.467 388.467 477.6 383.533 479.6C381.8 480.267 381.667 478.667 382.467 468.533C383.933 448.533 379 423.2 370.867 409.867L368.467 405.867L374.467 395.2C381.267 383.333 381.267 381.733 374.733 373.2C367.933 364.533 359.133 360.267 340.867 357.2C325.133 354.533 319.533 352.533 316.467 348.8C315.4 347.6 314.2 346.667 313.667 346.667C312.867 346.667 307.4 364.4 305.133 374.933C304.467 377.733 303.533 378.667 301.267 378.667C295.533 378.667 279 387.867 271 395.467C255.267 410.4 246.333 429.333 244.733 450.8C243.8 463.733 246.067 478.933 249.267 481.6C251.133 483.067 251.267 482.667 250.2 478.667C249 473.733 248.467 444.667 249.667 443.6C250.067 443.2 252.733 442.667 255.667 442.267C265.8 441.2 281 433.733 292.333 424.133C304.867 413.467 304.6 413.733 303.8 417.867C302.6 424.267 305.8 437.733 310.467 446.133L315 454.4L311.933 456.267C304.733 460.933 298.6 460 296.333 453.867C295.667 452.133 294.333 450.667 293.533 450.667C291 450.667 293.533 457.733 297.4 461.333C299.4 463.2 301 465.867 301 467.333C301 471.6 306.733 471.733 307.8 467.467C308.2 465.733 310.867 462.667 313.533 460.933L318.6 457.6L325.667 461.6C335 466.933 339.4 468.133 348.467 468.133C358.2 468 361 470 359.8 476.267C358.733 482.4 354.333 485.333 345 486.267C338.467 486.933 337.933 487.333 337.4 490.8C337 492.933 337.267 495.067 337.8 495.6C338.333 496.267 339.133 498.667 339.667 501.067L340.6 505.467H332.067C323.667 505.467 304.067 506.933 291.933 508.667C282.6 510 271.933 513.733 271.267 515.867C270.733 517.333 271.267 517.467 273.133 516.667C282.067 512.933 294.067 511.867 341.667 510.667C391.8 509.467 412.467 508.133 436.733 504.667C450.467 502.667 476.733 496.533 480.733 494.533C483.533 492.933 483.533 493.733 481.8 511.067C481 517.867 480.067 529.733 479.667 537.6L478.733 551.867L472.067 551.6C467.933 551.467 465.133 551.867 464.733 552.933C464.2 554.4 466.733 555.2 475.667 556.667C482.2 557.867 487.4 560.133 491.4 563.867C495.133 567.2 500.333 575.867 500.333 578.667C500.333 579.6 482.2 580 444.2 580H387.933L388.867 574.533C389.667 569.867 389.4 569.2 387.533 569.867C386.467 570.267 385.133 570.667 384.867 570.667C384.6 570.667 384.333 572.4 384.333 574.667V578.667H368.067C352.2 578.667 294.733 575.6 278.2 573.867L270.067 573.067L270.733 546.667C271.133 532.133 270.867 519.067 270.2 517.733C268.6 514.133 267.533 524.933 267.267 550.667C267 562.667 266.733 572.8 266.467 573.067C265.667 573.867 212.2 569.333 173 565.2C151.933 562.933 147.267 562 145.667 560C142.733 556.267 130.733 550.8 124.333 550.133C119.267 549.6 118.867 549.733 120.733 551.733C121.933 552.8 124.2 553.867 125.933 554.133C127.667 554.267 131.667 556 135 558L141 561.467L134.333 560.667C130.733 560.267 125.533 559.733 122.867 559.467C115.533 558.8 112.067 557.333 112.867 555.2C113.267 554.133 113.133 553.333 112.6 553.333C110.867 553.333 110.733 544.933 112.467 539.067C115.133 529.467 126.733 524.933 139.667 528.533C147.8 530.667 151 530.933 151 529.467C151 526.8 141.533 523.6 131.667 522.8C126.6 522.4 122.467 521.6 122.733 520.933C122.867 520.4 123 494.933 123 464.267V408.667L132.867 418.133C144.6 429.467 161.267 440.667 190.333 456.533C223.8 474.933 235.533 483.467 255 503.2C265.533 514 271.667 517.6 270.733 512.533C270.067 509.067 245.667 485.467 234.067 477.067C220.733 467.467 209.133 460.667 182.733 446.8C148.467 428.8 129 414.267 124.067 402.933C122.6 399.733 121 397.6 120.333 398.133C119.8 398.8 118.867 427.2 118.333 461.2C117.8 495.2 117.133 524 116.6 525.2C116.2 526.4 114.733 528.133 113.267 529.2C110.067 531.467 107 538.667 107 543.867C107 548.4 108.067 548 84.9999 550.8C77.6666 551.6 70.8666 552.8 70.0666 553.2C68.8666 553.867 69.9333 557.6 74.0666 566.667C88.9999 599.733 130.067 672.933 136.867 678.533C138.6 680 149.933 680.4 192.067 680.667C231.667 680.933 248.467 681.6 259 683.067C293.667 688.267 315.267 688.667 382.333 685.867C400.867 685.067 403.667 685.333 419.667 688.667C440.2 692.933 451.4 692.667 470.333 687.467C477 685.6 488.2 683.333 495.4 682.4C507.133 680.933 510.067 681.067 522.733 683.333C545.133 687.333 549 687.333 560.333 683.333C589.933 672.8 594.2 671.733 601.667 672.4C606.2 672.8 613 675.067 619.667 678.133C629.933 683.067 630.867 683.2 647.667 683.733C661.8 684.133 667.667 683.733 678.6 681.467C686.067 679.867 694.733 678.667 697.933 678.667C704.333 678.667 714.333 682.933 724.067 689.6C729.267 693.333 731.533 694 737.667 694C744.2 694 746.333 693.2 757 686.667C767.8 680.133 769.8 679.333 776.333 679.467C782.733 679.467 785 680.267 793 685.333C801.8 690.933 802.867 691.2 811.667 691.2C818.467 691.067 822.867 690.267 827.667 688C832.2 686 837.8 684.8 845 684.4C854.867 683.867 856.067 684 860.2 687.2L864.733 690.533L870.733 686.267C891.133 671.733 928.6 635.067 949.133 609.6C970.733 582.667 988.067 554.267 984.333 552C982.067 550.533 961 547.333 926.6 543.2L896.333 539.467L896.867 535.333C897.267 533.2 898.2 525.6 899.133 518.533L900.733 505.733L909.533 504.4C920.2 502.667 940.067 495.333 950.6 489.2C961.533 482.8 980.067 463.867 985.4 453.733C992.733 439.733 994.067 434.267 994.2 416L994.333 399.333L1003.53 385.333C1014.07 369.467 1023.67 351.067 1027 340.133L1029.4 332.667L1038.2 332C1045.27 331.467 1047.53 330.667 1050.33 328C1056.47 321.867 1057.8 302.667 1052.87 293.067C1051.13 289.733 1050.2 289.333 1043.93 289.333C1031.13 289.333 1031.4 289.067 1030.73 304.4C1029.67 327.333 1021 349.2 1000.6 380.667L991.933 394L987.667 384.667C981.533 371.467 976.333 364.8 969 361.333C957.267 355.6 945.4 359.6 922.067 377.2L909.933 386.267L917.267 372.4C921.4 364.667 925.667 355.2 926.867 351.2C928.6 345.6 930.333 343.2 934.733 340C937.8 337.867 940.6 334.533 941.133 332.8C942.067 328.8 938.867 322.4 934.467 319.467C931.8 317.867 931 316.133 931 312.667C931 308.533 931.4 308 934.6 308C939.667 308 948.6 302.267 952.733 296.267C955.267 292.8 956.6 288.8 957 283.867C957.667 276.667 956.333 278.267 954.467 286.933C953.533 291.333 946.6 299.467 941.8 302C939.8 302.933 936.333 304 933.8 304.267C929.667 304.667 929.267 304.4 926.867 298C925.533 294.267 924.333 291.2 924.333 291.067C924.333 290.8 926.333 288.4 928.733 285.733C938.6 274.667 957.8 248 957 246.533C955 243.333 943.8 233.733 937.933 230.267C929.133 225.067 916.467 221.6 901 220.133C893.667 219.333 885.8 218.4 883.533 217.867L879.267 217.067L877.133 228.8C876.067 235.333 874.6 244.133 874.2 248.267L873.267 256H865.8C850.067 256 832.733 262.933 805.267 280.133C785.933 292.267 772.733 298.533 762.867 300.4C757.8 301.467 755 302.533 755 303.733C755 306.133 763.533 305.067 773.933 301.333C777.8 300 781.4 299.2 781.933 299.467C782.6 299.867 783 299.6 783 298.8C783 298.133 788.6 294.667 795.4 290.933C802.067 287.333 810.333 282.533 813.667 280.267C826.2 271.867 852.467 261.467 857 263.2C858.067 263.6 859 263.2 859 262.4C859 261.467 862.733 261.2 870.733 261.6C885.267 262.267 894.6 266.267 905.133 276.267C912.2 282.933 922.867 299.333 921.133 300.933C920.2 302 915 298.533 908.467 292.4C903 287.333 900.467 285.867 900.2 287.733C900.067 288.267 899.8 292.533 899.667 297.2C899.133 306.8 897.533 313.867 892.733 327.2L889.267 336.4L886.867 333.2C885.667 331.467 884.867 329.467 885.267 328.667C885.8 328 885.667 327.733 885 328.267C883.667 329.467 878.733 326.933 879.533 325.467C880.6 323.867 867.4 326 865.133 327.867C863.933 328.933 863 329.2 862.867 328.533C862.867 327.867 862.333 328.667 861.533 330.4C860.867 332.267 859.8 333.067 858.867 332.533C857.8 332 857.667 332.133 858.2 333.067C858.733 334 858.6 334.667 858.067 334.667C857.4 334.667 856.733 337.2 856.467 340.267C856.333 343.333 855.933 346.133 855.667 346.4C854.467 347.6 860.467 357.2 863.933 359.867L867.667 362.667L862.333 367.333C856.6 372.267 839 382.133 839 380.4C839 379.867 838.467 380 837.933 380.8C837 382.133 820.2 387.733 816.333 387.867C805.4 388.4 792.6 389.733 791 390.667C786.867 393.067 796.467 394.933 807.4 394C830.067 392.133 854.2 381.733 869.4 367.467L873.8 363.333L868.333 358.667C865.4 356.133 862.467 352.133 861.8 349.867C859.533 342 865.933 330.667 872.6 330.667C877.133 330.667 880.2 333.2 884.2 340.267L888.067 347.067L893.4 335.867C898.733 324.8 903 308.533 903 299.333C903 293.733 904.067 293.467 908.467 298.133C910.2 300 914.467 303.067 917.8 304.8C925 308.4 925.667 310 925.667 324C925.667 332.667 922.867 348.667 921 350.533C920.6 350.8 919.133 350 917.667 348.667C913.8 345.067 912.733 347.333 916.2 352C919.133 356 919.133 356 916.6 361.733C915.267 364.8 910.733 372.933 906.6 379.733C902.333 386.533 899 392.667 899 393.2C899 393.733 897.8 395.333 896.467 396.533C893.933 398.8 893.533 398.8 886.2 396C858.867 385.867 810.467 397.733 769.667 424.667C752.333 436.133 752.333 437.6 769.667 439.067C776.6 439.733 782.6 440.4 782.733 440.667C783 440.933 780.467 445.333 777.133 450.533C770.733 460.533 768.6 465.867 770.733 467.2C771.4 467.6 775 467.467 778.733 466.8L785.667 465.733L774.6 477.2C768.6 483.467 760.067 492.933 755.667 498C751.267 503.067 746.733 508.4 745.4 509.733C744.2 511.2 740.867 515.2 738.067 518.8C733.267 525.067 732.733 525.333 727.667 524.667C724.733 524.4 710.333 523.467 695.667 522.667C681 521.867 665.933 520.933 662.333 520.533L655.667 519.867L651 509.6C648.467 504 644.2 494.533 641.533 488.667C638.867 482.8 634.2 472.667 631.133 466.133C628.067 459.6 625.667 454 625.667 453.733C625.667 452 722.333 460.8 733.4 463.6C738.733 464.933 736.867 460.133 722.867 437.067L709.4 414.8L712.867 409.733C717.8 402.667 721.667 389.2 722.6 376.667C724.467 350.4 712.467 317.2 690.333 287.333L683.4 277.867L686.067 274.133C687.533 272.133 689 267.6 689.267 264.133C689.8 259.067 689.4 257.467 686.867 254.8C684.867 252.667 683.667 252.133 683.267 253.2C683 254.133 683.4 255.6 684.2 256.4C686.6 258.8 685.933 267.333 683.133 270.8L680.733 273.867L670.2 264.267C651.533 247.333 634.2 240.933 618.467 245.333C607.4 248.4 597.8 259.733 597.667 269.733V273.6L589.133 272.667C579.133 271.6 570.467 272.8 567.667 275.6C565 278.133 565.133 284.533 567.8 287.333C569.8 289.2 569.667 289.733 566.333 293.067C556.6 302.8 551.933 317.733 551.933 339.333V354.133L545.4 355.733C541.8 356.533 537.267 358.533 535.4 360C533.4 361.467 531.533 362.267 531 361.733C524.467 354.133 476.6 282.4 466.6 265.333C446.733 231.333 436.733 207.867 431.667 183.333C430.467 177.6 428.6 170.8 427.4 168.267C424.6 162.533 414.6 154.533 405.133 150.667L397.8 147.6L393.267 135.467C383.8 110 354.6 33.4666 350.2 22.1333C347.667 15.6 345.8 10.1333 346.067 9.73328C346.467 9.46661 351.8 13.6 357.933 18.9333C364.2 24.2666 374.6 33.2 381 38.6666C438.467 87.2 529 177.6 584.2 241.6C590.333 248.8 595.8 254.267 596.467 253.867C600.467 251.467 594.733 244 556.067 201.733C533.267 176.8 454.467 97.0667 439.267 83.4666C408.067 55.6 397 45.8666 384.867 35.8666C370.6 23.9999 344.733 2.93329 342.2 1.06665C341.267 0.399963 340.067 0.666626 339.267 1.59998ZM403.4 155.067C403 155.867 403.267 156 404.067 155.467C406.2 154.133 411.267 157.067 410.2 158.933C409.533 159.867 409.933 160.133 411.267 159.733C413.8 158.667 422.333 167.2 420.867 169.467C420.333 170.4 420.467 170.667 421.267 170.267C422.067 169.733 423.133 170.267 423.533 171.467C424.733 174.667 424.467 177.6 423 176.667C422.2 176.133 422.067 175.067 422.467 174.267C423 173.333 423 173.067 422.467 173.6C421.8 174.133 419.4 173.333 416.867 171.867C414.333 170.533 410.733 169.333 408.867 169.333C407 169.333 405.933 168.8 406.333 168C406.733 167.2 406.467 166.667 405.667 166.667C404.733 166.667 404.333 165.733 404.867 164.667C405.267 163.6 405.133 162.667 404.467 162.667C403.8 162.667 402.867 161.2 402.467 159.467C402.067 157.733 401.267 155.333 400.867 154.133C400.2 152.533 400.6 152.133 402.2 152.8C403.4 153.2 403.933 154.267 403.4 155.067ZM414.733 176.133C415 176.8 415.933 177.333 417 177.333C418.867 177.333 421.267 179.733 421.933 182.533C422.2 183.6 423.4 185.6 424.733 186.933C426.067 188.4 426.867 190.4 426.467 191.467C426.067 192.667 426.333 193.067 427 192.667C428.067 192 429 196.4 428.067 197.733C427.8 198 428.333 199.067 429.133 200.133C429.933 201.2 431.933 206.133 433.667 211.333C436.867 221.467 438.733 225.6 449.533 246C464.067 273.467 482.333 302.133 513 346L528.867 368.667L530.6 386.533L532.467 404.533L528.067 407.867C519.667 414.133 506.333 428.933 501.667 437.067C499.133 441.6 496.733 445.333 496.333 445.333C495.933 445.333 493.267 436.667 490.467 426.267C486.333 410.933 485.533 405.867 486.333 401.333C487.8 392.933 487.533 383.467 485.8 380.4C485.133 378.933 482.467 376.8 480.067 375.6C475.8 373.6 475.267 372.533 471.133 357.733C464.2 333.6 442.6 267.867 431.4 237.067C425.933 221.867 421.933 208.667 422.467 207.867C423 206.8 422.867 206.667 421.933 207.2C420.467 208 419.667 205.6 420.2 202.267C420.2 201.733 419.667 201.333 418.867 201.333C418.067 201.333 417.667 200.4 418.2 199.333C418.6 198.267 418.333 197.333 417.667 197.333C417.133 197.333 415.8 195.067 415 192.267C414.2 189.6 412.6 185.467 411.667 183.333C410.733 181.067 409.533 177.867 409 176.267C408.2 173.333 408.333 173.2 411.267 174C412.867 174.533 414.6 175.6 414.733 176.133ZM900.333 224.667C911 225.867 922.2 228.933 930.467 232.933C937.8 236.4 949.667 245.867 949.667 248.267C949.667 249.333 927.133 280.933 923 285.733C922.467 286.267 919.667 283.733 916.867 280C909.667 270.533 898.2 262.133 887.4 258.667C882.333 256.933 878.2 255.467 877.933 255.333C877.667 255.067 878.867 247.733 880.6 238.8L883.667 222.533L888.333 223.2C890.867 223.6 896.333 224.267 900.333 224.667ZM592.333 277.467C593.4 277.733 594.733 278.533 595.267 279.333C595.933 280.133 596.333 280 596.333 278.8C596.333 277.467 596.733 277.333 598.067 278.533C599.133 279.333 600.2 279.733 600.6 279.333C601.4 278.4 619.533 285.2 620.067 286.667C620.333 287.333 621.4 287.467 622.467 287.067C623.533 286.667 624.333 287.2 624.333 288.533C624.333 289.733 623.8 290.667 623.267 290.667C622.6 290.667 622.067 291.467 622.067 292.267C621.933 295.2 616.733 304 615.8 302.933C615.267 302.533 615.267 303.067 615.8 304.4C616.2 305.6 615.933 306.667 615.133 306.667C614.333 306.667 614.067 307.6 614.467 308.667C615 309.733 614.6 310.667 613.8 310.667C613 310.667 612.733 311.6 613.133 312.667C613.667 313.733 613.267 314.667 612.333 314.667C611.533 314.667 611.267 315.2 611.667 316C612.067 316.667 611.8 318.4 611.133 319.867C610.067 321.733 610.2 322.8 611.933 324.133C613.267 325.333 613.8 325.333 613.267 324.4C611.933 322.267 621.267 320.533 624.2 322.267C625.4 323.067 626.467 325.2 626.6 327.2C626.733 329.067 626.333 330.4 625.667 330C624.867 329.6 624.733 330.133 625.133 331.2C625.667 332.533 625.267 333.333 623.933 333.333C622.867 333.333 621.533 334.267 621.133 335.467C620.733 336.667 619.4 337.333 618.467 336.933C617.4 336.533 616.2 337.067 615.8 338.267C615.267 339.333 614.067 340 613 339.467C609.267 338 607.533 342 607.8 351.467C607.933 356.533 608.467 361.733 609 362.933C609.533 364.267 609.667 366.133 609.267 367.2C608.867 368.267 608.867 369.333 609.533 369.6C610.067 369.867 612.2 374.8 614.2 380.667C620.867 399.867 630.867 412.667 646.6 422.667C654.733 427.867 668.067 432 676.467 432C684.067 432 694.6 428.267 701 423.333L705.533 419.867L709.267 425.6C718.467 440.267 728.2 456.667 727.667 457.067C727.533 457.333 723.8 456.933 719.533 456.133C707.267 454 661.533 449.6 641.667 448.667C631.8 448.267 623.267 447.467 622.867 446.933C622.333 446.4 617.533 436.4 612.2 424.667C600.867 399.6 599.933 394.267 606.067 386.267C609.667 381.467 609.667 381.2 607.533 378.4C606.2 376.667 602.733 373.2 599.667 370.667C596.6 368.133 594.333 365.467 594.733 364.8C595.133 364.133 594.733 364 593.933 364.533C592.6 365.333 583 361.6 583 360.133C583 359.733 581.133 359.2 578.733 359.067C576.467 358.933 574.2 358.267 573.8 357.733C573 356.667 572.067 356.533 563.267 355.467C560.733 355.2 558.333 354.533 557.933 354C556.733 352.8 555.933 325.867 556.867 321.733C557.4 320.133 558.2 318.8 558.733 318.8C559.267 318.933 560.733 318.933 562.067 318.8C565.8 318.533 564.6 316 560.733 315.867C558.6 315.867 557.8 315.467 558.733 315.067C559.533 314.8 560.067 314 559.667 313.333C558.6 311.6 561.8 304 563.4 304.933C564.2 305.467 564.333 305.067 563.8 304.133C562.467 302 569.533 291.733 571.533 292.933C572.333 293.333 572.6 293.333 572.067 292.667C571.533 292.133 571.667 290.8 572.467 289.867C573.533 288.533 573.133 287.467 571.133 285.733C567.667 282.933 567.533 279.333 570.733 277.467C572.867 276.133 587.8 276.133 592.333 277.467ZM1044.6 295.733C1042.6 297.733 1039.4 300.133 1037.4 300.933C1033.8 302.533 1033.67 302.533 1033.67 298.133C1033.67 293.067 1034.73 292.4 1043.27 292.133L1048.07 292L1044.6 295.733ZM935.533 325.733C937.133 328.267 935.267 334.8 932.6 335.733C931.4 336.133 931 334.533 931.267 329.467C931.667 322.667 932.867 321.6 935.533 325.733ZM340.067 361.867C360.467 366 368.467 370.667 374.067 381.733C375.933 385.333 375.8 385.867 370.733 393.2L365.4 400.933L358.867 394.533C355 390.667 347.933 386 341.933 383.067C333.133 378.8 330.067 378 320.067 377.6C313.533 377.2 308.333 376.933 308.333 376.8C308.333 376.8 309.267 373.6 310.333 370C311.533 366.267 313 361.067 313.8 358.4L315.133 353.467L319.4 356C321.667 357.333 331 360 340.067 361.867ZM569.4 361.867C579.933 364.667 592.6 371.067 598.867 376.667L604.333 381.6L601 385.467C596.867 390.533 595.667 396.667 597.667 403.867C598.867 408.533 614.067 442.933 636.333 491.333C640.867 501.067 657 534.933 668.467 558.4C672.2 566 674.867 573.067 674.467 574.133C673.8 575.733 670.867 576.133 659.4 576C651.4 576 634.2 576.533 621 577.2C607.8 577.867 576.2 578.933 550.733 579.467L504.467 580.4L503.667 575.733C502.467 569.733 494.2 558.8 488.6 556.133L484.2 554L485.133 538C485.533 529.2 486.333 515.867 486.867 508.267C488.067 493.067 487.533 488 485 488C484.067 488 480.867 488.933 477.667 490C469.533 492.8 439 499.067 437.933 498.133C436.6 496.8 437.667 485.733 440.467 472C445 449.2 454.067 435.467 471.8 424.533C479.4 419.867 480.333 420.267 480.333 428.267C480.333 432.133 481.267 443.733 482.333 454C483.4 464.267 484.333 473.067 484.333 473.6C484.333 474.267 485.133 474.667 486.2 474.667C487.267 474.667 489.133 472 490.6 468.667C491.933 465.333 493.267 462.667 493.8 462.667C494.467 462.667 513.4 539.333 517.533 559.6C519 566.267 520.467 572.533 521 573.2C522.333 575.467 525.667 574.933 525.667 572.533C525.667 568.4 516.2 526.667 507.133 490.667L497.933 454L500.6 448.667C505.8 438.533 513.4 428.667 522.6 420C533.4 409.6 540.867 405.067 551.667 402C558.6 399.867 560.733 399.867 568.067 401.333C577 403.067 579 402.667 576.467 399.467C571.8 393.867 555.133 393.467 543.667 398.533C536.6 401.6 536.733 401.867 535.667 385.733C534.6 372.133 536.467 364.8 541.4 362.133C546.067 359.6 560.2 359.467 569.4 361.867ZM966.467 366.533C973.933 370 980.6 379.867 985.133 394.267C986.867 399.867 986.733 400.133 982.333 405.6C976.067 413.467 971.8 421.333 973.933 421.333C974.733 421.333 978.467 418.267 981.933 414.533L988.333 407.733V418.133C988.333 438.533 981.667 453.467 965 470.133C956.333 478.8 951.933 482 941.667 487.067C934.733 490.533 924.2 494.533 918.333 496.133C912.467 497.733 905.267 499.733 902.467 500.533L897.133 502L894.867 515.333C893.533 522.667 892.067 535.6 891.533 544.267L890.6 559.733L883.8 560.533C866.867 562.533 760.467 570.267 716.333 572.667L699.667 573.6L704.467 568.533C707.133 565.6 717.933 552.533 728.467 539.333C751.4 510.4 765 494.267 780.467 477.333C791.533 465.2 792.467 464.533 801.8 461.467C821.667 455.067 838.333 444.133 861 422.4C871.8 412.133 874.6 410.267 884.2 406.533C890.467 404.133 899.133 399.333 904.733 395.333C936.067 372.133 949.933 364.133 958.333 364.133C959.8 364 963.533 365.2 966.467 366.533ZM481.667 385.6C481.667 386.133 481.133 386.667 480.333 386.667C479.667 386.667 479 386.133 479 385.467C479 384.8 478.6 383.067 478.2 381.733C477.533 379.6 477.667 379.6 479.533 381.867C480.733 383.333 481.667 384.933 481.667 385.6ZM488.733 441.733C492.067 454.667 492.067 455.067 489.8 460.4L487.4 466L486.467 453.333C485.933 446.4 485.267 437.6 484.867 434C483.667 424.267 485 426.933 488.733 441.733ZM804.067 642.267C804.733 644.667 800.333 646.133 799 643.867C798.333 642.933 798.2 641.6 798.6 640.933C799.533 639.333 803.267 640.267 804.067 642.267ZM832.333 664.533C834.333 667.067 833.533 672 830.867 673.733C829.667 674.4 827.133 674.667 825.267 674.133C818.867 672.533 821 662.667 827.8 662.667C829.4 662.667 831.4 663.6 832.333 664.533ZM741.933 674.933C740.733 676.133 739.933 676.133 738.733 674.933C737.4 673.6 737.4 672.933 739 672C741.667 670.4 744.067 672.8 741.933 674.933Z" fill="black"/>
<path d="M603.133 287.866C603 288.932 602.2 289.332 600.733 288.799C599.4 288.266 598.867 288.266 599.4 288.799C599.933 289.332 599.4 290.932 598.067 292.266C596.067 294.532 596.067 294.666 599.133 294.932C604.067 295.199 604.733 295.199 608.2 293.999C610.733 293.199 611.267 293.466 610.6 295.066C610.2 296.132 610.6 298.132 611.533 299.332C613 301.466 613.4 301.066 614.6 296.132C616.067 290.666 616.067 290.532 612.2 289.732C610.067 289.332 608.333 288.399 608.333 287.732C608.333 286.932 607.533 286.932 606.467 287.866C605 289.066 604.467 289.066 603.933 287.732C603.4 286.399 603.133 286.399 603.133 287.866Z" fill="black"/>
<path d="M939.933 386.668C929 393.334 919.667 398.668 919 398.668C917.533 398.668 886.467 417.068 875.933 424.134C871.667 426.934 867.667 429.334 867 429.334C865.267 429.334 861.4 437.068 862.333 438.668C864.067 441.334 871.133 439.868 879.933 434.801C902.6 421.868 951.133 390.534 960.067 382.801C964.333 379.201 964.867 374.668 961.133 374.668C960.333 374.668 950.733 380.134 939.933 386.668Z" fill="black"/>
<path d="M951 408.931C940.067 416.398 903.133 437.331 897.4 439.465C896.067 439.998 895 440.798 895 441.465C895 442.131 894.067 442.665 893 442.665C891.933 442.665 888.867 443.998 886.067 445.598C883.267 447.198 875 451.465 867.667 455.198C860.333 458.798 854.067 462.265 853.667 462.665C853.267 463.065 845.933 466.931 837.4 471.331C783.667 498.931 773.8 504.131 773.133 505.198C772.867 505.598 773.133 507.465 773.8 509.198C774.867 511.865 775.667 512.265 779.4 511.465C781.667 511.065 787 509.065 791 507.198C795 505.198 799.533 503.198 801 502.665C806.333 500.665 818.333 495.731 820.867 494.398C822.2 493.731 831.8 488.798 842.2 483.465C890.867 458.531 947.667 424.131 960.867 411.598C965.933 406.798 966.067 406.531 963.533 404.665C962.2 403.598 960.733 402.798 960.333 402.798C959.933 402.931 955.8 405.598 951 408.931Z" fill="black"/>
<path d="M954.333 439.333C947.8 444 940.2 448.8 937.667 450.133C935.133 451.6 930.467 454.266 927.533 456.266C924.467 458.4 921.533 460 921 460C920.467 460 918.467 461.066 916.6 462.533C914.6 463.866 909.8 466.666 905.933 468.8C901.933 470.933 896.6 474 893.933 475.466C891.267 477.066 885.4 480.133 881 482.4C876.6 484.533 871.8 487.333 870.333 488.4C867.667 490.533 867.667 490.533 871.933 494.8L876.067 499.066L887.933 492C910.733 478.4 933.8 463.2 951.933 449.6C966.6 438.8 970.6 434.666 969 432C967.8 430 967.267 430.266 954.333 439.333Z" fill="black"/>
<path d="M831 508.532C793.8 527.199 788.067 529.999 772.467 536.132C757.8 541.865 729.267 556.265 728.733 558.132C728.467 559.065 729.133 560.665 730.333 561.865C732.733 564.265 735.667 563.865 746.333 559.999C750.067 558.665 758.467 555.599 765 553.332C782.733 546.932 823.933 527.732 847.667 514.799C868.733 503.332 872.333 501.065 872.333 499.465C872.333 497.465 866.733 491.999 864.867 491.999C864.2 492.132 849 499.465 831 508.532Z" fill="black"/>
<path d="M875.667 522.135C871.133 525.869 856.6 533.602 846.6 537.469C842.867 538.935 836.467 541.735 832.467 543.602C828.333 545.469 822.867 547.869 820.333 549.069C815.933 550.935 812.467 554.135 812.333 556.269C812.333 556.802 813.533 557.869 814.867 558.669C816.867 559.735 819.8 559.202 827.267 556.535C858.2 545.335 887.667 526.269 882.867 520.535C880.867 518.135 880.333 518.135 875.667 522.135Z" fill="black"/>
<path d="M787.4 71.7335C783.133 75.3335 775.4 82.8002 770.333 88.2668L760.867 98.4002L754.333 89.0668C747 78.8002 739.533 71.4668 737.533 72.8002C736.733 73.2002 739.133 76.8002 742.867 80.5335C746.467 84.4002 751.533 90.9335 754.2 95.0668C760.2 104.4 761.667 105.333 764.2 101.2C767.933 95.4668 777.8 85.6002 787.533 77.7335C797.133 69.8668 799 68.1335 799 66.2668C799 63.7335 794.467 65.8668 787.4 71.7335Z" fill="black"/>
<path d="M390.733 166.133C386.333 168.4 385.667 174.8 389.267 179.867C391 182.4 391.133 183.6 389.933 185.467C387.8 188.933 387.933 194 390.333 196C391.533 196.933 391.933 198.933 391.533 201.2C390.6 205.867 394.467 210.4 404.067 215.467C410.867 219.067 414.2 219.067 411.267 215.6C410.333 214.533 410.2 213.333 410.733 212.8C411.267 212.267 411.133 212 410.333 212.133C408.333 212.8 402.867 210.533 403.533 209.467C403.933 208.933 402.867 208.533 401.4 208.533C399.533 208.667 397.667 207.2 395.933 204.267C393.533 200.133 393.533 200 395.933 200.8C397.267 201.333 399.267 202.533 400.333 203.467C403.8 206.4 406.2 206.267 406.467 202.933C406.6 201.2 405.933 200 404.733 200C400.6 200 391 192.267 391 188.8C391 185.867 393.533 184.8 394.467 187.333C395.533 190.133 404.333 199.067 404.333 197.333C404.333 196.667 405.267 196 406.333 196C407.933 196 408.067 195.6 407 194.267C400.733 186.933 399.267 184.667 399.933 183.6C400.333 182.8 400.2 182.667 399.4 183.067C397.8 184 392.733 178.533 391 173.867C389.933 171.067 390.2 170.4 393 169.067C394.867 168.267 396.333 166.8 396.333 165.733C396.333 163.6 395.267 163.6 390.733 166.133Z" fill="black"/>
<path d="M416.733 241.467C409.933 251.733 411.133 268.133 421.133 301.067C427.667 322.8 433.267 336.533 436.467 339.467C439.4 342 439.4 342 438.6 337.333C438.333 334.8 435.4 325.733 432.333 317.333C424.867 296.8 417.8 270.667 416.867 260C416.067 252.267 416.467 250.4 419.533 244.267C423.4 236.667 423.533 236 421.667 236C421 236 418.733 238.533 416.733 241.467Z" fill="black"/>
<path d="M47.9333 296.135C42.2 302.002 33.9333 311.735 29.5333 317.735C25 323.735 21 328.802 20.4667 329.069C20.0667 329.202 17.5333 325.602 15.1333 321.069C10.4667 312.669 2.33333 302.669 0.199997 302.669C-0.600003 302.669 1.26666 305.869 4.06666 309.602C7 313.469 10.7333 319.335 12.4667 322.669C19.2667 335.869 21.6667 336.269 29 325.602C31.9333 321.469 40.4667 311.335 47.9333 303.069C55.5333 294.935 61.6667 287.602 61.6667 286.802C61.6667 283.335 57.6667 286.002 47.9333 296.135Z" fill="black"/>
<path d="M996.333 289.867C996.333 290.134 997.8 293.6 999.533 297.467C1001.27 301.467 1003.4 308.8 1004.33 314C1006.6 327.867 1007.53 330.934 1009 330.4C1013.67 328.934 1002.73 289.334 997.667 289.334C996.867 289.334 996.333 289.6 996.333 289.867Z" fill="black"/>
<path d="M963.133 292.534C962.2 293.601 961.133 296.534 960.733 299.201C960.067 303.067 959.4 304.001 956.867 304.001C955.133 304.001 953.133 305.201 952.333 306.667C951.267 308.667 949.533 309.334 945 309.334C940.733 309.334 938.733 310.001 937.933 311.601C935.667 315.867 937.533 317.334 945.133 317.334C949.133 317.334 952.333 317.867 952.333 318.667C952.333 319.334 953.8 320.001 955.533 320.001C957.933 320.001 958.867 321.067 959.8 324.267C961 328.401 961.667 328.801 968.6 329.867C975.8 331.067 976.2 331.201 977 335.867C977.533 338.534 978.467 341.467 979.267 342.267C981.933 345.467 982.733 342.667 981 336.801C979 330.267 979.4 329.334 983.8 329.334C986.067 329.334 986.867 330.267 987.267 332.934C987.533 334.801 988.467 336.667 989.4 337.067C991.667 337.734 991.533 327.867 989 312.001C986.333 295.334 986.067 294.801 983 295.601C981.133 296.134 980.067 297.867 979.533 301.601L978.6 306.801L973.533 301.467C970.6 298.534 968.333 295.467 968.333 294.667C968.333 294.001 970.333 293.334 972.733 293.334C975 293.334 977.933 292.667 979 292.001C980.467 291.067 978.6 290.667 972.867 290.667C967.4 290.667 964.2 291.334 963.133 292.534Z" fill="black"/>
<path d="M990.333 292.935C991.133 295.202 995.267 315.335 997 325.735C998.2 332.935 1001.13 331.469 1000.6 323.869C999.8 312.535 993.267 290.669 990.733 290.669C989.933 290.669 989.8 291.735 990.333 292.935Z" fill="black"/>
<path d="M1010.33 293.601C1013.13 302.934 1015 312.534 1015.8 321.601C1016.47 329.467 1017.13 331.601 1018.47 331.067C1021.53 329.867 1026.2 312.267 1026.2 301.334L1026.33 291.334L1017.8 290.934C1009.53 290.534 1009.4 290.534 1010.33 293.601Z" fill="black"/>
<path d="M916.467 308.533C914.2 311.2 915.133 318 917.667 318C920.733 318 922.6 311.067 920.2 308.533C918.333 306.8 917.933 306.8 916.467 308.533Z" fill="black"/>
<path d="M794.467 315.734C794.067 316.4 794.6 316.934 795.667 316.934C796.733 316.934 797.267 316.4 796.867 315.734C796.467 315.2 795.933 314.667 795.667 314.667C795.4 314.667 794.867 315.2 794.467 315.734Z" fill="black"/>
<path d="M791.667 323.598C785.134 325.998 778.867 326.931 770.734 326.798C764.067 326.531 761.8 327.998 765 330.665C768.6 333.598 790.334 331.598 798.067 327.598C801.4 325.731 802.067 322.131 799 321.865C797.934 321.731 794.6 322.531 791.667 323.598Z" fill="black"/>
<path d="M807 353.466C805.133 354.266 801.933 355.066 799.667 355.333C797.533 355.6 794.467 356.133 793 356.533C791.533 356.8 787.533 357.2 784.067 357.2C779.533 357.333 777.667 357.866 777.667 359.2C777.667 361.866 791.133 363.2 800.2 361.333C809.667 359.6 814.467 356.533 812.2 353.866C811.4 352.8 810.6 352 810.467 352.133C810.467 352.133 808.867 352.8 807 353.466Z" fill="black"/>
<path d="M448.6 375.599C445.4 382.799 445.4 401.065 448.733 404.399C450.067 405.732 450.733 407.332 450.333 407.999C449.8 408.799 450.733 409.332 452.2 409.332C455.533 409.332 455.533 409.065 453 403.865C450.067 398.399 448.6 378.665 451 378.665C451.933 378.665 452.467 378.265 451.933 377.865C451.533 377.465 451.667 375.599 452.333 373.865C454.467 368.532 451.133 370.132 448.6 375.599Z" fill="black"/>
<path d="M267 445.2C267 447.334 268.2 450.534 269.8 452.534C271.533 454.667 272.2 456.934 271.667 458.667C271.267 460.134 271.4 462.267 272.067 463.467C273.133 465.467 273.533 465.467 276.067 462.934C277.667 461.334 278.6 459.2 278.2 458C277.667 456.667 278.2 456 279.933 456C282.867 456 285.667 453.6 285.667 451.067C285.667 449.734 285 449.6 283.133 450.667C277 453.867 271.133 451.334 270.6 445.467C270.333 441.067 267 440.8 267 445.2Z" fill="black"/>
<path d="M288.6 449.601C287.533 452.001 286.333 455.201 285.667 456.667C284.6 459.334 283 464.934 282.067 470.001C281.8 471.334 281.133 472.934 280.6 473.334C279.133 474.401 278.733 478.534 279.933 480.401C280.733 481.734 282.2 481.867 285.133 481.067C290.6 479.734 292.333 476.001 287.667 476.001C285.8 476.001 284.333 475.334 284.333 474.534C284.333 473.867 284.867 473.601 285.667 474.001C286.333 474.401 286.6 474.001 286.2 472.801C285.8 471.734 287 465.467 288.867 458.801C292.733 445.467 292.733 445.334 291.267 445.334C290.733 445.334 289.533 447.334 288.6 449.601Z" fill="black"/>
<path d="M210.2 480.535C205.267 482.802 203.533 485.068 205.4 486.935C206.333 487.868 207.933 487.468 210.467 485.468C212.467 484.002 214.867 482.668 215.8 482.668C216.867 482.668 217.667 481.735 217.667 480.668C217.667 478.268 215.667 478.268 210.2 480.535Z" fill="black"/>
<path d="M127.8 482.534C127.4 483.2 129 484 131.4 484.267C133.667 484.667 136.733 485.334 138.067 486C139.4 486.534 140.333 486.4 140.333 485.6C140.333 484.267 133.4 481.334 130.2 481.334C129.267 481.334 128.2 481.867 127.8 482.534Z" fill="black"/>
<path d="M145.933 490.399C146.467 491.865 157.133 501.332 158.2 501.332C160.867 501.332 158.2 496.799 153.4 493.332C148.067 489.465 145 488.265 145.933 490.399Z" fill="black"/>
<path d="M277.667 490C277.667 490.4 278.6 492.134 279.667 493.867C282.067 497.467 287.667 497.2 289.667 493.2C291.4 490 289.267 488.8 285.8 490.934C283.667 492.267 282.733 492.267 281.4 490.934C279.8 489.334 277.667 488.8 277.667 490Z" fill="black"/>
<path d="M195.933 496.665C192.467 500.665 191.267 503.332 191.933 504.532C193.267 506.932 195.8 505.198 200.067 499.065C202.2 496.132 202.733 493.998 202.067 492.665C201.133 491.065 199.933 491.865 195.933 496.665Z" fill="black"/>
<path d="M166.2 504.134C164.6 506.8 168.333 508.534 177.133 509.067C184.2 509.6 185.933 509.334 185.4 507.867C185 506.8 181.933 505.6 177.933 505.2C174.066 504.667 170.2 504 169 503.6C167.933 503.067 166.733 503.467 166.2 504.134Z" fill="black"/>
<path d="M214.733 520.266C212.6 520.933 211 522.399 211 523.599C211 525.066 211.933 525.333 215.4 524.666C222.067 523.199 225.667 521.599 225.667 519.999C225.667 518.266 219.533 518.399 214.733 520.266Z" fill="black"/>
<path d="M235 523.466C235 524.666 236.733 527.732 239 530.132C241.133 532.666 243.4 536.266 243.8 537.999C244.733 541.599 247.933 542.532 249.133 539.466C250.6 535.599 240.867 521.332 236.733 521.332C235.8 521.332 235 522.266 235 523.466Z" fill="black"/>
<path d="M199.933 530.135C195.133 534.535 191.667 541.202 193.4 542.935C194.333 543.868 195.533 542.935 196.867 540.135C198.067 538.002 200.6 534.535 202.6 532.802C205 530.535 205.8 528.935 204.867 528.002C204.067 527.202 202.333 527.868 199.933 530.135Z" fill="black"/>
<path d="M335.667 532.667C335 532.801 330.867 534.001 326.733 535.334C321.667 536.801 319 538.267 319 539.601C319 541.067 319.8 541.467 322.067 540.801C323.667 540.267 328.733 538.934 333.4 537.734C338.467 536.401 341.667 534.934 341.667 533.867C341.667 532.134 338.867 531.601 335.667 532.667Z" fill="black"/>
<path d="M348.333 533.6C348.333 534.8 350.6 536.133 354.067 536.933C357.133 537.733 361 538.8 362.733 539.333C364.867 540.133 365.667 539.733 365.667 538.267C365.667 535.467 361.8 533.467 354.333 532.533C349.533 531.867 348.333 532 348.333 533.6Z" fill="black"/>
<path d="M120.2 534.665C117.8 536.265 118.333 536.532 127.533 538.399C131.933 539.199 137.8 541.465 140.6 543.332C146.067 546.932 148.867 547.599 148.067 544.932C146.2 539.599 125.133 531.732 120.2 534.665Z" fill="black"/>
<path d="M120.867 541.2C119.267 542.8 120.867 544 126.067 545.466C129.134 546.266 134.867 548.666 138.6 550.933C142.467 553.066 146.334 554.4 147.134 554C149.267 552.533 144.867 548.533 138.2 545.733C135 544.4 132.334 542.933 132.334 542.4C132.334 542 131 541.866 129.4 542.4C127.934 542.8 126.867 542.533 127.267 541.866C128.067 540.666 122.067 540.133 120.867 541.2Z" fill="black"/>
<path d="M373 542.667C371.933 544.4 383 560 385.267 560C386.2 560 387 559.2 387 558.267C387 554.8 377.4 541.333 374.867 541.333C374.333 541.333 373.4 541.867 373 542.667Z" fill="black"/>
<path d="M302.067 547.065C292.067 553.065 292.867 555.865 303 550.398C307.4 547.998 311 545.198 311 544.265C311 541.865 309.8 542.265 302.067 547.065Z" fill="black"/>
<path d="M253.133 550.133C252.6 551.466 253.8 553.6 256.467 556.133C264.2 563.333 267.533 559.733 259.933 552.266C254.867 547.333 254.2 547.2 253.133 550.133Z" fill="black"/>
<path d="M189.133 553.867C187.933 556.801 187.267 559.334 187.533 559.601C188.467 560.667 192.6 552.001 191.933 550.267C191.667 549.334 190.333 551.067 189.133 553.867Z" fill="black"/>
<path d="M280.333 557.334C276.066 557.867 275 558.401 276.6 559.201C279.666 560.667 287.4 559.601 288.066 557.601C288.333 556.801 288.066 556.134 287.4 556.267C286.866 556.267 283.666 556.801 280.333 557.334Z" fill="black"/>
<path d="M463.533 562.932C462.333 564.665 463 565.065 469.667 565.999C473 566.532 476.333 567.465 477.133 568.132C477.933 568.799 478.867 568.932 479.267 568.532C479.8 568.132 482.067 568.799 484.333 569.999C486.733 571.199 488.2 571.599 487.8 570.799C487.267 569.999 487.4 569.332 488.2 569.332C489 569.332 489.267 568.399 488.867 567.332C488.333 566.265 487.533 565.332 487 565.332C486.333 565.332 484.2 564.665 482.067 563.865C477.133 561.999 464.467 561.332 463.533 562.932Z" fill="black"/>
<path d="M463 573.201C463 574.001 463.4 574.668 464.067 574.801C464.6 574.801 467.667 575.201 471 575.468C474.333 575.868 478.6 576.668 480.467 577.201C484.867 578.668 487.933 577.068 485.133 574.801C482.467 572.534 463 571.068 463 573.201Z" fill="black"/>
</svg>
