<svg width="427" height="369" viewBox="0 0 427 369" fill="none" xmlns="http://www.w3.org/2000/svg">
<path d="M178.143 312.272C182.501 251.973 175.527 134.716 112.758 148.084C49.9889 161.451 47.3736 236.958 53.912 273.041C59.7239 294.109 92.9974 284.374 66.2624 216.375" stroke="black" stroke-width="3.64558" stroke-linecap="round"/>
<path d="M44.4671 209.111C26.7891 208.627 -14.4959 226.98 10.3219 289.025C42.2875 368.94 206.475 414.708 254.424 289.025" stroke="black" stroke-width="3.64558" stroke-linecap="round"/>
<path d="M297.287 250.522C284.937 235.992 271.134 250.522 258.057 235.992V272.637C260.381 278.449 265.842 272.637 268.954 270.137L297.287 250.522Z" fill="black"/>
<path d="M324.168 230.91L263.821 274.015C261.408 275.738 258.057 274.014 258.057 271.048V191.68" stroke="black" stroke-width="3.64558" stroke-linecap="round"/>
<path d="M287.843 174.968L335.065 79.7969" stroke="black" stroke-width="3.64558" stroke-linecap="round"/>
<path d="M359.765 81.25L306.005 190.951" stroke="black" stroke-width="3.64558" stroke-linecap="round"/>
<path d="M377.202 103.039L330.706 196.757" stroke="black" stroke-width="3.64558" stroke-linecap="round"/>
<path d="M316.904 71.0781L260.22 186.599C259.944 187.161 260.459 187.799 261.072 187.669C270.185 185.74 285.791 186.757 287.051 204.155C287.092 204.726 287.735 205.072 288.224 204.775C296.248 199.897 309.993 196.361 309.695 216.152C309.686 216.788 310.436 217.179 310.943 216.796C318.043 211.44 329.757 206.844 330.668 223.193C330.711 223.975 331.836 224.25 332.181 223.547L391.006 103.77" stroke="black" stroke-width="3.64558" stroke-linecap="round"/>
<path d="M383.739 3.51384C359.329 -0.554532 347.899 8.5993 345.235 13.6848L330.545 42.3646C330.291 42.8602 330.649 43.4477 331.206 43.4371C351.226 43.0585 392.142 50.49 404.893 78.3215C405.154 78.8902 405.971 78.9225 406.25 78.3629L409.893 71.0778L424.296 41.5515C424.377 41.3845 424.395 41.2001 424.338 41.0231C420.822 30.024 407.951 7.54909 383.739 3.51384Z" fill="black" stroke="black" stroke-width="3.64558" stroke-linecap="round"/>
<path d="M404.809 80.5241L393.433 101.937C393.11 102.545 392.166 102.425 391.973 101.763C388.109 88.4735 368.902 64.7547 321.696 63.8327C321.163 63.8223 320.799 63.264 321.03 62.7833L329.253 45.6523" stroke="black" stroke-width="3.64558" stroke-linecap="round"/>
<path d="M333.612 55.0983C343.541 53.6454 369.065 56.261 391.732 78.3461" stroke="black" stroke-width="3.64558" stroke-linecap="round"/>
</svg>
