<svg width="690" height="515" viewBox="0 0 690 515" fill="none" xmlns="http://www.w3.org/2000/svg">
<mask id="mask0_938_8831" style="mask-type:luminance" maskUnits="userSpaceOnUse" x="-97" y="-272" width="697" height="696">
<path d="M251.366 423.918C443.492 423.918 599.241 268.169 599.241 76.043C599.241 -116.083 443.492 -271.832 251.366 -271.832C59.2401 -271.832 -96.5088 -116.083 -96.5088 76.043C-96.5088 268.169 59.2401 423.918 251.366 423.918Z" fill="white"/>
</mask>
<g mask="url(#mask0_938_8831)">
<path d="M-100.19 25.3989C-0.99786 26.4504 98.37 27.1514 197.563 27.5019C296.405 27.8524 395.071 27.8524 493.914 27.5019C549.644 27.3267 605.374 26.9762 661.104 26.6257C664.258 26.6257 669.691 20.3166 664.609 20.3166C565.416 21.0176 466.048 21.3681 366.856 21.3681C268.014 21.3681 169.347 21.0176 70.5049 20.4919C14.7748 20.1414 -40.9553 19.6156 -96.6854 19.0898C-99.8399 19.0898 -105.273 25.2237 -100.19 25.3989Z" fill="#DAC765"/>
</g>
<mask id="mask1_938_8831" style="mask-type:luminance" maskUnits="userSpaceOnUse" x="-97" y="-272" width="697" height="696">
<path d="M251.366 423.918C443.492 423.918 599.241 268.169 599.241 76.043C599.241 -116.083 443.492 -271.832 251.366 -271.832C59.2401 -271.832 -96.5088 -116.083 -96.5088 76.043C-96.5088 268.169 59.2401 423.918 251.366 423.918Z" fill="white"/>
</mask>
<g mask="url(#mask1_938_8831)">
<path d="M-110.528 80.7687C-2.92301 83.047 104.857 85.3253 212.462 87.4283C319.54 89.7066 426.619 91.8096 533.874 94.0878C594.335 95.3146 654.797 96.5414 715.084 97.9434C720.692 98.1186 720.166 90.2323 714.734 90.2323C607.129 87.954 499.349 85.6758 391.744 83.5727C284.665 81.2945 177.586 79.1914 70.3323 76.9132C9.87037 75.6864 -50.5915 74.4596 -110.878 73.0576C-116.486 72.8824 -116.136 80.5935 -110.528 80.7687Z" fill="#DAC765"/>
</g>
<mask id="mask2_938_8831" style="mask-type:luminance" maskUnits="userSpaceOnUse" x="-97" y="-272" width="697" height="696">
<path d="M251.366 423.918C443.492 423.918 599.241 268.169 599.241 76.043C599.241 -116.083 443.492 -271.832 251.366 -271.832C59.2401 -271.832 -96.5088 -116.083 -96.5088 76.043C-96.5088 268.169 59.2401 423.918 251.366 423.918Z" fill="white"/>
</mask>
<g mask="url(#mask2_938_8831)">
<path d="M-106.849 149.825C-2.04873 148.774 102.927 148.774 207.728 150.176C259.778 150.877 311.827 151.753 363.877 152.98C416.102 154.207 468.327 156.135 520.377 156.836C577.86 157.537 635.342 156.485 692.475 149.825C694.227 149.65 691.073 149.124 690.897 149.124C688.969 148.949 686.866 148.949 684.939 149.124C582.066 161.042 478.141 154.732 374.918 152.279C271.87 149.825 168.647 148.423 65.5985 148.073C7.41488 147.898 -50.944 148.248 -109.128 148.774C-109.653 148.774 -112.457 148.599 -112.282 149.3C-111.932 150.001 -107.375 149.825 -106.849 149.825Z" fill="#DAC765"/>
</g>
<mask id="mask3_938_8831" style="mask-type:luminance" maskUnits="userSpaceOnUse" x="-97" y="-272" width="697" height="696">
<path d="M251.366 423.918C443.492 423.918 599.241 268.169 599.241 76.043C599.241 -116.083 443.492 -271.832 251.366 -271.832C59.2401 -271.832 -96.5088 -116.083 -96.5088 76.043C-96.5088 268.169 59.2401 423.918 251.366 423.918Z" fill="white"/>
</mask>
<g mask="url(#mask3_938_8831)">
<path d="M-104.571 213.791C-4.15144 212.389 96.0926 210.811 196.512 209.409C296.406 208.007 396.124 206.43 496.017 205.028C552.273 204.152 608.704 203.451 664.96 202.574C664.61 202.574 662.857 194.863 660.929 194.863C560.51 196.265 460.266 197.843 359.847 199.245C259.953 200.647 160.235 202.224 60.3412 203.626C4.0854 204.502 -52.3457 205.203 -108.602 206.079C-108.426 206.079 -106.674 213.791 -104.571 213.791Z" fill="#DAC765"/>
</g>
<mask id="mask4_938_8831" style="mask-type:luminance" maskUnits="userSpaceOnUse" x="-97" y="-272" width="697" height="696">
<path d="M251.366 423.918C443.492 423.918 599.241 268.169 599.241 76.043C599.241 -116.083 443.492 -271.832 251.366 -271.832C59.2401 -271.832 -96.5088 -116.083 -96.5088 76.043C-96.5088 268.169 59.2401 423.918 251.366 423.918Z" fill="white"/>
</mask>
<g mask="url(#mask4_938_8831)">
<path d="M-128.931 263.209C-19.3983 263.735 89.9589 263.735 199.491 262.859C308.323 262.158 417.329 260.58 526.161 258.477C587.674 257.251 649.012 255.849 710.351 254.096C712.454 254.096 708.072 247.086 705.444 247.086C596.086 250.065 486.554 252.343 377.021 253.921C268.19 255.498 159.183 256.374 50.352 256.55C-11.1615 256.725 -72.4996 256.55 -134.013 256.199C-135.766 256.199 -131.56 263.034 -128.931 263.209Z" fill="#DAC765"/>
</g>
<mask id="mask5_938_8831" style="mask-type:luminance" maskUnits="userSpaceOnUse" x="-97" y="-272" width="697" height="696">
<path d="M251.366 423.918C443.492 423.918 599.241 268.169 599.241 76.043C599.241 -116.083 443.492 -271.832 251.366 -271.832C59.2401 -271.832 -96.5088 -116.083 -96.5088 76.043C-96.5088 268.169 59.2401 423.918 251.366 423.918Z" fill="white"/>
</mask>
<g mask="url(#mask5_938_8831)">
<path d="M-49.8926 319.995C33.3521 318.944 116.421 317.717 199.666 315.964C282.385 314.387 365.104 312.284 447.823 310.006C494.44 308.779 541.232 307.377 587.849 305.8C589.426 305.8 591.354 304.222 592.756 303.521C593.107 303.346 595.56 301.594 595.21 301.594C512.14 304.223 428.896 306.501 345.826 308.604C263.107 310.532 180.388 312.284 97.6695 313.686C51.0525 314.387 4.26025 315.088 -42.3567 315.614C-43.934 315.614 -45.8618 317.191 -47.2638 317.892C-47.9648 318.243 -50.4183 319.995 -49.8926 319.995Z" fill="#DAC765"/>
</g>
<mask id="mask6_938_8831" style="mask-type:luminance" maskUnits="userSpaceOnUse" x="-97" y="-272" width="697" height="696">
<path d="M251.366 423.918C443.492 423.918 599.241 268.169 599.241 76.043C599.241 -116.083 443.492 -271.832 251.366 -271.832C59.2401 -271.832 -96.5088 -116.083 -96.5088 76.043C-96.5088 268.169 59.2401 423.918 251.366 423.918Z" fill="white"/>
</mask>
<g mask="url(#mask6_938_8831)">
<path d="M-30.7906 375.027C48.248 369.069 127.287 365.564 206.5 363.811C285.364 362.059 364.052 361.883 442.915 362.234C487.079 362.409 531.417 362.935 575.581 363.285C575.756 363.285 574.179 359.43 574.004 359.255C573.653 358.554 572.426 355.574 571.55 355.574C492.336 354.873 413.122 354.172 333.909 354.348C255.045 354.698 176.357 355.925 97.6691 359.43C53.5056 361.358 9.34209 363.811 -34.8214 367.316C-34.9966 367.316 -33.4194 371.172 -33.2441 371.347C-32.8936 371.873 -31.4916 375.027 -30.7906 375.027Z" fill="#DAC765"/>
</g>
<mask id="mask7_938_8831" style="mask-type:luminance" maskUnits="userSpaceOnUse" x="-97" y="-272" width="697" height="696">
<path d="M251.366 423.918C443.492 423.918 599.241 268.169 599.241 76.043C599.241 -116.083 443.492 -271.832 251.366 -271.832C59.2401 -271.832 -96.5088 -116.083 -96.5088 76.043C-96.5088 268.169 59.2401 423.918 251.366 423.918Z" fill="white"/>
</mask>
<g mask="url(#mask7_938_8831)">
<path d="M55.4353 408.497C121.856 409.548 188.101 410.775 254.521 411.826C320.591 412.878 386.486 414.105 452.556 415.156C489.885 415.857 527.038 416.383 564.367 417.084C566.295 417.084 566.996 415.507 566.295 413.929C565.418 412.177 562.965 410.775 561.037 410.775C494.617 409.723 428.371 408.497 361.951 407.445C295.881 406.394 229.986 405.167 163.916 404.115C126.588 403.414 89.4342 402.889 52.1056 402.188C50.1778 402.188 49.4768 403.765 50.1778 405.342C51.054 407.095 53.5076 408.497 55.4353 408.497Z" fill="#DAC765"/>
</g>
<mask id="mask8_938_8831" style="mask-type:luminance" maskUnits="userSpaceOnUse" x="-97" y="-272" width="697" height="696">
<path d="M251.366 423.918C443.492 423.918 599.241 268.169 599.241 76.043C599.241 -116.083 443.492 -271.832 251.366 -271.832C59.2401 -271.832 -96.5088 -116.083 -96.5088 76.043C-96.5088 268.169 59.2401 423.918 251.366 423.918Z" fill="white"/>
</mask>
<g mask="url(#mask8_938_8831)">
<path d="M52.1061 -38.5776C50.8794 -18.0731 50.7041 2.60658 51.4051 23.1111C51.4051 25.0388 53.5082 26.6161 55.2607 27.1419C56.3122 27.4924 59.4667 28.1934 59.2915 26.0903C58.5905 5.58586 58.7657 -15.0939 59.9925 -35.5983C60.1677 -38.5776 52.2814 -42.0826 52.1061 -38.5776Z" fill="#DAC765"/>
</g>
<mask id="mask9_938_8831" style="mask-type:luminance" maskUnits="userSpaceOnUse" x="-97" y="-272" width="697" height="696">
<path d="M251.366 423.918C443.492 423.918 599.241 268.169 599.241 76.043C599.241 -116.083 443.492 -271.832 251.366 -271.832C59.2401 -271.832 -96.5088 -116.083 -96.5088 76.043C-96.5088 268.169 59.2401 423.918 251.366 423.918Z" fill="white"/>
</mask>
<g mask="url(#mask9_938_8831)">
<path d="M252.241 -37.8667C251.89 -18.2385 251.89 1.38971 252.591 21.1932C252.591 23.1209 253.818 25.5745 255.22 26.8012C256.447 27.8527 257.499 27.5023 257.499 25.7497C256.798 6.12152 256.622 -13.5067 257.148 -33.3101C257.148 -35.2379 255.921 -37.6915 254.519 -38.9182C253.292 -40.145 252.416 -39.444 252.241 -37.8667Z" fill="#DAC765"/>
</g>
<mask id="mask10_938_8831" style="mask-type:luminance" maskUnits="userSpaceOnUse" x="-97" y="-272" width="697" height="696">
<path d="M251.366 423.918C443.492 423.918 599.241 268.169 599.241 76.043C599.241 -116.083 443.492 -271.832 251.366 -271.832C59.2401 -271.832 -96.5088 -116.083 -96.5088 76.043C-96.5088 268.169 59.2401 423.918 251.366 423.918Z" fill="white"/>
</mask>
<g mask="url(#mask10_938_8831)">
<path d="M420.307 -36.8178C424.163 -16.1381 426.091 4.71684 426.266 25.5718C426.266 29.6026 434.678 27.3243 434.678 23.9946C434.503 2.61383 432.4 -18.7669 428.544 -39.7971C428.194 -41.7249 424.689 -41.1992 423.462 -40.6734C421.885 -40.3229 419.957 -38.9209 420.307 -36.8178Z" fill="#DAC765"/>
</g>
<mask id="mask11_938_8831" style="mask-type:luminance" maskUnits="userSpaceOnUse" x="-97" y="-272" width="697" height="696">
<path d="M251.366 423.918C443.492 423.918 599.241 268.169 599.241 76.043C599.241 -116.083 443.492 -271.832 251.366 -271.832C59.2401 -271.832 -96.5088 -116.083 -96.5088 76.043C-96.5088 268.169 59.2401 423.918 251.366 423.918Z" fill="white"/>
</mask>
<g mask="url(#mask11_938_8831)">
<path d="M341.972 23.1097C341.096 42.9132 341.447 62.7166 343.024 82.3448C343.199 84.4479 344.601 86.7261 346.879 87.0766C348.982 87.4271 350.209 85.4994 350.034 83.5716C348.457 64.4691 348.106 45.3667 348.807 26.2642C348.982 24.1612 348.106 21.7077 346.003 20.8314C344.251 20.1304 341.972 21.0067 341.972 23.1097Z" fill="#DAC765"/>
</g>
<mask id="mask12_938_8831" style="mask-type:luminance" maskUnits="userSpaceOnUse" x="-97" y="-272" width="697" height="696">
<path d="M251.366 423.918C443.492 423.918 599.241 268.169 599.241 76.043C599.241 -116.083 443.492 -271.832 251.366 -271.832C59.2401 -271.832 -96.5088 -116.083 -96.5088 76.043C-96.5088 268.169 59.2401 423.918 251.366 423.918Z" fill="white"/>
</mask>
<g mask="url(#mask12_938_8831)">
<path d="M537.728 23.822C536.676 45.378 537.027 67.1093 538.429 88.6653C538.779 93.0466 546.49 95.3248 546.14 89.892C544.738 69.037 544.387 48.0068 545.263 27.1518C545.439 24.8736 544.212 22.7705 542.109 21.8943C540.707 21.1933 537.903 21.719 537.728 23.822Z" fill="#DAC765"/>
</g>
<mask id="mask13_938_8831" style="mask-type:luminance" maskUnits="userSpaceOnUse" x="-97" y="-272" width="697" height="696">
<path d="M251.366 423.918C443.492 423.918 599.241 268.169 599.241 76.043C599.241 -116.083 443.492 -271.832 251.366 -271.832C59.2401 -271.832 -96.5088 -116.083 -96.5088 76.043C-96.5088 268.169 59.2401 423.918 251.366 423.918Z" fill="white"/>
</mask>
<g mask="url(#mask13_938_8831)">
<path d="M130.792 22.7653C130.967 40.8163 131.318 58.8672 131.493 76.9182C131.493 78.8459 133.771 79.8975 135.524 80.0727C136.751 80.248 140.256 80.0727 140.256 78.1449C140.08 60.094 139.73 42.043 139.555 23.9921C139.555 22.0643 137.276 21.0128 135.524 20.8376C134.297 20.6623 130.792 20.8376 130.792 22.7653Z" fill="#DAC765"/>
</g>
<mask id="mask14_938_8831" style="mask-type:luminance" maskUnits="userSpaceOnUse" x="-97" y="-272" width="697" height="696">
<path d="M251.366 423.918C443.492 423.918 599.241 268.169 599.241 76.043C599.241 -116.083 443.492 -271.832 251.366 -271.832C59.2401 -271.832 -96.5088 -116.083 -96.5088 76.043C-96.5088 268.169 59.2401 423.918 251.366 423.918Z" fill="white"/>
</mask>
<g mask="url(#mask14_938_8831)">
<path d="M45.6204 80.2482C44.7441 102.155 45.2698 124.061 47.0224 145.792C47.1976 148.071 55.4345 150.349 55.2592 147.895C53.5067 126.339 52.9809 104.783 53.8572 83.2275C54.0324 80.4235 45.7956 78.4957 45.6204 80.2482Z" fill="#DAC765"/>
</g>
<mask id="mask15_938_8831" style="mask-type:luminance" maskUnits="userSpaceOnUse" x="-97" y="-272" width="697" height="696">
<path d="M251.366 423.918C443.492 423.918 599.241 268.169 599.241 76.043C599.241 -116.083 443.492 -271.832 251.366 -271.832C59.2401 -271.832 -96.5088 -116.083 -96.5088 76.043C-96.5088 268.169 59.2401 423.918 251.366 423.918Z" fill="white"/>
</mask>
<g mask="url(#mask15_938_8831)">
<path d="M246.461 83.5794C246.461 105.311 246.461 127.042 246.461 148.773C246.461 151.402 254.698 153.154 254.698 151.928C254.698 130.196 254.698 108.465 254.698 86.7339C254.698 83.9299 246.461 82.1774 246.461 83.5794Z" fill="#DAC765"/>
</g>
<mask id="mask16_938_8831" style="mask-type:luminance" maskUnits="userSpaceOnUse" x="-97" y="-272" width="697" height="696">
<path d="M251.366 423.918C443.492 423.918 599.241 268.169 599.241 76.043C599.241 -116.083 443.492 -271.832 251.366 -271.832C59.2401 -271.832 -96.5088 -116.083 -96.5088 76.043C-96.5088 268.169 59.2401 423.918 251.366 423.918Z" fill="white"/>
</mask>
<g mask="url(#mask16_938_8831)">
<path d="M450.629 86.3878C450.454 107.944 450.454 129.325 450.804 150.881C450.804 152.458 452.206 154.386 453.082 155.788C453.258 156.138 455.361 158.767 455.361 158.066C455.01 136.51 455.01 115.129 455.185 93.5732C455.185 91.9959 453.783 89.8929 452.907 88.6661C452.732 88.3156 450.804 85.6868 450.629 86.3878Z" fill="#DAC765"/>
</g>
<mask id="mask17_938_8831" style="mask-type:luminance" maskUnits="userSpaceOnUse" x="-97" y="-272" width="697" height="696">
<path d="M251.366 423.918C443.492 423.918 599.241 268.169 599.241 76.043C599.241 -116.083 443.492 -271.832 251.366 -271.832C59.2401 -271.832 -96.5088 -116.083 -96.5088 76.043C-96.5088 268.169 59.2401 423.918 251.366 423.918Z" fill="white"/>
</mask>
<g mask="url(#mask17_938_8831)">
<path d="M143.06 148.944C143.235 166.644 142.71 184.169 141.308 201.694C141.132 204.148 148.668 208.179 148.844 205.725C150.246 188.2 150.771 170.5 150.596 152.974C150.596 150.346 143.06 146.665 143.06 148.944Z" fill="#DAC765"/>
</g>
<mask id="mask18_938_8831" style="mask-type:luminance" maskUnits="userSpaceOnUse" x="-97" y="-272" width="697" height="696">
<path d="M251.366 423.918C443.492 423.918 599.241 268.169 599.241 76.043C599.241 -116.083 443.492 -271.832 251.366 -271.832C59.2401 -271.832 -96.5088 -116.083 -96.5088 76.043C-96.5088 268.169 59.2401 423.918 251.366 423.918Z" fill="white"/>
</mask>
<g mask="url(#mask18_938_8831)">
<path d="M358.269 153.853C357.918 169.801 357.743 185.924 357.393 201.872C357.393 204.676 365.98 203.45 365.98 200.12C366.33 184.172 366.506 168.049 366.856 152.101C367.031 149.472 358.444 150.524 358.269 153.853Z" fill="#DAC765"/>
</g>
<mask id="mask19_938_8831" style="mask-type:luminance" maskUnits="userSpaceOnUse" x="-97" y="-272" width="697" height="696">
<path d="M251.366 423.918C443.492 423.918 599.241 268.169 599.241 76.043C599.241 -116.083 443.492 -271.832 251.366 -271.832C59.2401 -271.832 -96.5088 -116.083 -96.5088 76.043C-96.5088 268.169 59.2401 423.918 251.366 423.918Z" fill="white"/>
</mask>
<g mask="url(#mask19_938_8831)">
<path d="M520.028 156.836C519.502 170.331 518.977 183.825 518.451 197.319C518.276 199.773 526.863 201.175 527.038 199.247C527.564 185.753 528.09 172.258 528.616 158.764C528.616 156.311 520.028 154.908 520.028 156.836Z" fill="#DAC765"/>
</g>
<mask id="mask20_938_8831" style="mask-type:luminance" maskUnits="userSpaceOnUse" x="-97" y="-272" width="697" height="696">
<path d="M251.366 423.918C443.492 423.918 599.241 268.169 599.241 76.043C599.241 -116.083 443.492 -271.832 251.366 -271.832C59.2401 -271.832 -96.5088 -116.083 -96.5088 76.043C-96.5088 268.169 59.2401 423.918 251.366 423.918Z" fill="white"/>
</mask>
<g mask="url(#mask20_938_8831)">
<path d="M59.2891 206.429C59.4643 223.428 58.9386 240.252 57.7118 257.077C57.5365 259.881 65.5981 263.211 65.7734 259.881C67.0002 243.057 67.5259 226.057 67.3507 209.233C67.3507 206.429 59.2891 203.274 59.2891 206.429Z" fill="#DAC765"/>
</g>
<mask id="mask21_938_8831" style="mask-type:luminance" maskUnits="userSpaceOnUse" x="-97" y="-272" width="697" height="696">
<path d="M251.366 423.918C443.492 423.918 599.241 268.169 599.241 76.043C599.241 -116.083 443.492 -271.832 251.366 -271.832C59.2401 -271.832 -96.5088 -116.083 -96.5088 76.043C-96.5088 268.169 59.2401 423.918 251.366 423.918Z" fill="white"/>
</mask>
<g mask="url(#mask21_938_8831)">
<path d="M249.966 203.986C249.09 221.862 249.265 239.913 250.842 257.789C251.018 259.892 252.945 261.995 255.048 262.345C256.976 262.871 258.378 261.469 258.203 259.541C256.626 242.366 256.45 225.017 257.327 207.667C257.502 205.564 256.1 203.461 254.172 202.409C252.595 201.708 249.966 201.883 249.966 203.986Z" fill="#DAC765"/>
</g>
<mask id="mask22_938_8831" style="mask-type:luminance" maskUnits="userSpaceOnUse" x="-97" y="-272" width="697" height="696">
<path d="M251.366 423.918C443.492 423.918 599.241 268.169 599.241 76.043C599.241 -116.083 443.492 -271.832 251.366 -271.832C59.2401 -271.832 -96.5088 -116.083 -96.5088 76.043C-96.5088 268.169 59.2401 423.918 251.366 423.918Z" fill="white"/>
</mask>
<g mask="url(#mask22_938_8831)">
<path d="M428.371 204.325C429.773 220.974 431.701 237.799 433.979 254.272C434.33 256.375 436.257 257.777 438.185 258.128C439.587 258.303 442.566 257.953 442.391 255.85C440.113 239.201 438.185 222.552 436.783 205.903C436.433 202.047 428.021 200.119 428.371 204.325Z" fill="#DAC765"/>
</g>
<mask id="mask23_938_8831" style="mask-type:luminance" maskUnits="userSpaceOnUse" x="-97" y="-272" width="697" height="696">
<path d="M251.366 423.918C443.492 423.918 599.241 268.169 599.241 76.043C599.241 -116.083 443.492 -271.832 251.366 -271.832C59.2401 -271.832 -96.5088 -116.083 -96.5088 76.043C-96.5088 268.169 59.2401 423.918 251.366 423.918Z" fill="white"/>
</mask>
<g mask="url(#mask23_938_8831)">
<path d="M349.682 257.433C350.733 274.608 351.609 291.782 352.661 308.782C352.836 311.586 361.599 312.112 361.423 309.658C360.372 292.483 359.496 275.309 358.444 258.309C358.269 255.505 349.682 255.155 349.682 257.433Z" fill="#DAC765"/>
</g>
<mask id="mask24_938_8831" style="mask-type:luminance" maskUnits="userSpaceOnUse" x="-97" y="-272" width="697" height="696">
<path d="M251.366 423.918C443.492 423.918 599.241 268.169 599.241 76.043C599.241 -116.083 443.492 -271.832 251.366 -271.832C59.2401 -271.832 -96.5088 -116.083 -96.5088 76.043C-96.5088 268.169 59.2401 423.918 251.366 423.918Z" fill="white"/>
</mask>
<g mask="url(#mask24_938_8831)">
<path d="M160.586 259.178C160.586 277.053 160.586 294.754 160.586 312.629C160.586 316.134 169.173 317.186 169.173 312.98C169.173 295.104 169.173 277.404 169.173 259.528C169.173 256.023 160.586 254.971 160.586 259.178Z" fill="#DAC765"/>
</g>
<mask id="mask25_938_8831" style="mask-type:luminance" maskUnits="userSpaceOnUse" x="-97" y="-272" width="697" height="696">
<path d="M251.366 423.918C443.492 423.918 599.241 268.169 599.241 76.043C599.241 -116.083 443.492 -271.832 251.366 -271.832C59.2401 -271.832 -96.5088 -116.083 -96.5088 76.043C-96.5088 268.169 59.2401 423.918 251.366 423.918Z" fill="white"/>
</mask>
<g mask="url(#mask25_938_8831)">
<path d="M93.6394 316.31C92.4126 331.907 93.2889 347.504 95.7424 362.927C96.2682 366.607 105.031 366.782 104.33 362.401C101.876 347.504 101.175 332.433 102.402 317.361C102.577 313.506 93.8146 312.454 93.6394 316.31Z" fill="#DAC765"/>
</g>
<mask id="mask26_938_8831" style="mask-type:luminance" maskUnits="userSpaceOnUse" x="-97" y="-272" width="697" height="696">
<path d="M251.366 423.918C443.492 423.918 599.241 268.169 599.241 76.043C599.241 -116.083 443.492 -271.832 251.366 -271.832C59.2401 -271.832 -96.5088 -116.083 -96.5088 76.043C-96.5088 268.169 59.2401 423.918 251.366 423.918Z" fill="white"/>
</mask>
<g mask="url(#mask26_938_8831)">
<path d="M273.799 315.439C273.799 330.335 273.799 345.232 273.799 359.953C273.799 364.685 282.386 363.107 282.386 358.726C282.386 343.83 282.386 328.933 282.386 314.212C282.386 309.655 273.799 311.233 273.799 315.439Z" fill="#DAC765"/>
</g>
<mask id="mask27_938_8831" style="mask-type:luminance" maskUnits="userSpaceOnUse" x="-97" y="-272" width="697" height="696">
<path d="M251.366 423.918C443.492 423.918 599.241 268.169 599.241 76.043C599.241 -116.083 443.492 -271.832 251.366 -271.832C59.2401 -271.832 -96.5088 -116.083 -96.5088 76.043C-96.5088 268.169 59.2401 423.918 251.366 423.918Z" fill="white"/>
</mask>
<g mask="url(#mask27_938_8831)">
<path d="M443.618 308.43C443.268 322.626 443.093 336.821 442.742 351.017C442.742 352.068 444.845 353.645 445.546 354.346C446.247 355.047 447.123 355.748 448 356.274C448.175 356.274 449.226 356.975 449.226 356.8C449.577 342.605 449.752 328.409 450.103 314.214C450.103 313.162 448 311.585 447.299 310.884C446.598 310.183 445.721 309.482 444.845 308.956C444.67 308.956 443.618 308.255 443.618 308.43Z" fill="#DAC765"/>
</g>
<mask id="mask28_938_8831" style="mask-type:luminance" maskUnits="userSpaceOnUse" x="-97" y="-272" width="697" height="696">
<path d="M251.366 423.918C443.492 423.918 599.241 268.169 599.241 76.043C599.241 -116.083 443.492 -271.832 251.366 -271.832C59.2401 -271.832 -96.5088 -116.083 -96.5088 76.043C-96.5088 268.169 59.2401 423.918 251.366 423.918Z" fill="white"/>
</mask>
<g mask="url(#mask28_938_8831)">
<path d="M210.532 361.532C210.707 375.728 210.882 389.923 211.233 404.119C211.233 408.325 219.82 410.077 219.82 405.345C219.645 391.15 219.47 376.955 219.119 362.759C218.944 358.553 210.357 356.801 210.532 361.532Z" fill="#DAC765"/>
</g>
<mask id="mask29_938_8831" style="mask-type:luminance" maskUnits="userSpaceOnUse" x="-97" y="-272" width="697" height="696">
<path d="M251.366 423.918C443.492 423.918 599.241 268.169 599.241 76.043C599.241 -116.083 443.492 -271.832 251.366 -271.832C59.2401 -271.832 -96.5088 -116.083 -96.5088 76.043C-96.5088 268.169 59.2401 423.918 251.366 423.918Z" fill="white"/>
</mask>
<g mask="url(#mask29_938_8831)">
<path d="M355.642 357.676C355.992 371.872 355.992 385.892 355.817 400.087C355.817 402.19 356.868 404.293 358.446 405.52C359.322 406.221 361.775 407.272 361.775 405.169C361.951 390.448 361.951 375.727 361.6 361.181C361.6 359.253 359.848 356.975 358.095 356.099C356.693 355.047 355.642 355.924 355.642 357.676Z" fill="#DAC765"/>
</g>
<mask id="mask30_938_8831" style="mask-type:luminance" maskUnits="userSpaceOnUse" x="-97" y="-272" width="697" height="696">
<path d="M251.366 423.918C443.492 423.918 599.241 268.169 599.241 76.043C599.241 -116.083 443.492 -271.832 251.366 -271.832C59.2401 -271.832 -96.5088 -116.083 -96.5088 76.043C-96.5088 268.169 59.2401 423.918 251.366 423.918Z" fill="white"/>
</mask>
<g mask="url(#mask30_938_8831)">
<path d="M253.294 409.899C255.748 423.744 256.799 437.764 256.274 451.784C256.274 453.712 257.676 455.815 258.727 457.217C259.253 457.918 261.005 459.495 261.181 457.743C261.706 443.197 260.48 428.651 257.851 414.456C257.5 412.528 256.274 410.425 254.872 409.023C253.82 407.971 252.944 408.322 253.294 409.899Z" fill="#DAC765"/>
</g>
</svg>
