<svg width="413" height="222" viewBox="0 0 413 222" fill="none" xmlns="http://www.w3.org/2000/svg">
<path d="M100.209 136.476L214.38 116.771C214.815 116.696 215.079 117.234 214.754 117.531L161.108 166.756C161.075 166.786 161.041 166.81 161.001 166.828C156.441 168.85 137.856 161.29 128.646 157.038C128.397 156.923 128.112 157.063 128.039 157.327C125.724 165.74 122.819 173.591 121.509 176.835C121.431 177.028 121.222 177.144 121.04 177.042C118.072 175.374 117.739 159.202 117.962 150.687C117.968 150.461 117.805 150.274 117.581 150.238C110.646 149.128 100.888 142.686 96.8076 139.547" stroke="white" stroke-width="2.20714" stroke-linecap="round"/>
<path d="M129.38 155.82C141.111 150.227 170.786 136.221 195.645 124.934" stroke="white" stroke-width="2.20714" stroke-linecap="round"/>
<path d="M120.394 177.16L142.295 163.121" stroke="white" stroke-width="2.20714" stroke-linecap="round"/>
<path d="M125.448 145.15L155.773 134.48" stroke="white" stroke-width="2.20714" stroke-linecap="round"/>
<path d="M108.453 196.032C97.315 202.05 66.9089 208.481 34.3885 186.06" stroke="white" stroke-width="2.20714" stroke-linecap="round"/>
<path d="M91.958 182.227C73.3908 179.454 29.2736 162.875 1.34199 118.738" stroke="white" stroke-width="2.20714" stroke-linecap="round"/>
<path d="M251.275 86.3717C243.681 133.197 266.831 175.389 302.331 181.146C337.831 186.904 373.13 154.191 380.724 107.366C388.318 60.5403 365.168 18.3488 329.668 12.5913C294.168 6.83394 258.869 39.5461 251.275 86.3717Z" stroke="white" stroke-width="2.20714"/>
<path d="M265.941 87.8911C263.033 105.819 265.799 122.881 272.567 135.967C279.336 149.052 290.062 158.096 303.089 160.209C316.116 162.322 329.152 157.131 339.709 146.856C350.266 136.58 358.282 121.267 361.19 103.339C364.097 85.4108 361.332 68.3487 354.563 55.2633C347.795 42.1777 337.068 33.1336 324.041 31.0209C311.014 28.9082 297.979 34.0984 287.422 44.3741C276.864 54.6497 268.848 69.9632 265.941 87.8911Z" stroke="white" stroke-width="2.20714"/>
<ellipse cx="24.8782" cy="33.5445" rx="24.8782" ry="33.5445" transform="matrix(-0.987103 -0.160089 -0.160089 0.987103 338.939 67.1953)" fill="#FF9148"/>
<path d="M366.175 172.107C321.249 215.348 271.269 190.078 260.599 162.841C265.351 190.009 297.544 205.423 324.338 206.082C353.821 206.082 390.603 181.653 400.712 159.471C437.91 77.8429 381.244 20.3889 352.978 12.3398C406.047 37.3298 414.459 125.633 366.175 172.107Z" fill="#FF9148"/>
</svg>
