<svg width="389" height="388" viewBox="0 0 389 388" fill="none" xmlns="http://www.w3.org/2000/svg">
<g clip-path="url(#clip0_938_8793)">
<mask id="mask0_938_8793" style="mask-type:luminance" maskUnits="userSpaceOnUse" x="-165" y="64" width="490" height="490">
<path d="M80.1095 553.487C215.219 553.487 324.747 443.958 324.747 308.849C324.747 173.739 215.219 64.2109 80.1095 64.2109C-55.0002 64.2109 -164.528 173.739 -164.528 308.849C-164.528 443.958 -55.0002 553.487 80.1095 553.487Z" fill="white"/>
</mask>
<g mask="url(#mask0_938_8793)">
<path d="M83.5604 288.263C60.3906 258.315 37.5906 228.121 15.0371 197.68C-7.51638 167.239 -29.7002 136.551 -51.5142 105.74C-63.8385 88.363 -75.9164 70.9857 -87.9942 53.6084C-89.5964 51.2667 -95.2656 53.6084 -93.4169 56.1965C-71.9726 87.377 -50.0353 118.311 -27.9748 148.999C-5.79097 179.686 16.6393 210.127 39.4393 240.322C52.2566 257.206 65.0739 274.091 78.1377 290.975C79.8631 293.07 85.5323 290.728 83.5604 288.263Z" fill="#FF9148"/>
</g>
<mask id="mask1_938_8793" style="mask-type:luminance" maskUnits="userSpaceOnUse" x="-165" y="64" width="490" height="490">
<path d="M80.1095 553.487C215.219 553.487 324.747 443.958 324.747 308.849C324.747 173.739 215.219 64.2109 80.1095 64.2109C-55.0002 64.2109 -164.528 173.739 -164.528 308.849C-164.528 443.958 -55.0002 553.487 80.1095 553.487Z" fill="white"/>
</mask>
<g mask="url(#mask1_938_8793)">
<path d="M80.9723 295.285C74.194 262.379 66.1832 229.72 57.0632 197.307C47.9432 164.894 37.714 132.851 26.2524 101.301C19.8437 83.4303 13.0653 65.8065 5.91722 48.1827C5.42425 47.0735 4.43829 46.0876 3.57559 45.2249C3.20586 44.8552 2.7129 44.1157 2.21992 43.9924C2.21992 43.9924 1.6037 43.6227 1.85019 43.9924C14.5442 75.173 26.0059 106.723 36.4815 138.767C46.834 170.687 56.2005 203.099 64.2113 235.759C68.7713 254.122 72.9615 272.609 76.7821 291.218C77.0286 292.328 78.3842 293.437 79.1237 294.176C79.4934 294.3 80.9723 295.655 80.9723 295.285Z" fill="#FF9148"/>
</g>
<mask id="mask2_938_8793" style="mask-type:luminance" maskUnits="userSpaceOnUse" x="-165" y="64" width="490" height="490">
<path d="M80.1095 553.487C215.219 553.487 324.747 443.958 324.747 308.849C324.747 173.739 215.219 64.2109 80.1095 64.2109C-55.0002 64.2109 -164.528 173.739 -164.528 308.849C-164.528 443.958 -55.0002 553.487 80.1095 553.487Z" fill="white"/>
</mask>
<g mask="url(#mask2_938_8793)">
<path d="M87.1332 292.828C87.1332 262.88 86.2705 232.932 84.7916 203.107C83.1894 173.282 80.8478 143.334 77.7667 113.632C76.0413 96.8712 73.9462 79.9869 71.7278 63.349C71.4813 61.8701 70.2489 61.0074 68.8932 60.5145C68.1537 60.268 65.8121 60.0215 65.9354 61.5004C69.8791 91.202 73.2067 120.904 75.5483 150.729C78.0132 180.553 79.6153 210.501 80.6013 240.326C81.0943 257.211 81.3408 274.095 81.3408 290.979C81.3408 293.321 87.1332 295.416 87.1332 292.828Z" fill="#FF9148"/>
</g>
<mask id="mask3_938_8793" style="mask-type:luminance" maskUnits="userSpaceOnUse" x="-165" y="64" width="490" height="490">
<path d="M80.1095 553.487C215.219 553.487 324.747 443.958 324.747 308.849C324.747 173.739 215.219 64.2109 80.1095 64.2109C-55.0002 64.2109 -164.528 173.739 -164.528 308.849C-164.528 443.958 -55.0002 553.487 80.1095 553.487Z" fill="white"/>
</mask>
<g mask="url(#mask3_938_8793)">
<path d="M89.3517 291.594C96.7463 264.604 103.401 237.367 109.44 210.007C115.479 182.647 120.779 155.164 125.339 127.434C127.927 111.783 130.268 96.2539 132.487 80.4787C132.857 78.0139 126.818 78.7533 126.448 80.7252C122.627 108.455 118.067 136.185 112.891 163.668C107.715 191.151 101.799 218.634 95.1441 245.871C91.4468 261.277 87.503 276.559 83.3128 291.841C82.8198 294.183 88.8587 293.69 89.3517 291.594Z" fill="#FF9148"/>
</g>
<mask id="mask4_938_8793" style="mask-type:luminance" maskUnits="userSpaceOnUse" x="-165" y="64" width="490" height="490">
<path d="M80.1095 553.487C215.219 553.487 324.747 443.958 324.747 308.849C324.747 173.739 215.219 64.2109 80.1095 64.2109C-55.0002 64.2109 -164.528 173.739 -164.528 308.849C-164.528 443.958 -55.0002 553.487 80.1095 553.487Z" fill="white"/>
</mask>
<g mask="url(#mask4_938_8793)">
<path d="M87.873 294.429C112.398 264.604 136.308 234.163 159.601 203.352C182.894 172.541 205.57 141.237 227.754 109.564C240.202 91.6935 252.403 73.6999 264.481 55.5832C266.206 52.9951 260.537 50.6535 259.058 52.9951C237.614 85.1616 215.676 116.958 193 148.262C170.323 179.566 147.153 210.377 123.367 240.818C109.934 257.949 96.3768 274.956 82.5736 291.717C80.4784 294.182 86.1476 296.647 87.873 294.429Z" fill="#FF9148"/>
</g>
<mask id="mask5_938_8793" style="mask-type:luminance" maskUnits="userSpaceOnUse" x="-165" y="64" width="490" height="490">
<path d="M80.1095 553.487C215.219 553.487 324.747 443.958 324.747 308.849C324.747 173.739 215.219 64.2109 80.1095 64.2109C-55.0002 64.2109 -164.528 173.739 -164.528 308.849C-164.528 443.958 -55.0002 553.487 80.1095 553.487Z" fill="white"/>
</mask>
<g mask="url(#mask5_938_8793)">
<path d="M88.612 294.925C106.482 282.477 124.352 270.03 142.223 257.705C160.216 245.258 178.087 232.81 196.08 220.239C213.95 207.792 231.821 195.344 249.691 183.02C267.561 170.572 285.431 158.125 303.302 145.8C321.295 133.353 339.165 120.905 357.159 108.334C359.377 106.856 361.596 105.253 363.691 103.774C364.184 103.405 365.786 102.296 364.923 101.556C364.061 100.94 361.842 102.296 361.226 102.788C343.356 115.236 325.485 127.684 307.615 140.008C289.622 152.456 271.751 164.903 253.758 177.474C235.888 189.921 218.017 202.369 200.147 214.693C182.277 227.141 164.407 239.588 146.536 251.913C128.543 264.36 110.673 276.808 92.679 289.379C90.4606 290.858 88.2422 292.46 86.1471 293.939C85.6541 294.308 84.052 295.418 84.9147 296.157C85.7774 296.773 88.119 295.418 88.612 294.925Z" fill="#FF9148"/>
</g>
<mask id="mask6_938_8793" style="mask-type:luminance" maskUnits="userSpaceOnUse" x="-165" y="64" width="490" height="490">
<path d="M80.1095 553.487C215.219 553.487 324.747 443.958 324.747 308.849C324.747 173.739 215.219 64.2109 80.1095 64.2109C-55.0002 64.2109 -164.528 173.739 -164.528 308.849C-164.528 443.958 -55.0002 553.487 80.1095 553.487Z" fill="white"/>
</mask>
<g mask="url(#mask6_938_8793)">
<path d="M82.9458 293.813C103.651 298.126 124.479 302.193 145.307 305.891C166.258 309.588 187.21 313.039 208.284 316.243C229.236 319.324 250.187 322.159 271.262 324.624C292.336 327.088 313.411 329.307 334.485 331.032C355.56 332.881 376.758 334.36 397.832 335.592C400.42 335.715 403.132 335.839 405.72 336.085C407.076 336.208 408.554 335.469 409.787 334.853C410.157 334.606 411.759 333.744 410.526 333.62C389.328 332.511 368.254 331.032 347.179 329.307C326.105 327.581 305.03 325.486 283.956 323.021C262.881 320.68 241.93 317.968 220.978 314.887C200.15 311.93 179.322 308.602 158.494 304.905C137.666 301.207 116.838 297.264 96.1328 293.073C93.5447 292.58 90.9566 291.964 88.3685 291.471C87.2593 291.225 85.6572 291.964 84.6712 292.334C84.548 292.457 82.3296 293.69 82.9458 293.813Z" fill="#FF9148"/>
</g>
<mask id="mask7_938_8793" style="mask-type:luminance" maskUnits="userSpaceOnUse" x="-165" y="64" width="490" height="490">
<path d="M80.1095 553.487C215.219 553.487 324.747 443.958 324.747 308.849C324.747 173.739 215.219 64.2109 80.1095 64.2109C-55.0002 64.2109 -164.528 173.739 -164.528 308.849C-164.528 443.958 -55.0002 553.487 80.1095 553.487Z" fill="white"/>
</mask>
<g mask="url(#mask7_938_8793)">
<path d="M82.3279 292.949C98.7193 315.256 111.537 339.905 124.847 364.06C138.773 389.448 152.7 414.836 166.626 440.348C180.553 465.859 194.603 491.37 208.529 516.882C222.455 542.27 236.382 567.658 250.308 593.169C264.235 618.558 278.161 643.946 292.088 669.457C293.813 672.661 295.539 675.742 297.264 678.947C297.88 680.179 299.236 681.165 300.468 681.658C300.961 681.905 302.81 682.398 302.194 681.165C288.267 655.654 274.218 630.142 260.291 604.631C246.365 579.12 232.315 553.608 218.388 528.097C204.462 502.586 190.412 477.074 176.486 451.563C162.559 426.052 148.51 400.54 134.583 375.029C121.273 350.627 108.579 325.732 92.8036 302.808C90.8317 299.974 88.983 297.262 86.8879 294.551C86.0252 293.442 84.6695 292.333 83.3139 291.963C82.0814 291.47 81.5884 291.963 82.3279 292.949Z" fill="#FF9148"/>
</g>
<mask id="mask8_938_8793" style="mask-type:luminance" maskUnits="userSpaceOnUse" x="-165" y="64" width="490" height="490">
<path d="M80.1095 553.487C215.219 553.487 324.747 443.958 324.747 308.849C324.747 173.739 215.219 64.2109 80.1095 64.2109C-55.0002 64.2109 -164.528 173.739 -164.528 308.849C-164.528 443.958 -55.0002 553.487 80.1095 553.487Z" fill="white"/>
</mask>
<g mask="url(#mask8_938_8793)">
<path d="M83.4376 282.969C78.7544 323.639 74.0711 364.432 69.5111 405.103C64.8279 445.65 60.2679 486.074 55.5846 526.621C52.9965 549.544 50.2852 572.467 47.6971 595.39C47.5738 596.623 48.8063 597.978 49.5457 598.841C49.7922 599.088 51.6408 600.813 51.7641 599.827C56.4473 559.157 61.1306 518.363 65.6906 477.693C70.3738 437.146 74.9338 396.722 79.6171 356.175C82.2052 333.252 84.9165 310.329 87.5046 287.405C87.6279 286.173 86.3954 284.817 85.656 283.955C85.5327 283.708 83.5608 281.859 83.4376 282.969Z" fill="#FF9148"/>
</g>
<mask id="mask9_938_8793" style="mask-type:luminance" maskUnits="userSpaceOnUse" x="-165" y="64" width="490" height="490">
<path d="M80.1095 553.487C215.219 553.487 324.747 443.958 324.747 308.849C324.747 173.739 215.219 64.2109 80.1095 64.2109C-55.0002 64.2109 -164.528 173.739 -164.528 308.849C-164.528 443.958 -55.0002 553.487 80.1095 553.487Z" fill="white"/>
</mask>
<g mask="url(#mask9_938_8793)">
<path d="M80.3559 292.341C55.8305 321.673 31.6748 351.128 7.64238 380.829C-16.2668 410.408 -39.8063 440.109 -63.0992 470.057C-76.2863 487.065 -89.4733 504.073 -102.537 521.08C-104.262 523.299 -98.963 526.503 -97.2376 524.284C-74.0679 493.967 -50.6517 463.772 -26.989 433.947C-3.44951 404.122 20.4597 374.667 44.4921 345.212C58.1721 328.574 71.8521 312.06 85.6554 295.545C86.6413 294.436 85.0391 292.71 84.0532 292.094C82.944 291.355 81.3418 291.232 80.3559 292.341Z" fill="#FF9148"/>
</g>
<mask id="mask10_938_8793" style="mask-type:luminance" maskUnits="userSpaceOnUse" x="-165" y="64" width="490" height="490">
<path d="M80.1095 553.487C215.219 553.487 324.747 443.958 324.747 308.849C324.747 173.739 215.219 64.2109 80.1095 64.2109C-55.0002 64.2109 -164.528 173.739 -164.528 308.849C-164.528 443.958 -55.0002 553.487 80.1095 553.487Z" fill="white"/>
</mask>
<g mask="url(#mask10_938_8793)">
<path d="M79.1223 291.105C59.2801 299.239 39.3147 307.127 19.2261 314.645C-0.862586 322.286 -21.1977 329.557 -41.5329 336.705C-61.7448 343.73 -82.0799 350.509 -102.538 357.041C-122.997 363.572 -143.455 369.735 -164.037 375.65C-184.618 381.566 -205.323 387.235 -226.028 392.658C-228.616 393.397 -231.204 394.014 -233.916 394.63C-235.025 394.876 -232.93 396.602 -232.683 396.725C-231.82 397.341 -230.218 398.327 -229.109 398.081C-208.281 392.781 -187.699 387.235 -166.995 381.319C-146.29 375.404 -125.585 369.242 -105.126 362.833C-84.668 356.424 -64.3329 349.769 -43.9977 342.744C-23.6626 335.719 -3.57395 328.571 16.5147 321.053C36.6033 313.536 56.5688 305.771 76.4109 297.761C78.8758 296.775 81.4639 295.665 83.9287 294.679C84.9147 294.31 82.9428 292.831 82.6963 292.584C81.9569 291.845 80.2315 290.612 79.1223 291.105Z" fill="#FF9148"/>
</g>
<mask id="mask11_938_8793" style="mask-type:luminance" maskUnits="userSpaceOnUse" x="-165" y="64" width="490" height="490">
<path d="M80.1095 553.487C215.219 553.487 324.747 443.958 324.747 308.849C324.747 173.739 215.219 64.2109 80.1095 64.2109C-55.0002 64.2109 -164.528 173.739 -164.528 308.849C-164.528 443.958 -55.0002 553.487 80.1095 553.487Z" fill="white"/>
</mask>
<g mask="url(#mask11_938_8793)">
<path d="M81.3411 288.268C42.1498 285.927 2.95842 283.462 -36.2329 281.12C-75.301 278.779 -114.369 276.314 -153.56 273.972C-175.621 272.616 -197.558 271.261 -219.619 269.905C-220.605 269.782 -222.7 270.152 -222.823 271.507C-222.946 272.863 -220.728 273.356 -219.865 273.356C-180.674 275.697 -141.483 278.162 -102.291 280.504C-63.2232 282.846 -24.1551 285.31 15.0362 287.652C37.0968 289.008 59.0341 290.363 81.0946 291.719C82.0806 291.842 84.1757 291.473 84.2989 290.117C84.4222 288.885 82.2038 288.392 81.3411 288.268Z" fill="#FF9148"/>
</g>
<mask id="mask12_938_8793" style="mask-type:luminance" maskUnits="userSpaceOnUse" x="-165" y="64" width="490" height="490">
<path d="M80.1095 553.487C215.219 553.487 324.747 443.958 324.747 308.849C324.747 173.739 215.219 64.2109 80.1095 64.2109C-55.0002 64.2109 -164.528 173.739 -164.528 308.849C-164.528 443.958 -55.0002 553.487 80.1095 553.487Z" fill="white"/>
</mask>
<g mask="url(#mask12_938_8793)">
<path d="M88.4889 288.882C55.8295 274.462 21.8143 263.124 -12.324 252.771C-47.2019 242.296 -82.2029 232.436 -117.204 222.33C-137.293 216.538 -157.381 210.745 -177.593 204.953C-178.826 204.583 -178.456 206.062 -178.086 206.802C-177.593 207.911 -176.361 209.513 -175.128 209.883C-139.265 220.235 -103.401 230.587 -67.4138 240.817C-33.1521 250.676 1.23271 260.412 35.0014 271.997C53.9808 278.529 72.5905 285.677 90.9538 293.688C92.1862 294.304 91.6933 292.332 91.4468 291.839C90.8306 290.73 89.7213 289.498 88.4889 288.882Z" fill="#FF9148"/>
</g>
<mask id="mask13_938_8793" style="mask-type:luminance" maskUnits="userSpaceOnUse" x="-165" y="64" width="490" height="490">
<path d="M80.1095 553.487C215.219 553.487 324.747 443.958 324.747 308.849C324.747 173.739 215.219 64.2109 80.1095 64.2109C-55.0002 64.2109 -164.528 173.739 -164.528 308.849C-164.528 443.958 -55.0002 553.487 80.1095 553.487Z" fill="white"/>
</mask>
<g mask="url(#mask13_938_8793)">
<path d="M89.9667 287.899C56.8142 268.18 23.6618 248.338 -9.98362 229.358C-43.3825 210.502 -77.2744 192.262 -111.906 175.748C-131.378 166.381 -150.974 157.631 -170.939 149.497C-172.172 149.004 -172.911 149.99 -172.665 151.222C-172.295 152.701 -170.939 153.81 -169.584 154.303C-134.09 168.846 -99.5814 185.484 -65.5663 203.354C-31.6744 221.101 1.47801 240.081 34.5072 259.43C53.1169 270.275 71.6034 281.367 90.0899 292.336C91.0758 292.952 92.4315 292.829 92.5548 291.473C92.5548 289.994 91.0758 288.638 89.9667 287.899Z" fill="#FF9148"/>
</g>
<mask id="mask14_938_8793" style="mask-type:luminance" maskUnits="userSpaceOnUse" x="-165" y="64" width="490" height="490">
<path d="M80.1095 553.487C215.219 553.487 324.747 443.958 324.747 308.849C324.747 173.739 215.219 64.2109 80.1095 64.2109C-55.0002 64.2109 -164.528 173.739 -164.528 308.849C-164.528 443.958 -55.0002 553.487 80.1095 553.487Z" fill="white"/>
</mask>
<g mask="url(#mask14_938_8793)">
<path d="M85.1626 291.353C47.4501 294.927 9.61445 298.871 -28.098 303.061C-65.8104 307.252 -103.523 311.812 -141.112 316.741C-162.31 319.453 -183.631 322.411 -204.829 325.369C-206.184 325.615 -204.706 326.847 -204.213 327.094C-202.98 327.833 -201.501 328.326 -200.146 328.08C-162.556 322.78 -124.844 317.851 -87.2547 313.291C-49.7888 308.731 -12.1996 304.417 25.2663 300.473C46.4642 298.255 67.5388 296.16 88.7366 294.188C89.8458 294.065 90.0923 293.572 89.2296 292.709C88.3669 291.97 86.5182 291.23 85.1626 291.353Z" fill="#FF9148"/>
</g>
<mask id="mask15_938_8793" style="mask-type:luminance" maskUnits="userSpaceOnUse" x="-165" y="64" width="490" height="490">
<path d="M80.1095 553.487C215.219 553.487 324.747 443.958 324.747 308.849C324.747 173.739 215.219 64.2109 80.1095 64.2109C-55.0002 64.2109 -164.528 173.739 -164.528 308.849C-164.528 443.958 -55.0002 553.487 80.1095 553.487Z" fill="white"/>
</mask>
<g mask="url(#mask15_938_8793)">
<path d="M77.3987 290.853C59.5284 302.068 41.7814 313.407 24.2809 324.991C6.65707 336.576 -10.7202 348.284 -28.0975 360.239C-45.4748 372.317 -62.7289 384.518 -79.8597 396.842C-96.8672 409.167 -113.752 421.737 -130.513 434.431C-147.274 447.125 -163.912 460.189 -180.426 473.253C-182.521 474.855 -184.493 476.581 -186.588 478.183C-188.93 480.031 -184.863 484.715 -182.521 482.866C-166.13 469.679 -149.492 456.738 -132.854 443.921C-116.093 431.104 -99.2089 418.533 -82.2013 406.085C-65.0705 393.638 -47.9397 381.314 -30.5624 369.236C-13.3083 357.281 4.19222 345.45 21.6928 333.742C39.1933 322.157 56.9403 310.695 74.6873 299.48C76.9057 298.124 79.1241 296.645 81.3425 295.29C82.5749 294.55 81.7122 292.332 80.9727 291.469C80.2333 290.607 78.7544 289.99 77.3987 290.853Z" fill="#FF9148"/>
</g>
<mask id="mask16_938_8793" style="mask-type:luminance" maskUnits="userSpaceOnUse" x="-165" y="64" width="490" height="490">
<path d="M80.1095 553.487C215.219 553.487 324.747 443.958 324.747 308.849C324.747 173.739 215.219 64.2109 80.1095 64.2109C-55.0002 64.2109 -164.528 173.739 -164.528 308.849C-164.528 443.958 -55.0002 553.487 80.1095 553.487Z" fill="white"/>
</mask>
<g mask="url(#mask16_938_8793)">
<path d="M80.2313 286.914C75.5481 308.974 66.428 329.679 57.1848 350.014C47.6951 370.966 38.4518 391.917 29.5783 413.115C20.7048 434.436 12.0778 455.757 3.94371 477.325C-4.31358 498.892 -12.0779 520.583 -19.5957 542.397C-27.1136 564.211 -34.2617 586.148 -41.0401 608.209C-41.9028 610.92 -42.7655 613.632 -43.5049 616.343C-44.3676 619.177 -39.6844 622.505 -38.5752 618.808C-31.9201 596.747 -24.8952 574.81 -17.3774 552.996C-9.98278 531.182 -2.21844 509.491 5.91561 487.923C14.0497 466.356 22.5534 444.912 31.3037 423.59C40.1772 402.269 49.2972 381.195 58.787 360.243C68.0302 339.785 77.5199 319.203 83.3124 297.389C84.0518 294.678 84.6681 291.967 85.161 289.255C85.7772 286.421 80.9708 283.216 80.2313 286.914Z" fill="#FF9148"/>
</g>
<mask id="mask17_938_8793" style="mask-type:luminance" maskUnits="userSpaceOnUse" x="-165" y="64" width="490" height="490">
<path d="M80.1095 553.487C215.219 553.487 324.747 443.958 324.747 308.849C324.747 173.739 215.219 64.2109 80.1095 64.2109C-55.0002 64.2109 -164.528 173.739 -164.528 308.849C-164.528 443.958 -55.0002 553.487 80.1095 553.487Z" fill="white"/>
</mask>
<g mask="url(#mask17_938_8793)">
<path d="M80.4775 293.443C80.4775 338.55 81.0938 383.534 82.3262 428.641C83.5586 473.502 85.5305 518.362 88.1186 563.1C89.5975 588.241 91.3229 613.383 93.1716 638.401C93.4181 641.236 99.457 641.359 99.2105 638.155C95.8829 593.418 93.1716 548.68 91.0764 503.82C89.1046 459.206 87.7489 414.592 87.0094 369.978C86.6397 344.836 86.3932 319.571 86.5165 294.429C86.5165 292.951 85.284 291.965 83.8051 291.718C82.8192 291.472 80.4775 291.841 80.4775 293.443Z" fill="#FF9148"/>
</g>
<mask id="mask18_938_8793" style="mask-type:luminance" maskUnits="userSpaceOnUse" x="-165" y="64" width="490" height="490">
<path d="M80.1095 553.487C215.219 553.487 324.747 443.958 324.747 308.849C324.747 173.739 215.219 64.2109 80.1095 64.2109C-55.0002 64.2109 -164.528 173.739 -164.528 308.849C-164.528 443.958 -55.0002 553.487 80.1095 553.487Z" fill="white"/>
</mask>
<g mask="url(#mask18_938_8793)">
<path d="M77.6433 282.722C82.08 306.508 86.64 330.294 91.2 353.957C95.76 377.743 100.567 401.405 105.25 425.068C110.056 448.731 114.986 472.393 119.916 496.056C124.845 519.719 129.898 543.382 135.075 567.044C140.251 590.707 145.427 614.246 150.85 637.909C151.466 640.867 152.205 643.825 152.822 646.659C153.438 649.494 158.984 647.029 158.491 644.564C153.191 621.025 147.892 597.362 142.716 573.823C137.539 550.16 132.487 526.62 127.434 502.958C122.381 479.295 117.574 455.632 112.768 431.97C107.961 408.307 103.278 384.521 98.5946 360.858C93.9114 337.196 89.4746 313.41 84.9146 289.624C84.4216 286.666 83.8054 283.708 83.3125 280.75C82.6963 277.792 77.1503 280.257 77.6433 282.722Z" fill="#FF9148"/>
</g>
<mask id="mask19_938_8793" style="mask-type:luminance" maskUnits="userSpaceOnUse" x="-165" y="64" width="490" height="490">
<path d="M80.1095 553.487C215.219 553.487 324.747 443.958 324.747 308.849C324.747 173.739 215.219 64.2109 80.1095 64.2109C-55.0002 64.2109 -164.528 173.739 -164.528 308.849C-164.528 443.958 -55.0002 553.487 80.1095 553.487Z" fill="white"/>
</mask>
<g mask="url(#mask19_938_8793)">
<path d="M81.5861 288.267C90.2131 307.986 98.9633 327.705 107.59 347.424C116.217 367.02 124.844 386.615 133.471 406.334C142.098 426.053 150.849 445.772 159.476 465.491C168.103 485.087 176.73 504.682 185.357 524.401C193.984 544.12 202.734 563.839 211.361 583.558C212.47 586.023 213.456 588.488 214.566 590.829C215.305 592.555 221.344 592.801 220.604 591.076C211.977 571.357 203.227 551.638 194.6 531.919C185.973 512.323 177.346 492.728 168.719 473.009C160.092 453.29 151.342 433.571 142.715 413.852C134.088 394.256 125.461 374.661 116.834 354.942C108.207 335.223 99.4563 315.504 90.8293 295.785C89.7201 293.32 88.7342 290.855 87.625 288.514C86.8855 286.788 80.8466 286.542 81.5861 288.267Z" fill="#FF9148"/>
</g>
<mask id="mask20_938_8793" style="mask-type:luminance" maskUnits="userSpaceOnUse" x="-165" y="64" width="490" height="490">
<path d="M80.1095 553.487C215.219 553.487 324.747 443.958 324.747 308.849C324.747 173.739 215.219 64.2109 80.1095 64.2109C-55.0002 64.2109 -164.528 173.739 -164.528 308.849C-164.528 443.958 -55.0002 553.487 80.1095 553.487Z" fill="white"/>
</mask>
<g mask="url(#mask20_938_8793)">
<path d="M77.522 285.56C91.8182 304.539 106.361 323.272 121.15 342.005C135.939 360.738 150.975 379.471 166.257 397.834C181.416 416.197 196.821 434.437 212.35 452.554C228.002 470.671 243.777 488.664 259.676 506.535C275.574 524.282 291.719 541.905 307.987 559.283C309.959 561.378 311.931 563.596 314.026 565.691C314.888 566.677 316.737 567.047 317.97 567.047C318.586 567.047 320.311 566.924 319.325 565.938C303.057 548.561 286.912 531.06 270.891 513.313C254.992 495.689 239.34 477.819 223.812 459.949C208.283 441.955 192.878 423.715 177.596 405.352C162.437 387.112 147.524 368.625 132.735 350.016C117.823 331.283 103.157 312.427 88.7371 293.447C87.0117 291.105 85.1631 288.764 83.4377 286.422C82.6982 285.436 81.2193 284.943 79.9869 284.82C79.7404 284.697 76.9058 284.697 77.522 285.56Z" fill="#FF9148"/>
</g>
<mask id="mask21_938_8793" style="mask-type:luminance" maskUnits="userSpaceOnUse" x="-165" y="64" width="490" height="490">
<path d="M80.1095 553.487C215.219 553.487 324.747 443.958 324.747 308.849C324.747 173.739 215.219 64.2109 80.1095 64.2109C-55.0002 64.2109 -164.528 173.739 -164.528 308.849C-164.528 443.958 -55.0002 553.487 80.1095 553.487Z" fill="white"/>
</mask>
<g mask="url(#mask21_938_8793)">
<path d="M82.696 285.308C98.5944 301.699 115.232 317.228 132.486 332.017C149.74 346.93 167.487 361.103 185.604 375.029C203.721 389.079 222.084 402.759 240.571 416.316C259.057 429.996 277.544 443.552 295.784 457.479C313.9 471.282 331.771 485.332 349.148 499.998C351.243 501.846 353.461 503.572 355.557 505.421C356.543 506.283 358.021 506.899 359.007 505.667C359.87 504.435 359.007 502.586 358.021 501.723C340.644 486.811 322.651 472.515 304.534 458.588C286.417 444.662 268.054 430.982 249.691 417.425C231.327 403.868 212.964 390.311 194.724 376.385C176.607 362.582 158.737 348.409 141.36 333.619C123.983 318.954 107.098 303.548 91.0765 287.403C89.1047 285.431 87.1328 283.459 85.1609 281.364C84.2982 280.502 82.5728 280.009 81.7101 281.118C80.7241 282.597 81.8333 284.445 82.696 285.308Z" fill="#FF9148"/>
</g>
<mask id="mask22_938_8793" style="mask-type:luminance" maskUnits="userSpaceOnUse" x="-165" y="64" width="490" height="490">
<path d="M80.1095 553.487C215.219 553.487 324.747 443.958 324.747 308.849C324.747 173.739 215.219 64.2109 80.1095 64.2109C-55.0002 64.2109 -164.528 173.739 -164.528 308.849C-164.528 443.958 -55.0002 553.487 80.1095 553.487Z" fill="white"/>
</mask>
<g mask="url(#mask22_938_8793)">
<path d="M75.7942 289.745C94.7736 304.041 115.602 315.749 137.169 325.855C158.86 336.085 181.414 344.712 203.844 353.092C228 361.966 252.278 370.469 276.681 378.357C301.083 386.245 325.485 393.762 350.134 400.664C374.782 407.566 399.677 414.098 424.573 420.136C427.654 420.876 430.858 421.615 433.939 422.355C435.171 422.601 436.897 422.108 436.897 420.629C436.897 419.027 435.171 418.165 433.939 417.918C409.167 412.126 384.519 405.84 359.993 399.062C335.591 392.284 311.189 385.012 287.033 377.248C262.754 369.483 238.599 361.226 214.689 352.476C192.013 344.219 169.336 335.715 147.275 325.855C125.831 316.242 105.126 305.274 85.9001 291.717C83.4352 289.992 81.0936 288.266 78.6288 286.418C77.6428 285.678 75.4244 285.432 74.5617 286.541C73.699 287.773 74.9315 289.129 75.7942 289.745Z" fill="#FF9148"/>
</g>
<mask id="mask23_938_8793" style="mask-type:luminance" maskUnits="userSpaceOnUse" x="-165" y="64" width="490" height="490">
<path d="M80.1095 553.487C215.219 553.487 324.747 443.958 324.747 308.849C324.747 173.739 215.219 64.2109 80.1095 64.2109C-55.0002 64.2109 -164.528 173.739 -164.528 308.849C-164.528 443.958 -55.0002 553.487 80.1095 553.487Z" fill="white"/>
</mask>
<g mask="url(#mask23_938_8793)">
<path d="M79.9864 291.968C101.8 301.458 123.984 310.208 146.414 318.219C168.845 326.23 191.521 333.378 214.445 340.156C237.368 346.811 260.414 352.973 283.584 358.766C306.754 364.558 330.047 369.981 353.34 375.157C376.633 380.333 400.049 385.386 423.465 390.316C426.423 390.932 429.258 391.549 432.216 392.165C433.695 392.411 434.927 391.302 434.804 389.823C434.68 388.098 433.078 387.235 431.599 386.865C408.43 381.936 385.137 377.006 361.967 371.83C338.797 366.653 315.504 361.354 292.458 355.685C269.288 350.016 246.242 343.977 223.318 337.321C200.518 330.79 177.842 323.765 155.534 316C133.104 308.236 111.044 299.732 89.2296 290.489C86.5182 289.38 83.8069 288.147 81.0956 286.915C79.8631 286.299 78.0145 287.038 77.768 288.394C77.1518 290.243 78.6307 291.352 79.9864 291.968Z" fill="#FF9148"/>
</g>
<mask id="mask24_938_8793" style="mask-type:luminance" maskUnits="userSpaceOnUse" x="-165" y="64" width="490" height="490">
<path d="M80.1095 553.487C215.219 553.487 324.747 443.958 324.747 308.849C324.747 173.739 215.219 64.2109 80.1095 64.2109C-55.0002 64.2109 -164.528 173.739 -164.528 308.849C-164.528 443.958 -55.0002 553.487 80.1095 553.487Z" fill="white"/>
</mask>
<g mask="url(#mask24_938_8793)">
<path d="M61.3756 292.452C109.317 288.754 157.259 285.673 205.2 282.962C253.265 280.374 301.207 278.155 349.272 276.676C376.262 275.814 403.129 275.074 430.119 274.458C433.57 274.335 431.352 268.789 428.764 268.912C380.452 269.898 332.264 271.5 283.953 273.472C236.011 275.567 188.07 278.032 140.251 281.113C113.138 282.839 86.0242 284.811 58.7875 286.906C57.3086 287.029 57.555 289.247 57.9248 290.11C58.541 291.466 59.7734 292.575 61.3756 292.452Z" fill="#FF9148"/>
</g>
<mask id="mask25_938_8793" style="mask-type:luminance" maskUnits="userSpaceOnUse" x="-165" y="64" width="490" height="490">
<path d="M80.1095 553.487C215.219 553.487 324.747 443.958 324.747 308.849C324.747 173.739 215.219 64.2109 80.1095 64.2109C-55.0002 64.2109 -164.528 173.739 -164.528 308.849C-164.528 443.958 -55.0002 553.487 80.1095 553.487Z" fill="white"/>
</mask>
<g mask="url(#mask25_938_8793)">
<path d="M88.7358 290.488C130.638 291.228 172.541 291.967 214.444 292.83C256.1 293.569 297.756 294.309 339.413 295.172C362.952 295.541 386.368 296.034 409.908 296.404C410.401 296.404 408.305 295.172 408.059 295.172C406.95 294.679 405.717 293.939 404.485 293.939C362.582 293.2 320.68 292.46 278.777 291.597C237.121 290.858 195.464 290.119 153.808 289.256C130.269 288.886 106.853 288.393 83.3131 288.023C82.8201 288.023 84.9153 289.256 85.1618 289.256C86.2709 289.749 87.5034 290.365 88.7358 290.488Z" fill="#FF9148"/>
</g>
<mask id="mask26_938_8793" style="mask-type:luminance" maskUnits="userSpaceOnUse" x="-165" y="64" width="490" height="490">
<path d="M80.1095 553.487C215.219 553.487 324.747 443.958 324.747 308.849C324.747 173.739 215.219 64.2109 80.1095 64.2109C-55.0002 64.2109 -164.528 173.739 -164.528 308.849C-164.528 443.958 -55.0002 553.487 80.1095 553.487Z" fill="white"/>
</mask>
<g mask="url(#mask26_938_8793)">
<path d="M75.4262 296.523C110.551 285.308 145.798 274.709 181.292 264.849C216.786 254.99 252.404 245.87 288.267 237.612C308.602 232.929 328.814 228.369 349.273 224.056C350.259 223.809 351.984 223.193 351.491 221.837C350.998 220.605 348.78 220.358 347.671 220.482C311.314 228.123 275.204 236.503 239.217 245.5C203.353 254.62 167.612 264.356 132.118 274.832C112.153 280.747 92.3106 286.91 72.4684 293.195C71.3592 293.565 70.4965 294.551 71.3592 295.66C72.0987 296.892 74.1938 296.892 75.4262 296.523Z" fill="#FF9148"/>
</g>
<mask id="mask27_938_8793" style="mask-type:luminance" maskUnits="userSpaceOnUse" x="-165" y="64" width="490" height="490">
<path d="M80.1095 553.487C215.219 553.487 324.747 443.958 324.747 308.849C324.747 173.739 215.219 64.2109 80.1095 64.2109C-55.0002 64.2109 -164.528 173.739 -164.528 308.849C-164.528 443.958 -55.0002 553.487 80.1095 553.487Z" fill="white"/>
</mask>
<g mask="url(#mask27_938_8793)">
<path d="M93.4178 295.792C111.288 279.278 130.021 263.626 149.247 248.836C168.473 233.924 188.315 219.751 208.281 205.825C228.369 191.898 248.581 178.341 268.793 164.661C289.005 150.981 309.093 137.178 328.936 123.005C348.778 108.832 368.127 94.0429 386.983 78.6375C389.325 76.6656 391.666 74.6937 394.008 72.7219C394.748 72.1056 391.297 67.1759 391.173 67.2991C372.564 83.0743 353.215 97.8635 333.496 112.283C313.777 126.702 293.688 140.506 273.476 154.186C253.264 167.866 233.052 181.422 212.841 195.349C192.752 209.152 172.91 223.202 153.437 237.991C134.088 252.657 115.109 268.062 97.1151 284.33C94.8967 286.426 92.5551 288.398 90.3367 290.493C89.8437 291.109 93.4178 295.792 93.4178 295.792Z" fill="#FF9148"/>
</g>
<mask id="mask28_938_8793" style="mask-type:luminance" maskUnits="userSpaceOnUse" x="-165" y="64" width="490" height="490">
<path d="M80.1095 553.487C215.219 553.487 324.747 443.958 324.747 308.849C324.747 173.739 215.219 64.2109 80.1095 64.2109C-55.0002 64.2109 -164.528 173.739 -164.528 308.849C-164.528 443.958 -55.0002 553.487 80.1095 553.487Z" fill="white"/>
</mask>
<g mask="url(#mask28_938_8793)">
<path d="M91.8178 294.309C142.224 297.883 192.631 300.471 243.037 302.443C293.444 304.292 343.974 305.401 394.503 305.647C422.849 305.771 451.195 305.647 479.541 305.278C482.006 305.278 479.911 299.485 477.692 299.608C427.163 300.348 376.756 300.101 326.226 299.239C275.697 298.253 225.29 296.527 174.884 293.939C146.538 292.46 118.315 290.735 89.9692 288.763C87.6276 288.393 89.5995 294.186 91.8178 294.309Z" fill="#FF9148"/>
</g>
<mask id="mask29_938_8793" style="mask-type:luminance" maskUnits="userSpaceOnUse" x="-165" y="64" width="490" height="490">
<path d="M80.1095 553.487C215.219 553.487 324.747 443.958 324.747 308.849C324.747 173.739 215.219 64.2109 80.1095 64.2109C-55.0002 64.2109 -164.528 173.739 -164.528 308.849C-164.528 443.958 -55.0002 553.487 80.1095 553.487Z" fill="white"/>
</mask>
<g mask="url(#mask29_938_8793)">
<path d="M86.3938 289.381C75.0554 278.289 63.717 267.197 51.8857 256.598C40.0543 245.999 27.6068 236.016 14.7895 226.527C1.97216 217.037 -10.9684 207.917 -23.4159 198.058C-35.617 188.321 -47.3251 177.846 -58.91 167.493C-71.9738 155.785 -85.1608 143.954 -98.9641 132.862C-99.95 132.122 -100.689 132.739 -100.689 133.848C-100.566 135.327 -99.5803 136.806 -98.4711 137.668C-74.1922 157.141 -52.0084 179.078 -27.8527 198.92C-3.45055 218.886 23.17 235.893 46.9559 256.721C60.3895 268.429 73.0835 281 85.9008 293.448C86.517 294.064 87.7495 294.803 88.1192 293.448C88.3657 292.092 87.2565 290.243 86.3938 289.381Z" fill="#FF9148"/>
</g>
<mask id="mask30_938_8793" style="mask-type:luminance" maskUnits="userSpaceOnUse" x="-165" y="64" width="490" height="490">
<path d="M80.1095 553.487C215.219 553.487 324.747 443.958 324.747 308.849C324.747 173.739 215.219 64.2109 80.1095 64.2109C-55.0002 64.2109 -164.528 173.739 -164.528 308.849C-164.528 443.958 -55.0002 553.487 80.1095 553.487Z" fill="white"/>
</mask>
<g mask="url(#mask30_938_8793)">
<path d="M85.1623 286.664C77.2747 253.265 70.2499 219.62 64.2109 185.728C58.2953 152.206 53.7353 118.437 48.1893 84.9149C45.1082 66.0587 41.5342 47.3257 36.9742 28.716C36.6044 27.2371 35.6185 25.8814 34.0163 25.5117C32.7839 25.1419 31.5515 26.0046 31.9212 27.3603C40.0552 60.3895 44.985 94.0349 49.9147 127.68C54.9677 161.449 60.7601 195.218 67.5385 228.74C71.359 247.596 75.5493 266.452 79.9861 285.308C80.3558 286.787 81.3417 288.143 82.9439 288.513C84.2996 288.883 85.532 288.02 85.1623 286.664Z" fill="#FF9148"/>
</g>
<mask id="mask31_938_8793" style="mask-type:luminance" maskUnits="userSpaceOnUse" x="-165" y="64" width="490" height="490">
<path d="M80.1095 553.487C215.219 553.487 324.747 443.958 324.747 308.849C324.747 173.739 215.219 64.2109 80.1095 64.2109C-55.0002 64.2109 -164.528 173.739 -164.528 308.849C-164.528 443.958 -55.0002 553.487 80.1095 553.487Z" fill="white"/>
</mask>
<g mask="url(#mask31_938_8793)">
<path d="M92.0639 290.489C88.2434 257.09 89.7223 223.568 93.0498 190.169C96.3774 156.647 101.43 123.248 104.635 89.6027C106.483 70.7464 107.593 51.8902 107.593 33.034C107.593 31.5551 106.73 30.0762 105.621 29.3367C104.881 28.8438 103.156 28.3508 103.156 29.8297C103.156 63.7216 99.3353 97.4902 95.145 131.136C90.9547 164.658 86.5179 198.057 85.532 231.825C84.9158 250.682 85.4088 269.661 87.6271 288.394C87.7504 289.75 88.8596 291.352 90.2153 291.845C91.3244 292.461 92.1871 291.845 92.0639 290.489Z" fill="#FF9148"/>
</g>
<mask id="mask32_938_8793" style="mask-type:luminance" maskUnits="userSpaceOnUse" x="-165" y="64" width="490" height="490">
<path d="M80.1095 553.487C215.219 553.487 324.747 443.958 324.747 308.849C324.747 173.739 215.219 64.2109 80.1095 64.2109C-55.0002 64.2109 -164.528 173.739 -164.528 308.849C-164.528 443.958 -55.0002 553.487 80.1095 553.487Z" fill="white"/>
</mask>
<g mask="url(#mask32_938_8793)">
<path d="M89.2271 294.793C98.4704 277.292 108.453 260.161 118.806 243.277C129.281 226.269 140.127 209.508 150.972 192.747C161.694 176.109 172.416 159.348 182.646 142.341C192.875 125.333 202.611 108.202 211.484 90.4553C220.235 72.8315 227.999 54.7147 234.408 36.105C235.147 33.7634 236.01 31.4218 236.749 29.0801C237.119 27.9709 236.133 26.3688 235.394 25.5061C235.147 25.1364 233.422 23.2877 233.175 24.3969C227.136 43.1299 219.742 61.3699 211.238 79.1169C202.734 96.9872 193.121 114.241 183.015 131.249C172.909 148.256 162.31 165.017 151.588 181.655C140.743 198.416 129.897 215.177 119.298 232.185C108.823 248.946 98.5936 266.077 89.2271 283.454C88.1179 285.673 86.8855 287.768 85.7763 289.986C84.7904 291.465 88.4877 296.148 89.2271 294.793Z" fill="#FF9148"/>
</g>
<mask id="mask33_938_8793" style="mask-type:luminance" maskUnits="userSpaceOnUse" x="-165" y="64" width="490" height="490">
<path d="M80.1095 553.487C215.219 553.487 324.747 443.958 324.747 308.849C324.747 173.739 215.219 64.2109 80.1095 64.2109C-55.0002 64.2109 -164.528 173.739 -164.528 308.849C-164.528 443.958 -55.0002 553.487 80.1095 553.487Z" fill="white"/>
</mask>
<g mask="url(#mask33_938_8793)">
<path d="M85.04 297.757C90.7092 290.239 94.4065 281.366 98.2271 272.739C102.294 263.865 106.115 254.868 109.935 245.872C117.576 227.878 124.848 209.761 131.996 191.645C146.292 155.534 159.972 119.178 174.884 83.3139C183.265 63.102 192.015 43.1366 201.382 23.4177C202.244 21.569 198.301 17.009 197.315 18.9809C180.554 54.2285 165.764 90.462 151.591 126.695C137.418 162.806 123.615 199.163 108.456 235.026C104.266 245.132 99.8292 255.115 95.3924 265.098C91.0789 274.711 87.1352 284.817 80.7265 293.32C79.8638 294.923 83.5611 299.729 85.04 297.757Z" fill="#FF9148"/>
</g>
<mask id="mask34_938_8793" style="mask-type:luminance" maskUnits="userSpaceOnUse" x="-165" y="64" width="490" height="490">
<path d="M80.1095 553.487C215.219 553.487 324.747 443.958 324.747 308.849C324.747 173.739 215.219 64.2109 80.1095 64.2109C-55.0002 64.2109 -164.528 173.739 -164.528 308.849C-164.528 443.958 -55.0002 553.487 80.1095 553.487Z" fill="white"/>
</mask>
<g mask="url(#mask34_938_8793)">
<path d="M87.6253 289.013C121.64 273.854 155.532 258.572 189.301 243.166C222.946 227.761 256.469 212.355 289.991 196.58C308.97 187.707 327.826 178.833 346.806 169.837C347.915 169.344 345.82 169.467 345.573 169.467C344.218 169.59 342.739 169.837 341.506 170.453C307.861 186.351 274.216 202.126 240.447 217.778C206.925 233.307 173.279 248.712 139.511 263.871C120.408 272.498 101.305 281.002 82.2026 289.506C81.0934 289.999 83.1885 289.875 83.435 289.875C84.7907 289.752 86.3929 289.506 87.6253 289.013Z" fill="#FF9148"/>
</g>
<mask id="mask35_938_8793" style="mask-type:luminance" maskUnits="userSpaceOnUse" x="-165" y="64" width="490" height="490">
<path d="M80.1095 553.487C215.219 553.487 324.747 443.958 324.747 308.849C324.747 173.739 215.219 64.2109 80.1095 64.2109C-55.0002 64.2109 -164.528 173.739 -164.528 308.849C-164.528 443.958 -55.0002 553.487 80.1095 553.487Z" fill="white"/>
</mask>
<g mask="url(#mask35_938_8793)">
<path d="M90.46 286.79C72.4665 278.656 53.6103 273.357 34.2611 269.66C14.6654 265.839 -5.29999 263.867 -25.1422 262.018C-46.34 260.17 -67.6611 258.444 -88.8589 256.719C-110.673 254.87 -132.487 253.022 -154.301 251.296C-175.992 249.448 -197.683 247.722 -219.374 245.874C-222.085 245.627 -224.796 245.381 -227.631 245.134C-228.494 245.011 -226.645 247.106 -226.522 247.229C-225.782 247.969 -224.55 249.201 -223.317 249.324C-201.75 251.173 -180.182 252.898 -158.491 254.747C-136.924 256.596 -115.356 258.321 -93.6654 260.17C-72.2211 262.018 -50.7768 263.744 -29.3324 265.593C-9.61351 267.318 10.1054 269.043 29.7011 272.248C49.0503 275.452 68.153 280.135 86.393 287.53C88.7346 288.516 91.0762 289.502 93.2946 290.488C94.2805 290.981 94.527 290.611 93.9108 289.748C93.0481 288.516 91.6924 287.283 90.46 286.79Z" fill="#FF9148"/>
</g>
<mask id="mask36_938_8793" style="mask-type:luminance" maskUnits="userSpaceOnUse" x="-165" y="64" width="490" height="490">
<path d="M80.1095 553.487C215.219 553.487 324.747 443.958 324.747 308.849C324.747 173.739 215.219 64.2109 80.1095 64.2109C-55.0002 64.2109 -164.528 173.739 -164.528 308.849C-164.528 443.958 -55.0002 553.487 80.1095 553.487Z" fill="white"/>
</mask>
<g mask="url(#mask36_938_8793)">
<path d="M87.0106 294.554C68.7706 260.785 50.5306 227.017 32.0441 193.248C13.6809 159.603 -4.68237 125.957 -23.0456 92.3119C-33.398 73.4557 -43.7505 54.4762 -54.2262 35.62C-54.7191 34.8806 -56.5678 35.0038 -57.3072 35.0038C-57.5537 35.0038 -60.6348 35.2503 -60.3883 35.7433C-41.9018 69.3887 -23.4153 103.157 -4.92886 136.803C13.4344 170.448 31.7976 204.094 50.0376 237.739C60.2668 256.718 70.6192 275.698 80.8484 294.677C81.2182 295.417 83.1901 295.294 83.9295 295.294C84.176 295.294 87.2571 295.047 87.0106 294.554Z" fill="#FF9148"/>
</g>
<mask id="mask37_938_8793" style="mask-type:luminance" maskUnits="userSpaceOnUse" x="-165" y="64" width="490" height="490">
<path d="M80.1095 553.487C215.219 553.487 324.747 443.958 324.747 308.849C324.747 173.739 215.219 64.2109 80.1095 64.2109C-55.0002 64.2109 -164.528 173.739 -164.528 308.849C-164.528 443.958 -55.0002 553.487 80.1095 553.487Z" fill="white"/>
</mask>
<g mask="url(#mask37_938_8793)">
<path d="M84.3001 288.763C72.9617 302.936 63.5952 318.588 54.7217 334.486C45.3552 351.124 36.112 367.762 26.8687 384.4C8.25898 418.045 -9.98102 451.814 -27.9745 485.829C-38.0805 504.932 -48.1864 524.157 -58.0459 543.383C-58.0459 543.507 -55.2113 543.383 -54.9648 543.26C-54.3486 543.137 -52.2535 543.137 -52.007 542.521C-34.2599 508.259 -16.1432 474.121 2.09681 440.106C20.3368 406.337 38.8233 372.692 57.6795 339.169C67.539 321.546 77.6449 303.922 90.339 288.023C90.339 288.023 87.5044 288.023 87.2579 288.147C86.5184 288.147 84.793 288.147 84.3001 288.763Z" fill="#FF9148"/>
</g>
<mask id="mask38_938_8793" style="mask-type:luminance" maskUnits="userSpaceOnUse" x="-165" y="64" width="490" height="490">
<path d="M80.1095 553.487C215.219 553.487 324.747 443.958 324.747 308.849C324.747 173.739 215.219 64.2109 80.1095 64.2109C-55.0002 64.2109 -164.528 173.739 -164.528 308.849C-164.528 443.958 -55.0002 553.487 80.1095 553.487Z" fill="white"/>
</mask>
<g mask="url(#mask38_938_8793)">
<path d="M87.1345 288.391C79.6167 306.508 72.8383 324.871 66.7994 343.357C60.6372 361.967 55.2145 380.7 50.0383 399.556C44.8621 418.536 40.0556 437.515 35.4956 456.495C30.8124 475.597 26.3756 494.7 21.8156 513.803C17.2556 532.905 12.5724 552.008 7.64263 570.988C7.02642 573.452 6.41021 575.794 5.67075 578.259C5.17778 580.231 11.0934 579.615 11.5864 577.766C16.6394 558.787 21.3226 539.807 25.8826 520.704C30.4426 501.602 35.0026 482.499 39.5626 463.396C44.1226 444.294 48.8059 425.314 53.9821 406.335C59.0351 387.478 64.4578 368.622 70.3735 350.012C76.2891 331.403 82.9443 312.916 90.2156 294.799C91.2016 292.458 92.0643 290.116 93.0502 287.898C93.7897 286.172 87.874 286.665 87.1345 288.391Z" fill="#FF9148"/>
</g>
<mask id="mask39_938_8793" style="mask-type:luminance" maskUnits="userSpaceOnUse" x="-165" y="64" width="490" height="490">
<path d="M80.1095 553.487C215.219 553.487 324.747 443.958 324.747 308.849C324.747 173.739 215.219 64.2109 80.1095 64.2109C-55.0002 64.2109 -164.528 173.739 -164.528 308.849C-164.528 443.958 -55.0002 553.487 80.1095 553.487Z" fill="white"/>
</mask>
<g mask="url(#mask39_938_8793)">
<path d="M88.3662 290.735C69.51 303.059 50.6538 315.507 32.4138 328.571C14.1738 341.634 -3.45001 355.561 -19.9646 370.966C-36.6024 386.495 -52.1311 403.256 -68.0295 419.647C-83.5581 435.792 -99.703 451.321 -116.834 465.864C-133.841 480.406 -151.588 493.963 -170.075 506.657C-172.293 508.259 -174.635 509.738 -176.853 511.217C-178.702 512.45 -174.019 516.27 -172.416 515.284C-154.053 502.96 -136.183 489.65 -119.175 475.6C-102.045 461.304 -85.6533 446.145 -70.0014 430.246C-53.9797 413.978 -38.5743 397.217 -22.183 381.319C-5.91487 365.544 11.5857 351.124 29.8257 337.691C48.0657 324.257 66.9219 311.686 85.7781 299.362C88.1197 297.883 90.4614 296.281 92.6797 294.802C94.6516 293.57 89.9684 289.749 88.3662 290.735Z" fill="#FF9148"/>
</g>
<mask id="mask40_938_8793" style="mask-type:luminance" maskUnits="userSpaceOnUse" x="-165" y="64" width="490" height="490">
<path d="M80.1095 553.487C215.219 553.487 324.747 443.958 324.747 308.849C324.747 173.739 215.219 64.2109 80.1095 64.2109C-55.0002 64.2109 -164.528 173.739 -164.528 308.849C-164.528 443.958 -55.0002 553.487 80.1095 553.487Z" fill="white"/>
</mask>
<g mask="url(#mask40_938_8793)">
<path d="M93.1734 288.762C72.3453 293.938 51.5172 298.991 30.689 303.921C9.86094 308.851 -11.0904 313.534 -32.0418 317.971C-52.9931 322.531 -73.9445 326.844 -95.019 331.034C-116.094 335.225 -137.291 339.292 -158.366 343.112C-179.441 346.933 -200.638 350.63 -221.713 354.204C-224.301 354.697 -226.889 355.067 -229.601 355.56C-230.956 355.806 -232.682 356.546 -233.051 358.025C-233.421 359.38 -232.189 360.12 -230.956 359.873C-209.635 356.423 -188.437 352.725 -167.24 348.905C-146.042 345.084 -124.721 341.017 -103.646 336.827C-82.4482 332.637 -61.3736 328.323 -40.299 323.763C-19.2245 319.203 1.85014 314.52 22.8015 309.713C43.7528 304.907 64.7042 299.854 85.6555 294.678C88.2436 294.062 90.8317 293.445 93.4198 292.706C94.529 292.459 96.3777 291.227 96.2545 289.871C96.008 288.516 94.1593 288.516 93.1734 288.762Z" fill="#FF9148"/>
</g>
<mask id="mask41_938_8793" style="mask-type:luminance" maskUnits="userSpaceOnUse" x="-165" y="64" width="490" height="490">
<path d="M80.1095 553.487C215.219 553.487 324.747 443.958 324.747 308.849C324.747 173.739 215.219 64.2109 80.1095 64.2109C-55.0002 64.2109 -164.528 173.739 -164.528 308.849C-164.528 443.958 -55.0002 553.487 80.1095 553.487Z" fill="white"/>
</mask>
<g mask="url(#mask41_938_8793)">
<path d="M85.0395 282.718C47.5735 281.732 10.1076 281.239 -27.3583 281.362C-64.8243 281.486 -102.29 282.102 -139.756 283.334C-160.831 284.074 -181.905 284.813 -202.98 285.922C-204.459 286.046 -203.966 287.648 -203.35 288.387C-202.487 289.496 -201.008 290.482 -199.652 290.482C-162.186 288.634 -124.721 287.401 -87.2546 286.662C-49.7886 285.922 -12.3227 285.799 25.1433 286.169C46.2179 286.415 67.2925 286.785 88.3671 287.278C89.846 287.278 89.2298 285.553 88.7368 284.813C87.8741 283.581 86.5184 282.718 85.0395 282.718Z" fill="#FF9148"/>
</g>
<mask id="mask42_938_8793" style="mask-type:luminance" maskUnits="userSpaceOnUse" x="-165" y="64" width="490" height="490">
<path d="M80.1095 553.487C215.219 553.487 324.747 443.958 324.747 308.849C324.747 173.739 215.219 64.2109 80.1095 64.2109C-55.0002 64.2109 -164.528 173.739 -164.528 308.849C-164.528 443.958 -55.0002 553.487 80.1095 553.487Z" fill="white"/>
</mask>
<g mask="url(#mask42_938_8793)">
<path d="M68.4 288.514C86.5167 305.029 104.757 321.297 123.12 337.565C141.606 353.833 160.093 369.855 178.826 385.876C197.436 401.775 216.169 417.426 235.025 433.078C253.881 448.607 272.861 464.012 292.086 479.295C311.189 494.577 330.538 509.612 349.888 524.525C352.352 526.373 354.694 528.222 357.159 530.071C358.022 530.81 359.993 530.317 360.979 530.071C361.349 529.947 363.691 529.208 362.951 528.592C343.479 513.679 324.253 498.644 305.027 483.485C285.801 468.203 266.698 452.797 247.719 437.145C228.863 421.617 210.006 405.965 191.397 390.066C172.787 374.168 154.177 358.27 135.814 342.125C117.451 325.98 99.2108 309.712 81.094 293.197C78.8757 291.102 76.534 289.13 74.3157 287.035C73.453 286.296 71.3578 286.789 70.4951 287.035C70.0021 287.158 67.6605 287.775 68.4 288.514Z" fill="#FF9148"/>
</g>
<mask id="mask43_938_8793" style="mask-type:luminance" maskUnits="userSpaceOnUse" x="-165" y="64" width="490" height="490">
<path d="M80.1095 553.487C215.219 553.487 324.747 443.958 324.747 308.849C324.747 173.739 215.219 64.2109 80.1095 64.2109C-55.0002 64.2109 -164.528 173.739 -164.528 308.849C-164.528 443.958 -55.0002 553.487 80.1095 553.487Z" fill="white"/>
</mask>
<g mask="url(#mask43_938_8793)">
<path d="M83.1898 288.148C43.7519 288.888 4.19086 290.12 -35.247 291.599C-74.6848 293.201 -114.123 295.173 -153.56 297.515C-175.621 298.871 -197.682 300.35 -219.742 301.952C-221.221 302.075 -221.714 303.8 -221.344 305.033C-220.851 306.512 -219.372 307.621 -217.77 307.498C-178.332 304.663 -139.018 302.198 -99.5799 300.226C-60.1421 298.254 -20.7043 296.529 18.7336 295.42C40.7941 294.804 62.8546 294.187 85.0384 293.818C86.5173 293.818 87.0103 291.969 86.6406 290.737C86.1476 289.134 84.7919 288.148 83.1898 288.148Z" fill="#FF9148"/>
</g>
<mask id="mask44_938_8793" style="mask-type:luminance" maskUnits="userSpaceOnUse" x="-165" y="64" width="490" height="490">
<path d="M80.1095 553.487C215.219 553.487 324.747 443.958 324.747 308.849C324.747 173.739 215.219 64.2109 80.1095 64.2109C-55.0002 64.2109 -164.528 173.739 -164.528 308.849C-164.528 443.958 -55.0002 553.487 80.1095 553.487Z" fill="white"/>
</mask>
<g mask="url(#mask44_938_8793)">
<path d="M84.6683 289.133C52.7483 307.249 19.2262 322.162 -14.4192 336.581C-49.1738 351.37 -84.0516 366.036 -118.806 380.702C-138.648 389.083 -158.491 397.463 -178.333 405.844C-181.784 407.323 -177.716 411.267 -175.128 410.157C-139.634 395.122 -104.14 380.209 -68.6462 365.174C-34.2614 350.631 0.246736 336.581 34.0154 320.929C52.7484 312.302 71.1116 303.059 88.9819 292.953C90.3375 292.214 89.8446 290.611 88.8586 289.749C87.7494 288.763 85.9008 288.393 84.6683 289.133Z" fill="#FF9148"/>
</g>
<mask id="mask45_938_8793" style="mask-type:luminance" maskUnits="userSpaceOnUse" x="-165" y="64" width="490" height="490">
<path d="M80.1095 553.487C215.219 553.487 324.747 443.958 324.747 308.849C324.747 173.739 215.219 64.2109 80.1095 64.2109C-55.0002 64.2109 -164.528 173.739 -164.528 308.849C-164.528 443.958 -55.0002 553.487 80.1095 553.487Z" fill="white"/>
</mask>
<g mask="url(#mask45_938_8793)">
<path d="M79.7396 284.568C86.0251 305.889 91.4478 327.457 96.3775 349.148C101.307 370.962 105.867 392.776 110.427 414.59C114.987 436.404 119.424 458.341 124.23 480.032C129.037 501.723 134.336 523.414 140.375 544.735C146.414 566.179 153.316 587.377 161.327 608.082C162.313 610.67 163.299 613.135 164.408 615.723C164.901 617.079 166.503 618.311 167.982 617.818C169.461 617.325 169.83 615.6 169.337 614.244C160.957 593.662 153.809 572.588 147.647 551.267C141.361 529.946 136.062 508.501 131.132 486.81C126.202 465.12 121.642 443.182 117.206 421.368C112.646 399.554 108.209 377.617 103.279 355.803C98.3494 334.112 93.0499 312.421 87.011 290.977C86.2715 288.266 85.4088 285.554 84.6694 282.843C84.2996 281.487 82.451 280.378 81.0953 280.748C79.4932 281.487 79.3699 283.213 79.7396 284.568Z" fill="#FF9148"/>
</g>
<mask id="mask46_938_8793" style="mask-type:luminance" maskUnits="userSpaceOnUse" x="-165" y="64" width="490" height="490">
<path d="M80.1095 553.487C215.219 553.487 324.747 443.958 324.747 308.849C324.747 173.739 215.219 64.2109 80.1095 64.2109C-55.0002 64.2109 -164.528 173.739 -164.528 308.849C-164.528 443.958 -55.0002 553.487 80.1095 553.487Z" fill="white"/>
</mask>
<g mask="url(#mask46_938_8793)">
<path d="M83.1905 293.688C91.6943 313.654 100.075 333.743 108.209 353.954C116.22 374.043 123.861 394.255 131.132 414.713C138.034 434.309 144.566 454.028 151.097 473.747C157.753 493.466 164.408 513.061 171.802 532.534C179.197 552.006 187.085 571.232 196.205 589.965C197.314 592.307 198.423 594.648 199.655 596.867C200.025 597.73 201.381 599.701 202.49 599.578C203.722 599.455 202.736 597.483 202.49 596.99C193.247 578.627 185.113 559.647 177.718 540.421C170.323 521.195 163.545 501.6 156.89 482.004C150.235 462.285 143.826 442.566 136.925 422.847C129.9 402.635 122.382 382.547 114.617 362.581C106.73 342.493 98.3494 322.404 89.9688 302.562C88.8597 300.097 87.8737 297.632 86.7645 295.044C86.2715 293.935 85.2856 292.21 84.0532 291.84C82.6975 291.47 82.8207 292.826 83.1905 293.688Z" fill="#FF9148"/>
</g>
<mask id="mask47_938_8793" style="mask-type:luminance" maskUnits="userSpaceOnUse" x="-165" y="64" width="490" height="490">
<path d="M80.1095 553.487C215.219 553.487 324.747 443.958 324.747 308.849C324.747 173.739 215.219 64.2109 80.1095 64.2109C-55.0002 64.2109 -164.528 173.739 -164.528 308.849C-164.528 443.958 -55.0002 553.487 80.1095 553.487Z" fill="white"/>
</mask>
<g mask="url(#mask47_938_8793)">
<path d="M87.6264 294.428C111.166 269.286 135.075 244.391 159.354 220.112C183.756 195.71 208.528 171.677 233.793 148.015C247.966 134.828 262.262 121.641 276.682 108.7C277.051 108.33 274.217 107.098 273.97 107.098C273.231 106.851 271.505 106.112 270.766 106.851C245.131 129.898 219.99 153.437 195.218 177.347C170.323 201.379 145.92 225.781 121.888 250.553C108.455 264.48 95.021 278.529 81.834 292.702C81.4643 293.195 84.2989 294.304 84.5454 294.304C85.1616 294.428 87.0102 295.167 87.6264 294.428Z" fill="#FF9148"/>
</g>
<mask id="mask48_938_8793" style="mask-type:luminance" maskUnits="userSpaceOnUse" x="-165" y="64" width="490" height="490">
<path d="M80.1095 553.487C215.219 553.487 324.747 443.958 324.747 308.849C324.747 173.739 215.219 64.2109 80.1095 64.2109C-55.0002 64.2109 -164.528 173.739 -164.528 308.849C-164.528 443.958 -55.0002 553.487 80.1095 553.487Z" fill="white"/>
</mask>
<g mask="url(#mask48_938_8793)">
<path d="M90.8306 290.61C128.79 285.926 166.748 281.613 204.707 277.546C242.666 273.479 280.748 269.782 318.831 266.454C340.152 264.605 361.596 262.757 382.917 261.031C384.396 260.908 385.998 260.045 386.491 258.566C386.984 257.334 386.245 255.978 384.766 256.102C346.684 259.059 308.601 262.387 270.642 266.084C232.56 269.782 194.601 273.725 156.642 278.039C135.321 280.504 114 282.969 92.8025 285.68C91.3236 285.803 89.8446 286.666 89.2284 288.145C88.7355 289.377 89.4749 290.733 90.8306 290.61Z" fill="#FF9148"/>
</g>
<mask id="mask49_938_8793" style="mask-type:luminance" maskUnits="userSpaceOnUse" x="-165" y="64" width="490" height="490">
<path d="M80.1095 553.487C215.219 553.487 324.747 443.958 324.747 308.849C324.747 173.739 215.219 64.2109 80.1095 64.2109C-55.0002 64.2109 -164.528 173.739 -164.528 308.849C-164.528 443.958 -55.0002 553.487 80.1095 553.487Z" fill="white"/>
</mask>
<g mask="url(#mask49_938_8793)">
<path d="M71.8508 290.975C76.534 292.207 81.094 290.728 85.4075 288.879C89.8443 287.031 94.2811 284.936 98.7178 282.964C107.838 279.02 117.081 275.076 126.324 271.256C144.688 263.615 163.174 256.22 181.784 249.195C200.393 242.17 219.126 235.392 237.859 228.86C256.716 222.328 275.572 216.166 294.675 210.373C313.654 204.458 332.757 198.912 351.983 193.736C354.324 193.119 356.666 192.503 359.131 191.764C361.965 191.024 359.5 185.478 357.036 186.095C337.933 191.271 318.83 196.693 299.974 202.486C280.995 208.278 262.138 214.317 243.405 220.603C224.672 227.011 205.939 233.543 187.453 240.568C168.843 247.593 150.233 254.864 131.87 262.382C122.75 266.203 113.63 270.023 104.51 273.844C99.9502 275.816 95.5135 277.788 91.0767 279.759C86.64 281.731 82.2032 284.196 77.52 285.305C75.3016 285.798 73.0832 286.045 70.8648 285.429C69.3859 285.059 68.8929 286.661 69.0162 287.77C69.3859 289.126 70.3719 290.605 71.8508 290.975Z" fill="#FF9148"/>
</g>
<mask id="mask50_938_8793" style="mask-type:luminance" maskUnits="userSpaceOnUse" x="-165" y="64" width="490" height="490">
<path d="M80.1095 553.487C215.219 553.487 324.747 443.958 324.747 308.849C324.747 173.739 215.219 64.2109 80.1095 64.2109C-55.0002 64.2109 -164.528 173.739 -164.528 308.849C-164.528 443.958 -55.0002 553.487 80.1095 553.487Z" fill="white"/>
</mask>
<g mask="url(#mask50_938_8793)">
<path d="M85.2855 290.116C55.7071 270.397 23.5406 254.991 -9.36536 241.435C-42.3945 228.001 -76.0399 216.416 -109.316 203.845C-128.172 196.82 -146.905 189.426 -165.268 181.169C-166.624 180.552 -168.349 181.169 -169.458 182.155C-170.321 182.894 -170.937 184.373 -169.582 184.866C-137.045 199.285 -103.4 211.363 -70.001 223.564C-36.7254 235.765 -3.44966 248.213 28.4703 263.865C46.2174 272.492 63.5946 282.228 80.1092 293.197C81.3417 294.059 82.9438 293.69 84.053 292.95C84.7925 292.58 86.5179 290.978 85.2855 290.116Z" fill="#FF9148"/>
</g>
<mask id="mask51_938_8793" style="mask-type:luminance" maskUnits="userSpaceOnUse" x="-165" y="64" width="490" height="490">
<path d="M80.1095 553.487C215.219 553.487 324.747 443.958 324.747 308.849C324.747 173.739 215.219 64.2109 80.1095 64.2109C-55.0002 64.2109 -164.528 173.739 -164.528 308.849C-164.528 443.958 -55.0002 553.487 80.1095 553.487Z" fill="white"/>
</mask>
<g mask="url(#mask51_938_8793)">
<path d="M88.7361 293.816C71.6053 261.279 57.5555 227.387 43.7523 193.372C29.8258 159.111 15.8993 124.972 -0.122302 91.6966C-9.48879 72.3474 -19.225 53.1215 -29.0845 34.0188C-29.7007 32.7863 -30.6866 31.4306 -32.0423 30.8144C-33.0282 30.4447 -33.7677 30.8144 -33.2747 31.9236C-15.8974 65.9388 1.23338 99.9539 16.2691 134.955C30.8118 168.724 43.8755 203.108 58.5415 236.877C66.7988 255.857 75.5491 274.59 85.162 292.953C85.655 293.939 87.1339 295.541 88.3664 295.787C89.722 295.911 89.1058 294.555 88.7361 293.816Z" fill="#FF9148"/>
</g>
<mask id="mask52_938_8793" style="mask-type:luminance" maskUnits="userSpaceOnUse" x="-165" y="64" width="490" height="490">
<path d="M80.1095 553.487C215.219 553.487 324.747 443.958 324.747 308.849C324.747 173.739 215.219 64.2109 80.1095 64.2109C-55.0002 64.2109 -164.528 173.739 -164.528 308.849C-164.528 443.958 -55.0002 553.487 80.1095 553.487Z" fill="white"/>
</mask>
<g mask="url(#mask52_938_8793)">
<path d="M75.4248 290.855C93.5416 301.454 111.782 312.053 129.898 322.775C147.645 333.127 165.392 343.726 183.386 353.832C200.763 363.692 218.51 372.935 236.75 381.192C253.635 388.833 270.765 395.612 287.65 403.253C304.411 410.771 320.802 419.274 335.961 429.75C337.81 431.106 339.782 432.461 341.63 433.817C342.616 434.557 344.465 434.68 345.697 434.68C346.19 434.68 347.916 434.68 346.93 433.94C332.264 422.848 315.996 414.098 299.358 406.334C282.597 398.446 265.466 391.545 248.458 384.15C230.342 376.262 212.595 367.266 195.34 357.653C177.347 347.67 159.723 337.194 141.976 326.842C123.859 316.243 105.619 305.644 87.5027 294.922C85.161 293.566 82.9426 292.211 80.601 290.855C79.3686 290.115 77.7664 289.992 76.534 289.992C76.2875 289.992 74.3156 290.115 75.4248 290.855Z" fill="#FF9148"/>
</g>
<mask id="mask53_938_8793" style="mask-type:luminance" maskUnits="userSpaceOnUse" x="-165" y="64" width="490" height="490">
<path d="M80.1095 553.487C215.219 553.487 324.747 443.958 324.747 308.849C324.747 173.739 215.219 64.2109 80.1095 64.2109C-55.0002 64.2109 -164.528 173.739 -164.528 308.849C-164.528 443.958 -55.0002 553.487 80.1095 553.487Z" fill="white"/>
</mask>
<g mask="url(#mask53_938_8793)">
<path d="M81.2182 288.883C95.6377 301.454 110.427 313.778 125.586 325.61C140.745 337.564 156.15 349.149 171.925 360.241C187.577 371.333 203.475 382.055 219.744 392.408C236.012 402.76 252.65 412.866 269.411 422.356C286.048 431.845 303.056 440.965 320.187 449.592C322.282 450.702 324.5 451.811 326.595 452.797C327.951 453.413 329.923 453.167 330.786 452.057C331.772 450.825 330.909 449.469 329.677 448.853C312.546 440.349 295.538 431.352 278.777 421.863C262.139 412.496 245.748 402.76 229.603 392.654C213.335 382.425 197.313 371.826 181.661 360.734C166.01 349.765 150.604 338.427 135.568 326.719C120.41 314.888 105.497 302.81 90.9544 290.239C89.1058 288.637 87.3804 287.158 85.5317 285.556C83.3133 283.707 78.2604 286.418 81.2182 288.883Z" fill="#FF9148"/>
</g>
<mask id="mask54_938_8793" style="mask-type:luminance" maskUnits="userSpaceOnUse" x="-165" y="64" width="490" height="490">
<path d="M80.1095 553.487C215.219 553.487 324.747 443.958 324.747 308.849C324.747 173.739 215.219 64.2109 80.1095 64.2109C-55.0002 64.2109 -164.528 173.739 -164.528 308.849C-164.528 443.958 -55.0002 553.487 80.1095 553.487Z" fill="white"/>
</mask>
<g mask="url(#mask54_938_8793)">
<path d="M77.397 278.528C99.4575 311.188 122.134 343.354 145.181 375.274C168.104 407.071 191.643 438.375 215.553 469.432C228.986 486.809 242.543 504.063 256.346 521.194C257.209 522.303 258.811 523.166 260.29 523.166C261.522 523.166 261.892 522.427 261.153 521.441C236.504 490.63 212.348 459.573 188.809 428.022C165.269 396.719 142.223 364.922 119.669 332.879C106.975 314.885 94.5278 296.768 82.2035 278.652C81.464 277.542 79.6153 276.68 78.2597 276.68C77.0272 276.803 76.7808 277.542 77.397 278.528Z" fill="#FF9148"/>
</g>
</g>
<defs>
<clipPath id="clip0_938_8793">
<rect width="616.216" height="616.216" fill="white" transform="translate(-228.001 0.738281)"/>
</clipPath>
</defs>
</svg>
