<svg width="530" height="527" viewBox="0 0 530 527" fill="none" xmlns="http://www.w3.org/2000/svg">
<path d="M558.252 -185.929L593.429 -587.875L577.613 -184.838L662.693 -579.149L596.702 -181.021L730.593 -561.697L615.245 -175.022L795.766 -535.791L632.969 -166.841L857.394 -502.25L649.331 -156.479L914.113 -461.074L664.329 -143.935L965.107 -413.08L677.691 -129.755L1009.83 -359.088L689.144 -113.939L1047.19 -299.914L698.415 -97.0321L1077.18 -236.377L705.778 -78.7618L1098.72 -169.841L710.414 -59.9462L1111.81 -100.85L712.868 -40.5852L1116.45 -31.041L712.868 -21.2242L1111.81 39.0404L710.414 -1.86316L1098.72 107.758L705.778 16.9525L1077.18 174.568L698.415 34.9501L1047.19 237.832L689.144 52.1296L1009.83 297.006L677.691 67.9456L965.107 350.998L664.329 82.1256L914.113 398.992L649.331 94.3966L857.394 440.168L632.969 104.759L795.766 473.982L615.245 113.212L730.593 499.887L596.702 119.211L662.693 517.34L577.613 122.756L593.429 526.066L558.252 124.12L523.075 526.066L538.891 122.756L453.812 517.34L519.803 119.211L385.912 499.887L501.26 113.212L320.739 473.982L483.535 104.759L259.111 440.168L467.174 94.3966L202.391 398.992L452.176 82.1256L151.398 350.998L438.814 67.9456L106.677 297.006L427.361 52.1296L69.3181 237.832L418.089 34.9501L39.3221 174.568L410.727 16.9525L17.7796 107.758L406.091 -1.86316L4.69043 39.0404L403.637 -21.2242L0.0546875 -31.041L403.637 -40.5852L4.69043 -100.85L406.091 -59.9462L17.7796 -169.841L410.727 -78.7618L39.3221 -236.377L418.089 -97.0321L69.3181 -299.914L427.361 -113.939L106.677 -359.088L438.814 -129.755L151.398 -413.08L452.176 -143.935L202.391 -461.074L467.174 -156.479L259.111 -502.25L483.535 -166.841L320.739 -535.791L501.26 -175.022L385.912 -561.697L519.803 -181.021L453.812 -579.149L538.891 -184.838L523.075 -587.875L558.252 -185.929Z" fill="#6D76FF"/>
</svg>
