<svg width="470" height="280" viewBox="0 0 470 280" fill="none" xmlns="http://www.w3.org/2000/svg">
<path d="M468.929 267.807C475.887 249.417 446.694 254.163 445.684 254.669L444.168 267.807C379.889 278.723 322.382 272.355 301.663 267.807V239.509L248.098 267.807C212.522 270.233 192.492 258.027 183.92 253.153L188.974 236.477L117.216 264.775L93.9707 249.11C81.6742 252.479 52.5332 260.632 34.3411 266.291C16.1491 271.951 21.7078 274.377 26.7611 274.882C171.287 278.419 461.854 286.505 468.929 267.807Z" fill="#FFFFFF"/>
<path d="M398.183 69.7141C399.868 76.4519 399.194 89.4221 383.023 87.4008C366.852 85.3795 373.927 57.0807 388.582 60.6181" stroke="black" stroke-width="2.77686" stroke-linecap="round"/>
<path d="M329.457 25.7522C354.555 28.2789 411.22 31.1087 437.093 22.2148" stroke="black" stroke-width="2.77686" stroke-linecap="round"/>
<path d="M448.21 11.6014L444.183 270.328C444.174 270.903 443.754 271.374 443.18 271.416C408.979 273.9 334.951 276.467 302.478 267.53C301.986 267.395 301.676 266.943 301.695 266.433L311.224 5.62164C311.247 5.0145 311.727 4.53736 312.334 4.55034C335.142 5.03753 391.645 5.18315 444.167 2" stroke="black" stroke-width="2.77686" stroke-linecap="round"/>
<path d="M331.479 253.658C350.85 253.827 393.837 253.355 410.816 250.121" stroke="black" stroke-width="2.77686" stroke-linecap="round"/>
<path d="M210.704 247.59C213.736 248.769 221.518 251.734 228.391 254.159" stroke="black" stroke-width="2.77686" stroke-linecap="round"/>
<path d="M268.312 40.9102C272.186 42.9315 280.945 46.3678 284.988 43.9422" stroke="black" stroke-width="2.77686" stroke-linecap="round"/>
<path d="M262.054 14.2457L310.359 30.64C311.468 31.0165 311.297 32.5567 310.129 32.6415C284.16 34.5276 265.194 21.609 261.039 15.361C260.564 14.6477 261.243 13.9703 262.054 14.2457Z" fill="#FFFFFF"/>
<path d="M306.717 53.5468L247.593 266.798C224.954 270.841 196.048 259.386 184.426 253.154C192.107 223.238 238.665 78.4767 260.226 12.1094L308.738 28.7854" stroke="black" stroke-width="2.77686" stroke-linecap="round"/>
<path d="M227.379 88.9155L201.522 68.4252C201.02 68.0275 200.287 68.1354 199.921 68.6608L86.8955 230.914" stroke="black" stroke-width="2.77686" stroke-linecap="round"/>
<path d="M82.3486 239.002L118.227 264.774L229.401 94.4766" stroke="black" stroke-width="2.77686" stroke-linecap="round"/>
<path d="M6.54801 251.634C9.51204 256.574 17.1122 266.343 24.2498 266.779C24.5619 266.798 24.86 266.662 25.0705 266.43L171.993 104.966C172.429 104.487 172.367 103.739 171.861 103.333C168.02 100.253 160.963 94.0033 156.417 87.9826C155.996 87.4247 155.172 87.3645 154.689 87.8698L2 247.591" stroke="black" stroke-width="2.77686" stroke-linecap="round"/>
<circle cx="18.6756" cy="249.111" r="2.02134" fill="black"/>
<circle cx="105.594" cy="245.068" r="2.02134" fill="black"/>
<circle cx="206.661" cy="90.4354" r="2.02134" fill="black"/>
<circle cx="157.138" cy="101.549" r="2.02134" fill="black"/>
<path d="M155.622 87.9046L191.501 78.8086" stroke="black" stroke-width="2.77686" stroke-linecap="round"/>
<path d="M201.102 68.7041L246.076 54.5547" stroke="black" stroke-width="2.77686" stroke-linecap="round"/>
</svg>
