<svg width="275" height="418" viewBox="0 0 275 418" fill="none" xmlns="http://www.w3.org/2000/svg">
<g clip-path="url(#clip0_943_9589)">
<mask id="mask0_943_9589" style="mask-type:luminance" maskUnits="userSpaceOnUse" x="-196" y="1" width="418" height="418">
<path d="M13.0266 418.006C128.137 418.006 221.452 324.691 221.452 209.581C221.452 94.4713 128.137 1.15625 13.0266 1.15625C-102.083 1.15625 -195.398 94.4713 -195.398 209.581C-195.398 324.691 -102.083 418.006 13.0266 418.006Z" fill="white"/>
</mask>
<g mask="url(#mask0_943_9589)">
<path d="M26.7808 182.275C16.7008 165.685 4.41581 150.46 -9.75919 137.125C-9.75919 137.125 -10.4942 136.39 -10.4942 136.81C-9.33919 145.315 -7.76419 153.82 -5.76919 162.115C-4.82419 166.315 -3.6692 170.41 -2.5142 174.61C-1.9892 176.605 -1.3592 178.6 -0.7292 180.595C-0.3092 182.065 0.110813 182.8 -1.04419 184.06C-1.77919 184.9 -2.9342 185.53 -3.8792 186.16C-18.3692 196.975 -32.8592 207.79 -47.3492 218.71C-47.6642 218.92 -44.7242 222.91 -43.9892 222.805C-28.7642 220.81 -13.6442 217.87 1.26581 213.985C0.11081 212.725 -0.939187 211.36 -2.09419 210.1C-1.56919 222.28 -1.14919 234.565 -0.624194 246.745C-0.624194 247.375 2.4208 250.945 2.7358 250.63C11.4508 240.76 18.9058 230.05 25.2058 218.5C24.1558 217.24 23.0008 216.085 21.9508 214.825C26.2558 225.64 33.8158 235.405 43.0558 242.545C43.1608 242.65 43.2658 242.755 43.4758 242.755C44.2108 236.245 44.8408 229.63 45.0508 223.12C45.1558 219.865 45.2608 216.61 45.2608 213.355C45.2608 211.78 45.0508 209.995 45.2608 208.42C45.4708 206.845 45.4708 206.845 46.9408 206.845C47.6758 206.845 48.5158 207.055 49.3558 207.055C62.2708 208.21 75.3958 207.265 88.1008 204.43C88.4158 204.325 85.3708 200.65 84.9508 200.335C75.0808 194.035 65.2108 187.63 55.3408 181.33C56.3908 182.695 57.4408 184.06 58.4908 185.425C68.5708 177.865 74.9758 166.42 76.2358 153.925C76.3408 153.19 73.7158 149.935 72.8758 150.04C60.5908 151.72 48.3058 153.505 36.0208 155.185C37.1758 156.445 38.2258 157.81 39.3808 159.07C35.7058 148.78 32.1358 138.49 28.4608 128.305C28.2508 127.78 25.7308 124 25.1008 124.42C19.5358 128.305 15.1258 133.24 11.7658 139.12C12.7108 140.065 13.5508 141.01 14.4958 141.955C3.3658 125.575 -12.3842 112.765 -31.2842 106.57C-31.3892 106.465 -31.4942 106.57 -31.3892 106.675C-30.9692 116.335 -30.0242 126.1 -28.6592 135.655C-28.0292 140.485 -27.1892 145.315 -26.2442 150.04C-25.8242 152.245 -25.4042 154.45 -24.8792 156.76C-24.4592 158.65 -24.3542 159.175 -26.0342 160.12C-26.9792 160.645 -28.1342 160.96 -29.1842 161.38C-46.9292 168.31 -64.2542 176.08 -81.2642 184.585C-81.4742 184.69 -78.7442 188.68 -77.9042 188.68C-65.3042 188.26 -52.7042 189.415 -40.4192 192.145C-41.4692 190.78 -42.5192 189.415 -43.5692 188.05C-58.1642 202.75 -72.6542 217.345 -87.2492 232.045C-87.6692 232.465 -84.5192 236.035 -83.8892 236.14C-75.2792 236.56 -66.9842 239.185 -59.8442 243.805C-60.7892 242.545 -61.8392 241.18 -62.7842 239.92C-74.0192 251.365 -82.4192 265.33 -87.2492 280.555C-87.4592 281.29 -84.6242 284.86 -83.8892 284.65C-63.3092 277.825 -43.4642 268.69 -24.7742 257.665C-25.9292 256.405 -26.9792 255.04 -28.1342 253.78C-25.2992 272.68 -19.4192 290.95 -10.7042 307.96C-10.4942 308.38 -7.55419 311.845 -7.44919 311.635C-0.939194 296.095 4.6258 280.135 9.2458 263.86C8.0908 262.6 7.0408 261.235 5.8858 259.975C11.4508 277.195 21.8458 292.63 35.1808 304.915C35.0758 304.81 35.8108 305.545 35.9158 305.335C41.2708 290.845 43.4758 275.41 42.3208 260.08C41.6908 259.555 41.0608 258.925 40.3258 258.4C51.0358 271.945 66.0508 281.605 83.1658 284.545C83.2708 284.65 83.3758 284.545 83.2708 284.44C80.7508 275.725 78.3358 267.115 75.8158 258.4C74.6608 254.2 73.4008 250 72.2458 245.905C72.0358 244.96 71.5108 243.91 71.4058 242.965C71.3008 241.39 71.3008 241.495 72.6658 241.18C74.5558 240.655 77.0758 240.97 79.0708 240.865C95.1358 239.605 110.991 235.195 125.376 227.95C125.586 227.845 124.431 226.27 124.431 226.27C119.181 219.55 114.036 212.83 108.786 206.11C109.101 206.635 109.416 207.265 109.731 207.79C121.386 202.12 131.046 193.195 137.766 182.065C138.186 181.435 135.141 177.97 134.406 177.97C121.071 177.865 107.841 176.71 94.6108 174.61C95.6608 175.975 96.7108 177.34 97.7608 178.705C106.056 159.7 111.411 139.54 113.406 118.96C113.511 118.33 110.676 114.76 110.046 115.075C100.071 120.43 90.0958 125.68 80.1208 131.035C81.2758 132.295 82.3258 133.66 83.4808 134.92C83.0608 122.635 81.5908 110.455 79.0708 98.4851C78.9658 97.9601 76.3408 94.1801 75.7108 94.6001C65.8408 100.9 57.4408 109.09 50.8258 118.855C51.9808 120.115 53.0308 121.48 54.1858 122.74C48.9358 101.425 38.3308 81.8951 24.1558 65.2001C24.0508 65.0951 22.7908 63.7301 22.6858 63.9401C16.7008 76.7501 11.7658 90.0851 8.09081 103.735C8.30081 103.84 8.51081 104.05 8.82581 104.155C-7.55419 89.8751 -26.9792 79.6901 -48.0842 74.5451C-48.1892 74.4401 -48.2942 74.5451 -48.1892 74.6501C-48.1892 80.8451 -48.2942 87.0401 -48.2942 93.1301C-48.2942 94.6001 -47.9792 96.7001 -48.2942 98.1701C-48.8192 99.9551 -50.4992 99.3251 -52.0742 99.1151C-54.9092 98.9051 -57.7442 98.5901 -60.6842 98.4851C-73.0742 97.7501 -85.5692 97.7501 -98.0642 98.3801C-98.1692 98.3801 -96.0692 101.425 -95.7542 101.635C-85.5692 111.82 -75.3842 122.005 -65.3042 132.19C-66.0392 131.14 -66.7742 129.985 -67.6142 128.935C-84.6242 136.495 -101.739 143.95 -118.749 151.51C-119.169 151.72 -116.019 155.29 -115.599 155.605C-102.369 163.48 -88.0892 169.255 -73.1792 172.825C-74.2292 171.46 -75.2792 170.095 -76.3292 168.73C-100.689 179.02 -123.684 192.25 -144.894 208C-145.314 208.315 -142.269 211.885 -141.744 212.095C-129.774 214.615 -117.489 215.665 -105.309 215.14C-106.464 213.775 -107.514 212.41 -108.669 211.045C-119.064 227.53 -129.564 244.015 -139.959 260.395C-140.379 261.025 -137.334 264.49 -136.599 264.49C-126.939 263.86 -117.279 263.23 -107.619 262.705C-108.774 261.34 -109.824 259.975 -110.979 258.61C-120.534 274.675 -128.199 291.79 -133.869 309.64C-134.079 310.375 -131.244 313.84 -130.509 313.735C-113.394 311.005 -96.3842 307.435 -79.5842 302.92C-80.7392 301.555 -81.7892 300.19 -82.9442 298.825C-88.0892 314.995 -88.8242 332.32 -84.9392 348.91C-84.8342 349.435 -81.9992 353.215 -81.5792 352.795C-68.7692 338.83 -56.4842 324.55 -44.6192 309.745C-45.7742 308.485 -46.8242 307.12 -47.9792 305.86C-46.0892 325.18 -42.2042 344.29 -36.2192 362.875C-36.1142 363.4 -33.2792 367.18 -32.8592 366.76C-21.5192 355.42 -10.8092 343.555 -0.939197 330.955C-1.9892 329.905 -2.93419 328.75 -3.98419 327.7C4.52081 341.35 13.1308 355.105 21.6358 368.755C21.8458 369.175 24.6808 372.115 24.6808 372.01C30.4558 354.37 32.9758 335.785 32.1358 317.2C31.8208 316.99 31.4008 316.78 31.0858 316.57C42.1108 327.91 54.2908 337.885 67.6258 346.39C67.7308 346.495 67.8358 346.39 67.7308 346.285C66.4708 339.04 65.3158 331.795 64.0558 324.55C63.4258 320.98 62.7958 317.305 62.2708 313.735C62.0608 312.79 61.1158 309.745 62.1658 309.22C62.4808 309.01 64.4758 309.955 64.8958 310.06C65.8408 310.375 66.6808 310.585 67.6258 310.9C80.8558 314.575 94.5058 316.255 108.261 315.835C113.616 315.73 119.706 314.575 118.131 307.75C117.396 304.39 115.926 301.135 114.771 297.88C113.511 294.415 112.356 291.055 111.096 287.59C109.836 284.125 108.681 280.765 107.421 277.3C106.896 275.725 106.266 274.15 105.741 272.68C105.426 271.84 104.481 270.685 105.636 270.055C105.951 269.845 108.051 270.16 108.471 270.16C115.296 270.475 122.226 270.265 129.051 269.635C144.591 268.27 159.921 264.595 174.516 258.925C174.831 258.82 172.416 255.88 172.206 255.67C166.116 249.16 160.026 242.65 153.936 236.035C154.671 237.085 155.406 238.24 156.246 239.29C164.541 232.675 171.891 225.115 178.401 216.82C178.821 216.295 175.776 212.83 175.251 212.725C160.761 210.73 146.271 208.84 131.886 206.845C132.936 208.21 133.986 209.575 135.036 210.94C148.896 197.605 161.286 182.8 171.996 166.84C172.416 166.315 169.476 162.85 168.846 162.745C162.021 162.01 155.301 161.275 148.476 160.645C149.526 162.01 150.576 163.375 151.626 164.74C155.931 148.885 160.236 132.925 164.436 117.07C164.646 116.335 161.811 112.765 161.076 112.975C150.471 116.965 139.971 120.955 129.366 124.945C130.521 126.205 131.571 127.57 132.726 128.83C133.251 110.98 133.776 93.2351 134.301 75.3851C134.301 74.7551 131.676 71.1851 130.941 71.5001C120.546 75.3851 110.676 80.4251 101.436 86.6201C102.591 87.8801 103.641 89.2451 104.796 90.5051C102.696 75.5951 99.0208 60.8951 93.9808 46.7201C93.7708 46.1951 91.3558 42.4151 90.6208 42.8351C80.7508 48.5051 72.5608 56.5901 66.7858 66.3551C67.6258 67.0901 68.3608 67.9301 69.2008 68.6651C60.0658 57.1151 50.9308 45.5651 41.7958 34.0151C41.6908 33.9101 39.6958 31.3901 39.3808 31.7051C33.1858 37.4801 29.0908 45.1451 27.8308 53.5451C28.6708 54.2801 29.4058 55.1201 30.2458 55.8551C20.7958 43.7801 9.7708 33.0701 -2.8292 24.4601C-2.9342 24.3551 -3.03919 24.2501 -3.24919 24.2501C-5.34919 36.4301 -7.44919 48.5051 -9.54919 60.6851C-9.33919 60.7901 -9.1292 61.0001 -8.8142 61.1051C-19.5242 50.6051 -31.7042 41.6801 -45.0392 34.6451H-45.1442C-45.9842 41.1551 -46.9292 47.7701 -47.7692 54.2801C-47.9792 55.7501 -47.7692 57.7451 -49.5542 57.8501C-50.9192 57.8501 -53.0192 56.8001 -54.2792 56.4851C-57.4292 55.5401 -60.5792 54.5951 -63.8342 53.7551C-76.3292 50.0801 -88.8242 46.5101 -101.424 42.8351C-101.739 42.7301 -101.529 43.1501 -101.424 43.2551C-97.4342 52.7051 -93.4442 62.1551 -89.4542 71.6051C-88.9292 72.8651 -88.4042 74.0201 -87.8792 75.2801C-87.4592 76.3301 -86.5142 77.8001 -86.3042 78.9551C-85.6742 79.5851 -85.7792 80.2151 -86.6192 80.5301C-87.2492 80.6351 -87.9842 80.7401 -88.6142 80.8451C-89.9792 81.0551 -91.2392 81.3701 -92.6042 81.5801C-97.5392 82.5251 -102.474 83.3651 -107.409 84.3101C-127.779 87.9851 -148.254 91.7651 -168.624 95.4401C-168.834 95.4401 -165.999 99.0101 -165.684 99.3251C-146.784 113.29 -126.939 125.995 -106.359 137.545C-107.409 136.18 -108.459 134.815 -109.509 133.45C-126.519 135.865 -142.899 141.535 -157.809 150.04C-158.229 150.25 -155.079 153.82 -154.659 154.135C-143.004 159.49 -131.349 164.74 -119.589 170.095C-120.639 168.73 -121.689 167.365 -122.739 166C-141.849 173.56 -160.119 183.22 -177.234 194.77C-177.654 195.085 -174.609 198.655 -174.084 198.865C-167.889 201.07 -161.694 203.275 -155.499 205.375C-156.549 204.01 -157.599 202.645 -158.649 201.28C-171.774 213.67 -185.004 226.06 -198.129 238.555C-198.549 238.975 -195.504 242.44 -194.979 242.65C-180.384 246.01 -165.264 246.85 -150.459 245.17C-151.614 243.805 -152.664 242.44 -153.819 241.075C-161.169 256.09 -168.519 271 -175.974 286.015C-176.289 286.75 -173.349 290.005 -172.614 290.11C-159.174 291.16 -145.734 290.005 -132.609 286.645C-133.764 285.28 -134.814 283.915 -135.969 282.55C-150.669 298.72 -162.009 317.83 -169.149 338.515C-169.359 339.25 -166.524 342.715 -165.789 342.61C-152.769 339.04 -139.854 335.47 -126.834 331.9C-127.989 330.535 -129.039 329.17 -130.194 327.805C-134.709 341.035 -136.914 354.895 -136.704 368.86C-136.704 369.595 -134.184 372.85 -133.344 372.745C-121.899 371.275 -111.084 367.075 -101.739 360.46C-102.894 359.2 -103.944 357.835 -105.099 356.575C-105.519 368.23 -104.784 379.78 -102.789 391.33C-102.684 391.96 -100.164 395.635 -99.4292 395.215C-82.8392 386.71 -66.3542 378.31 -49.7642 369.805C-50.8142 368.545 -51.9692 367.39 -53.0192 366.13C-47.7692 377.575 -42.6242 388.915 -37.3742 400.36C-37.1642 400.78 -34.4342 404.35 -34.1192 404.035C-26.8742 395.215 -19.6292 386.395 -12.3842 377.575C-13.4342 376.315 -14.5892 375.16 -15.6392 373.9C-9.5492 387.445 -0.414191 399.625 10.7158 409.39C10.7158 409.39 11.2408 409.915 11.4508 409.81C15.9658 405.295 19.3258 399.835 21.5308 393.85C21.3208 393.745 21.1108 393.535 20.7958 393.43C31.2958 403.195 43.8958 410.65 57.6508 414.85H57.7558C58.9108 407.29 59.5408 399.625 59.5408 391.96C59.5408 387.865 59.3308 383.875 59.0158 379.78C58.8058 377.89 58.5958 375.895 58.3858 374.005C58.2808 373.06 58.1758 372.115 57.9658 371.065C57.8608 370.54 57.2308 368.545 57.5458 368.23C58.0708 367.6 58.3858 368.23 59.2258 368.755C59.7508 369.175 60.3808 369.49 61.0108 369.91C62.4808 370.855 64.0558 371.8 65.6308 372.64C68.7808 374.425 71.9308 376 75.1858 377.575C82.0108 380.62 89.0458 383.14 96.2908 384.925C96.3958 385.03 96.5008 384.925 96.3958 384.82C95.5558 375.685 94.2958 366.655 92.5108 357.73C92.0908 355.63 91.6708 353.53 91.2508 351.535C91.1458 350.905 90.2008 348.7 90.5158 348.175C91.1458 347.125 92.0908 347.755 92.9308 347.965C97.3408 348.91 101.751 349.645 106.266 350.275C123.591 352.69 141.126 352.9 158.451 350.905V350.8C156.351 343.555 154.251 336.205 152.151 328.96C150.996 325.18 149.946 321.4 148.791 317.62C148.476 316.36 146.901 313.525 148.581 313.42C149.946 313.315 152.466 314.47 153.936 314.785C167.586 317.83 181.971 317.095 195.306 312.79C195.411 312.79 194.991 311.95 194.991 312.055C187.956 300.19 180.396 288.64 172.206 277.51C172.521 278.035 172.836 278.665 173.151 279.19C179.766 276.88 186.381 274.57 192.891 272.26C197.511 270.685 204.861 269.32 207.801 264.91C210.426 260.92 206.436 256.51 203.811 253.675C198.981 248.53 193.941 243.595 189.006 238.66C189.741 239.71 190.476 240.865 191.316 241.915C205.281 229.945 219.351 217.975 233.316 206.005C233.841 205.585 230.586 202.225 230.166 201.91C218.931 196.765 207.381 192.88 195.306 190.045C196.356 191.41 197.406 192.775 198.456 194.14C204.861 179.65 212.841 165.895 222.291 153.295C222.711 152.77 219.666 149.2 218.931 149.2C211.896 149.935 204.966 150.67 197.931 151.405C199.086 152.77 200.136 154.135 201.291 155.5C205.386 143.005 209.481 130.405 213.471 117.91C213.786 117.07 210.951 113.92 210.111 113.815C199.401 113.29 188.691 113.71 178.086 115.075C179.241 116.44 180.291 117.805 181.446 119.17C184.806 103.63 189.111 88.1951 194.256 73.1801C194.466 72.4451 191.631 68.9801 190.896 69.0851C176.931 71.7101 163.281 75.4901 149.946 80.5301C151.101 81.7901 152.151 83.1551 153.306 84.4151C152.151 66.8801 151.101 49.2401 149.946 31.7051C149.946 31.1801 147.111 27.4001 146.586 27.8201C140.076 32.3351 133.566 36.8501 126.951 41.3651C128.106 42.6251 129.156 43.9901 130.311 45.2501C126.741 30.1301 120.441 15.9551 111.936 3.04009C111.726 2.62009 109.731 -0.109915 109.206 0.205085C97.7608 5.98008 87.6808 13.8551 79.3858 23.6201C80.3308 24.5651 81.1708 25.5101 82.1158 26.4551C73.6108 14.5901 65.0008 2.72508 56.4958 -9.24491C56.2858 -9.55991 54.0808 -12.3949 53.7658 -12.0799C50.1958 -8.82491 46.9408 -5.35991 44.1058 -1.57991C42.6358 0.415088 41.1658 2.41009 39.9058 4.51009C39.4858 5.24509 38.8558 7.03009 38.1208 7.45009C36.9658 8.18509 35.3908 6.40009 34.4458 5.66509C25.5208 -1.05491 16.4908 -7.66991 7.56581 -14.3899C7.46081 -14.4949 7.3558 -14.5999 7.1458 -14.5999C1.7908 -8.08991 -2.5142 -0.949912 -5.6642 6.82009C-5.1392 7.24009 -4.71919 7.66008 -4.19419 8.08008C-12.0692 -0.529915 -20.9942 -7.87991 -31.1792 -13.5499H-31.2842C-33.3842 -7.87991 -35.5892 -2.20991 -37.6892 3.46009C-38.2142 5.03509 -38.8442 6.50508 -39.3692 8.08008C-39.8942 9.34008 -40.2092 11.0201 -40.9442 12.1751C-41.4692 13.1201 -41.4692 13.5401 -42.7292 13.2251C-43.2542 13.1201 -43.9892 12.4901 -44.4092 12.1751C-45.7742 11.3351 -47.2442 10.3901 -48.6092 9.55009C-59.2142 2.83009 -69.8192 -3.78491 -80.4242 -10.5049H-80.5292C-83.8892 -5.46491 -86.4092 0.205087 -87.7742 6.08509C-88.4042 8.71009 -88.8242 11.4401 -89.0342 14.1701C-89.1392 15.7451 -89.1392 17.3201 -89.1392 18.7901C-89.1392 19.1051 -88.8242 20.6801 -89.0342 20.8901C-89.6642 21.6251 -90.8192 20.7851 -91.4492 20.5751C-104.154 15.5351 -117.279 11.7551 -130.719 9.23509C-130.824 9.13009 -130.929 9.23509 -130.824 9.34009C-130.719 17.0051 -129.774 24.6701 -127.989 32.1251C-127.569 34.1201 -127.044 36.1151 -126.414 38.0051C-126.204 38.6351 -125.469 40.1051 -125.574 40.7351C-125.889 41.8901 -127.359 41.6801 -128.199 41.7851C-132.189 42.1001 -136.074 42.4151 -140.064 42.6251C-156.444 43.4651 -172.929 43.0451 -189.309 41.2601C-189.729 41.2601 -187.839 43.7801 -187.629 43.9901C-178.914 53.8601 -170.094 63.8351 -161.379 73.7051C-162.009 72.7601 -162.639 71.8151 -163.269 70.8701C-181.014 78.2201 -197.709 87.8801 -213.039 99.4301C-213.564 99.8501 -210.309 103.21 -209.889 103.525C-199.074 109.93 -188.259 116.44 -177.549 122.845C-178.599 121.48 -179.649 120.115 -180.699 118.75C-198.549 126.73 -215.349 136.705 -230.784 148.675C-231.204 148.99 -228.159 152.56 -227.634 152.77C-215.769 157.18 -204.219 162.43 -193.194 168.73C-194.244 167.365 -195.294 166 -196.344 164.635C-202.959 171.145 -209.679 177.76 -216.294 184.27C-219.654 187.525 -222.909 190.78 -226.269 194.14C-228.684 196.555 -232.674 199.39 -232.674 203.065C-232.674 205.9 -230.364 208.525 -228.474 210.52C-226.059 213.04 -223.224 214.615 -220.284 216.4C-212.304 221.23 -204.324 226.165 -196.239 230.995C-197.289 229.63 -198.339 228.265 -199.389 226.9C-213.354 236.875 -225.639 249.055 -235.824 262.915C-236.244 263.545 -233.199 266.8 -232.674 267.01C-224.484 269.635 -216.294 272.26 -208.104 274.78C-204.324 275.935 -200.544 277.51 -196.764 278.455C-195.819 278.98 -195.924 278.875 -196.974 278.035C-196.869 278.77 -196.974 279.61 -197.184 280.345C-197.394 281.185 -197.709 281.92 -198.024 282.655C-198.864 284.65 -199.704 286.645 -200.544 288.64C-207.474 304.6 -214.404 320.665 -221.334 336.625C-221.649 337.36 -218.709 340.825 -217.974 340.72C-202.959 338.725 -187.839 336.73 -172.824 334.735C-173.979 333.37 -175.029 332.005 -176.184 330.64C-177.654 338.83 -178.704 347.125 -179.439 355.42C-180.069 363.715 -180.699 372.325 -180.069 380.62C-179.649 386.395 -177.339 391.75 -172.719 395.53C-170.199 397.525 -167.154 398.155 -164.109 398.26C-160.119 398.47 -156.024 398.26 -152.034 398.155C-142.059 397.84 -132.189 397.105 -122.319 395.845C-123.474 394.585 -124.524 393.22 -125.679 391.96C-125.364 405.4 -124.944 418.84 -124.629 432.175C-124.629 432.805 -122.004 436.375 -121.269 436.06C-110.979 431.86 -100.584 427.555 -90.2942 423.355C-85.0442 421.255 -79.8992 419.05 -74.6492 416.95C-73.5992 416.53 -72.5492 416.11 -71.3942 415.9C-70.7642 415.795 -70.1342 415.69 -69.3992 415.69C-68.8742 415.69 -67.9292 416.11 -67.5092 416.11C-67.4042 416.11 -67.2992 416.215 -67.0892 416.215C-67.5092 415.48 -67.7192 415.375 -67.5092 415.9C-67.6142 416.215 -67.2992 416.74 -67.1942 417.055C-66.9842 418 -66.8792 418.84 -66.8792 419.785C-66.6692 423.145 -66.6692 426.505 -64.9892 429.55C-63.5192 432.07 -61.4192 434.59 -58.8992 436.165C-53.4392 439.525 -45.7742 438.265 -40.4192 435.325C-32.1242 430.705 -26.2442 422.41 -16.4792 420.625C-17.3192 419.89 -18.0542 419.05 -18.8942 418.315C-9.65419 430.285 0.845803 441.1 12.7108 450.55C17.8558 454.645 24.0508 459.79 31.0858 457.48C34.3408 456.43 37.0708 454.015 39.4858 451.705C42.5308 448.765 45.5758 445.615 48.6208 442.675C55.6558 435.745 62.5858 428.71 69.6208 421.78C69.4108 421.675 69.2008 421.465 68.8858 421.36C75.2908 427.03 82.2208 432.07 89.7808 436.165C93.0358 437.95 97.5508 440.995 101.541 440.47C105.111 439.945 106.581 436.27 107.421 433.12C109.836 423.565 111.621 413.695 113.616 404.035C114.351 400.36 114.666 395.11 118.131 392.8C121.806 390.385 127.476 391.12 131.571 391.75C145.851 394.165 161.916 403.615 175.776 394.165C181.761 390.175 183.021 383.77 181.971 377.05C180.816 369.7 178.191 361.405 184.806 355.84C189.846 351.535 196.881 350.695 202.551 347.44C208.641 343.975 211.896 337.78 212.946 330.955C213.996 323.92 213.156 316.885 212.001 309.955C211.266 305.65 211.581 301.87 215.571 299.35C219.351 297.04 223.866 295.78 227.856 294.1C236.466 290.32 244.971 286.12 253.161 281.395C256.941 279.19 260.826 276.985 264.396 274.57C267.336 272.575 270.171 269.95 271.431 266.485C272.796 262.495 271.326 258.295 269.541 254.725C267.651 250.945 265.446 247.375 263.136 243.91C260.616 240.235 257.991 236.665 255.051 233.305C252.426 230.155 248.436 227.005 250.326 222.49C251.586 219.55 254.631 217.45 257.151 215.665C259.776 213.67 262.401 211.675 264.081 208.84C267.441 203.17 267.126 196.03 264.921 189.94C259.671 175.66 246.021 167.89 231.951 164.32C228.066 163.27 224.076 162.535 220.086 161.8C221.136 163.165 222.186 164.53 223.236 165.895C228.171 158.02 233.106 150.25 238.146 142.375C241.716 136.81 248.751 128.83 245.706 121.69C242.976 115.39 236.781 112.345 230.901 109.615C223.026 105.94 214.941 102.895 206.646 100.375C207.696 101.74 208.746 103.105 209.796 104.47C219.876 90.0851 227.331 73.9151 231.741 56.9051C232.791 52.7051 233.736 48.4001 234.471 43.9901C234.996 40.5251 235.416 36.8501 234.261 33.3851C233.316 30.4451 231.111 27.7151 228.801 25.7201C226.176 23.4101 222.816 22.7801 219.456 22.5701C209.901 21.8351 200.346 21.8351 190.791 21.4151C187.011 21.3101 183.021 21.3101 179.451 19.6301C177.351 18.6851 177.351 17.7401 177.036 15.3251C176.721 13.3301 176.721 11.3351 176.406 9.34009C175.461 3.35509 171.156 -2.10491 166.326 -5.67491C161.076 -9.45491 154.461 -11.2399 148.056 -11.1349C137.556 -11.0299 127.476 -7.24991 117.081 -7.14491C109.731 -7.03991 98.3908 -9.13991 95.6608 -17.0149C95.3458 -17.9599 94.5058 -18.9049 93.7708 -19.6399C93.5608 -19.8499 92.1958 -21.0049 92.3008 -20.7949C96.8158 -7.77491 110.571 -2.20991 123.486 -3.25991C132.726 -3.99491 141.651 -6.93491 150.996 -7.14491C154.671 -7.24991 158.346 -6.72491 161.811 -5.56991C164.961 -4.51991 168.846 -2.94491 170.946 -0.319915C173.361 2.62008 173.256 7.03008 173.571 10.7051C173.991 14.2751 175.356 17.1101 177.666 19.8401C182.601 25.5101 189.636 25.3001 196.566 25.6151C201.396 25.8251 206.331 26.0351 211.161 26.1401C215.676 26.3501 220.401 26.1401 225.021 26.8751C226.596 27.0851 229.011 27.5051 230.271 28.5551C231.426 29.6051 231.531 32.4401 231.636 34.0151C231.741 38.3201 230.691 42.7301 229.851 46.8251C225.756 66.0401 217.671 84.2051 206.436 100.375C206.016 101.005 209.061 104.26 209.586 104.47C216.411 106.57 223.131 108.985 229.641 111.82C232.791 113.185 236.046 114.655 239.091 116.23C240.351 116.86 242.031 117.595 242.556 118.75C243.291 120.325 242.976 122.425 242.556 124.105C241.821 127.15 240.036 129.88 238.356 132.505C236.256 135.865 234.156 139.225 231.951 142.585C227.856 148.99 223.761 155.5 219.771 161.905C219.351 162.535 222.291 165.79 222.921 166C230.586 167.47 238.251 168.94 245.391 171.985C249.066 173.56 252.531 175.45 255.681 178.075C258.726 180.595 260.511 183.85 261.771 187.63C263.766 193.825 263.556 201.175 259.461 206.53C255.891 211.255 248.226 213.46 246.441 219.445C244.551 225.955 252.741 232.045 256.206 236.455C259.041 240.025 261.561 243.805 263.871 247.69C266.286 251.785 269.121 256.615 268.071 261.55C266.601 268.795 257.361 272.995 251.586 276.355C243.816 280.87 235.836 284.965 227.646 288.745C223.656 290.53 219.561 292.21 215.361 293.89C211.791 295.36 208.431 297.25 208.011 301.555C207.696 304.81 208.746 308.17 209.166 311.32C209.691 314.89 209.901 318.46 209.796 322.03C209.586 328.645 208.011 335.68 203.076 340.405C198.456 345.025 191.841 346.285 186.171 348.91C180.081 351.745 176.301 356.365 176.721 363.295C177.141 370.54 180.816 378.205 177.036 385.03C174.096 390.385 167.901 393.01 162.126 393.955C154.356 395.11 147.006 392.905 139.656 390.7C135.351 389.44 131.046 388.18 126.531 387.55C122.961 387.13 118.551 386.71 115.296 388.39C111.621 390.28 111.201 394.9 110.466 398.575C109.416 403.3 108.471 408.025 107.421 412.645C106.371 417.37 105.426 422.095 104.376 426.715C103.746 429.76 103.011 433.54 100.281 435.43C96.7108 437.845 91.8808 434.695 88.5208 433.015C84.5308 431.02 80.7508 428.71 77.0758 426.19C73.5058 423.67 70.0408 420.94 66.7858 418.105C66.7858 418.105 66.2608 417.58 66.0508 417.685C58.8058 424.93 51.5608 432.07 44.3158 439.315C41.0608 442.57 37.9108 446.035 34.4458 449.08C31.5058 451.6 28.1458 454.015 24.1558 454.12C19.5358 454.225 15.5458 451.285 11.9758 448.555C8.40581 445.825 4.83581 442.885 1.47581 439.84C-5.55919 433.54 -11.9642 426.61 -17.7392 419.155C-18.0542 418.735 -19.4192 416.635 -20.1542 416.845C-28.5542 418.42 -34.4342 424.93 -41.1542 429.655C-46.6142 433.54 -54.1742 435.955 -60.6842 433.225C-61.3142 432.91 -62.2592 432.595 -62.7842 432.07C-62.2592 432.7 -62.8892 431.545 -62.8892 431.44C-62.9942 431.02 -63.0992 430.705 -63.2042 430.285C-63.6242 428.395 -63.6242 426.505 -63.7292 424.615C-63.9392 421.36 -64.5692 418.735 -66.6692 416.11C-68.9792 413.17 -71.4992 411.49 -75.3842 412.33C-80.4242 413.485 -85.3592 416.215 -90.1892 418.21C-101.739 422.935 -113.289 427.66 -124.839 432.385C-123.684 433.645 -122.634 435.01 -121.479 436.27C-121.794 422.83 -122.214 409.39 -122.529 396.055C-122.529 395.32 -125.049 392.065 -125.889 392.17C-135.234 393.325 -144.684 394.06 -154.134 394.375C-158.544 394.48 -162.849 394.69 -167.259 394.585C-169.254 394.48 -171.354 394.27 -173.244 393.535C-175.449 392.59 -175.869 391.33 -176.394 389.125C-177.234 385.345 -177.129 381.46 -177.129 377.68C-177.129 373.165 -176.919 368.545 -176.709 364.03C-176.079 354.37 -174.924 344.71 -173.244 335.05C-173.139 334.21 -175.764 330.85 -176.604 330.955C-191.619 332.95 -206.739 334.945 -221.754 336.94C-220.599 338.305 -219.549 339.67 -218.394 341.035C-214.299 331.585 -210.204 322.135 -206.109 312.685C-204.114 308.065 -202.119 303.55 -200.229 298.93C-198.339 294.52 -196.029 290.11 -194.454 285.49C-193.299 281.92 -194.664 279.61 -197.079 276.985C-199.599 274.255 -203.274 273.625 -206.739 272.47C-216.504 269.32 -226.269 266.275 -236.034 263.125C-234.984 264.49 -233.934 265.855 -232.884 267.22C-222.699 253.36 -210.414 241.18 -196.449 231.205C-195.924 230.785 -199.179 227.425 -199.599 227.11C-206.214 223.12 -212.829 219.13 -219.444 215.14C-222.594 213.25 -225.954 211.57 -228.789 209.26C-229.734 208.42 -229.839 208.315 -229.209 209.05C-229.314 208.735 -229.419 208.42 -229.524 208C-229.629 207.16 -229.629 206.11 -229.314 205.27C-228.789 203.8 -227.739 202.645 -226.689 201.595C-215.874 190.36 -204.429 179.65 -193.299 168.73C-192.774 168.205 -196.029 164.95 -196.449 164.635C-207.474 158.335 -219.024 152.98 -230.889 148.675C-229.839 150.04 -228.789 151.405 -227.739 152.77C-212.304 140.8 -195.504 130.825 -177.654 122.845C-177.234 122.635 -180.384 119.065 -180.804 118.75C-191.619 112.345 -202.434 105.835 -213.144 99.4301C-212.094 100.795 -211.044 102.16 -209.994 103.525C-194.874 91.6601 -178.074 82.1051 -160.329 74.6501C-160.014 74.5451 -162.114 71.9201 -162.219 71.8151C-170.934 61.9451 -179.754 51.9701 -188.469 42.1001C-187.944 43.0451 -187.314 43.9901 -186.789 44.8301C-165.369 47.0351 -143.844 47.1401 -122.424 45.0401V44.9351C-124.419 38.9501 -125.889 32.8601 -126.729 26.6651C-127.149 23.5151 -127.464 20.4701 -127.674 17.3201C-127.779 16.1651 -128.409 13.5401 -127.044 12.9101C-126.204 12.5951 -123.264 13.6451 -122.424 13.8551C-110.034 16.4801 -97.8542 20.2601 -86.0942 25.1951C-85.9892 25.3001 -85.8842 25.1951 -85.9892 25.0901C-86.4092 18.8951 -85.7792 12.7001 -83.9942 6.71509C-83.1542 3.88009 -81.9992 1.04509 -80.7392 -1.57991C-80.1092 -2.83991 -79.3742 -4.09991 -78.6392 -5.25491C-77.2742 -7.45991 -75.9092 -5.98991 -74.2292 -4.93991C-62.3642 2.51509 -50.4992 10.0751 -38.5292 17.5301H-38.4242C-36.5342 12.5951 -34.7492 7.66008 -32.8592 2.83008C-31.9142 0.415085 -30.9692 -2.10491 -30.1292 -4.51991C-29.7092 -5.67491 -29.3942 -7.14491 -28.7642 -8.19491C-27.9242 -9.55991 -27.8192 -9.87491 -26.3492 -8.92991C-18.0542 -4.09991 -10.4942 1.99008 -3.98419 9.13008C-3.87919 9.23508 -2.5142 10.6001 -2.5142 10.3901C-0.729197 5.98009 1.3708 1.78009 3.9958 -2.31491C5.2558 -4.30991 6.51581 -6.19991 7.88081 -7.98491C8.51081 -8.71991 9.24581 -10.2949 10.1908 -10.5049C11.2408 -10.7149 13.0258 -8.92991 13.8658 -8.19491C22.6858 -1.57991 31.5058 4.93009 40.3258 11.5451C40.4308 11.6501 40.5358 11.7551 40.7458 11.7551C45.0508 4.19509 50.4058 -2.62991 56.9158 -8.50991C55.9708 -9.45491 55.1308 -10.3999 54.1858 -11.3449C62.6908 0.520085 71.3008 12.3851 79.8058 24.3551C80.0158 24.5651 82.2208 27.5051 82.5358 27.1901C90.8308 17.4251 100.911 9.55009 112.356 3.77509C111.411 2.83009 110.571 1.88509 109.626 0.940086C117.711 13.1201 123.486 26.7701 126.846 40.9451C126.951 41.4701 129.576 45.2501 130.206 44.8301C136.716 40.3151 143.226 35.8001 149.841 31.2851C148.686 30.0251 147.636 28.6601 146.481 27.4001C147.636 44.9351 148.686 62.5751 149.841 80.1101C149.841 80.7401 152.466 84.3101 153.201 83.9951C166.536 78.9551 180.186 75.1751 194.151 72.5501C192.996 71.1851 191.946 69.8201 190.791 68.4551C185.646 83.5751 181.341 98.9051 177.981 114.445C177.771 115.18 180.501 118.645 181.341 118.54C191.946 117.175 202.656 116.755 213.366 117.28C212.211 115.915 211.161 114.55 210.006 113.185C205.911 125.68 201.816 138.28 197.826 150.775C197.616 151.51 200.346 154.87 201.186 154.87C208.221 154.135 215.151 153.4 222.186 152.665C221.031 151.3 219.981 149.935 218.826 148.57C209.376 161.275 201.396 174.925 194.991 189.415C194.676 190.15 197.511 193.3 198.141 193.51C210.111 196.24 221.766 200.23 233.001 205.375C231.951 204.01 230.901 202.645 229.851 201.28C215.886 213.25 201.816 225.22 187.851 237.19C187.431 237.505 189.846 240.235 190.161 240.445C194.256 244.54 198.351 248.74 202.446 252.835C204.336 254.725 206.121 256.51 204.861 259.345C204.126 261.13 202.446 262.285 200.766 263.23C196.461 265.645 191.316 266.905 186.696 268.48C181.026 270.475 175.356 272.47 169.791 274.465C169.581 274.57 170.736 276.145 170.736 276.145C178.401 286.645 185.541 297.565 192.156 308.8C192.051 308.59 191.946 308.275 191.841 308.065C176.301 313 159.606 313.105 144.066 308.275C143.961 308.17 143.856 308.275 143.961 308.38C146.481 316.885 148.896 325.495 151.416 334C152.046 336.205 152.676 338.41 153.306 340.615C153.621 341.77 153.936 342.82 154.251 343.975C154.356 344.5 154.566 344.92 154.671 345.445C154.461 346.285 153.831 346.6 152.991 346.495C150.996 347.125 148.266 346.915 146.271 347.125C144.171 347.23 142.071 347.44 139.971 347.545C122.121 348.28 104.271 346.705 86.7358 342.715C86.6308 342.61 86.5258 342.715 86.6308 342.82C88.2058 349.54 89.4658 356.26 90.5158 362.98C91.0408 366.55 91.5658 370.12 91.9858 373.69C92.1958 375.265 92.6158 376.945 92.5108 378.52C92.4058 379.99 92.5108 379.99 91.1458 379.885C90.4108 379.78 89.6758 379.465 88.9408 379.255C76.5508 375.79 64.6858 370.225 54.0808 362.98C53.9758 362.98 53.6608 362.665 53.6608 362.98C55.0258 370.645 55.7608 378.415 55.8658 386.185C55.8658 389.965 55.7608 393.64 55.5508 397.315C55.4458 399.415 55.2358 401.515 55.0258 403.51C54.9208 404.77 54.9208 408.865 53.8708 409.6C52.9258 410.335 50.6158 408.97 49.4608 408.55C47.8858 407.92 46.3108 407.29 44.7358 406.66C41.5858 405.295 38.6458 403.825 35.6008 402.145C29.4058 398.68 23.7358 394.375 18.4858 389.545C18.5908 389.65 17.8558 388.915 17.7508 389.125C15.6508 395.215 12.1858 400.57 7.6708 405.085C7.8808 405.19 8.09081 405.4 8.40581 405.505C-0.834187 397.42 -7.86919 387.655 -12.9092 376.525C-13.1192 376.105 -15.8492 372.535 -16.1642 372.85C-23.4092 381.67 -30.6542 390.49 -37.8992 399.31C-36.8492 400.57 -35.6942 401.725 -34.6442 402.985C-39.8942 391.54 -45.0392 380.2 -50.2892 368.755C-50.4992 368.23 -52.8092 364.765 -53.5442 365.08C-70.1342 373.585 -86.6192 381.985 -103.209 390.49C-102.054 391.75 -101.004 393.115 -99.8492 394.375C-101.844 382.93 -102.684 371.275 -102.159 359.62C-102.159 358.99 -104.994 355.315 -105.519 355.735C-114.864 362.455 -125.679 366.655 -137.124 368.02C-135.969 369.28 -134.919 370.645 -133.764 371.905C-133.974 358.045 -131.769 344.29 -127.254 331.165C-127.044 330.43 -129.879 326.965 -130.614 327.07C-143.634 330.64 -156.549 334.21 -169.569 337.78C-168.414 339.145 -167.364 340.51 -166.209 341.875C-159.069 321.19 -147.834 302.08 -133.029 285.91C-132.609 285.49 -135.759 281.71 -136.389 281.815C-149.409 285.175 -162.954 286.33 -176.394 285.28C-175.239 286.645 -174.189 288.01 -173.034 289.375C-165.684 274.36 -158.334 259.45 -150.879 244.435C-150.564 243.805 -153.504 240.34 -154.239 240.34C-169.044 242.02 -184.059 241.18 -198.549 237.82C-197.499 239.185 -196.449 240.55 -195.399 241.915C-182.274 229.525 -169.044 217.135 -155.919 204.64C-155.499 204.22 -158.544 200.755 -159.069 200.545C-165.264 198.34 -171.459 196.135 -177.654 194.035C-176.604 195.4 -175.554 196.765 -174.504 198.13C-157.494 186.58 -139.224 176.92 -120.009 169.36C-119.694 169.255 -122.739 165.58 -123.159 165.265C-134.814 159.91 -146.469 154.66 -158.229 149.305C-157.179 150.67 -156.129 152.035 -155.079 153.4C-140.169 144.895 -123.789 139.33 -106.779 136.81C-106.674 136.81 -109.404 133.03 -109.929 132.715C-130.299 121.27 -149.934 108.67 -168.729 94.8101C-167.784 96.0701 -166.734 97.4351 -165.789 98.6951C-138.174 93.6551 -110.559 88.6151 -82.8392 83.5751C-82.8392 83.4701 -82.8392 83.2601 -82.9442 83.1551C-85.9892 75.8051 -89.1392 68.5601 -92.1842 61.2101C-93.7592 57.5351 -95.2292 53.8601 -96.8042 50.1851C-97.1192 49.3451 -97.7492 48.2951 -97.9592 47.4551C-98.2742 46.0901 -98.2742 46.3001 -96.9092 46.5101C-95.0192 46.9301 -93.1292 47.6651 -91.2392 48.1901C-76.0142 52.6001 -60.7892 57.0101 -45.5642 61.4201H-45.4592C-44.7242 55.6451 -43.8842 49.9751 -43.1492 44.2001C-42.9392 42.7301 -42.9392 41.1551 -42.5192 39.7901C-42.4142 39.2651 -42.4142 38.3201 -41.5742 38.2151C-41.2592 38.2151 -39.9992 39.0551 -39.5792 39.2651C-37.2692 40.5251 -34.9592 41.8901 -32.6492 43.2551C-23.4092 48.9251 -14.9042 55.7501 -7.13419 63.3101C-7.23919 63.2051 -6.50419 63.9401 -6.39919 63.7301C-5.24419 57.2201 -4.0892 50.6051 -3.0392 44.0951C-2.5142 40.8401 -1.88419 37.5851 -1.35919 34.2251C-1.04419 32.6501 -0.939187 30.8651 -0.519187 29.2901C-0.309187 28.4501 -0.414187 27.7151 0.530813 27.9251C0.950813 28.0301 2.00081 28.9751 2.31581 29.1851C12.1858 36.2201 21.1108 44.6201 28.5658 54.2801C28.6708 54.3851 30.8758 56.6951 30.9808 56.5901C32.3458 48.1901 36.3358 40.6301 42.5308 34.7501C41.6908 34.0151 40.9558 33.1751 40.1158 32.4401C49.2508 43.9901 58.3858 55.5401 67.5208 67.0901C67.5208 67.0901 69.7258 69.7151 69.9358 69.4001C75.8158 59.6351 83.9008 51.5501 93.7708 45.8801C92.6158 44.6201 91.5658 43.2551 90.4108 41.9951C95.4508 56.1701 99.1258 70.8701 101.226 85.7801C101.331 86.3051 104.061 90.0851 104.586 89.6651C113.721 83.4701 123.591 78.3251 134.091 74.5451C132.936 73.2851 131.886 71.9201 130.731 70.6601C130.206 88.5101 129.681 106.255 129.156 124.105C129.156 124.735 131.781 128.305 132.516 127.99C143.121 124 153.621 120.01 164.226 116.02C163.071 114.655 162.021 113.29 160.866 111.925C156.561 127.78 152.256 143.74 148.056 159.595C147.846 160.33 150.471 163.585 151.206 163.69C158.031 164.425 164.751 165.16 171.576 165.79C170.526 164.425 169.476 163.06 168.426 161.695C157.716 177.655 145.326 192.46 131.466 205.795C131.046 206.215 134.091 209.785 134.616 209.89C149.106 211.885 163.596 213.775 177.981 215.77C176.931 214.405 175.881 213.04 174.831 211.675C168.321 220.075 160.971 227.53 152.676 234.145C152.256 234.46 154.671 237.19 154.986 237.4C161.076 243.91 167.166 250.42 173.256 257.035C172.521 255.985 171.786 254.83 170.946 253.78C148.791 262.495 124.956 266.17 101.226 264.805V264.91C104.376 273.625 107.421 282.34 110.571 291.055C111.936 294.835 113.721 298.825 114.666 302.71C115.611 306.91 113.511 309.43 109.521 310.165C105.741 310.9 101.541 310.585 97.7608 310.48C93.2458 310.375 88.6258 310.06 84.1108 309.43C75.2908 308.38 66.5758 306.385 58.1758 303.55C58.0708 303.445 57.9658 303.55 58.0708 303.655C59.2258 310.585 60.3808 317.515 61.5358 324.445C62.1658 328.015 62.7958 331.69 63.3208 335.26C63.4258 335.785 64.4758 339.985 64.1608 340.195C63.2158 340.93 60.4858 338.515 59.8558 337.99C49.0408 330.64 38.9608 322.24 29.9308 312.895C29.8258 312.79 28.8808 311.845 28.8808 312.265C29.6158 330.745 27.0958 349.225 21.4258 366.865C22.4758 367.915 23.4208 369.07 24.4708 370.12C15.9658 356.47 7.35581 342.715 -1.14919 329.065C-1.35919 328.75 -3.87919 325.39 -4.19419 325.81C-14.1692 338.305 -24.7742 350.275 -36.1142 361.615C-34.9592 362.875 -33.9092 364.24 -32.7542 365.5C-38.6342 347.02 -42.6242 327.91 -44.5142 308.485C-44.6192 307.855 -47.5592 304.285 -47.8742 304.6C-59.7392 319.3 -72.0242 333.685 -84.8342 347.65C-83.6792 348.91 -82.6292 350.275 -81.4742 351.535C-85.3592 335.05 -84.6242 317.83 -79.4792 301.66C-79.2692 300.925 -82.1042 297.46 -82.8392 297.565C-99.6392 302.08 -116.544 305.65 -133.764 308.38C-132.609 309.745 -131.559 311.11 -130.404 312.475C-124.734 294.625 -117.069 277.51 -107.514 261.445C-107.094 260.815 -110.139 257.35 -110.874 257.35C-120.534 257.98 -130.194 258.61 -139.854 259.135C-138.699 260.5 -137.649 261.865 -136.494 263.23C-126.099 246.745 -115.599 230.26 -105.204 213.88C-104.784 213.25 -107.829 209.785 -108.564 209.785C-120.744 210.205 -132.819 209.26 -144.789 206.74C-143.739 208.105 -142.689 209.47 -141.639 210.835C-120.429 195.085 -97.3292 181.855 -73.0742 171.565C-72.7592 171.46 -75.5942 167.68 -76.2242 167.47C-91.1342 163.9 -105.414 158.02 -118.644 150.25C-117.594 151.615 -116.544 152.98 -115.494 154.345C-98.4842 146.785 -81.3692 139.33 -64.3592 131.77C-64.0442 131.665 -66.4592 128.725 -66.6692 128.515C-76.8542 118.33 -87.0392 108.145 -97.1192 97.9601C-96.3842 99.0101 -95.6492 100.165 -94.8092 101.215C-78.2192 100.27 -61.6292 100.585 -45.1442 102.265C-45.0392 102.37 -44.9342 102.265 -45.0392 102.16C-45.0392 98.1701 -45.0392 94.1801 -44.9342 90.1901C-44.9342 88.1951 -44.9342 86.2001 -44.9342 84.2051C-44.9342 83.1551 -44.9342 82.2101 -44.9342 81.1601C-44.9342 80.6351 -45.2492 78.6401 -44.9342 78.1151C-44.0942 76.8551 -41.3642 78.2201 -40.1042 78.5351C-38.4242 78.9551 -36.8492 79.4801 -35.1692 80.0051C-31.8092 81.0551 -28.4492 82.3151 -25.1942 83.6801C-12.1742 89.1401 0.00580979 96.7001 10.7158 105.94C10.6108 105.835 11.3458 106.57 11.4508 106.36C15.1258 92.7101 20.0608 79.3751 26.0458 66.5651C25.5208 66.1451 25.1008 65.7251 24.5758 65.3051C37.3858 80.3201 46.2058 98.4851 50.9308 117.595C51.0358 118.12 54.0808 121.795 54.2908 121.48C60.9058 111.82 69.3058 103.525 79.1758 97.2251C78.0208 95.9651 76.9708 94.6001 75.8158 93.3401C78.3358 105.31 79.8058 117.595 80.2258 129.775C80.2258 130.405 82.9558 133.975 83.5858 133.66C93.5608 128.305 103.536 123.055 113.511 117.7C112.356 116.44 111.306 115.075 110.151 113.815C108.156 134.395 102.801 154.45 94.5058 173.35C94.1908 174.085 97.0258 177.235 97.6558 177.445C110.886 179.545 124.326 180.7 137.661 180.805C136.506 179.44 135.456 178.075 134.301 176.71C127.581 187.84 117.921 196.765 106.266 202.435C106.056 202.54 107.211 204.115 107.211 204.115C112.461 210.835 117.606 217.555 122.856 224.275C122.541 223.75 122.226 223.12 121.911 222.595C105.006 231.1 86.3158 235.615 67.4158 235.825V235.93C69.7258 244.015 72.0358 251.995 74.3458 260.08C75.5008 264.28 76.7608 268.48 77.9158 272.575C78.2308 273.52 78.4408 274.465 78.7558 275.515C78.8608 275.935 79.7008 278.035 79.5958 278.455C79.2808 279.61 78.5458 279.085 77.7058 278.875C76.7608 278.665 75.9208 278.455 74.9758 278.245C61.7458 274.885 49.2508 267.43 40.7458 256.72C40.6408 256.615 38.7508 254.725 38.7508 255.04C39.8008 270.37 37.5958 285.595 32.3458 300.085C32.5558 300.19 32.7658 300.4 33.0808 300.505C21.8458 290.215 13.8658 277.09 9.14081 262.6C8.93081 261.97 5.78081 258.715 5.78081 258.715C1.16081 274.99 -4.4042 290.95 -10.9142 306.49C-9.8642 307.75 -8.70919 308.905 -7.65919 310.165C-16.2692 293.365 -22.0442 275.2 -24.8792 256.51C-24.9842 255.88 -27.6092 252.205 -28.2392 252.625C-46.9292 263.755 -66.7742 272.785 -87.3542 279.61C-86.1992 280.975 -85.1492 282.34 -83.9942 283.705C-79.0592 268.48 -70.7642 254.515 -59.5292 243.07C-59.0042 242.545 -62.0492 239.5 -62.4692 239.185C-69.9242 234.355 -78.3242 231.625 -87.2492 231.205C-86.0942 232.57 -85.0442 233.935 -83.8892 235.3C-69.2942 220.6 -54.8042 206.005 -40.2092 191.305C-39.7892 190.885 -42.8342 187.42 -43.3592 187.21C-55.7492 184.48 -68.4542 183.325 -81.1592 183.745C-80.0042 185.11 -78.9542 186.475 -77.7992 187.84C-59.2142 178.495 -40.2092 170.095 -20.7842 162.64V162.535C-22.7792 153.4 -24.4592 144.055 -25.6142 134.815C-26.2442 129.985 -26.7692 125.155 -27.1892 120.325C-27.3992 118.015 -27.5042 115.81 -27.7142 113.5C-27.7142 112.975 -28.1342 110.98 -27.9242 110.56C-27.1892 109.51 -26.1392 110.35 -25.0892 110.77C-10.1792 116.23 3.4708 126.205 12.3958 139.435C12.5008 139.645 15.0208 142.585 15.1258 142.27C18.4858 136.39 23.0008 131.455 28.4608 127.57C27.3058 126.31 26.2558 124.945 25.1008 123.685C28.7758 133.975 32.3458 144.265 36.0208 154.45C36.3358 155.29 38.3308 158.545 39.3808 158.335C51.6658 156.655 63.9508 154.87 76.2358 153.19C75.0808 151.93 74.0308 150.565 72.8758 149.305C71.6158 161.695 65.1058 173.035 55.1308 180.49C54.6058 180.91 57.8608 184.27 58.2808 184.585C68.1508 190.885 78.0208 197.29 87.8908 203.59C86.8408 202.225 85.7908 200.86 84.7408 199.495C70.6708 202.75 56.2858 203.485 42.0058 201.7C41.9008 201.595 41.7958 201.7 41.9008 201.805C42.2158 212.41 41.7958 223.12 40.7458 233.62C40.6408 234.565 40.6408 235.51 40.4308 236.455C40.2208 237.19 40.3258 237.505 39.6958 237.295C38.8558 237.085 37.5958 235.51 36.9658 234.985C35.1808 233.41 33.6058 231.625 32.1358 229.735C29.3008 225.955 27.0958 221.755 25.3108 217.345C25.1008 216.82 22.1608 213.46 22.0558 213.67C15.7558 225.22 8.1958 235.93 -0.414197 245.8C0.740803 247.06 1.7908 248.425 2.9458 249.685C2.4208 237.505 2.00081 225.22 1.47581 213.04C1.47581 212.305 -1.04419 208.945 -1.88419 209.155C-16.7942 213.04 -31.9142 215.98 -47.1392 217.975C-45.9842 219.34 -44.9342 220.705 -43.7792 222.07C-27.9242 210.205 -12.1742 198.445 3.68081 186.58V186.475C-1.25419 171.355 -4.71919 155.815 -6.92419 139.96C-7.13419 139.855 -7.34419 139.75 -7.65919 139.645C4.73081 151.3 15.3358 164.53 24.1558 179.125C24.7858 180.07 25.5208 181.33 26.4658 181.96C26.9908 183.01 27.3058 183.22 26.7808 182.275Z" fill="#4F4CCE"/>
</g>
</g>
<defs>
<clipPath id="clip0_943_9589">
<rect width="525" height="525" fill="white" transform="translate(-250 -107)"/>
</clipPath>
</defs>
</svg>
