<svg width="349" height="500" viewBox="0 0 349 500" fill="none" xmlns="http://www.w3.org/2000/svg">
<path d="M6.19373 486.204C-18.0813 474.876 34.828 467.228 64.317 464.82C119.591 462.99 237.49 460.427 266.894 464.82C303.648 470.31 303.221 486.204 277.151 495.162C251.081 504.12 36.5375 500.363 6.19373 486.204Z" fill="black" fill-opacity="0.3"/>
<path d="M173.563 68.1873L189.672 82.2586C191.531 83.8825 194.07 84.4876 196.462 83.8768L217.186 78.5834C219.194 78.0706 220.918 80.0825 220.104 81.9879L211.7 101.657C210.73 103.927 210.939 106.529 212.259 108.615L223.697 126.689C224.805 128.44 223.425 130.702 221.361 130.516L200.057 128.601C197.599 128.38 195.189 129.383 193.613 131.283L179.958 147.747C178.635 149.342 176.058 148.728 175.596 146.708L170.834 125.855C170.285 123.448 168.586 121.466 166.292 120.555L146.415 112.656C144.489 111.89 144.277 109.249 146.055 108.186L164.416 97.2135C166.535 95.9471 167.895 93.7193 168.053 91.2558L169.423 69.91C169.556 67.8422 172.002 66.8242 173.563 68.1873Z" stroke="black" stroke-width="5"/>
<path d="M255.998 89.0258L252.992 72.1922C252.683 70.4619 253.305 68.6965 254.63 67.5423L266.516 57.1934C269.87 54.2729 268.028 48.755 263.592 48.4355L248.093 47.319C246.223 47.1842 244.585 46.0146 243.851 44.2893L237.317 28.9304C235.645 24.9999 230.132 24.8405 228.236 28.6678L224.374 36.4624" stroke="black" stroke-width="5" stroke-linecap="round"/>
<path d="M159.843 68.0839L141.035 55.2469C137.364 52.7409 138.543 47.0485 142.908 46.2075L164.705 42.0082C166.546 41.6535 168.034 40.2986 168.559 38.4987L174.771 17.2042C176.016 12.9347 181.798 12.2942 183.948 16.1876L194.67 35.6062C195.576 37.2476 197.324 38.244 199.198 38.1872L221.37 37.5145C225.816 37.3797 228.212 42.6806 225.173 45.9283L208.975 63.2402C208.295 63.9675 207.847 64.8815 207.69 65.8649L205.142 81.7591" stroke="black" stroke-width="5" stroke-linecap="round"/>
<path d="M277.972 73.9819L279.034 95.3452C279.156 97.8107 280.484 100.058 282.585 101.355L300.785 112.591C302.548 113.68 302.298 116.318 300.361 117.055L280.372 124.666C278.065 125.545 276.338 127.502 275.753 129.9L270.691 150.682C270.2 152.696 267.614 153.272 266.315 151.659L252.899 134.999C251.351 133.077 248.955 132.039 246.494 132.225L225.165 133.832C223.098 133.987 221.751 131.706 222.884 129.972L234.582 112.064C235.932 109.998 236.179 107.399 235.242 105.115L227.122 85.3267C226.336 83.4097 228.089 81.4229 230.089 81.9646L250.734 87.5567C253.117 88.2021 255.665 87.6337 257.547 86.0368L273.858 72.1995C275.438 70.8591 277.869 71.9123 277.972 73.9819Z" stroke="black" stroke-width="5"/>
<path d="M135.484 92.4418L130.435 83.8476C128.158 79.9736 122.325 80.8346 121.265 85.2011L117.761 99.6337C117.319 101.456 115.895 102.877 114.072 103.316L99.3121 106.865C94.9879 107.905 94.0718 113.65 97.858 115.983L110.782 123.948C112.378 124.931 113.289 126.725 113.143 128.595L111.958 143.729C111.611 148.163 116.791 150.809 120.181 147.929L131.749 138.099C133.177 136.885 135.165 136.573 136.898 137.289L150.791 143.038C154.92 144.746 159.045 140.594 157.311 136.477L151.724 123.211" stroke="black" stroke-width="5" stroke-linecap="round"/>
<path d="M186.767 81.3315L186.319 53.754C186.247 49.305 180.836 47.1595 177.734 50.35L159.526 69.0815C158.219 70.4259 156.27 70.9262 154.477 70.3773L129.485 62.726C125.232 61.4241 121.523 65.906 123.599 69.8398L135.793 92.9581C136.668 94.6165 136.541 96.6249 135.465 98.1603L120.465 119.565C117.913 123.207 121.03 128.119 125.412 127.362L151.435 122.861C153.14 122.567 154.876 123.174 156.025 124.467L176.938 147.998" stroke="black" stroke-width="5" stroke-linecap="round"/>
<path d="M189.33 231.332L188.048 243.725" stroke="black" stroke-width="5" stroke-linecap="round"/>
<path d="M214.972 231.762L216.254 243.3" stroke="black" stroke-width="5" stroke-linecap="round"/>
<path d="M200.441 231.332C133.525 230.098 90.3207 182.183 72.7724 151.372C70.6861 147.709 74.0715 143.588 78.1832 144.518C160.328 163.089 270.889 152.722 325.592 143.669C329.591 143.007 332.651 147.044 330.666 150.577C312.782 182.412 268.16 232.58 200.441 231.332Z" fill="black"/>
<path d="M144.768 454.41H101.914C99.5591 454.41 97.4791 456.06 97.2049 458.399C95.5594 472.435 103.554 475.612 108.134 475.35H138.903C148.553 474.783 150.035 465.341 149.363 458.319C149.142 456.007 147.09 454.41 144.768 454.41Z" fill="black"/>
<path d="M302.069 454.41H259.216C256.861 454.41 254.781 456.06 254.507 458.399C252.861 472.435 260.856 475.612 265.436 475.35H296.205C305.855 474.783 307.337 465.341 306.665 458.319C306.444 456.007 304.392 454.41 302.069 454.41Z" fill="black"/>
<path d="M227.365 245.008C93.3481 231.675 58.9892 348 58.5618 407.829C58.296 445.008 81.4835 454.552 96.1687 453.983H305.57C346.596 453.983 346.894 426.205 344.887 407.829C331.553 285.777 260.983 248.427 227.365 245.008Z" stroke="black" stroke-width="5" stroke-linecap="round"/>
<circle cx="200.441" cy="349.28" r="68.4401" stroke="black" stroke-width="5"/>
<path d="M248.305 316.375L163.612 379.48C162.237 380.504 160.293 380.223 159.265 378.852C158.189 377.417 158.546 375.371 160.045 374.386L248.305 316.375Z" fill="black"/>
<circle cx="200.441" cy="349.283" r="6.8376" fill="black"/>
<path d="M249.587 348.426H262.407" stroke="black" stroke-width="5" stroke-linecap="round"/>
<path d="M200.015 287.316V298" stroke="black" stroke-width="5" stroke-linecap="round"/>
<path d="M200.441 400.562V411.246" stroke="black" stroke-width="5" stroke-linecap="round"/>
<path d="M138.049 348.426H150.869" stroke="black" stroke-width="5" stroke-linecap="round"/>
<path d="M219.245 301.418L224.373 292.871" stroke="black" stroke-width="5" stroke-linecap="round"/>
<path d="M176.51 405.692L181.638 397.145" stroke="black" stroke-width="5" stroke-linecap="round"/>
<path d="M244.032 306.117L236.767 312.955" stroke="black" stroke-width="5" stroke-linecap="round"/>
<path d="M164.971 386.031L157.706 392.869" stroke="black" stroke-width="5" stroke-linecap="round"/>
<path d="M257.706 326.633L247.877 330.052" stroke="black" stroke-width="5" stroke-linecap="round"/>
<path d="M153.86 368.938L144.031 372.356" stroke="black" stroke-width="5" stroke-linecap="round"/>
<path d="M247.45 368.938L257.279 373.211" stroke="black" stroke-width="5" stroke-linecap="round"/>
<path d="M144.031 326.203L153.86 330.477" stroke="black" stroke-width="5" stroke-linecap="round"/>
<path d="M243.177 392.872L236.767 385.18" stroke="black" stroke-width="5" stroke-linecap="round"/>
<path d="M164.116 313.384L157.706 305.691" stroke="black" stroke-width="5" stroke-linecap="round"/>
<path d="M222.664 406.972L220.1 397.57" stroke="black" stroke-width="5" stroke-linecap="round"/>
<path d="M179.928 301.417L177.364 292.016" stroke="black" stroke-width="5" stroke-linecap="round"/>
<path d="M188.903 135.605L207.811 150.483C210.912 152.923 215.486 150.978 215.878 147.051L217.536 130.477" stroke="black" stroke-width="5" stroke-linecap="round"/>
<path d="M217.108 147.145L228.929 139.981C230.355 139.116 232.118 139.02 233.63 139.724L250.329 147.498C253.235 148.85 256.645 147.158 257.325 144.027L258.134 140.307" stroke="black" stroke-width="5" stroke-linecap="round"/>
</svg>
