<svg width="758" height="761" viewBox="0 0 758 761" fill="none" xmlns="http://www.w3.org/2000/svg">
<path d="M276.578 745.49C267.702 745.49 258.642 744.011 249.766 740.867C218.7 729.957 198.545 702.59 197.25 669.491L193.367 563.905L87.7818 559.467C54.8673 558.173 27.5001 537.833 16.7752 506.582C6.0502 475.332 14.7411 442.602 39.8893 421.152L119.957 352.365L57.641 267.12C38.2251 240.492 36.9307 206.653 54.6824 178.731C72.2491 150.809 103.499 137.311 135.859 143.413L239.596 163.014L267.332 61.1266C276.023 29.3215 301.726 7.31685 334.641 3.61859C367.37 -0.0796775 397.511 15.8228 412.859 45.0391L462.231 138.42L559.125 96.6299C589.451 83.5011 622.735 89.973 646.035 113.457C669.334 136.941 675.621 170.225 662.307 200.366L619.962 297.076L713.158 346.817C742.189 362.35 758.092 392.491 754.209 425.221C750.51 457.95 728.321 483.653 696.331 492.159L594.259 519.526L613.49 623.447C619.407 655.992 605.723 686.873 577.802 704.439C549.88 722.006 515.856 720.712 489.413 700.926L404.538 638.425L335.381 718.123C319.848 736.06 298.768 745.49 276.578 745.49ZM120.511 143.968C94.4387 143.968 70.7698 156.912 56.3466 179.841C39.1496 207.023 40.2591 240.122 59.3052 266.195L122.545 352.735L41.1837 422.632C16.7752 443.712 8.08425 475.702 18.6243 506.028C29.1643 536.538 55.7918 556.324 87.9667 557.618L195.216 562.056L199.1 669.306C200.209 701.481 219.995 728.108 250.32 738.833C280.646 749.558 312.821 741.052 333.901 716.829L404.168 635.837L490.523 699.632C516.41 718.863 549.51 720.157 576.877 702.96C604.244 685.948 617.558 655.622 611.641 623.817L592.225 518.232L592.964 518.047L695.776 490.495C726.842 482.174 748.476 457.026 752.175 425.036C755.873 393.046 740.525 363.644 712.049 348.482L617.373 298L660.273 199.626C673.217 170.04 667.115 137.496 644.37 114.751C621.626 92.0071 589.451 85.9049 559.865 98.6639L461.306 141.194L411.195 46.3335C396.217 17.8569 366.816 2.32419 334.826 5.83754C302.836 9.35089 277.688 30.8008 269.182 62.0511L240.89 165.602L135.489 145.632C130.497 144.337 125.504 143.968 120.511 143.968Z" fill="#7362AA"/>
<path d="M257.719 737.352C247.179 737.352 236.27 735.133 225.914 730.695C195.589 717.566 177.467 688.905 178.577 655.99L182.09 550.405L77.2443 538.57C44.5146 534.872 18.6268 512.867 10.1208 480.877C1.42988 449.072 12.5247 416.897 39.1522 397.297L123.842 334.241L67.6288 244.928C50.062 217.006 51.3564 183.167 70.7723 156.54C90.3731 129.912 122.363 118.633 154.168 126.954L256.24 153.766L291.004 54.0979C301.914 22.8476 329.096 2.69204 362.195 1.39764C395.11 0.103252 423.956 18.0398 437.27 48.1807L479.985 144.705L579.653 109.757C610.719 98.8469 643.633 107.538 665.268 132.501C686.903 157.464 690.786 191.118 675.438 220.335L626.436 313.901L715.934 370.114C743.856 387.681 757.54 418.747 751.437 451.106C745.335 483.466 721.482 507.69 689.122 513.977L585.385 534.132L597.22 638.978C600.918 671.708 585.201 701.849 555.984 717.381C526.768 732.914 493.114 729.216 467.966 707.766L387.528 639.348L312.824 714.053C297.661 729.401 278.06 737.352 257.719 737.352ZM133.273 125.844C109.419 125.844 87.0446 136.939 72.0667 157.279C53.0206 183.352 51.7262 216.452 68.9232 243.634L126.061 334.426L40.0767 398.591C14.1889 417.822 3.46392 449.072 11.785 480.323C20.1061 511.573 45.2543 533.023 77.4292 536.536L184.124 548.556V549.48L180.611 655.805C179.501 687.98 197.253 716.087 226.839 728.846C256.425 741.605 288.97 735.503 311.714 712.574L387.528 636.759L469.26 706.471C493.854 727.367 526.768 731.065 555.245 715.902C583.721 700.739 599.069 671.523 595.556 639.348L583.536 532.653L688.937 512.313C720.557 506.21 743.856 482.727 749.773 450.921C755.691 419.301 742.377 388.976 715.01 371.779L624.217 314.825L673.959 219.78C688.937 191.119 685.054 158.389 663.974 133.98C642.893 109.572 610.904 101.066 580.393 111.791L479.06 147.294L435.791 49.1052C422.847 19.704 394.555 2.13729 362.38 3.43169C330.205 4.72608 303.578 24.5118 292.853 54.8375L257.535 156.17L256.795 155.985L153.798 128.988C146.772 126.769 139.93 125.844 133.273 125.844Z" fill="#7362AA"/>
<path d="M500.325 735.682C480.354 735.682 460.938 727.916 445.775 712.938L370.331 638.972L290.633 708.315C265.67 729.95 232.016 734.018 202.8 718.855C173.583 703.692 157.311 673.736 160.824 641.006L171.734 535.976L67.813 516.93C35.2683 511.012 11.2296 487.159 4.75764 454.799C-1.71432 422.439 11.5994 391.189 39.5213 373.437L128.465 316.484L78.538 223.473C63.0053 194.441 66.5186 160.602 87.9686 135.454C109.234 110.306 141.963 101.245 173.213 111.785L273.251 145.624L314.857 48.5447C327.986 18.219 356.462 0.0974755 389.562 1.02204C422.476 1.94661 450.028 21.9172 461.308 52.9826L497.181 152.281L599.068 124.359C630.874 115.668 663.048 126.578 682.834 153.021C702.62 179.463 704.284 213.302 686.902 241.409L631.613 331.277L716.858 393.593C743.486 413.008 754.95 444.998 746.629 476.988C738.308 508.978 712.79 531.353 680.06 535.236L575.215 547.995L579.653 653.396C581.132 686.31 563.195 715.157 533.054 728.655C522.329 733.278 511.235 735.682 500.325 735.682ZM370.516 636.384L371.071 636.938L447.07 711.458C469.999 734.018 502.729 739.935 532.13 726.806C561.531 713.677 579.098 685.57 577.619 653.396L572.996 546.146L573.92 545.961L679.506 533.017C711.496 529.134 736.459 507.314 744.595 476.064C752.731 444.814 741.636 413.748 715.564 394.702L628.839 331.462L685.053 240.115C701.88 212.563 700.401 179.648 681.17 153.76C661.754 128.057 630.504 117.147 599.438 125.653L495.887 153.945L459.459 52.9826C448.549 22.6569 421.737 3.241 389.562 2.31643C357.387 1.39187 329.465 19.1435 316.706 48.7296L274.361 147.288L172.844 112.894C142.333 102.539 110.343 111.415 89.6328 136.009C68.9225 160.602 65.2242 193.517 80.572 221.993L131.238 316.669L130.499 317.039L41.0006 374.547C13.8184 391.928 0.874465 422.439 7.16151 454.059C13.4486 485.679 36.9325 508.978 68.7376 514.711L174.323 534.127L163.413 640.821C160.085 672.811 175.802 702.028 204.464 716.821C233.125 731.614 266.04 727.731 290.263 706.651L370.516 636.384Z" fill="#7362AA"/>
<path d="M481.646 743.086C459.827 743.086 438.931 733.84 423.399 716.458L353.317 637.5L268.996 701.11C242.554 721.081 208.715 722.56 180.608 705.363C152.501 688.166 138.448 657.286 144.18 624.741L162.301 520.635L60.0444 494.377C28.0544 486.241 5.67993 460.723 1.61184 427.994C-2.45625 395.264 12.8915 365.123 41.9229 349.221L134.564 298.554L91.2947 202.215C77.796 172.074 83.7133 138.789 106.827 115.121C129.942 91.4517 163.041 84.7948 193.552 97.5539L291.001 138.42L339.448 44.4838C354.611 15.0826 384.382 -1.00485 417.297 2.13868C450.211 5.46711 476.099 27.2869 485.16 58.907L513.636 160.424L617.188 139.714C649.547 133.242 680.798 146.371 698.734 174.108C716.671 201.845 715.746 235.684 696.7 262.681L635.309 348.481L716.116 416.529C741.449 437.794 750.51 470.524 739.97 501.774C729.43 533.024 702.433 553.55 669.518 555.214L564.118 560.761L561.344 666.347C560.419 699.261 540.634 726.813 509.568 738.093C500.138 741.421 490.707 743.086 481.646 743.086ZM353.686 634.911L424.878 715.164C446.328 739.202 478.318 747.523 508.644 736.429C538.969 725.334 558.385 698.522 559.125 666.347L562.084 559.097H563.008L669.333 553.55C701.508 551.885 727.951 531.915 738.121 501.219C748.291 470.524 739.415 438.719 714.822 418.008L632.72 348.851L633.275 348.111L695.221 261.572C713.897 235.314 714.822 202.215 697.255 175.217C679.688 148.22 649.178 135.276 617.557 141.563L512.342 162.643L483.126 59.4617C474.25 28.3963 448.917 7.13133 416.927 3.98781C384.937 0.844285 355.72 16.5619 340.927 45.2234L291.741 140.639L192.812 99.2181C163.041 86.8289 130.681 93.3008 108.122 116.415C85.5624 139.529 79.8301 172.074 92.9589 201.475L136.968 299.294L42.8475 350.885C14.5558 366.418 -0.607118 395.819 3.46097 427.809C7.52906 459.799 29.3488 484.577 60.5991 492.713L164.52 519.341L146.029 625.111C140.482 656.916 154.165 687.057 181.717 703.884C209.269 720.711 242.369 719.047 268.072 699.631L353.686 634.911Z" fill="#7362AA"/>
<path d="M462.601 749.192C438.747 749.192 416.372 738.283 401.025 718.312L336.675 634.546L248.101 692.054C220.364 709.991 186.525 709.251 159.528 690.205C132.716 670.974 120.881 639.354 128.832 607.179L154.165 504.737L53.9426 471.453C22.6923 461.098 1.98198 434.1 0.13285 401.186C-1.71628 368.271 15.8505 339.24 45.8064 325.372L141.776 281.362L105.348 182.249C93.8838 151.183 102.205 118.269 126.798 96.4491C151.392 74.4444 185.046 70.0065 214.632 84.9845L308.938 132.507L363.857 42.0846C381.054 13.7929 411.934 -0.260476 444.479 5.28692C477.024 10.8343 501.432 34.3183 508.274 66.6781L529.909 170.045L634.57 156.546C667.299 152.293 697.625 167.641 713.528 196.672C729.43 225.518 726.287 259.358 705.207 284.876L637.898 366.237L713.713 439.648C737.382 462.577 744.223 495.861 731.649 526.372C719.26 556.328 691.523 574.819 659.163 574.819C658.609 574.819 658.054 574.819 657.684 574.819L552.099 572.97L541.928 678.001C538.785 710.915 516.965 736.988 485.345 746.049C477.394 748.268 469.997 749.192 462.601 749.192ZM337.045 632.142L402.504 717.202C422.105 742.72 453.54 753.076 484.605 744.2C515.671 735.324 536.751 709.806 539.894 677.816L550.249 570.936H551.174L657.684 572.785C690.044 573.34 717.596 555.219 729.985 525.448C742.374 495.677 735.717 463.317 712.603 440.757L635.494 366.052L703.912 283.396C724.438 258.618 727.581 225.518 712.048 197.412C696.516 169.12 666.93 154.142 634.94 158.21L528.43 171.894L506.24 67.0479C499.583 35.4278 475.729 12.4985 443.924 7.13605C412.119 1.77357 381.978 15.4571 365.336 43.0092L309.677 134.726L213.892 86.4638C185.046 72.0406 152.316 76.2936 128.278 97.7435C104.239 119.193 96.1028 151.368 107.198 181.509L144.18 282.287L46.731 327.036C17.5147 340.534 0.317767 368.826 2.1669 401.001C4.01603 433.176 23.9866 459.434 54.6822 469.604L156.569 503.443L130.866 607.549C123.1 638.799 134.565 669.865 160.822 688.541C187.08 707.217 220.179 707.957 247.177 690.39L337.045 632.142Z" fill="#7362AA"/>
<path d="M443.18 754.004C417.293 754.004 393.439 741.245 378.276 718.686L319.843 630.667L227.572 681.888C198.725 697.976 164.886 694.832 139.368 673.937C113.85 653.042 104.235 620.497 114.405 589.062L146.765 488.654L49.1305 448.343C18.6198 435.769 -0.0563874 407.477 0.498352 374.378C1.05309 341.278 20.469 313.541 51.3495 301.892L150.093 264.539L120.692 163.207C111.446 131.587 121.986 99.2269 148.059 79.0714C174.132 58.9159 207.971 56.8818 236.448 73.7089L327.24 127.704L388.261 41.534C407.307 14.5367 439.112 2.7023 471.102 10.4686C503.092 18.235 525.837 43.5681 530.459 76.1128L545.067 180.774L650.468 174.671C683.383 172.822 712.599 190.204 726.467 220.16C740.336 250.116 734.788 283.585 712.044 307.439L639.188 383.993L709.64 462.581C731.645 487.175 736.268 520.829 721.475 550.23C706.682 579.816 677.095 596.273 644.181 593.5L538.965 584.254L521.399 688.36C515.851 720.905 492.552 745.498 460.192 752.34C454.46 753.45 448.728 754.004 443.18 754.004ZM320.583 628.263L379.94 717.761C397.692 744.574 428.387 757.148 460.007 750.491C491.628 743.834 514.372 719.795 519.734 687.99L537.486 582.22H538.411L644.366 591.466C676.541 594.239 705.387 578.152 719.81 549.305C734.234 520.459 729.796 487.729 708.346 463.691L636.784 383.808L637.339 383.254L710.75 306.145C732.939 282.846 738.302 250.116 724.803 220.9C711.304 191.684 682.828 174.671 650.653 176.521L543.588 182.808L528.98 76.4826C524.542 44.4927 502.353 19.8992 471.102 12.3178C439.852 4.73634 408.787 16.201 390.11 42.6435L328.164 130.292L235.708 75.3732C207.971 58.9159 174.871 60.9499 149.353 80.5507C123.835 100.336 113.665 131.772 122.541 162.652L152.497 265.649L52.0891 303.556C21.9483 315.021 2.90222 342.018 2.34748 374.193C1.79274 406.368 20.0991 434.105 49.8701 446.309L148.984 487.175L116.069 589.247C106.084 619.942 115.514 651.747 140.478 672.273C165.441 692.798 198.355 695.757 226.462 680.039L320.583 628.263Z" fill="#7362AA"/>
<path d="M423.399 757.523C395.292 757.523 369.959 742.915 355.535 717.582L303.39 625.68L207.79 670.429C177.834 684.483 144.365 678.935 120.511 656.191C96.4721 633.447 89.2605 600.347 101.65 569.652L141.036 471.648L46.3606 424.865C16.7745 410.256 0.132332 380.67 2.90603 347.756C5.67973 314.841 27.1297 288.584 58.7498 278.968L159.897 248.642L137.708 145.461C130.681 113.101 143.44 81.6658 170.992 63.3594C198.544 45.053 232.383 45.4229 259.565 64.0991L346.29 124.196L413.043 42.4643C433.939 16.9462 466.483 7.33077 497.918 17.3161C529.354 27.3014 550.249 54.1138 552.468 87.0283L559.495 192.429L665.08 193.723C698.179 194.093 725.916 213.509 737.566 244.389C749.4 275.27 741.449 308.184 717.041 330.559L639.007 401.75L703.912 485.146C724.252 511.219 726.286 545.058 709.644 573.535C692.817 602.011 662.121 616.435 629.577 611.257L525.286 594.615L500.692 697.242C492.926 729.417 467.778 752.161 435.233 756.784C431.165 757.154 427.282 757.523 423.399 757.523ZM304.314 623.276L357.2 716.658C373.102 744.764 402.873 759.372 434.678 754.935C466.668 750.312 491.262 728.122 498.843 696.687L523.991 592.396L629.946 609.223C661.751 614.216 691.707 600.162 708.165 572.425C724.622 544.688 722.403 511.589 702.617 486.256L636.788 401.566L715.931 329.265C739.785 307.445 747.366 275.27 735.902 245.129C724.437 214.988 697.255 196.127 665.08 195.572L557.83 194.278L550.619 87.3981C548.4 55.2233 528.059 29.1505 497.364 19.3501C466.668 9.54973 434.863 18.9803 414.523 43.9436L346.66 126.97L345.92 126.415L258.456 65.7633C232.013 47.4569 198.914 47.0871 172.102 65.0237C145.289 82.9602 132.9 113.656 139.557 145.091L162.116 249.937L161.377 250.122L59.4895 280.632C28.609 289.878 7.71377 315.581 4.94008 347.756C2.16638 379.931 18.4387 408.777 47.2852 423.015L143.44 470.723L103.499 570.206C91.4794 600.162 98.5061 632.522 121.99 654.712C145.474 676.901 178.019 682.079 207.235 668.58L304.314 623.276Z" fill="#7362AA"/>
<path d="M403.801 759.539C373.29 759.539 346.663 742.712 333.164 714.79L287.675 619.559L189.117 657.467C158.236 669.301 125.322 661.535 102.947 637.311C80.5728 613.087 75.7651 579.433 90.1883 549.662L136.232 454.617L45.2544 401.177C16.7778 384.535 2.16963 353.839 7.3472 321.295C12.3399 288.75 35.6389 263.972 67.8138 256.575L170.81 233.461L155.832 128.985C151.21 96.2553 166.003 65.7446 194.664 49.4723C223.326 33.1999 257.165 35.7887 282.868 56.499L365.154 122.513L437.455 45.5891C460.014 21.5504 493.114 14.1539 523.81 26.3581C554.505 38.5624 573.551 66.6692 573.366 99.7686L572.996 205.354L678.212 214.045C711.127 216.819 737.569 238.084 747 269.704C756.43 301.324 746.445 333.684 720.557 354.209L637.901 419.853L696.703 507.502C715.195 534.869 714.825 568.893 696.149 596.075C677.472 623.258 645.852 635.462 613.677 628.065L510.866 604.212L479.061 704.804C469.075 736.24 442.448 757.32 409.533 759.539C407.684 759.539 405.835 759.539 403.801 759.539ZM288.6 617.156L334.828 714.05C348.697 743.081 377.358 759.908 409.533 757.505C441.708 755.286 467.781 734.76 477.396 704.065L509.756 601.808L510.681 601.993L614.417 626.031C645.852 633.243 676.733 621.409 695.039 594.781C713.346 568.154 713.53 535.054 695.594 508.427L635.682 419.114L719.817 352.545C745.151 332.574 754.951 300.954 745.705 270.074C736.46 239.193 710.572 218.483 678.397 215.709L571.517 207.018L571.887 99.7686C572.072 67.5938 553.396 40.0417 523.44 28.2073C493.484 16.3728 461.124 23.3995 439.119 46.8835L365.524 125.102L281.758 57.9783C256.61 37.8228 223.511 35.234 195.589 51.1365C167.667 67.039 153.059 96.81 157.682 128.8L172.844 234.94L68.1836 258.424C36.7484 265.451 14.189 289.674 9.19633 321.48C4.20368 353.285 18.442 383.24 46.1789 399.513L138.636 453.877L91.8525 550.402C77.7991 579.433 82.6068 612.163 104.427 635.832C126.246 659.501 158.421 667.082 188.562 655.617L288.6 617.156Z" fill="#7362AA"/>
<path d="M384.198 760.288C351.099 760.288 323.177 741.242 310.973 710.546L272.141 612.357L171.178 643.238C139.558 652.853 107.198 642.868 86.673 616.98C66.1477 591.092 63.5589 557.438 80.0162 528.777L132.716 437.245L45.6223 377.518C18.4401 358.841 6.05093 327.221 13.4475 295.046C20.844 262.872 45.6223 239.757 78.352 234.765L182.643 218.862L174.877 113.647C172.473 80.7321 189.485 51.3309 219.256 37.0926C249.027 22.8543 282.496 27.847 306.72 50.2214L384.198 121.968L461.677 50.2214C485.9 27.847 519.555 22.8543 549.141 37.0926C578.912 51.3309 595.924 80.7321 593.52 113.647L585.754 218.862L690.045 234.765C722.589 239.757 747.553 262.872 754.949 295.046C762.346 327.221 749.956 358.841 722.774 377.518L635.68 437.245L688.38 528.777C704.838 557.438 702.249 591.277 681.723 616.98C661.198 642.868 628.653 652.853 597.218 643.238L496.256 612.357L457.424 710.546C445.22 741.242 417.298 760.288 384.198 760.288ZM273.25 609.953L312.637 709.807C324.471 739.763 351.838 758.439 384.013 758.439C416.188 758.439 443.555 739.763 455.39 709.807L494.776 609.953L495.516 610.138L597.218 641.389C628.099 650.819 659.719 641.019 679.874 615.871C700.03 590.722 702.434 557.623 686.346 529.701L632.906 436.69L721.48 376.038C748.107 357.732 760.127 327.036 752.915 295.601C745.703 264.166 721.48 241.607 689.675 236.799L583.535 220.526L591.301 113.462C593.705 81.2868 577.063 52.6253 548.031 38.5719C519 24.5185 486.27 29.5112 462.601 51.3309L384.198 124.187L305.425 51.3309C281.756 29.5112 249.027 24.5185 219.995 38.5719C190.964 52.6253 174.322 81.2868 176.726 113.462L184.492 220.526L183.568 220.711L78.352 236.799C46.5469 241.607 22.1384 264.166 15.1117 295.601C7.90006 327.036 19.9194 357.917 46.5469 376.038L135.12 436.69L81.6804 529.701C65.593 557.623 68.1817 590.722 88.1524 615.871C108.308 641.019 139.928 650.819 170.809 641.389L273.25 609.953Z" fill="#7362AA"/>
</svg>
