<svg width="518" height="442" viewBox="0 0 518 442" fill="none" xmlns="http://www.w3.org/2000/svg">
<path d="M55.7962 259.801L71.0667 252.316C73.2956 251.223 75.9861 252.198 76.9988 254.464L92.9477 290.159C93.8843 292.255 93.045 294.719 91.0236 295.807L80.2204 301.625C78.1583 302.735 75.5878 302.028 74.3828 300.02L53.9667 265.993C52.6458 263.792 53.4909 260.931 55.7962 259.801Z" fill="black"/>
<path d="M41.7803 241.971L64.4874 231.312" stroke="black" stroke-width="4.38386" stroke-linecap="round"/>
<path d="M45.9508 209.998L5.59292 224.976C3.14299 225.885 2.02194 228.712 3.21178 231.039C16.1213 256.282 42.2694 304.309 59.3896 324.924C70.1659 337.899 83.0236 361.996 89.5113 374.045C93.6799 381.787 160.413 462.093 152.072 431.971C145.501 408.244 66.508 235.509 26.0375 148.219C24.999 145.979 26.0093 143.401 28.2794 142.43C85.6527 117.889 204.505 70.2324 252.632 62.6335C299.88 55.1733 370.759 21.3024 404.186 3.26417C406.441 2.04747 409.236 2.99686 410.285 5.33408C430.357 50.03 470.256 140.27 475.995 191.925C481.453 241.042 528.39 257.875 511.258 300.078C510.942 300.854 510.389 301.535 509.693 302.002C430.898 354.872 311.267 387.254 159.486 439.386" stroke="black" stroke-width="4.38386" stroke-linecap="round"/>
<path d="M86.7305 308.707L139.096 399.999" stroke="black" stroke-width="4.38386" stroke-linecap="round"/>
<path d="M411.119 350.874C407.257 337.899 393.507 310.094 385.168 290.167C380.038 277.908 448.524 265.099 470.928 251.985C473.886 250.253 478.712 251.099 480.112 254.228C487.986 271.834 500.11 298.443 503.337 303.606" stroke="black" stroke-width="4.38386" stroke-linecap="round"/>
<path d="M434.289 253.559L390.265 269.778" stroke="black" stroke-width="4.38386" stroke-linecap="round"/>
<path d="M384.703 258.193L437.532 237.34" stroke="black" stroke-width="4.38386" stroke-linecap="round"/>
<path d="M451.897 231.78L461.166 227.609" stroke="black" stroke-width="4.38386" stroke-linecap="round"/>
<path d="M377.752 245.682L459.776 213.707" stroke="black" stroke-width="4.38386" stroke-linecap="round"/>
<path d="M372.191 233.633L455.605 202.121" stroke="black" stroke-width="4.38386" stroke-linecap="round"/>
<path d="M367.094 222.509L450.971 190.07" stroke="black" stroke-width="4.38386" stroke-linecap="round"/>
<path d="M258.193 259.58L345.778 229.922" stroke="black" stroke-width="4.38386" stroke-linecap="round"/>
<path d="M266.534 272.095L349.948 243.363" stroke="black" stroke-width="4.38386" stroke-linecap="round"/>
<path d="M270.241 286.923L354.118 255.875" stroke="black" stroke-width="4.38386" stroke-linecap="round"/>
<path d="M271.631 301.751L358.752 269.312" stroke="black" stroke-width="4.38386" stroke-linecap="round"/>
<path d="M276.729 317.047L325.851 294.34" stroke="black" stroke-width="4.38386" stroke-linecap="round"/>
<path d="M288.313 323.532L357.825 299.898" stroke="black" stroke-width="4.38386" stroke-linecap="round"/>
<path d="M287.851 338.361L363.386 311.02" stroke="black" stroke-width="4.38386" stroke-linecap="round"/>
<path d="M293.875 350.412L373.582 320.754" stroke="black" stroke-width="4.38386" stroke-linecap="round"/>
<path d="M299.437 362.923L378.216 335.582" stroke="black" stroke-width="4.38386" stroke-linecap="round"/>
<path d="M300.826 375.899L358.752 355.973" stroke="black" stroke-width="4.38386" stroke-linecap="round"/>
<path d="M150.682 364.313L255.412 327.703" stroke="black" stroke-width="4.38386" stroke-linecap="round"/>
<path d="M159.95 386.093L264.217 348.094" stroke="black" stroke-width="4.38386" stroke-linecap="round"/>
<path d="M199.803 387.484L263.753 363.387" stroke="black" stroke-width="4.38386" stroke-linecap="round"/>
<path d="M206.29 402.779L270.241 375.438" stroke="black" stroke-width="4.38386" stroke-linecap="round"/>
<path d="M171.349 417.017L163.949 403.105C162.779 400.905 163.676 398.172 165.923 397.094L181.251 389.736C183.342 388.733 185.853 389.532 186.98 391.56L194.371 404.863C195.57 407.021 194.751 409.743 192.561 410.882L177.242 418.848C175.108 419.957 172.479 419.14 171.349 417.017Z" stroke="black" stroke-width="4.38386" stroke-linecap="round"/>
<path d="M244.29 240.582C275.802 228.379 342.996 202.953 359.679 198.875" stroke="black" stroke-width="4.38386" stroke-linecap="round"/>
<path d="M240.12 227.607C290.168 199.802 436.791 164.49 441.24 154.852" stroke="black" stroke-width="4.38386" stroke-linecap="round"/>
<path d="M233.632 216.02C287.851 188.216 432.064 149.011 436.142 140.484" stroke="black" stroke-width="4.38386" stroke-linecap="round"/>
<path d="M89.9746 237.339C146.047 211.851 403.24 130.291 430.117 109.438" stroke="black" stroke-width="4.38386" stroke-linecap="round"/>
<path d="M89.5107 224.826C190.071 183.582 397.308 113.793 425.483 97.8516" stroke="black" stroke-width="4.38386" stroke-linecap="round"/>
<path d="M140.023 345.777C140.371 335.355 117.414 292.649 103.72 268.759C102.361 266.388 103.442 263.362 105.981 262.351C137.01 249.985 185.48 222.047 208.608 222.047C217.002 222.047 239.719 276.808 250.653 304.4C251.511 306.566 250.513 308.998 248.391 309.958C209.835 327.392 139.664 356.537 140.023 345.777Z" fill="black"/>
<path d="M241.049 132.902L237.784 123.988M262.829 121.78L242.961 108.988M237.784 123.988L230.796 104.905C230.218 103.326 231.978 101.918 233.392 102.828L242.961 108.988M237.784 123.988L242.961 108.988" stroke="black" stroke-width="4.38386" stroke-linecap="round"/>
<path d="M359 83.5L351.285 73.4874M372 70.5L356.461 58.4874M351.285 73.4874L356.461 58.4874M351.285 73.4874L341 59M356.461 58.4874L348 52" stroke="black" stroke-width="4.38386" stroke-linecap="round"/>
<path d="M138.073 133L121.444 141.101C120.627 141.499 120.25 142.456 120.575 143.305L130.022 167.948C130.372 168.862 131.402 169.312 132.31 168.949L149.195 162.195" stroke="black" stroke-width="4.38386" stroke-linecap="round"/>
<path d="M126.024 157.1L142.244 150.148" stroke="black" stroke-width="4.38386" stroke-linecap="round"/>
<path d="M213.073 109L196.444 117.101C195.627 117.499 195.25 118.456 195.575 119.305L205.022 143.948C205.372 144.862 206.402 145.312 207.31 144.949L224.195 138.195" stroke="black" stroke-width="4.38386" stroke-linecap="round"/>
<path d="M201.024 133.1L217.244 126.148" stroke="black" stroke-width="4.38386" stroke-linecap="round"/>
<path d="M176.473 123.696C172.762 119.062 163.498 119.989 162.107 129.721C160.254 142.696 182.958 132.964 186.205 142.696C191.338 158.082 165.506 155.98 163.498 151.964" stroke="black" stroke-width="4.38386" stroke-linecap="round"/>
<path d="M332.386 87.4063C332.532 93.3835 308.95 105.861 305.948 83.9287C304.591 74.0164 317.821 73.2702 322.409 67.7555" stroke="black" stroke-width="4.38386" stroke-linecap="round"/>
<path d="M90.8291 186.204L76.564 160.795C76.2217 160.185 76.2671 159.422 76.7358 158.903C83.9227 150.945 96.7542 155.855 89.612 167.318C88.9415 168.394 89.4293 169.88 90.6566 170.198L113.073 176.009" stroke="black" stroke-width="4.38386" stroke-linecap="round"/>
<path d="M277.829 115.204L263.564 89.7947C263.222 89.1849 263.267 88.4219 263.736 87.9029C270.923 79.945 283.754 84.8554 276.612 96.3175C275.941 97.3936 276.429 98.8795 277.657 99.1977L300.073 105.009" stroke="black" stroke-width="4.38386" stroke-linecap="round"/>
</svg>
