<svg width="287" height="452" viewBox="0 0 287 452" fill="none" xmlns="http://www.w3.org/2000/svg">
<mask id="mask0_945_22663" style="mask-type:luminance" maskUnits="userSpaceOnUse" x="-162" y="3" width="398" height="398">
<path d="M37 400.5C146.629 400.5 235.5 311.629 235.5 202C235.5 92.3715 146.629 3.5 37 3.5C-72.6285 3.5 -161.5 92.3715 -161.5 202C-161.5 311.629 -72.6285 400.5 37 400.5Z" fill="white"/>
</mask>
<g mask="url(#mask0_945_22663)">
<path d="M10.3998 20.7004C-8.30021 9.20039 -31.8002 6.10039 -52.9002 12.1004C-72.2002 17.5004 -88.9002 30.9004 -98.9002 48.2004C-101.4 52.6004 -103.6 57.2004 -105.2 62.0004C-106.8 66.8004 -108.8 72.4004 -107.6 77.5004C-106.5 82.4004 -102.4 85.4004 -98.2002 87.6004C-92.8002 90.4004 -87.1002 92.8004 -81.4002 95.0004C-62.4002 102.6 -37.2002 107 -20.7002 91.4004C-14.2002 85.2004 -10.8002 76.3004 -11.6002 67.3004C-12.5002 57.9004 -18.4002 50.2004 -27.3002 46.9004C-37.0002 43.3004 -48.3002 44.4004 -58.2002 46.5004C-68.0002 48.6004 -77.4002 52.5004 -86.0002 57.7004C-104 68.7004 -118 86.0004 -123.6 106.4C-129.3 126.8 -126 149.4 -111.5 165.3C-104.9 172.5 -96.6002 178 -87.2002 180.7C-77.4002 183.6 -66.9002 182.9 -57.3002 179.6C-47.5002 176.2 -38.6002 170.1 -30.9002 163.2C-22.9002 156 -14.7002 147.4 -10.2002 137.5C-8.0002 132.6 -6.9002 127.2 -8.1002 121.8C-8.3002 120.8 -9.1002 120.1 -10.1002 119.9C-30.6002 114.3 -52.5002 121.1 -69.0002 133.8C-86.4002 147.2 -97.7002 166.9 -106.2 186.8C-110.7 197.2 -115.3 208 -116.5 219.3C-117.6 230.2 -114.6 240.6 -106.6 248.3C-91.1002 263.3 -65.4002 264.8 -47.6002 253.2C-39.3002 247.8 -32.9002 239.7 -29.3002 230.5C-27.5002 225.9 -26.3002 221 -26.2002 216C-26.1002 210.6 -28.5002 206.5 -33.3002 204C-38.2002 201.4 -44.0002 200.1 -49.3002 198.8C-55.1002 197.4 -61.0002 196.5 -67.0002 196C-78.8002 195.1 -90.7002 196.3 -102 200C-120.3 206 -136.5 219.6 -144.1 237.4C-152.5 257.2 -148.1 280 -136.6 297.5C-124.9 315.4 -105.9 327.4 -86.0002 334.4C-80.7002 336.3 -75.1002 338.1 -69.4002 338.2C-63.8002 338.4 -58.6002 336.6 -54.3002 333.1C-50.1002 329.7 -46.5002 325.4 -43.0002 321.3C-39.4002 317 -36.1002 312.5 -33.8002 307.4C-29.7002 298.6 -29.5002 288.4 -35.8002 280.5C-41.1002 273.8 -49.6002 270.3 -57.8002 268.7C-67.5002 266.8 -77.9002 267 -87.6002 268.8C-97.8002 270.7 -107.4 275 -114.6 282.6C-126.7 295.4 -130.6 315 -126.7 332C-122.3 351.2 -108.4 366.9 -92.2002 377.4C-57.7002 399.7 -12.7002 402.6 25.5998 389.3C44.7998 382.6 63.7998 371.6 77.2998 356.3C84.4998 348.2 89.5998 338.2 89.6998 327.2C89.7998 317.7 85.4998 308.6 77.6998 303C63.2998 292.8 42.9998 294.9 28.3998 303.6C12.7998 312.9 1.8998 329.6 -1.2002 347.4C-8.6002 389.2 29.2998 422.5 67.0998 430.4C78.3998 432.8 90.1998 433 101.3 430C112 427.1 121.5 421.2 130.1 414.3C138.8 407.3 146.8 399.4 154.5 391.4C162 383.6 169.2 375.4 175.7 366.7C188.3 349.8 198.4 330.5 202.1 309.6C203.8 299.8 205.4 287.7 198.5 279.4C192.6 272.3 182.9 270.1 174.1 269.3C165.3 268.5 156.2 268.7 147.5 270.3C139.3 271.8 130.9 274.8 124.8 280.7C118.5 286.9 115.5 295.7 117.2 304.4C118.9 313.6 124.7 321.8 132.1 327.4C140.8 334 151.7 336.8 162.4 337.9C168.1 338.5 173.9 338.6 179.7 338.5C185 338.5 190.7 338.9 195.9 337.2C201.1 335.6 204 331.5 206.1 326.7C208.5 321.3 210.3 315.6 211.9 309.8C215 298.2 216.7 286.3 216.8 274.3C217.1 253.3 213.3 229.4 194.8 216.6C186.2 210.7 176.1 207.6 166 205.7C160.7 204.7 155.4 204 150 203.4C144.1 202.8 138 202.7 132.3 204.3C123.5 206.7 115 214.5 116.3 224.4C117.5 233.2 125.7 238.9 133.4 242C143.9 246.3 156 247.7 167.3 248.1C172.6 248.3 178.2 248.3 183 245.6C187.6 243 190.1 238.4 192.2 233.7C196.9 223 198.7 211.4 199.5 199.8C200.3 188.6 200.7 177.3 200.5 166.1C200.2 155.8 199.1 145.4 195.6 135.7C192.2 126.2 186.2 117.9 178.1 111.8C170 105.7 160.4 101.9 150.7 99.2004C145.8 97.8004 140.7 96.7004 135.7 95.8004C130.2 94.8004 124.4 93.8004 119.1 96.1004C111.1 99.6004 107.9 108.8 107.5 116.9C107.1 126.4 110.6 136.1 115.5 144C126.8 162.5 146.3 173.6 166.9 178.8C178.2 181.6 189.9 182.9 201.5 183.5C212.3 184 223.7 183.9 232.9 177.5C247.7 167.2 250.4 146.4 250.3 129.8C250.2 109.9 247.2 87.8004 232 73.4004C217.4 59.6004 195.9 57.0004 176.6 56.5004C168.1 56.3004 154.3 54.1004 152.3 65.4004C150.8 74.1004 153.6 83.6004 159 90.6004C164.6 97.9004 173.5 102.1 182.7 100.7C192.4 99.2004 201 92.8004 206.3 84.7004C211.4 77.0004 214 67.7004 213.8 58.5004C213.6 48.6004 210 39.0004 204.5 30.8004C192.1 12.1004 170.9 2.10039 149.5 -2.19961C138.5 -4.39961 126.5 -6.09961 115.4 -4.09961C104.6 -2.09961 95.8998 4.20039 89.5998 13.0004C83.0998 22.0004 78.9998 32.7004 77.7998 43.7004C76.5998 53.7004 77.1998 64.4004 82.1998 73.4004C86.2998 80.9004 93.3998 87.9004 102.5 87.6004C111.1 87.3004 116.9 80.9004 119.3 73.1004C121.8 64.8004 121.4 55.9004 120.6 47.4004C119.7 38.5004 118.2 29.5004 114.6 21.2004C111.2 13.4004 105.8 6.60039 98.0998 2.80039C87.6998 -2.29961 75.7998 -0.59961 64.8998 2.20039C52.8998 5.30039 40.9998 9.10039 29.3998 13.4004C19.0998 17.2004 8.8998 21.2004 -0.800201 26.4004C-17.4002 35.3004 -33.7002 48.8004 -36.2002 68.7004C-38.8002 89.4004 -26.7002 109.2 -10.3002 120.9C-1.4002 127.3 8.69981 131.8 19.0998 135.1C29.4998 138.4 40.5998 141.2 51.4998 141.5C61.4998 141.8 72.0998 139.6 79.4998 132.5C85.6998 126.6 89.3998 118.3 90.2998 109.8C91.1998 100.7 88.9998 91.9004 83.7998 84.4004C78.2998 76.4004 69.9998 70.6004 60.9998 67.2004C40.8998 59.8004 18.7998 65.9004 2.1998 78.5004C-15.6002 92.0004 -27.2002 112.3 -35.7002 132.6C-44.0002 152.6 -48.3002 176.5 -36.2002 196C-24.5002 214.9 -1.90019 218.2 18.5998 218.4C27.9998 218.5 37.9998 218.8 46.8998 215.4C55.3998 212.1 61.3998 204.7 61.0998 195.4C60.7998 186.1 55.1998 177.2 48.0998 171.5C40.6998 165.5 31.5998 162 22.1998 160.9C2.9998 158.5 -16.5002 166 -29.0002 180.8C-41.7002 195.9 -46.8002 216.9 -43.7002 236.3C-40.6002 256.4 -29.3002 274.4 -14.4002 287.9C-10.6002 291.3 -6.6002 294.5 -2.3002 297.3C2.1998 300.3 7.09981 303 12.5998 303.8C18.4998 304.7 24.2998 302.9 29.7998 301C35.1998 299.2 40.6998 297.3 46.0998 295.3C66.7998 287.6 86.5998 277.2 100.5 259.6C113.1 243.7 120.3 223.6 120.8 203.3C121 193.5 120.5 181.4 113.6 173.7C106.7 165.9 94.9998 163.7 85.0998 164.6C64.3998 166.4 45.6998 181.9 37.6998 200.6C33.4998 210.3 32.5998 221.1 35.8998 231.2C39.2998 241.7 46.2998 251.3 53.8998 259.2C61.2998 266.9 70.0998 273.2 80.3998 276.2C89.7998 279 99.9998 279.1 109.6 277C129.8 272.7 146.3 259.4 156.5 241.6C167.1 223.2 171.3 201.2 170 180C168.7 158.2 160.7 136.6 144.7 121.3C130.5 107.7 110.1 99.5004 90.2998 103.1C72.0998 106.4 55.0998 119.2 49.6998 137.3C44.7998 153.8 51.5998 173 65.2998 183.4C72.6998 189 82.0998 191.9 91.3998 190.7C100.9 189.4 108.4 183.3 112.5 174.8C120.5 158.1 117 135.5 102.7 123.4C100.7 121.7 96.9998 123.8 99.4998 125.9C113.1 137.4 115.6 160.6 106.6 175.6C101.5 184.1 92.6998 188.3 82.7998 187C74.8998 186 67.8998 181.6 62.8998 175.5C52.2998 162.9 49.9998 144.6 58.2998 130.2C66.7998 115.3 84.0998 105.9 101.2 106.1C119.8 106.4 137 116.8 148.2 131.3C160.8 147.5 165.7 168.5 165.3 188.7C165 208.1 160 227.9 149.2 244.2C138.8 259.9 122.9 271.2 104.1 274.1C95.2998 275.4 86.0998 274.8 77.6998 271.5C68.3998 267.9 60.6998 261.2 54.2998 253.6C47.7998 245.9 41.5998 236.9 39.4998 226.9C37.4998 217.2 39.5998 207.1 44.1998 198.4C52.9998 181.9 70.9998 168 90.3998 168.4C95.0998 168.5 99.8998 169.4 104.2 171.6C108.9 174 112 178 113.6 182.9C116.6 191.7 116.4 202.2 115.3 211.3C113.1 229.8 105.2 247.5 92.8998 261.4C79.1998 276.9 60.2998 285.9 41.1998 292.8C36.2998 294.6 31.2998 296.3 26.2998 298C20.9998 299.8 15.5998 301.3 10.0998 299.7C5.39981 298.3 1.0998 295.3 -2.8002 292.4C-6.6002 289.7 -10.1002 286.6 -13.5002 283.4C-26.8002 270.5 -36.6002 253.5 -39.0002 234.9C-41.3002 217.1 -36.6002 198.3 -25.3002 184.2C-14.1002 170.3 3.69979 163 21.3998 164.8C29.8998 165.7 38.2998 168.8 44.8998 174.2C51.3998 179.5 56.5998 187.9 56.2998 196.6C55.5998 216.9 27.8998 215.3 13.8998 214.8C4.4998 214.5 -5.2002 213.6 -14.0002 210C-22.8002 206.3 -29.7002 199.8 -33.8002 191.1C-43.0002 171.8 -37.5002 149.9 -29.4002 131.2C-21.3002 112.6 -10.4002 94.1004 6.09981 81.6004C21.2998 70.1004 41.7998 63.8004 60.1998 71.0004C76.2998 77.3004 87.9998 92.7004 85.4998 110.4C84.3998 118.1 80.8998 125.7 74.7998 130.8C67.2998 137.2 57.1998 138.4 47.6998 137.6C37.6998 136.7 27.5998 134.1 18.0998 130.9C8.59981 127.7 -0.600204 123.3 -8.6002 117.3C-23.4002 106 -34.3002 87.2004 -30.9002 68.1004C-27.8002 50.2004 -12.8002 37.9004 2.3998 29.8004C11.0998 25.1004 20.2998 21.5004 29.5998 18.0004C40.4998 13.9004 51.4998 10.3004 62.7998 7.20039C72.7998 4.40039 84.2998 1.40039 94.3998 5.40039C101.7 8.30039 106.8 14.6004 110 21.6004C113.4 29.1004 114.9 37.4004 115.8 45.5004C116.6 53.3004 117.2 61.3004 115.5 69.1004C114 75.9004 110.1 83.4004 102.3 83.9004C94.1998 84.5004 88.2998 76.0004 85.4998 69.5004C81.6998 60.6004 81.8998 50.1004 83.5998 40.7004C85.4998 30.7004 89.5998 21.1004 95.9998 13.1004C102.6 4.90039 111.3 0.10039 121.8 -0.79961C132.2 -1.69961 143.2 0.100389 153.4 2.50039C172.7 7.00039 191.4 16.9004 202 34.4004C211.3 49.7004 212.1 69.4004 201.2 84.2004C195.8 91.5004 186.9 97.8004 177.4 97.3004C169.3 96.8004 163.1 90.4004 159.9 83.4004C158.2 79.7004 157.3 75.6004 157.1 71.5004C157 67.0004 157.6 61.7004 162.9 60.7004C167.2 59.9004 171.9 60.4004 176.3 60.5004C180.9 60.6004 185.5 60.8004 190 61.3004C207.9 63.0004 226.3 68.8004 236.1 85.0004C241 93.1004 243.4 102.5 244.6 111.8C245.7 120.7 246.1 129.9 245.4 138.8C244.2 154.6 238.8 173.3 221.9 178.6C216.8 180.2 211.3 180.4 205.9 180.2C200.6 180.1 195.2 179.7 190 179.2C179.4 178.1 168.8 176.2 158.7 172.7C140.9 166.5 124.6 154.3 116.8 136.8C113.4 129.1 111.4 120.1 113.5 111.7C114.4 108 116.1 104.3 119 101.8C122.9 98.4004 127.9 98.5004 132.8 99.3004C150.6 102.3 170.7 107.3 182.8 121.8C195.3 136.7 196.2 157.6 195.9 176.2C195.7 186.7 195.5 197.2 194.2 207.6C192.9 217.7 190.7 228.8 185.2 237.6C182.3 242.2 178.2 244.2 172.9 244.6C167.3 245 161.4 244.4 155.8 243.7C146.6 242.6 136.5 240.9 128.8 235.4C125.8 233.2 123 230.3 122 226.6C120.8 222.4 122.1 218.2 124.7 214.9C131.5 206.2 143.4 206.8 153.2 207.9C171.5 210.1 192.2 214.1 202.9 230.7C208.2 238.9 210.5 248.8 211.6 258.4C212.8 269.3 212.5 280.3 211.1 291.1C209.6 302 206.8 312.8 202.8 323.1C201 327.7 198.8 332.5 193.6 334.1C188.8 335.5 183.3 335 178.3 335C159.2 335 136.9 332.8 126.3 314.5C122.1 307.2 120.6 298.3 124.3 290.5C127.6 283.6 133.9 279.2 140.9 276.7C148.4 273.9 156.6 273.1 164.5 273C172.5 272.9 181.3 273.2 188.7 276.7C192.6 278.6 195.7 281.5 197.4 285.5C199.4 290.3 199.3 295.7 198.8 300.8C197.9 310.4 195.6 319.8 192.1 328.8C185.1 347.3 173.5 363.8 160.6 378.6C154.1 386.1 147.1 393.2 139.9 400.1C132.5 407.1 124.9 414 116.2 419.3C107.2 424.8 97.1998 428.3 86.5998 428.7C75.8998 429.2 65.0998 427 55.1998 423.2C38.0998 416.7 22.1998 405.5 12.2998 389.9C2.9998 375.2 0.799802 357.5 5.9998 340.9C10.8998 325.2 22.1998 311.1 37.2998 304.2C50.5998 298.1 69.9998 298 79.8998 310.3C85.9998 318 86.3998 328.6 83.3998 337.7C80.1998 347.4 73.0998 355.4 65.4998 362C51.1998 374.3 34.1998 383.2 16.0998 388.4C-19.3002 398.6 -60.5002 394.6 -91.2002 373.3C-105.7 363.2 -118.2 348.5 -121.7 330.8C-124.7 315.1 -121.2 297.4 -110.1 285.5C-103.6 278.5 -94.7002 274.6 -85.5002 272.9C-76.6002 271.3 -67.2002 270.9 -58.3002 272.6C-51.0002 274.1 -43.3002 277.1 -38.8002 283.3C-33.1002 291.3 -35.2002 301.4 -39.8002 309.3C-42.4002 313.8 -45.6002 317.8 -49.0002 321.7C-52.3002 325.4 -55.7002 329.5 -59.9002 332.2C-64.7002 335.3 -70.2002 335.1 -75.6002 333.8C-80.5002 332.7 -85.2002 331 -89.9002 329.1C-107.8 321.8 -124.5 309.8 -134.2 292.7C-143.8 275.8 -146.6 254.7 -137.9 236.8C-130 220.6 -114.8 208.6 -97.7002 203.3C-87.1002 200 -75.7002 199.2 -64.7002 200.2C-59.2002 200.7 -53.7002 201.7 -48.4002 203C-45.9002 203.6 -43.4002 204.4 -40.9002 205.2C-38.6002 205.9 -36.2002 206.7 -34.2002 208C-29.8002 211 -30.7002 217 -31.6002 221.5C-32.5002 226 -34.0002 230.3 -36.2002 234.3C-40.6002 242.3 -47.3002 249.1 -55.5002 253C-72.7002 261.3 -97.7002 257.6 -107.9 240C-113.3 230.7 -112.1 219.6 -109.3 209.7C-106.5 199.8 -102.3 190 -97.9002 180.7C-89.7002 163.4 -78.8002 146.5 -63.0002 135.2C-48.1002 124.5 -29.0002 118.7 -11.0002 123.7C-11.7002 123.1 -12.3002 122.4 -13.0002 121.8C-10.6002 132.5 -17.7002 142.3 -24.3002 150C-30.7002 157.4 -37.8002 164.1 -46.0002 169.5C-54.1002 174.8 -63.4002 178.6 -73.1002 179C-81.9002 179.4 -90.5002 176.8 -97.9002 172C-114.1 161.4 -122.2 142.8 -121.4 123.7C-120.6 103.8 -110.8 84.8004 -96.3002 71.4004C-82.7002 58.8004 -65.1002 50.6004 -46.7002 48.9004C-37.8002 48.1004 -26.9002 48.5004 -20.9002 56.1004C-15.9002 62.4004 -15.6002 71.5004 -18.2002 78.9004C-21.2002 87.2004 -28.4002 92.9004 -36.5002 95.8004C-45.8002 99.1004 -55.8002 98.8004 -65.3002 96.6004C-75.9002 94.1004 -86.5002 89.6004 -96.1002 84.6004C-100.8 82.2004 -103.7 78.8004 -103 73.2004C-102.4 68.6004 -100.8 64.0004 -99.1002 59.8004C-92.3002 42.9004 -79.1002 28.5004 -62.8002 20.5004C-45.0002 11.7004 -23.7002 10.8004 -5.1002 17.6004C-0.500205 19.3004 3.9998 21.5004 8.1998 24.1004C10.6998 25.3004 13.1998 22.4004 10.3998 20.7004Z" fill="#A7D527"/>
</g>
<mask id="mask1_945_22663" style="mask-type:luminance" maskUnits="userSpaceOnUse" x="-162" y="3" width="398" height="398">
<path d="M37 400.5C146.629 400.5 235.5 311.629 235.5 202C235.5 92.3715 146.629 3.5 37 3.5C-72.6285 3.5 -161.5 92.3715 -161.5 202C-161.5 311.629 -72.6285 400.5 37 400.5Z" fill="white"/>
</mask>
<g mask="url(#mask1_945_22663)">
<path d="M13.9003 326.1C3.00028 324.3 -10.8997 325.9 -17.6997 335.8C-19.3997 338.2 -20.1997 341.2 -19.4997 344.1C-18.7997 347 -17.0997 349.5 -14.8997 351.5C-9.79971 356.1 -2.49971 357.2 4.10029 357.5C6.90029 357.6 10.2003 357.5 12.2003 355.2C14.1003 353 14.3003 349.7 14.2003 346.9C14.0003 343.7 12.6003 340.9 9.90028 339.1C7.20028 337.3 3.80028 336.7 0.700279 337C-4.49972 337.4 -11.6997 340.7 -11.8997 346.8C-11.9997 350.1 -9.09972 352.4 -6.29972 353.5C-3.19972 354.7 0.500285 354.8 3.80029 354.4C6.50029 354.1 11.1003 352.7 10.8003 349.3C10.6003 346 6.90029 343.8 4.10029 343C1.30029 342.2 -2.29971 342.6 -3.89971 345.3C-6.09971 348.8 -0.999712 352 2.10029 351.3C3.20029 351 2.40028 349.9 1.90028 349.5C1.00028 348.8 -0.299712 348.3 -1.39971 348.5C-0.799712 348.8 -0.199718 349 0.500282 349.3C0.500282 349.2 0.400276 349.1 0.400276 349.1C0.400276 348.8 0.300276 348.6 0.400276 348.3C0.500276 347.8 0.800288 347.3 1.10029 346.9C1.70029 346.2 2.60028 345.7 3.50028 345.6C4.70028 345.4 5.40028 345.7 5.90028 346.8C7.10028 349.2 4.40028 350.8 2.40028 351.3C0.300276 351.9 -2.29972 351.9 -4.49972 351.6C-6.49972 351.3 -7.39972 349.7 -7.09972 347.7C-6.69972 345.5 -5.09971 343.7 -3.39971 342.4C-1.69971 341.1 0.300276 340.4 2.40028 340C4.00028 339.7 6.30028 339.5 7.70028 340.5C9.40028 341.6 9.70029 344.2 9.80029 346C9.90029 348.1 9.70028 350.5 8.50028 352.4C7.30028 354.3 5.00028 354.7 2.90028 354.7C0.600276 354.7 -1.79972 354.4 -4.09972 354C-8.19972 353.2 -11.9997 351.3 -13.8997 347.4C-15.9997 343.1 -13.9997 338.6 -10.7997 335.5C-3.89972 328.7 6.60029 327.5 15.8003 329C16.6003 329.1 17.7003 328.9 17.2003 327.9C16.4003 326.8 14.9003 326.2 13.9003 326.1Z" fill="#A7D527"/>
</g>
<mask id="mask2_945_22663" style="mask-type:luminance" maskUnits="userSpaceOnUse" x="-162" y="3" width="398" height="398">
<path d="M37 400.5C146.629 400.5 235.5 311.629 235.5 202C235.5 92.3715 146.629 3.5 37 3.5C-72.6285 3.5 -161.5 92.3715 -161.5 202C-161.5 311.629 -72.6285 400.5 37 400.5Z" fill="white"/>
</mask>
<g mask="url(#mask2_945_22663)">
<path d="M-16.1002 264.201C-18.3002 265.101 -20.5002 266.201 -22.5002 267.401C-24.3002 268.401 -26.2002 269.501 -27.6002 271.001C-30.7002 274.201 -29.9002 278.401 -28.1002 282.101C-26.1002 286.201 -23.0002 290.001 -19.7002 293.101C-16.8002 295.801 -13.2002 298.501 -9.00023 298.901C-5.30023 299.201 -1.50024 297.601 -0.100241 294.001C1.49976 290.101 0.699759 285.701 -1.60024 282.301C-2.80024 280.601 -4.20024 279.101 -6.30024 278.401C-8.50024 277.701 -10.9002 277.401 -13.1002 277.201C-15.0002 277.101 -17.3002 276.901 -19.0002 277.801C-20.6002 278.701 -21.2002 280.501 -20.6002 282.101C-19.7002 284.501 -17.8002 286.401 -15.7002 287.801C-14.0002 288.901 -11.9002 290.101 -9.80024 290.101C-8.00024 290.101 -7.00023 289.001 -7.70023 287.201C-8.60023 285.001 -10.3002 283.001 -12.6002 282.201C-13.2002 282.001 -12.2002 283.901 -12.1002 284.001C-11.7002 284.701 -10.9002 286.001 -10.1002 286.301C-9.80024 286.401 -9.50023 286.601 -9.20023 286.701C-9.10023 286.801 -9.00023 286.801 -8.90023 286.901C-9.70023 284.501 -10.2002 283.901 -10.5002 285.101C-10.8002 285.401 -11.0002 285.701 -11.4002 285.801C-12.6002 286.201 -13.9002 285.701 -15.1002 285.301C-16.6002 284.701 -17.8002 283.801 -19.1002 283.001C-19.2002 282.901 -19.3002 282.901 -19.3002 282.801C-18.4002 284.801 -17.9002 285.301 -18.0002 284.301C-17.9002 284.001 -17.9002 283.801 -17.8002 283.501C-17.5002 282.801 -16.9002 282.301 -16.3002 281.901C-15.0002 281.201 -13.4002 281.201 -11.9002 281.201C-10.0002 281.301 -8.10023 281.501 -6.20023 281.801C-4.80023 282.101 -3.70023 282.501 -2.40023 283.001C-2.30023 283.101 -2.20024 283.101 -2.10024 283.201C-2.80024 281.901 -3.00023 281.601 -2.70023 282.401C-2.60023 282.701 -2.50023 283.001 -2.50023 283.301C-2.30023 284.101 -2.30024 285.001 -2.30024 285.901C-2.40024 288.801 -3.40023 291.701 -6.00023 293.301C-8.40023 294.801 -11.4002 294.901 -14.1002 294.001C-17.0002 293.101 -19.6002 291.101 -21.8002 289.001C-23.7002 287.101 -25.8002 284.901 -26.6002 282.201C-27.7002 278.601 -26.1002 275.601 -23.2002 273.501C-20.2002 271.301 -16.8002 269.601 -13.4002 268.201C-12.9002 268.201 -15.2002 263.801 -16.1002 264.201Z" fill="#A7D527"/>
</g>
<mask id="mask3_945_22663" style="mask-type:luminance" maskUnits="userSpaceOnUse" x="-162" y="3" width="398" height="398">
<path d="M37 400.5C146.629 400.5 235.5 311.629 235.5 202C235.5 92.3715 146.629 3.5 37 3.5C-72.6285 3.5 -161.5 92.3715 -161.5 202C-161.5 311.629 -72.6285 400.5 37 400.5Z" fill="white"/>
</mask>
<g mask="url(#mask3_945_22663)">
<path d="M17.0997 155.901C11.7997 155.601 5.69967 156.401 1.79967 160.401C0.0996721 162.101 -1.10033 164.501 -1.20033 166.901C-1.30033 169.901 0.599669 172.001 2.99967 173.401C5.69967 174.901 8.69967 175.801 11.6997 176.401C14.9997 177.101 18.3997 177.401 21.7997 177.001C24.6997 176.601 27.1997 175.501 28.0997 172.501C28.7997 170.101 28.1997 167.501 26.7997 165.401C23.3997 160.101 16.7997 159.101 10.9997 159.401C9.39967 159.501 7.79967 159.601 6.19967 159.901C4.69967 160.101 2.99968 160.301 1.59968 161.101C-0.900325 162.501 -0.600334 165.501 0.699666 167.601C3.89967 172.801 10.8997 175.001 16.5997 174.201C19.4997 173.801 21.3997 172.301 22.9997 169.901C24.0997 168.101 26.4997 164.701 23.7997 163.301C22.3997 162.601 20.6997 162.501 19.1997 162.201C17.1997 161.801 15.0997 161.701 12.9997 162.001C10.3997 162.401 6.99968 164.401 9.09968 167.501C10.9997 170.201 15.7997 170.801 18.6997 170.201C19.9997 169.901 20.8997 169.201 20.1997 167.801C19.5997 166.501 17.8997 166.201 16.9997 165.301C16.3997 164.701 14.5997 165.001 13.8997 165.101C13.6997 165.101 11.7997 165.301 12.1997 165.801C12.9997 166.601 14.1997 166.901 14.8997 167.701C15.1997 168.001 15.8997 169.701 15.0997 169.801C16.0997 169.701 17.0997 169.701 18.0997 169.601C16.5997 169.501 14.1997 168.401 13.5997 166.701C13.2997 165.901 13.2997 165.001 13.6997 164.301C13.8997 163.901 14.1997 163.701 14.5997 163.401C14.6997 163.301 14.8997 163.201 14.9997 163.101C15.0997 163.001 15.2997 163.001 15.4997 162.901C15.8997 162.801 15.5997 162.801 14.8997 162.901C14.9997 163.101 17.4997 163.401 17.7997 163.401C18.6997 163.501 19.5997 163.701 19.9997 164.601C20.7997 166.201 18.9997 168.701 18.0997 170.001C17.5997 170.701 17.0997 171.401 16.4997 172.001C16.1997 172.301 15.7997 172.601 15.4997 172.901C15.3997 173.001 15.1997 173.101 15.0997 173.201C14.8997 173.301 14.7997 173.401 14.5997 173.401C14.2997 173.501 14.3997 173.501 14.7997 173.501C15.4997 173.701 14.6997 173.401 14.4997 173.401C14.2997 173.401 14.0997 173.301 13.8997 173.301C13.3997 173.201 12.8997 173.001 12.3997 172.801C11.3997 172.401 10.4997 171.901 9.59968 171.301C7.99968 170.301 6.49968 168.901 5.59968 167.301C4.79968 165.901 4.19967 163.901 5.19967 162.401C6.29967 160.801 8.89967 160.701 10.6997 160.501C12.4997 160.301 14.2997 160.601 16.0997 161.201C19.5997 162.401 22.5997 165.401 23.2997 169.101C23.5997 170.801 23.3997 172.701 22.5997 174.201C22.0997 175.101 21.2997 175.801 20.3997 176.101C20.0997 176.201 19.8997 176.301 19.5997 176.301C19.7997 176.301 20.1997 176.301 19.4997 176.301C19.2997 176.301 18.9997 176.301 18.7997 176.201C14.7997 175.801 10.0997 174.701 6.69967 172.301C2.89967 169.601 3.29967 164.701 5.99967 161.301C7.89967 159.001 11.4997 156.701 14.5997 156.901C15.4997 157.001 17.1997 157.201 17.9997 156.601C18.7997 156.001 17.5997 155.901 17.0997 155.901Z" fill="#A7D527"/>
</g>
<mask id="mask4_945_22663" style="mask-type:luminance" maskUnits="userSpaceOnUse" x="-162" y="3" width="398" height="398">
<path d="M37 400.5C146.629 400.5 235.5 311.629 235.5 202C235.5 92.3715 146.629 3.5 37 3.5C-72.6285 3.5 -161.5 92.3715 -161.5 202C-161.5 311.629 -72.6285 400.5 37 400.5Z" fill="white"/>
</mask>
<g mask="url(#mask4_945_22663)">
<path d="M114.9 260.899C108.9 260.399 101.7 262.599 99.4002 268.699C98.0002 272.499 98.5002 276.799 99.8002 280.599C101.1 284.299 103.4 287.999 107 289.799C110.1 291.299 113.5 291.099 116.3 289.099C119.3 286.899 120.9 283.599 121.6 279.999C123.1 273.199 123.2 262.999 114.8 261.099C107.8 259.499 100 262.699 98.1002 269.999C96.5002 276.399 101.6 285.799 109 284.999C116.4 284.199 118.8 274.699 115 269.199C112.8 266.099 108.9 265.699 106 268.099C104.7 269.199 103.4 270.599 102.8 272.199C102.1 273.999 102.5 275.999 103.4 277.799C105.1 281.299 108.8 283.099 112.6 282.799C114 282.699 115.4 282.299 116.3 281.299C117.6 279.899 117.4 277.899 116.9 276.199C115.8 272.799 112.4 269.199 108.4 269.899C106.8 270.199 105.5 271.399 104.9 272.899C104.3 274.799 105 276.899 106 278.499C106.9 279.899 108.3 281.299 110.1 281.199C111.7 281.099 109.9 276.499 108.5 276.599C108.5 276.599 106.8 276.399 107 276.299C107.1 276.499 107.1 276.699 107.2 276.799C107.4 277.399 107.4 277.499 107.4 277.099C107.5 276.899 107.6 276.499 107.7 276.299C108.3 275.299 109.3 274.599 110.4 274.499C111.7 274.299 113.1 274.799 114.1 275.599C114.2 275.699 114.4 275.999 114.5 275.999C114.2 275.799 114.6 275.599 114.4 275.799C114.4 275.799 114.2 276.499 114.1 276.599C114 276.899 113.8 277.099 113.5 277.299C111.9 278.699 109.2 278.399 107.3 277.899C106.7 277.699 106.1 277.499 105.6 277.199C105.5 277.199 105 276.699 105 276.699C105 276.699 105 276.599 104.9 276.599C105.1 277.299 105.2 277.399 105.2 277.099C105.4 276.999 105.6 275.899 105.7 275.599C106.1 274.899 106.6 274.299 107.1 273.699C108.6 271.999 111.3 270.299 113.6 271.599C113.8 271.699 113.9 271.799 114.1 271.899C113.8 271.599 113.9 271.499 113.9 271.699C114 272.099 114 272.599 114 272.999C113.9 274.199 113.6 275.299 113 276.299C110.8 280.299 105.6 282.099 102 278.899C98.6002 275.899 101.7 270.299 104.6 268.099C106.7 266.499 109.3 265.599 111.9 265.499C113.1 265.399 114.3 265.499 115.5 265.699C116.6 265.899 118.4 266.199 119.1 267.099C119.5 267.599 119.5 268.299 119.5 268.899C119.6 270.099 119.5 271.299 119.4 272.499C119.2 275.399 118.7 278.299 117.3 280.899C115 285.099 110.1 287.999 105.5 285.399C100.7 282.599 100.1 274.899 103.2 270.599C106.1 266.499 111.7 265.299 116.5 265.699C117.9 265.599 116.3 261.099 114.9 260.899Z" fill="#A7D527"/>
</g>
<mask id="mask5_945_22663" style="mask-type:luminance" maskUnits="userSpaceOnUse" x="-162" y="3" width="398" height="398">
<path d="M37 400.5C146.629 400.5 235.5 311.629 235.5 202C235.5 92.3715 146.629 3.5 37 3.5C-72.6285 3.5 -161.5 92.3715 -161.5 202C-161.5 311.629 -72.6285 400.5 37 400.5Z" fill="white"/>
</mask>
<g mask="url(#mask5_945_22663)">
<path d="M98.2002 327.1C93.9002 324 88.5002 322.3 83.1002 323C80.9002 323.3 78.7001 324.2 77.3001 325.9C76.0001 327.5 75.3002 329.7 75.6002 331.8C76.3002 336.7 81.2002 340.1 85.4002 342.1C87.7002 343.2 90.3002 344.4 92.9002 344.2C95.3002 344 97.0002 342.2 98.4002 340.4C99.8002 338.5 101.3 336.3 100.2 333.8C99.1002 331.5 97.2002 329.4 95.2002 327.9C91.7002 325 86.7002 323.1 82.6002 325.9C81.0002 326.9 79.9001 328.6 79.8001 330.5C79.6001 333.1 81.1002 335.6 82.6002 337.5C84.3002 339.6 86.8002 341.5 89.5002 342.1C91.5002 342.5 93.8002 342.1 95.1002 340.4C96.6002 338.4 96.2002 335.6 94.9002 333.5C93.3002 331 90.5002 329 87.7002 328.1C86.7002 327.7 85.3001 327.3 84.3001 327.8C83.2001 328.3 83.2002 329.6 83.4002 330.6C84.1002 333.6 86.1002 336 88.5002 337.9C88.9002 338.2 90.5002 339.4 91.0002 338.8C91.5002 338.2 89.9002 336.9 89.5002 336.6C88.5002 335.8 87.7002 334.3 87.4002 332.9C87.3002 332.2 87.3002 331.5 87.9002 331.1C88.5002 330.8 89.4002 331.1 90.0002 331.3C91.0002 331.7 91.5001 332.2 91.8001 333.4C92.2001 334.9 91.9001 336.5 90.8001 337.7C89.7001 338.8 88.0002 339.2 86.5002 338.8C85.6002 338.5 85.0002 337.5 84.6002 336.5C83.8002 334.9 83.5002 333.1 84.2002 331.5C84.8002 330.2 85.9002 329.2 87.2002 328.6C88.5002 328 89.9001 327.7 91.3001 328C92.6001 328.2 93.7002 328.8 94.4002 329.6C95.4002 330.6 96.7002 332.1 96.4002 333.6C96.1002 335.2 94.8001 336.9 93.8001 338.2C92.7001 339.5 91.4002 340.7 89.7002 341C87.9002 341.3 86.0002 340.4 84.4002 339.6C81.9002 338.4 79.9002 337.2 79.6002 334.2C78.9002 325.2 91.8002 324.8 97.1002 328.7C97.5002 329 99.1002 330.2 99.6002 329.6C100.1 328.7 98.5002 327.4 98.2002 327.1Z" fill="#A7D527"/>
</g>
<mask id="mask6_945_22663" style="mask-type:luminance" maskUnits="userSpaceOnUse" x="-162" y="3" width="398" height="398">
<path d="M37 400.5C146.629 400.5 235.5 311.629 235.5 202C235.5 92.3715 146.629 3.5 37 3.5C-72.6285 3.5 -161.5 92.3715 -161.5 202C-161.5 311.629 -72.6285 400.5 37 400.5Z" fill="white"/>
</mask>
<g mask="url(#mask6_945_22663)">
<path d="M39.7999 58.2994C36.0999 58.7994 32.5999 60.3994 29.2999 61.9994C27.9999 62.5994 26.6999 63.3994 26.2999 64.8994C25.7999 66.7994 26.8999 68.7993 27.9999 70.1993C30.1999 73.0993 33.3999 74.7993 36.8999 75.6993C38.6999 76.1993 40.5999 76.3994 42.4999 76.4994C44.2999 76.5994 46.3999 76.7994 48.1999 76.2994C51.1999 75.4994 51.6999 71.1994 50.9999 68.5994C50.3999 66.6994 48.9999 64.9994 47.2999 63.9994C45.6999 63.0994 43.7999 62.9994 41.8999 62.7994C39.8999 62.5994 37.8999 62.3994 35.8999 62.2994C34.0999 62.1994 32.0999 62.1994 30.3999 62.7994C28.9999 63.2994 27.2999 64.2994 27.4999 65.9994C27.6999 67.9994 29.7999 69.6994 31.3999 70.4994C33.1999 71.3994 35.2999 71.7994 37.2999 71.8994C39.0999 71.9994 41.3999 72.0993 42.7999 70.6993C44.3999 69.0993 43.2999 66.7994 41.8999 65.4994C40.0999 63.6994 37.9999 63.2994 35.5999 63.8994C34.0999 64.1994 37.0999 68.0993 38.5999 67.6993C39.1999 67.5993 39.7999 67.3994 40.4999 67.3994C40.5999 67.3994 40.6999 67.3994 40.8999 67.3994C41.5999 67.5994 41.1999 67.1994 39.7999 66.0994C39.6999 66.1994 39.6999 66.4993 39.5999 66.6993C38.9999 67.7993 37.5999 67.9994 36.4999 67.9994C35.2999 68.0994 33.9999 67.9993 32.7999 67.6993C32.1999 67.5993 31.5999 67.4994 31.0999 67.2994C30.8999 67.1994 30.5999 67.0994 30.3999 66.9994C30.2999 66.9994 30.2999 66.9994 30.1999 66.8994C30.7999 68.3994 31.1999 68.6994 31.2999 67.9994C31.9999 67.0994 32.6999 66.5994 33.8999 66.2994C35.1999 65.9994 36.5999 65.8994 37.8999 65.9994C40.5999 66.0994 43.3999 66.2993 46.0999 66.6993C46.5999 66.7993 47.0999 66.8994 47.4999 66.9994C48.3999 67.1994 46.5999 66.9994 46.9999 66.3994C47.0999 66.2994 47.1999 68.3994 47.0999 66.5994C47.0999 66.9994 47.2999 67.3994 47.2999 67.7994C47.2999 68.2994 47.1999 68.8994 47.0999 69.3994C46.8999 70.2994 46.5999 71.3994 45.7999 71.9994C44.7999 72.6994 43.0999 72.5994 41.8999 72.5994C39.3999 72.5994 36.6999 72.2993 34.2999 71.6993C33.3999 71.4993 32.4999 71.0993 31.6999 70.6993C30.8999 70.2993 30.4999 69.9994 30.0999 69.3994C28.7999 66.7994 32.2999 65.4994 33.9999 64.7994C36.7999 63.5994 39.5999 62.3994 42.5999 61.9994C43.5999 61.8994 42.5999 60.1994 42.2999 59.7994C41.8999 59.2994 40.7999 58.1994 39.7999 58.2994Z" fill="#A7D527"/>
</g>
<mask id="mask7_945_22663" style="mask-type:luminance" maskUnits="userSpaceOnUse" x="-162" y="3" width="398" height="398">
<path d="M37 400.5C146.629 400.5 235.5 311.629 235.5 202C235.5 92.3715 146.629 3.5 37 3.5C-72.6285 3.5 -161.5 92.3715 -161.5 202C-161.5 311.629 -72.6285 400.5 37 400.5Z" fill="white"/>
</mask>
<g mask="url(#mask7_945_22663)">
<path d="M-10.3001 53.1983C-14.8001 53.3983 -19.2 55.2983 -22.2 58.7983C-25.3 62.4983 -27.1001 67.9983 -23.3001 71.7983C-19.5001 75.4983 -13.5001 77.3983 -8.30005 76.9983C-3.70005 76.6983 1.29995 73.6983 1.69995 68.5983C1.89995 66.2983 1.09995 63.9983 -0.500051 62.3983C-2.50005 60.3983 -5.10005 59.7983 -7.90005 59.3983C-11.9 58.7983 -19.2001 57.7983 -21.1001 62.7983C-23.1001 67.9983 -18.1001 72.1983 -13.6001 73.3983C-11.0001 74.0983 -8.20005 74.1983 -5.50005 73.7983C-3.40005 73.4983 -1.00006 72.5983 -0.100058 70.4983C1.19994 67.5983 -1.40005 64.6983 -3.80005 63.2983C-6.30005 61.8983 -9.70005 61.3983 -12.4 62.8983C-14.7 64.0983 -16.6 66.9983 -15.2 69.4983C-13.8 72.0983 -10.6 72.3983 -7.90005 71.9983C-6.70005 71.7983 -6.20005 70.6983 -6.70005 69.5983C-7.30005 68.4983 -8.70005 67.7983 -9.90005 67.9983C-10 67.9983 -11.5001 68.1983 -11.5001 68.0983C-11.5001 67.9983 -11.1001 68.2983 -11.1001 68.2983C-10.6001 68.6983 -10.9001 68.6983 -10.8001 68.0983C-10.5001 66.8983 -9.20006 66.0983 -8.10006 65.9983C-7.00006 65.8983 -5.60005 66.2983 -4.90005 67.1983C-4.20005 68.1983 -5.10005 68.9983 -6.00005 69.3983C-8.50005 70.4983 -12.4001 70.2983 -14.8001 68.9983C-16.8001 67.8983 -17.8 64.5983 -15.2 63.3983C-14 62.7983 -12.6001 62.8983 -11.3001 62.8983C-9.40006 62.9983 -7.50005 63.0983 -5.70005 63.4983C-4.50005 63.7983 -3.80005 64.0983 -3.40005 65.2983C-3.00005 66.3983 -3.10006 67.6983 -3.60006 68.7983C-4.90006 71.6983 -8.20005 72.9983 -11.2 72.8983C-14.2 72.7983 -17.8001 71.7983 -20.0001 69.6983C-22.4001 67.3983 -19.7001 62.9983 -18.0001 61.0983C-15.8001 58.7983 -12.8 57.1983 -9.70005 56.9983C-8.60005 56.8983 -7.50005 56.3983 -7.80005 55.0983C-7.70005 54.0983 -9.10006 53.0983 -10.3001 53.1983Z" fill="#A7D527"/>
</g>
<mask id="mask8_945_22663" style="mask-type:luminance" maskUnits="userSpaceOnUse" x="-162" y="3" width="398" height="398">
<path d="M37 400.5C146.629 400.5 235.5 311.629 235.5 202C235.5 92.3715 146.629 3.5 37 3.5C-72.6285 3.5 -161.5 92.3715 -161.5 202C-161.5 311.629 -72.6285 400.5 37 400.5Z" fill="white"/>
</mask>
<g mask="url(#mask8_945_22663)">
<path d="M125.6 52.2009C121.8 50.5009 117.6 51.2009 113.7 52.2009C109.8 53.2009 105.5 54.6009 102.9 57.8009C101.8 59.2009 101 60.9009 101 62.6009C101 64.5009 101.9 65.9009 103.2 67.3009C105.7 69.9009 108.7 72.7009 112.2 73.9009C116.3 75.3009 120.9 74.1009 124.8 72.4009C128.1 70.9009 131.8 68.1009 131.9 64.0009C131.9 56.0009 120.1 53.8009 114.1 55.5009C110.6 56.5009 107.2 59.0009 107.4 63.0009C107.6 66.6009 110.6 69.1009 113.9 70.0009C115.9 70.6009 118 70.6009 120 70.3009C122.2 70.0009 124.6 69.6009 126.6 68.6009C129.9 66.8009 130.7 62.9009 128.6 59.8009C126.4 56.6009 122.4 55.8009 118.8 56.1009C116.6 56.3009 114.4 57.0009 112.3 57.8009C110.4 58.6009 108.3 59.4009 106.5 60.5009C105 61.5009 104.1 63.0009 105 64.7009C105.8 66.2009 107.3 67.2009 108.8 67.8009C112.3 69.2009 116.1 68.9009 119.8 68.4009C122.4 68.1009 128.5 65.9009 125.5 62.5009C123 59.7009 119.4 58.2009 115.8 59.6009C114.3 60.2009 112.3 61.4009 112.8 63.3009C113.2 64.8009 115 66.6009 116.4 67.3009C118.3 68.3009 120.6 67.7009 122.3 66.8009C123.8 66.0009 125.1 64.4009 123.4 63.0009C121.9 61.8009 119.9 62.6009 118.2 62.8009C117.1 62.9009 115.8 63.3009 114.9 64.1009C114.3 64.7009 114.3 65.3009 115.4 65.2009C116.4 65.1009 118 64.4009 118.9 64.9009C119.2 65.1009 119.4 65.3009 119.5 65.6009C119.5 65.6009 119.5 65.7009 119.6 65.7009C119.6 66.7009 120.3 66.5009 121.6 65.3009C121.5 65.2009 120.9 65.1009 120.9 65.1009C120.6 65.0009 120.2 64.7009 119.9 64.5009C119 63.8009 117.8 62.7009 117.5 61.6009C117.4 61.2009 117.5 61.0009 117.5 60.7009C116.9 60.9009 116.3 61.2009 115.8 61.4009C115.9 61.4009 116 61.4009 116.1 61.4009C116.7 61.7009 117.4 61.8009 118 62.1009C119.1 62.7009 120.2 63.4009 121 64.3009C121.3 64.6009 121.7 65.1009 121.8 65.6009C121.8 65.7009 121.7 66.2009 121.7 66.3009C121.8 66.4009 122.3 65.8009 122.3 66.0009C122.3 66.0009 119.3 66.3009 119 66.3009C117.8 66.4009 116.6 66.3009 115.4 66.1009C113.3 65.8009 110.6 64.8009 109.6 62.6009C109.4 62.2009 109.1 61.4009 109.5 60.9009C109.7 60.7009 110 60.6009 110.3 60.4009C111.5 59.8009 112.8 59.2009 114.1 58.8009C118.6 57.4009 125.1 59.3009 125.2 64.9009C125.2 65.4009 125.1 65.9009 125 66.4009C124.9 66.6009 124.6 67.1009 124.6 67.2009C124.6 67.3009 124.5 67.3009 124.5 67.4009C124.9 67.3009 125 67.3009 124.8 67.3009C123.7 67.7009 122.1 67.8009 120.9 67.8009C118.5 67.8009 116 67.1009 114.2 65.4009C112.5 63.8009 111.6 61.1009 112.5 58.9009C112.7 58.3009 113 57.9009 113.5 57.5009C113.8 57.2009 113.2 57.5009 113.6 57.4009C114.7 57.1009 115.9 57.3009 117 57.4009C119.6 57.8009 122.4 58.4009 124.5 60.1009C126.4 61.6009 127.8 64.1009 127.2 66.5009C126.1 71.7009 119.3 72.9009 115.2 70.9009C112.7 69.7009 110.5 67.7009 108.5 65.7009C106.3 63.6009 105 61.2009 106.4 58.2009C107.6 55.6009 110.2 54.7009 112.8 54.0009C115.7 53.3009 118.7 52.8009 121.5 54.1009C122.4 54.5009 123.8 53.9009 124.6 53.5009C124.7 53.7009 126.5 52.6009 125.6 52.2009Z" fill="#A7D527"/>
</g>
<mask id="mask9_945_22663" style="mask-type:luminance" maskUnits="userSpaceOnUse" x="-162" y="3" width="398" height="398">
<path d="M37 400.5C146.629 400.5 235.5 311.629 235.5 202C235.5 92.3715 146.629 3.5 37 3.5C-72.6285 3.5 -161.5 92.3715 -161.5 202C-161.5 311.629 -72.6285 400.5 37 400.5Z" fill="white"/>
</mask>
<g mask="url(#mask9_945_22663)">
<path d="M194.2 131.601C188.5 131.301 180.4 132.301 179.5 139.301C178.7 145.301 183.2 150.701 188.5 152.901C191.6 154.201 195 154.401 198.2 154.101C201.6 153.801 204.8 152.701 207.2 150.101C209.5 147.701 211.3 144.601 209.4 141.401C207.8 138.901 205.8 136.201 203 135.101C199.9 133.801 196 134.001 192.8 134.901C190.2 135.601 186.6 137.301 186.4 140.401C186.2 143.401 188.9 146.101 191.3 147.601C194.1 149.301 197.5 149.901 200.8 149.801C202.3 149.801 204 149.701 205.5 149.101C207.1 148.401 207.6 147.001 207.9 145.401C208.5 142.001 207 139.301 204 137.701C200.9 136.101 197.2 135.701 193.8 135.301C190.4 135.001 186.4 134.701 183.2 136.301C180.8 137.601 179.5 140.301 179.9 143.001C180.3 145.901 182.5 148.301 185 149.501C188.3 151.101 192.2 151.201 195.7 150.801C198.8 150.501 202.3 149.801 204.9 148.001C207.1 146.501 208.6 143.701 207.8 141.101C206.9 138.201 203.8 137.501 201.1 137.301C196 137.001 186 137.901 187.7 145.401C189.2 152.201 199 152.701 204.2 150.601C206.8 149.601 209 147.101 208.7 144.101C208.3 141.001 205.2 139.301 202.5 138.801C200.6 138.501 198.7 138.401 196.9 138.501C195 138.601 193 138.801 191.3 139.601C188.6 140.901 187.7 144.101 190.2 146.201C191.4 147.201 193.1 147.501 194.6 147.601C196.6 147.801 198.7 147.701 200.7 147.301C201.9 147.001 203.2 146.601 203.9 145.401C204.8 143.901 204 142.501 202.6 141.701C200.1 140.301 196.1 140.501 193.5 141.601C192.5 142.001 191.5 142.701 190.9 143.701C189.8 145.401 190.8 146.301 192.4 146.901C194 147.601 195.6 147.801 197.3 147.801C198.9 147.701 201.2 147.601 202.1 146.001C203.7 143.101 198.4 142.301 196.7 141.901C192.9 141.101 188.8 140.001 185 140.701C183.6 141.001 182.7 141.601 182.2 142.901C181.7 144.201 181.4 145.801 181.5 147.201C181.5 148.301 181.8 149.401 182.5 150.201C183.6 151.501 185.6 151.601 187.2 151.801C191.1 152.201 195.1 152.301 198.9 151.701C201.7 151.301 205.4 150.001 205.2 146.601C205.2 145.901 200.2 146.101 200.2 146.801C200.3 149.001 198.4 150.701 196.3 150.901C194 151.101 191.4 151.101 189.1 150.601C187 150.201 186.4 148.201 186.5 146.301C186.5 145.501 186.7 144.601 186.8 143.801C186.9 143.401 187 142.901 187.2 142.501C187.3 142.201 187.4 142.001 187.6 141.701C188 141.201 188.6 141.201 187.2 141.301C185.2 141.401 187.5 141.501 188 141.601C188.6 141.701 189.1 141.801 189.7 141.901C191.1 142.101 192.4 142.401 193.8 142.701C195.1 143.001 198.8 143.801 197.3 146.101C196.9 146.701 195.6 146.901 197.4 146.701C199 146.501 198.4 146.601 197.8 146.401C197.5 146.301 197.2 146.201 196.9 146.001C195.6 145.401 195.3 144.501 196.2 143.301C196.7 142.601 197.3 142.201 198 141.801C198.1 141.701 198.4 141.701 198.4 141.601C197.5 142.401 196.8 141.301 197.3 141.701C197.7 142.001 198.2 142.101 198.7 142.401C199.5 143.101 199.8 144.001 199.4 145.001C199.2 145.501 198.8 145.901 198.3 146.201C198.2 146.201 197.5 146.501 197.9 146.501C198.2 146.401 197.7 146.501 197.6 146.501C195.6 146.201 193.5 144.401 194 142.201C194.5 140.101 196.6 139.201 198.6 139.401C200.7 139.601 202.9 140.801 203.7 142.801C204.5 144.701 204 146.901 202.7 148.401C202 149.101 201.2 149.701 200.3 150.101C199.5 150.401 199.3 150.401 198.2 150.001C194.3 148.801 191 144.001 193.9 140.201C195.9 137.601 200.9 136.901 202.8 140.101C205 144.001 201.2 147.901 197.7 149.001C195.7 149.601 193.7 149.901 191.7 149.301C189.7 148.701 187.8 147.501 186.5 145.801C184.3 142.701 184.7 137.201 188.8 135.901C189.4 135.701 190.1 135.801 190.8 135.901C192.1 136.001 193.3 136.201 194.6 136.401C196.9 136.801 199.3 137.501 201.2 139.001C203 140.501 203.7 142.701 203.4 145.001C203.3 146.001 203 147.201 202.3 148.001C202.1 148.201 201.5 148.601 201.5 148.601C201.9 148.501 200.8 148.501 200.6 148.501C196.8 147.801 191.9 144.601 191.9 140.301C191.9 138.001 193.9 136.401 195.8 135.601C196.3 135.401 196.8 135.301 197.2 135.101C197.6 134.901 197 135.001 197.4 135.101C198.4 135.301 199.4 135.601 200.3 136.201C202.2 137.401 203.6 139.401 204.8 141.301C206.2 143.501 206 145.601 204.6 147.701C203.4 149.601 201.7 151.401 199.6 152.301C197.8 153.101 196.8 153.101 194.8 152.501C190.9 151.301 187.5 148.401 185.9 144.701C184.3 141.101 184.5 136.301 187.9 133.801C189.1 132.901 190.7 132.301 192.2 132.401C193.1 132.401 194.8 132.601 195.6 132.101C195.8 131.701 194.7 131.701 194.2 131.601Z" fill="#A7D527"/>
</g>
<mask id="mask10_945_22663" style="mask-type:luminance" maskUnits="userSpaceOnUse" x="-162" y="3" width="398" height="398">
<path d="M37 400.5C146.629 400.5 235.5 311.629 235.5 202C235.5 92.3715 146.629 3.5 37 3.5C-72.6285 3.5 -161.5 92.3715 -161.5 202C-161.5 311.629 -72.6285 400.5 37 400.5Z" fill="white"/>
</mask>
<g mask="url(#mask10_945_22663)">
<path d="M202 210.601C197.3 209.001 191 207.301 186.6 210.601C183.3 213.001 182.3 217.701 183.6 221.501C185.1 225.901 189.3 228.901 193.5 230.401C198.2 232.101 203.8 232.501 208.3 230.101C212.1 228.001 214.6 223.701 213.7 219.301C212.7 214.701 207.8 212.301 203.6 211.301C201.1 210.701 198.6 210.601 196 210.701C193.5 210.801 190.6 210.901 188.3 212.101C183.2 214.601 186.4 221.001 189.9 223.301C192.2 224.801 195 225.701 197.7 225.901C200.2 226.101 202.9 226.101 205.2 225.001C207.3 224.001 208.5 222.301 208.8 220.001C209.1 217.801 209.4 214.801 207.9 213.101C204.9 209.601 198.7 210.101 194.7 211.001C192.6 211.501 190.4 212.201 188.8 213.801C187.2 215.401 186.6 217.601 186.9 219.801C187.5 224.901 192.6 227.901 197.1 229.101C199.8 229.801 202.7 229.901 205.5 229.801C207.9 229.701 210.5 229.801 211.1 227.001C212.1 222.901 212.5 216.901 208.8 214.001C204.4 210.501 197.3 211.501 192.8 214.201C190.8 215.301 189 217.201 188.8 219.601C188.6 222.201 190.5 224.001 192.8 224.901C195.2 225.801 197.9 225.901 200.1 224.601C202 223.501 203.7 221.301 203.2 219.101C202.7 216.401 198.9 215.101 196.5 215.601C194.5 216.001 193.6 217.801 193.8 219.701C194 222.201 195.8 224.201 198.1 225.101C200.2 225.901 203.4 226.401 205 224.401C206.3 222.901 205.6 220.701 204 219.701C203 219.101 201.7 218.601 200.6 218.801C199.7 218.901 199.4 219.601 200.3 220.201C201.4 220.901 200.9 222.701 199.9 223.301C199.9 223.301 199.3 223.601 199.3 223.501C199.3 223.201 200.4 224.301 200.2 223.701C200.2 223.601 199.9 223.401 199.8 223.401C199.2 222.801 198.9 221.901 198.7 221.101C198.6 220.501 198.6 219.801 198.8 219.201C198.9 218.901 199 218.601 199.2 218.401C199.6 217.801 200.3 218.001 198.9 217.701C197.4 217.401 198.3 217.701 198.4 218.501C198.5 218.901 198.4 219.301 198.3 219.701C198.1 220.501 197.6 221.301 197 221.901C196.4 222.501 195.8 222.901 195.1 223.201C195 223.201 194.4 223.301 194.3 223.401C194.4 223.201 194.9 223.901 194.6 223.401C194.2 222.801 193.8 222.401 193.7 221.501C193.6 220.601 193.8 219.701 194.2 218.901C195.8 215.901 200.1 214.401 203.4 214.201C204.8 214.201 205.5 214.701 206.1 216.101C206.7 217.501 206.9 219.001 206.9 220.501C206.9 222.401 206.8 224.401 206.2 226.201C206 226.901 205.7 227.301 205 227.501C204 227.701 203 227.701 202.1 227.701C199 227.801 195.9 227.401 193.7 225.001C191.5 222.701 190.8 218.701 193 216.101C195 213.801 198.2 213.301 201.1 213.001C201.8 212.901 202.8 212.801 203.3 213.101C204.6 214.001 204.2 216.701 204.1 218.001C204 219.601 203.7 221.301 202.4 222.501C201.3 223.501 199.7 223.901 198.2 224.001C195.1 224.201 192.3 223.001 191 220.101C190.3 218.601 190.1 216.601 191.2 215.201C192.3 213.901 194.2 213.801 195.7 213.601C198.6 213.201 202 213.001 204.7 214.201C210.9 216.801 209.6 225.101 204.6 228.301C199.4 231.601 192.1 229.701 189.1 224.401C186.2 219.301 188.7 211.201 195.5 211.501C197.1 211.601 198.7 212.101 200.2 212.601C200.9 212.801 202.7 213.401 203.4 212.701C204.1 211.501 202.5 210.701 202 210.601Z" fill="#A7D527"/>
</g>
<mask id="mask11_945_22663" style="mask-type:luminance" maskUnits="userSpaceOnUse" x="-162" y="3" width="398" height="398">
<path d="M37 400.5C146.629 400.5 235.5 311.629 235.5 202C235.5 92.3715 146.629 3.5 37 3.5C-72.6285 3.5 -161.5 92.3715 -161.5 202C-161.5 311.629 -72.6285 400.5 37 400.5Z" fill="white"/>
</mask>
<g mask="url(#mask11_945_22663)">
<path d="M47.4998 235.6C44.3998 233 38.8998 234.6 36.4998 237.4C35.1998 238.9 34.7998 241 34.7998 243C34.7998 245.1 35.2998 246.9 36.7998 248.3C39.3998 250.9 43.6998 251.5 47.1998 250.8C50.8998 250 54.4998 247.5 55.3998 243.6C55.7998 241.8 55.1998 239.8 53.8998 238.4C52.5998 237 50.4998 236.4 48.6998 236.1C46.6998 235.8 44.3998 235.5 42.2998 235.7C39.7998 236 38.4998 237.7 37.8998 240C37.4998 241.5 37.1998 243.3 37.5998 244.8C38.1998 246.8 39.9998 248.1 41.9998 248.5C43.9998 248.9 46.0998 248.7 48.0998 248.2C49.9998 247.7 52.4998 247.1 53.6998 245.4C55.2998 243.2 53.5998 240.9 51.5998 239.7C49.4998 238.3 46.6998 237.6 44.3998 238.9C42.3998 240 40.7998 242.3 41.9998 244.5C43.2998 246.9 46.3998 247.1 48.7998 246.7C49.8998 246.5 51.0998 245.5 50.8998 244.3C50.5998 243 49.0998 242.8 48.0998 243C47.8998 243 47.1998 243.1 46.8998 243C47.0998 243.1 46.9998 243 46.8998 243C46.5998 242.8 47.0998 243.2 46.7998 242.9C46.6998 242.8 46.6998 242.8 46.5998 242.7C46.5998 242.6 46.4998 242.5 46.5998 242.7C46.5998 242.6 46.5998 242.5 46.5998 242.4C46.5998 242.4 46.6998 242.1 46.5998 242.3C46.5998 242.3 46.8998 241.9 46.5998 242.2C46.5998 242.2 46.8998 242 46.6998 242.1C46.4998 242.2 46.7998 242.1 46.7998 242.1C46.7998 242.1 46.1998 242.2 46.4998 242.2C46.7998 242.2 46.5998 242.2 46.4998 242.2C46.6998 242.2 46.8998 242.3 46.9998 242.3C46.9998 242.3 47.3998 242.5 47.5998 242.6C48.0998 242.8 48.5998 243.2 48.9998 243.6C48.9998 243.6 49.1998 243.9 49.2998 244C49.5998 244.4 49.3998 244.2 49.3998 244.2C49.6998 244.2 49.2998 244.1 49.3998 244.2V244.3C49.5998 243.9 49.6998 243.8 49.4998 244C49.5998 244 49.7998 243.9 49.5998 244C49.3998 244.1 49.2998 244.2 49.0998 244.2C48.3998 244.5 48.0998 244.6 47.5998 244.7C46.9998 244.9 46.2998 245 45.6998 245.1C45.9998 245.1 45.4998 245.1 45.4998 245.1C45.3998 245.1 45.1998 245.1 45.0998 245.1C44.7998 245.1 44.4998 245.1 44.1998 245.1C44.5998 245.1 43.8998 245 43.7998 245C43.6998 245 43.5998 244.9 43.4998 244.9C43.7998 245 43.2998 244.8 43.2998 244.8C43.1998 244.8 43.0998 244.7 43.2998 244.8C43.1998 244.7 42.9998 244.6 42.8998 244.5C42.9998 244.6 42.6998 244.2 42.6998 244.2C42.5998 244 42.4998 243.4 42.4998 243.2C42.4998 242.2 42.7998 240.9 42.9998 240.2C43.0998 240 43.1998 239.7 43.2998 239.5C43.3998 239.5 41.7998 240.4 42.5998 239.8C42.5998 239.8 42.1998 239.8 42.4998 239.8C42.5998 239.8 42.6998 239.8 42.8998 239.8C43.2998 239.8 43.6998 239.8 43.9998 239.8C45.3998 239.9 46.5998 239.9 47.8998 240.3C48.1998 240.4 48.4998 240.4 48.7998 240.5C48.4998 240.4 49.0998 240.6 49.0998 240.7C49.4998 240.9 49.7998 241.1 49.9998 241.4C50.5998 242.1 50.6998 243.1 50.3998 244.1C50.2998 244.3 49.9998 244.9 49.8998 245C49.6998 245.2 49.4998 245.5 49.3998 245.7C49.2998 245.8 49.1998 245.9 49.0998 246.1C49.2998 245.9 49.0998 246.1 48.9998 246.2C48.7998 246.4 48.5998 246.5 48.2998 246.7C48.1998 246.8 48.0998 246.8 47.9998 246.9C48.3998 246.7 47.9998 246.9 47.8998 246.9C47.6998 247 47.3998 247.1 47.1998 247.2C47.0998 247.2 46.9998 247.3 46.8998 247.3C47.2998 247.2 46.9998 247.3 46.7998 247.3C46.5998 247.4 46.3998 247.4 46.0998 247.4C45.9998 247.4 45.5998 247.5 45.8998 247.4C46.1998 247.4 45.7998 247.4 45.7998 247.4C45.4998 247.4 45.2998 247.4 44.9998 247.4C44.8998 247.4 44.7998 247.4 44.6998 247.4C43.9998 247.4 44.8998 247.4 44.4998 247.4C44.0998 247.3 43.2998 247.2 43.0998 247.1C43.2998 247.2 42.8998 247 42.8998 247C42.7998 246.9 42.5998 246.9 42.4998 246.8C42.1998 246.7 41.8998 246.5 41.6998 246.4C41.7998 246.5 41.2998 246.1 41.1998 246C41.0998 245.9 40.6998 245.6 40.6998 245.6C40.2998 245.2 40.0998 244.7 39.9998 244.1C39.7998 242.9 39.8998 241.4 40.1998 240.3C40.2998 240.1 40.3998 239.7 40.4998 239.6C40.3998 239.7 40.6998 239.4 40.6998 239.3C40.9998 239 40.4998 239.4 40.7998 239.2C40.8998 239.1 41.0998 239 41.1998 238.9C41.4998 238.7 40.8998 239 41.2998 238.8C41.5998 238.7 41.8998 238.5 42.1998 238.4C42.2998 238.4 42.3998 238.3 42.4998 238.3C42.0998 238.5 42.4998 238.3 42.5998 238.3C42.6998 238.3 42.7998 238.3 42.8998 238.2C43.4998 238.1 42.6998 238.2 42.9998 238.2C43.0998 238.2 43.1998 238.2 43.2998 238.2C42.7998 238.2 43.3998 238.3 43.1998 238.2C42.9998 238.1 43.2998 238.2 43.2998 238.2C43.7998 238.4 43.1998 238 43.5998 238.4C44.4998 239.2 46.0998 239.1 47.0998 238.4C48.0998 237.7 48.3998 236.4 47.4998 235.6Z" fill="#A7D527"/>
</g>
<mask id="mask12_945_22663" style="mask-type:luminance" maskUnits="userSpaceOnUse" x="-162" y="3" width="398" height="398">
<path d="M37 400.5C146.629 400.5 235.5 311.629 235.5 202C235.5 92.3715 146.629 3.5 37 3.5C-72.6285 3.5 -161.5 92.3715 -161.5 202C-161.5 311.629 -72.6285 400.5 37 400.5Z" fill="white"/>
</mask>
<g mask="url(#mask12_945_22663)">
<path d="M163.8 325.299C159.8 325.899 155.4 327.499 152.4 330.299C151.1 331.599 150 333.199 150.6 335.099C151.1 336.899 152.8 338.299 154.3 339.299C156.4 340.599 158.7 341.199 161.1 341.399C163.5 341.599 165.9 341.299 168 340.199C169.7 339.299 171.6 338.099 172 336.099C172.4 334.199 171.9 332.099 171 330.399C170.6 329.599 170.1 328.899 169.5 328.199C168.6 327.199 167.6 326.899 166.4 326.699C163.7 326.299 161 326.599 158.5 327.599C155 328.999 152 332.599 154.3 336.499C154.8 337.299 155.4 338.099 156.1 338.699C157.2 339.699 159 339.699 160.4 339.699C162.5 339.699 164.5 339.099 166.1 337.699C167.3 336.599 168.5 335.099 168.8 333.499C168.9 332.799 168.9 332.099 168.4 331.599C167.7 330.699 166.1 330.599 165 330.499C163.6 330.299 162.1 330.199 160.6 330.399C159.6 330.499 158.7 330.799 158 331.599C157.4 332.399 157.4 333.499 157.5 334.499C157.6 335.399 157.7 336.399 158.3 337.199C159.1 338.199 160.7 338.299 161.9 338.399C163.1 338.499 164.7 338.599 165.7 337.799C167.5 336.299 166 334.199 164.3 333.599C163.3 333.199 162 333.199 160.9 333.199C160.6 333.199 159 333.299 160 333.699C161 334.099 161.8 335.199 161.5 336.299C161.4 336.899 161 337.199 160.6 337.499C159.4 338.399 164.7 338.799 163.6 337.699C163.4 337.499 163.3 337.399 163.1 337.199C162.5 336.299 162.5 335.099 162.5 334.099C162.5 332.999 162.8 331.799 164 331.299C164.3 331.199 164.7 331.199 164 331.199C163.9 331.199 163.3 331.099 163.9 331.199C162.7 330.999 163.2 330.999 163.5 331.399C163.6 331.599 163.7 331.799 163.8 332.099C164 333.099 163.6 334.099 163.1 334.999C162.6 335.999 161.8 336.799 160.9 337.499C160.5 337.799 160 338.099 159.5 338.399C159.3 338.499 159.1 338.599 158.8 338.699C158.4 338.799 157.5 338.899 158.8 338.899C159.6 338.999 160.4 339.099 161.2 339.199C160.9 339.099 160.4 338.399 160.1 338.099C159.8 337.699 159.5 337.299 159.2 336.899C158.7 335.999 158.4 335.099 158.4 334.099C158.4 332.099 159.7 330.399 161.3 329.299C162.1 328.799 162.9 328.399 163.8 328.099C164.3 327.899 164.9 327.699 165.5 327.599C165.7 327.599 165.9 327.499 166.1 327.499C163.6 326.899 162.8 326.899 163.8 327.399C164 327.499 164.1 327.599 164.2 327.699C165.7 328.999 166.6 330.899 167 332.799C167.4 334.799 167.2 336.899 165.6 338.299C164.8 338.999 163.9 339.499 162.9 339.999C162.5 340.199 162 340.399 161.6 340.499C161.3 340.599 161 340.599 160.8 340.699C160.2 340.899 160.7 340.199 161.7 340.799C161.4 340.599 161 340.599 160.7 340.399C160.2 340.199 159.7 339.899 159.2 339.599C158.4 339.099 157.6 338.399 156.9 337.699C155.5 336.199 155.1 334.299 156.1 332.499C157.2 330.599 159.3 329.299 161.2 328.399C163.4 327.299 165.7 326.599 168.1 326.199C169.1 325.999 167.4 325.599 167.2 325.599C166.1 325.299 164.9 325.199 163.8 325.299Z" fill="#A7D527"/>
</g>
<mask id="mask13_945_22663" style="mask-type:luminance" maskUnits="userSpaceOnUse" x="-162" y="3" width="398" height="398">
<path d="M37 400.5C146.629 400.5 235.5 311.629 235.5 202C235.5 92.3715 146.629 3.5 37 3.5C-72.6285 3.5 -161.5 92.3715 -161.5 202C-161.5 311.629 -72.6285 400.5 37 400.5Z" fill="white"/>
</mask>
<g mask="url(#mask13_945_22663)">
<path d="M117.8 155.099C109.2 150.799 98.2995 157.399 95.8995 166.099C94.7995 169.999 95.5995 174.499 98.2995 177.599C101.5 181.299 106.6 182.199 111.3 182.299C113.7 182.399 116.4 182.199 118.4 180.699C120.1 179.499 121 177.599 121.6 175.699C122.2 173.599 122.9 171.099 122.5 168.899C122.1 166.799 120.9 164.999 119.4 163.599C115.8 160.299 110.3 159.399 105.6 158.899C103.2 158.599 100.4 158.799 98.5995 160.599C97.1995 161.899 96.4995 163.999 96.2995 165.799C95.8995 169.399 97.4995 173.099 100.2 175.399C103.5 178.199 109.1 178.999 113 176.999C116.9 174.999 117.3 169.999 116.3 166.199C115.7 163.699 113.7 162.899 111.4 162.499C108.7 162.099 105.9 161.999 103.2 162.399C101 162.799 98.9995 163.799 98.3995 166.099C97.8995 168.099 98.3995 170.299 99.3995 171.999C101.6 175.799 106.2 177.499 110.5 177.099C112.6 176.899 114.7 176.199 116.4 174.899C117.7 173.899 119.7 171.799 119.5 169.999C119.2 167.999 116 167.199 114.4 166.799C111.8 166.099 109.1 165.599 106.4 165.699C104.2 165.799 101.8 166.299 101 168.599C100.3 170.399 100.7 172.399 101.2 174.199C102.8 179.599 109.8 177.999 113.4 175.799C114.9 174.899 116.7 173.099 115.6 171.199C114.6 169.499 112.1 168.999 110.3 168.799C108.3 168.499 104.9 168.299 104 170.699C103.3 172.799 105 174.599 106.8 175.099C109 175.799 111.9 175.699 113.5 173.899C114.2 173.199 112.2 172.699 111.8 172.599C110.9 172.399 109.4 172.299 108.7 173.099C108.6 173.199 108.5 173.299 108.5 173.299C107.8 173.699 108.2 173.799 109.7 173.599C109.6 173.399 109.2 173.099 109.1 172.899C108.8 172.399 108.7 171.799 108.9 171.199C108.9 171.199 109.4 170.199 109 170.399C109 170.399 109.8 170.499 109.4 170.499C109.8 170.599 110.2 170.699 110.5 170.999C111.5 172.099 110.4 173.499 109.4 174.199C108.7 174.599 108 174.999 107.3 175.299C106.9 175.399 106.5 175.499 106.1 175.699C106 175.699 105.8 175.799 105.7 175.799C107.1 176.299 107.5 176.299 106.9 175.799C106.6 175.199 106.2 174.599 106 173.899C105.8 173.399 105.7 172.799 105.7 172.199C105.5 170.899 105.4 169.399 106.2 168.299C107 167.199 108.1 167.499 109.3 167.599C110.7 167.799 112.6 168.099 113.9 168.899C115.2 169.699 114 171.499 113.3 172.299C112.5 173.399 111.4 174.199 110.1 174.699C107.9 175.599 106.1 174.299 104.7 172.499C103.2 170.499 102 166.699 104.1 164.699C105.1 163.799 106.6 163.799 107.9 163.899C109.4 163.899 110.6 163.899 111.2 165.599C112 168.099 112 171.799 110.5 173.999C109.1 176.099 107.1 176.399 105.1 174.999C101.1 172.299 99.6995 165.899 102.6 161.899C103.5 160.699 104.2 160.499 105.6 160.699C107.3 160.999 109 161.199 110.7 161.699C113.5 162.599 116.1 164.399 117.2 167.199C117.8 168.699 117.7 170.199 117.4 171.799C117.2 173.299 116.8 174.799 116.3 176.299C115.8 177.499 115.1 178.799 113.9 179.499C112.6 180.299 111.2 180.299 109.8 180.099C106.5 179.799 103.8 178.499 102.1 175.599C100.5 172.899 100.1 169.699 100.8 166.699C101.6 163.499 103.7 160.599 106.2 158.499C108.3 156.799 111.6 154.699 114.2 155.999C115.2 156.499 116.7 156.599 117.7 156.199C118.6 156.199 118.7 155.599 117.8 155.099Z" fill="#A7D527"/>
</g>
</svg>
