<svg width="782" height="634" viewBox="0 0 782 634" fill="none" xmlns="http://www.w3.org/2000/svg">
<path d="M259.243 376.136L322.326 190.721H457.334L543.409 419.468L518.648 428.901H291.079L259.243 376.136Z" fill="#ACCAFC"/>
<path d="M602.658 563.418C622.9 571.672 675.233 588.297 722.633 588.769C726.956 588.737 736.9 588.259 742.088 586.608L760.954 633.478L531.617 631.709L515.404 606.063L510.982 570.788C514.991 575.033 520.514 572.949 522.774 571.377L519.515 579.251C519.354 579.642 519.497 580.096 519.863 580.306C528.062 585.02 534.623 578.549 536.923 574.62C543.054 581.459 550.483 574.325 553.43 569.903C555.081 574.856 559.424 572.949 561.389 571.377C563.846 566.661 569.172 557.817 570.822 560.176C574.124 580.692 593.422 570.886 602.658 563.418Z" fill="#412FA9" stroke="black" stroke-width="0.589556"/>
<path d="M721.454 373.19C699.523 342.062 653.95 344.302 633.905 349.313C629.189 419.47 554.61 401.783 562.569 358.451C508.802 355.385 489.268 391.171 486.222 409.448L551.662 459.265V474.594L515.699 447.179V529.717H520.416V548.583C522.381 544.161 527.432 533.903 531.912 528.243C536.393 522.583 547.339 523.723 552.252 525.001C586.918 531.839 607.768 529.029 613.566 526.18L677.827 512.62L678.597 512.448L678.161 508.526C688.537 514.186 707.01 508.591 714.674 505.545C724.304 502.597 745.508 499.355 753.29 509.967C761.072 520.579 772.177 521.787 777.188 521V523.583C779.075 521.461 780.901 518.024 780.999 516.747C778.052 475.478 759.775 436.862 750.637 417.996C743.327 402.904 728.136 381.837 721.454 373.19Z" fill="#412FA9" stroke="black" stroke-width="0.589556"/>
<path d="M554.316 359.335C542.819 423.007 652.476 425.365 642.159 349.018" stroke="black" stroke-width="1.17911" stroke-linecap="round" stroke-linejoin="round"/>
<path d="M539.576 402.373C533.386 440.989 520.769 524.824 519.826 551.236" stroke="black" stroke-width="1.17911" stroke-linecap="round" stroke-linejoin="round"/>
<path d="M661.319 398.834C664.66 432.34 672.973 499.564 678.161 508.525" stroke="black" stroke-width="1.17911" stroke-linecap="round" stroke-linejoin="round"/>
<path d="M675.174 499.058C682.347 499.549 699.994 498.999 713.2 492.868C725.249 487.273 739.033 487.798 745.908 488.977C747.093 489.181 748.192 489.679 749.193 490.347C758.402 496.491 775.215 506.308 779.23 503.185" stroke="black" stroke-width="1.17911" stroke-linecap="round" stroke-linejoin="round"/>
<path d="M526.312 298.904H535.449" stroke="black" stroke-width="0.589556"/>
<path d="M555.495 295.958C557.951 296.056 563.866 295.781 567.875 293.895" stroke="black" stroke-width="0.589556"/>
<path d="M618.577 252.035C638.858 263.119 623.49 302.835 613.271 321.308H611.502L604.722 300.673C605.607 300.378 607.67 298.727 608.849 294.482C610.971 285.757 608.751 282.003 607.375 281.217C605.607 280.628 601.598 280.451 599.711 284.46C597.589 287.761 598.827 293.303 599.711 295.661C597.824 295.426 595.191 297.135 594.11 298.02C591.516 294.247 590.278 287.015 589.983 283.87C575.598 284.342 570.233 274.634 569.349 269.721C561.331 278.682 548.714 274.83 543.408 271.784C538.456 276.501 530.93 277.09 527.785 276.796L526.901 279.743L526.311 285.049V305.979H524.837C513.99 300.083 513.046 289.962 513.931 285.639C502.611 272.433 509.018 262.057 513.636 258.519C503.613 234.053 538.692 216.366 554.905 223.736C581.081 205.578 593.128 219.708 595.879 229.042C613.801 225.505 618.479 242.897 618.577 252.035Z" fill="#020202" stroke="black" stroke-width="0.589556"/>
<path d="M515.405 606.359L532.207 631.71L271.034 632.004L286.952 604.885V444.82L400.736 357.271L515.405 446.589V606.359Z" fill="#FFB2B3" stroke="black" stroke-width="0.589556"/>
<path d="M289.016 603.703H515.11" stroke="black" stroke-width="1.17911"/>
<path d="M407.517 631.709V622.865H496.539V631.709" stroke="black" stroke-width="1.17911"/>
<path d="M487.106 622.277V613.729H418.128V622.277" stroke="black" stroke-width="1.17911"/>
<path d="M482.685 613.138V491.395H423.14V613.138" stroke="black" stroke-width="1.17911"/>
<path d="M475.609 430.377H327.631V461.034H475.609V430.377Z" stroke="black" stroke-width="1.17911"/>
<path d="M390.125 493.754H315.251V574.818H390.125V493.754Z" stroke="black" stroke-width="1.17911"/>
<path d="M259.244 376.136C251.462 370.948 230.997 371.979 223.235 372.569C223.706 383.653 221.168 399.188 219.694 404.985C235.023 406.165 251.11 408.886 256.121 409.967C257.301 400.534 258.851 382.621 259.244 376.136Z" fill="#4576FE" stroke="#4576FE" stroke-width="0.589556"/>
<path d="M259.208 376.025C266.479 378.875 283.121 393.41 291.374 425.954L268.971 443.641H248.042L247.201 443.797V430.525L248.944 425.296L251.215 424.425L259.208 376.025Z" fill="white"/>
<path d="M248.042 443.641H268.971L291.374 425.954C283.121 393.41 266.479 378.875 259.208 376.025L251.215 424.425M248.042 443.641L251.215 424.425M248.042 443.641L247.201 443.797V430.525L248.944 425.296L251.215 424.425" stroke="white" stroke-width="0.589556"/>
<path d="M247.157 444.05L247.156 431.162C244.562 433.779 240.377 435.525 238.608 436.021C238.608 440.779 235.464 442.167 233.892 442.266L232.385 443.162L224.753 444.05L121.876 527.321L176.115 527.916V632.301L271.603 632L278.403 622.19L286.952 607.32V444.05L247.746 474.385V458.92L267.496 444.05H247.157Z" fill="#FF96AC" stroke="#FF96AC" stroke-width="0.589556"/>
<path d="M268.38 546.816H207.361V604.593L269.265 603.709L268.38 546.816Z" stroke="black" stroke-width="1.17911"/>
<path d="M176.704 526.771H286.951" stroke="black" stroke-width="1.17911"/>
<path d="M399.263 343.416L268.382 444.23L248.042 459.264V474.003L400.442 357.86L551.368 474.297V459.264L399.263 343.416Z" fill="#F6AAAD" stroke="black" stroke-width="0.589556"/>
<path d="M51.4438 549.475C121.955 535.325 172.401 477.352 188.81 450.134C196.121 455.087 211.047 448.453 218.024 443.736L223.833 444.044L122.466 526.474L175.821 527.064V601.937C158.135 605.946 139.957 605.376 133.078 604.59C118.929 601.839 88.567 594.921 80.3133 589.262C72.0595 583.602 49.9512 576.881 39.9287 574.228L51.4438 549.475Z" fill="#4576FE" stroke="black" stroke-width="0.589556"/>
<path d="M80.0184 589.555C71.7646 583.895 49.951 577.174 39.9286 574.521C33.5417 582.775 18.4098 605.827 13.6934 632.003L175.881 632.307L175.823 602.231H174.642C156.955 606.24 138.777 605.67 131.899 604.884C117.75 602.132 88.2721 595.215 80.0184 589.555Z" fill="#3A27A6" stroke="#3A27A6" stroke-width="0.589556"/>
<path d="M223.871 302.739C234.719 299.673 234.09 288.688 232.419 283.578C233.795 283.087 236.016 285.7 233.893 300.085C238.138 309.754 244.898 314.726 247.748 316.003C251.521 309.165 250.696 295.86 249.811 290.063C247.846 278.469 236.252 256.282 205.595 260.291C174.938 264.3 168.649 292.225 169.337 305.686C171.204 305.686 176.353 306.099 182.012 307.75C195.69 314.589 215.617 307.259 223.871 302.739Z" fill="#020202" stroke="#020202" stroke-width="0.589556"/>
<path d="M389.535 0V115.258" stroke="black" stroke-width="1.76867"/>
<circle cx="389.535" cy="119.976" r="3.83184" fill="black" stroke="black" stroke-width="0.589556"/>
<mask id="path-30-inside-1_910_1994" fill="white">
<path d="M457.923 190.427C457.923 181.717 456.161 173.092 452.739 165.045C449.317 156.998 444.302 149.687 437.978 143.528C431.655 137.369 424.149 132.483 415.887 129.15C407.626 125.817 398.771 124.102 389.829 124.102C380.887 124.102 372.032 125.817 363.771 129.15C355.509 132.483 348.003 137.369 341.68 143.528C335.356 149.687 330.341 156.998 326.919 165.045C323.497 173.092 321.735 181.717 321.735 190.427L389.829 190.427H457.923Z"/>
</mask>
<path d="M457.923 190.427C457.923 181.717 456.161 173.092 452.739 165.045C449.317 156.998 444.302 149.687 437.978 143.528C431.655 137.369 424.149 132.483 415.887 129.15C407.626 125.817 398.771 124.102 389.829 124.102C380.887 124.102 372.032 125.817 363.771 129.15C355.509 132.483 348.003 137.369 341.68 143.528C335.356 149.687 330.341 156.998 326.919 165.045C323.497 173.092 321.735 181.717 321.735 190.427L389.829 190.427H457.923Z" fill="white" stroke="black" stroke-width="3.53733" mask="url(#path-30-inside-1_910_1994)"/>
<path d="M415.475 190.723C415.475 193.355 414.812 195.962 413.523 198.393C412.234 200.825 410.345 203.035 407.963 204.896C405.582 206.758 402.755 208.234 399.643 209.242C396.532 210.249 393.197 210.768 389.829 210.768C386.461 210.768 383.127 210.249 380.015 209.242C376.904 208.234 374.076 206.758 371.695 204.896C369.314 203.035 367.425 200.825 366.136 198.393C364.847 195.962 364.184 193.355 364.184 190.723L389.829 190.723H415.475Z" fill="#FF82AC"/>
<ellipse cx="173.168" cy="219.314" rx="24.1718" ry="25.0561" fill="#020202"/>
<ellipse cx="190.854" cy="253.509" rx="35.3733" ry="36.8472" fill="#020202"/>
<path d="M223.574 302.494C234.422 299.429 233.793 288.443 232.123 283.334C233.498 282.843 235.719 285.456 233.596 299.841C237.841 309.51 244.602 314.482 247.451 315.759C237.075 343.866 221.511 351.213 215.026 351.373C215.124 353.829 217.207 361.572 224.753 372.892C226.168 387.041 222.395 399.029 220.332 403.254C216.892 402.959 208.481 402.782 202.35 404.433C197.634 407.97 189.183 416.322 185.548 420.056C145.93 422.414 147.03 382.521 152.533 362.28H160.197C174.818 349.545 176.901 332.605 176.115 325.727C162.437 320.068 165.699 309.846 169.04 305.442C170.907 305.442 176.056 305.855 181.716 307.506C195.393 314.345 215.32 307.014 223.574 302.494Z" fill="white" stroke="white" stroke-width="1.17911" stroke-linecap="round" stroke-linejoin="round"/>
<path d="M218.268 364.05C190.441 361.456 180.143 340.566 178.473 330.445C190.735 351.433 207.557 353.929 214.436 352.554L218.268 364.05Z" fill="#FFB2B3" stroke="#FFB2B3" stroke-width="1.17911" stroke-linecap="round" stroke-linejoin="round"/>
<path d="M187.021 340.466C199.304 353.044 228.585 365.699 247.451 315.705" stroke="#020202" stroke-width="1.17911" stroke-linecap="round" stroke-linejoin="round"/>
<path d="M208.54 338.107C209.621 339.483 212.844 342.175 217.088 341.939" stroke="#020202" stroke-width="1.17911" stroke-linecap="round" stroke-linejoin="round"/>
<path d="M207.655 331.916C209.424 334.471 215.084 339.344 223.573 338.401" stroke="#020202" stroke-width="1.76867" stroke-linecap="round" stroke-linejoin="round"/>
<path d="M209.719 328.379C208.441 329.067 205.592 330.855 204.413 332.506" stroke="#020202" stroke-width="1.17911" stroke-linecap="round" stroke-linejoin="round"/>
<path d="M170.809 308.336C172.086 309.22 174.346 311.578 173.167 313.936C171.988 316.294 173.068 318.456 173.756 319.242" stroke="black" stroke-width="1.17911" stroke-linecap="round" stroke-linejoin="round"/>
<path d="M213.846 307.158L218.562 310.401" stroke="#020202" stroke-width="1.17911" stroke-linecap="round" stroke-linejoin="round"/>
<path d="M230.943 313.053L241.849 313.642" stroke="#020202" stroke-width="1.17911" stroke-linecap="round" stroke-linejoin="round"/>
<ellipse cx="209.225" cy="315.495" rx="9.72767" ry="5.306" transform="rotate(13.6799 209.225 315.495)" fill="#FFB2B3"/>
<ellipse cx="233.576" cy="321.881" rx="9.30431" ry="5.306" transform="rotate(13.6799 233.576 321.881)" fill="#FFB2B3"/>
<ellipse cx="211.193" cy="314.526" rx="2.06331" ry="1.76855" fill="#020202"/>
<ellipse cx="233.892" cy="320.126" rx="1.76855" ry="2.06331" fill="#020202"/>
<path d="M226.521 310.398C226.03 311.185 225.106 314.172 225.342 319.831C225.578 325.491 225.637 328.675 225.637 329.559C225.539 330.836 223.455 332.507 215.909 328.969" stroke="#020202" stroke-width="1.17911" stroke-linecap="round" stroke-linejoin="round"/>
<path d="M230.648 317.475L238.017 318.948" stroke="#020202" stroke-width="0.589556" stroke-linecap="round" stroke-linejoin="round"/>
<path d="M208.54 311.58L215.319 313.349" stroke="#020202" stroke-width="0.589556" stroke-linecap="round" stroke-linejoin="round"/>
<path d="M185.392 420.057C145.774 422.416 146.874 382.522 152.377 362.281C151.545 360.119 143.454 356.032 117.749 356.975C130.72 384.094 111.617 432.439 105.427 450.715L169.041 433.617C172.179 433.519 179.843 430.67 185.392 420.057Z" fill="#4576FE" stroke="#4576FE" stroke-width="0.589556"/>
<path d="M73.828 382.324C93.1654 362.75 110.97 357.464 117.455 357.268C131.133 380.614 114.9 429.881 105.074 451.596C122.368 446.192 158.606 435.207 165.209 434.499C171.812 433.792 175.625 431.846 176.705 430.962C183.289 423.593 197.576 408.146 202.056 405.316C206.537 402.486 216.697 402.958 221.217 403.548C227.997 404.53 243.502 406.613 251.284 407.085C259.066 407.557 254.92 412.588 251.874 415.044C263.193 417.638 254.428 422.807 248.631 425.066C247.924 432.849 241.065 434.991 237.724 435.089C239.847 438.39 235.268 441.574 232.713 442.753L217.68 443.932C212.079 448.354 198.578 456.136 189.381 451.891C153.536 501.886 122.958 523.817 112.149 528.533C103.207 532.955 79.134 543.567 54.3726 550.642C29.6113 557.716 13.0055 545.925 7.79779 539.145C4.94827 534.527 -0.338073 520.928 1.31268 503.477C2.96344 486.027 13.2011 458.412 20.4732 448.649C30.2009 434.696 54.4906 401.897 73.828 382.324Z" fill="white" stroke="black" stroke-width="1.17911" stroke-linecap="round" stroke-linejoin="round"/>
<path d="M230.944 436.271C231.239 437.45 232.831 439.513 236.839 438.334C238.117 436.86 238.726 434.385 230.944 436.271Z" fill="#F185C3" stroke="#F384C3" stroke-width="1.17911" stroke-linecap="round" stroke-linejoin="round"/>
<path d="M240.672 429.785V426.542C249.633 424.42 248.139 427.82 246.272 429.785H240.672Z" fill="#F185C3" stroke="#F384C3" stroke-width="1.17911" stroke-linecap="round" stroke-linejoin="round"/>
<path d="M247.452 420.057V416.225C257.356 415.046 256.884 418.288 255.411 420.057H247.452Z" fill="#F185C3" stroke="#F384C3" stroke-width="1.17911" stroke-linecap="round" stroke-linejoin="round"/>
<path d="M246.567 410.918V407.381C256.707 407.381 255.705 409.935 253.936 411.213L246.567 410.918Z" fill="#F185C3" stroke="#F384C3" stroke-width="1.17911" stroke-linecap="round" stroke-linejoin="round"/>
<path d="M215.026 413.275L252.463 415.044" stroke="black" stroke-width="1.17911" stroke-linecap="round" stroke-linejoin="round"/>
<path d="M215.615 424.479L248.041 425.363" stroke="black" stroke-width="1.17911" stroke-linecap="round" stroke-linejoin="round"/>
<path d="M217.385 435.09H238.904" stroke="black" stroke-width="1.17911" stroke-linecap="round" stroke-linejoin="round"/>
<path d="M107.433 444.525C91.1609 445.233 65.7707 466.142 55.5518 475.477C68.522 466.752 94.0694 455.039 104.78 451.305L107.433 444.525Z" fill="#FEB3B3" stroke="#FEB3B3" stroke-width="1.17911" stroke-linecap="round" stroke-linejoin="round"/>
<path d="M52.3096 478.128C63.7076 470.856 90.3949 455.312 105.959 451.303" stroke="black" stroke-width="1.17911" stroke-linecap="round" stroke-linejoin="round"/>
<path d="M604.428 300.675C614.333 332.746 628.01 348.822 633.611 352.85C632.137 406.794 562.275 410.921 562.275 361.988C565.223 358.942 569.998 351.2 565.517 344.596C525.664 346.247 522.775 305.194 526.312 284.462L526.607 281.219L527.196 280.04V278.861L528.081 276.797H528.375C536.629 277.269 542.034 273.653 543.704 271.786C548.519 275.029 560.388 279.215 569.35 270.018C574.066 283.224 584.875 284.757 589.689 283.872C589.454 288.589 592.539 295.467 594.111 298.316C596.233 296.901 598.729 295.958 599.712 295.663C597.825 290.947 599.319 285.837 600.301 283.872C601.48 282.104 604.546 279.156 607.376 281.514C612.8 290.004 607.671 297.825 604.428 300.675Z" fill="white" stroke="black" stroke-width="0.589556"/>
<ellipse cx="562.791" cy="298.61" rx="10.612" ry="10.0224" fill="#FF96AC"/>
<path d="M526.294 312.272C529.728 312.08 532.959 310.78 535.276 308.657C537.592 306.534 538.806 303.763 538.649 300.953C538.492 298.143 536.977 295.524 534.438 293.673C531.899 291.821 528.543 290.889 525.11 291.081L525.702 301.677L526.294 312.272Z" fill="#FF96AC"/>
<path d="M526.312 299.494H534.271" stroke="black" stroke-width="1.17911" stroke-linecap="round" stroke-linejoin="round"/>
<path d="M554.316 296.253C557.166 296.253 563.69 295.899 566.991 294.484" stroke="black" stroke-width="1.17911" stroke-linecap="round" stroke-linejoin="round"/>
<path d="M549.894 334.281C551.171 334.477 554.374 334.576 556.968 333.396" stroke="black" stroke-width="1.17911" stroke-linecap="round" stroke-linejoin="round"/>
<path d="M562.864 322.488C563.847 322.98 565.812 324.493 565.812 326.615" stroke="black" stroke-width="1.17911" stroke-linecap="round" stroke-linejoin="round"/>
<path d="M544.884 330.15C549.698 330.052 560.212 329.03 563.75 325.729" stroke="black" stroke-width="1.17911" stroke-linecap="round" stroke-linejoin="round"/>
<path d="M539.282 295.367L539.577 320.423C542.033 321.111 547.949 321.956 551.958 319.834" stroke="black" stroke-width="1.17911" stroke-linecap="round" stroke-linejoin="round"/>
<path d="M551.073 298.405C548.546 297.52 542.651 296.439 539.282 299.202" stroke="black" stroke-width="1.17911" stroke-linecap="round" stroke-linejoin="round"/>
<path d="M589.394 288.588L576.425 295.073" stroke="black" stroke-width="1.17911" stroke-linecap="round" stroke-linejoin="round"/>
<path d="M604.722 282.396C602.954 283.576 599.829 286.464 601.48 288.586C603.543 291.239 605.902 290.355 605.902 294.776" stroke="black" stroke-width="0.884333" stroke-linecap="round" stroke-linejoin="round"/>
<path d="M566.107 344.598C587.567 337.523 594.799 321.212 595.585 313.646C598.179 333.927 576.719 351.378 565.812 357.863C568.642 351.732 567.188 346.465 566.107 344.598Z" fill="#FF96AC" stroke="#FF96AC" stroke-width="0.589556"/>
<circle cx="563.748" cy="299.497" r="12.9702" stroke="black" stroke-width="1.76867"/>
<circle cx="526.607" cy="303.034" r="12.9702" stroke="black" stroke-width="1.76867"/>
<ellipse cx="561.096" cy="297.138" rx="1.76855" ry="1.47379" fill="#020202"/>
<circle cx="530.439" cy="300.97" r="1.76855" fill="#020202"/>
<path d="M513.932 303.031L519.532 302.441" stroke="black" stroke-width="1.17911" stroke-linecap="round" stroke-linejoin="round"/>
<circle cx="124.825" cy="365.229" r="2.94758" fill="#010203"/>
<circle cx="143.691" cy="367.586" r="2.94758" fill="#010203"/>
<circle cx="133.667" cy="378.2" r="2.94758" fill="#010203"/>
<circle cx="125.414" cy="392.348" r="2.94758" fill="#010203"/>
<circle cx="143.1" cy="389.989" r="2.94758" fill="#010203"/>
<circle cx="137.205" cy="401.782" r="2.94758" fill="#010203"/>
<circle cx="125.414" cy="411.803" r="2.94758" fill="#010203"/>
<circle cx="135.437" cy="421.237" r="2.94758" fill="#010203"/>
<circle cx="147.818" cy="415.34" r="2.94758" fill="#010203"/>
<circle cx="160.787" cy="424.186" r="2.94758" fill="#010203"/>
<circle cx="173.758" cy="430.668" r="2.94758" fill="#010203"/>
<circle cx="148.408" cy="431.26" r="2.94758" fill="#010203"/>
<circle cx="123.646" cy="427.723" r="2.94758" fill="#010203"/>
<circle cx="133.667" cy="438.922" r="2.94758" fill="#010203"/>
<circle cx="118.929" cy="441.871" r="2.94758" fill="#010203"/>
<circle cx="88.2718" cy="553.295" r="2.94758" fill="#010203"/>
<circle cx="72.9437" cy="556.244" r="2.94758" fill="#010203"/>
<circle cx="54.6673" cy="559.194" r="2.94758" fill="#010203"/>
<circle cx="47.0032" cy="572.754" r="2.94758" fill="#010203"/>
<circle cx="63.5111" cy="569.805" r="2.94758" fill="#010203"/>
<circle cx="72.9437" cy="582.776" r="2.94758" fill="#010203"/>
<circle cx="80.0189" cy="569.805" r="2.94758" fill="#010203"/>
<circle cx="100.653" cy="563.91" r="2.94758" fill="#010203"/>
<circle cx="110.674" cy="550.348" r="2.94758" fill="#010203"/>
<circle cx="129.541" cy="547.401" r="2.94758" fill="#010203"/>
<circle cx="145.459" cy="555.065" r="2.94758" fill="#010203"/>
<circle cx="157.84" cy="549.17" r="2.94758" fill="#010203"/>
<circle cx="167.862" cy="541.504" r="2.94758" fill="#010203"/>
<circle cx="145.459" cy="538.559" r="2.94758" fill="#010203"/>
<circle cx="176.705" cy="479.014" r="2.94758" fill="#010203"/>
<circle cx="191.444" cy="463.686" r="2.94758" fill="#010203"/>
<circle cx="229.766" cy="398.834" r="2.94758" fill="#010203"/>
<circle cx="232.713" cy="381.145" r="2.94758" fill="#010203"/>
<circle cx="251.578" cy="381.145" r="2.94758" fill="#010203"/>
<circle cx="240.966" cy="389.989" r="2.94758" fill="#010203"/>
<circle cx="251.578" cy="398.834" r="2.94758" fill="#010203"/>
<circle cx="132.489" cy="532.662" r="2.94758" fill="#010203"/>
<circle cx="115.982" cy="535.61" r="2.94758" fill="#010203"/>
<circle cx="128.362" cy="562.141" r="2.94758" fill="#010203"/>
<circle cx="94.7571" cy="575.7" r="2.94758" fill="#010203"/>
<circle cx="110.674" cy="582.776" r="2.94758" fill="#010203"/>
<circle cx="88.8616" cy="588.67" r="2.94758" fill="#010203"/>
<circle cx="104.78" cy="594.565" r="2.94758" fill="#010203"/>
<circle cx="129.541" cy="589.26" r="2.94758" fill="#010203"/>
<circle cx="138.384" cy="575.7" r="2.94758" fill="#010203"/>
<circle cx="150.766" cy="589.26" r="2.94758" fill="#010203"/>
<circle cx="138.384" cy="600.461" r="2.94758" fill="#010203"/>
<circle cx="166.682" cy="594.565" r="2.94758" fill="#010203"/>
<circle cx="163.735" cy="578.649" r="2.94758" fill="#010203"/>
<circle cx="169.63" cy="559.194" r="2.94758" fill="#010203"/>
<path d="M157.249 242.013C161.807 231.8 176.206 212.587 197.339 217.432" stroke="white" stroke-width="1.17911" stroke-linecap="round" stroke-linejoin="round"/>
<path d="M171.989 285.639C178.019 271.127 197.425 246.251 226.818 262.835" stroke="white" stroke-width="1.17911" stroke-linecap="round" stroke-linejoin="round"/>
<path d="M584.384 475.769C584.384 478.03 582.422 479.896 579.962 479.896C577.502 479.896 575.541 478.03 575.541 475.769C575.541 473.508 577.502 471.642 579.962 471.642C582.422 471.642 584.384 473.508 584.384 475.769Z" stroke="#5949BC" stroke-width="0.589556"/>
<path d="M612.682 475.769C612.682 478.03 610.721 479.896 608.261 479.896C605.801 479.896 603.84 478.03 603.84 475.769C603.84 473.508 605.801 471.642 608.261 471.642C610.721 471.642 612.682 473.508 612.682 475.769Z" stroke="#5949BC" stroke-width="0.589556"/>
<path d="M640.981 475.769C640.981 478.03 639.02 479.896 636.56 479.896C634.1 479.896 632.139 478.03 632.139 475.769C632.139 473.508 634.1 471.642 636.56 471.642C639.02 471.642 640.981 473.508 640.981 475.769Z" stroke="#5949BC" stroke-width="0.589556"/>
<path d="M652.771 495.816C652.771 498.077 650.81 499.942 648.35 499.942C645.89 499.942 643.929 498.077 643.929 495.816C643.929 493.554 645.89 491.689 648.35 491.689C650.81 491.689 652.771 493.554 652.771 495.816Z" stroke="#5949BC" stroke-width="0.589556"/>
<path d="M625.062 495.816C625.062 498.077 623.101 499.942 620.641 499.942C618.181 499.942 616.22 498.077 616.22 495.816C616.22 493.554 618.181 491.689 620.641 491.689C623.101 491.689 625.062 493.554 625.062 495.816Z" stroke="#5949BC" stroke-width="0.589556"/>
<path d="M595.585 495.816C595.585 498.077 593.623 499.942 591.163 499.942C588.703 499.942 586.742 498.077 586.742 495.816C586.742 493.554 588.703 491.689 591.163 491.689C593.623 491.689 595.585 493.554 595.585 495.816Z" stroke="#5949BC" stroke-width="0.589556"/>
<path d="M567.876 495.816C567.876 498.077 565.914 499.942 563.454 499.942C560.994 499.942 559.033 498.077 559.033 495.816C559.033 493.554 560.994 491.689 563.454 491.689C565.914 491.689 567.876 493.554 567.876 495.816Z" stroke="#5949BC" stroke-width="0.589556"/>
<path d="M555.702 480.265C555.702 482.527 553.741 484.392 551.281 484.392C548.821 484.392 546.859 482.527 546.859 480.265C546.859 478.004 548.821 476.139 551.281 476.139C553.741 476.139 555.702 478.004 555.702 480.265Z" stroke="#5949BC" stroke-width="0.589556"/>
<path d="M540.167 495.816C540.167 498.077 538.205 499.942 535.745 499.942C533.285 499.942 531.324 498.077 531.324 495.816C531.324 493.554 533.285 491.689 535.745 491.689C538.205 491.689 540.167 493.554 540.167 495.816Z" stroke="#5949BC" stroke-width="0.589556"/>
<path d="M556.084 517.628C556.084 519.89 554.122 521.755 551.662 521.755C549.202 521.755 547.241 519.89 547.241 517.628C547.241 515.367 549.202 513.502 551.662 513.502C554.122 513.502 556.084 515.367 556.084 517.628Z" stroke="#5949BC" stroke-width="0.589556"/>
<path d="M584.384 517.628C584.384 519.89 582.422 521.755 579.962 521.755C577.502 521.755 575.541 519.89 575.541 517.628C575.541 515.367 577.502 513.502 579.962 513.502C582.422 513.502 584.384 515.367 584.384 517.628Z" stroke="#5949BC" stroke-width="0.589556"/>
<path d="M612.682 517.628C612.682 519.89 610.721 521.755 608.261 521.755C605.801 521.755 603.84 519.89 603.84 517.628C603.84 515.367 605.801 513.502 608.261 513.502C610.721 513.502 612.682 515.367 612.682 517.628Z" stroke="#5949BC" stroke-width="0.589556"/>
<path d="M652.771 453.367C652.771 455.628 650.81 457.493 648.35 457.493C645.89 457.493 643.929 455.628 643.929 453.367C643.929 451.105 645.89 449.24 648.35 449.24C650.81 449.24 652.771 451.105 652.771 453.367Z" stroke="#5949BC" stroke-width="0.589556"/>
<path d="M625.062 453.367C625.062 455.628 623.101 457.493 620.641 457.493C618.181 457.493 616.22 455.628 616.22 453.367C616.22 451.105 618.181 449.24 620.641 449.24C623.101 449.24 625.062 451.105 625.062 453.367Z" stroke="#5949BC" stroke-width="0.589556"/>
<path d="M595.585 453.367C595.585 455.628 593.623 457.493 591.163 457.493C588.703 457.493 586.742 455.628 586.742 453.367C586.742 451.105 588.703 449.24 591.163 449.24C593.623 449.24 595.585 451.105 595.585 453.367Z" stroke="#5949BC" stroke-width="0.589556"/>
<path d="M567.876 453.367C567.876 455.628 565.914 457.493 563.454 457.493C560.994 457.493 559.033 455.628 559.033 453.367C559.033 451.105 560.994 449.24 563.454 449.24C565.914 449.24 567.876 451.105 567.876 453.367Z" stroke="#5949BC" stroke-width="0.589556"/>
<path d="M556.084 435.091C556.084 437.353 554.122 439.218 551.662 439.218C549.202 439.218 547.241 437.353 547.241 435.091C547.241 432.83 549.202 430.965 551.662 430.965C554.122 430.965 556.084 432.83 556.084 435.091Z" stroke="#5949BC" stroke-width="0.589556"/>
<path d="M584.384 435.091C584.384 437.353 582.422 439.218 579.962 439.218C577.502 439.218 575.541 437.353 575.541 435.091C575.541 432.83 577.502 430.965 579.962 430.965C582.422 430.965 584.384 432.83 584.384 435.091Z" stroke="#5949BC" stroke-width="0.589556"/>
<path d="M612.682 435.091C612.682 437.353 610.721 439.218 608.261 439.218C605.801 439.218 603.84 437.353 603.84 435.091C603.84 432.83 605.801 430.965 608.261 430.965C610.721 430.965 612.682 432.83 612.682 435.091Z" stroke="#5949BC" stroke-width="0.589556"/>
<path d="M642.16 435.091C642.16 437.353 640.199 439.218 637.739 439.218C635.279 439.218 633.317 437.353 633.317 435.091C633.317 432.83 635.279 430.965 637.739 430.965C640.199 430.965 642.16 432.83 642.16 435.091Z" stroke="#5949BC" stroke-width="0.589556"/>
<path d="M652.771 413.279C652.771 415.54 650.81 417.405 648.35 417.405C645.89 417.405 643.929 415.54 643.929 413.279C643.929 411.017 645.89 409.152 648.35 409.152C650.81 409.152 652.771 411.017 652.771 413.279Z" stroke="#5949BC" stroke-width="0.589556"/>
<path d="M625.062 413.279C625.062 415.54 623.101 417.405 620.641 417.405C618.181 417.405 616.22 415.54 616.22 413.279C616.22 411.017 618.181 409.152 620.641 409.152C623.101 409.152 625.062 411.017 625.062 413.279Z" stroke="#5949BC" stroke-width="0.589556"/>
<path d="M595.585 413.279C595.585 415.54 593.623 417.405 591.163 417.405C588.703 417.405 586.742 415.54 586.742 413.279C586.742 411.017 588.703 409.152 591.163 409.152C593.623 409.152 595.585 411.017 595.585 413.279Z" stroke="#5949BC" stroke-width="0.589556"/>
<path d="M567.876 413.279C567.876 415.54 565.914 417.405 563.454 417.405C560.994 417.405 559.033 415.54 559.033 413.279C559.033 411.017 560.994 409.152 563.454 409.152C565.914 409.152 567.876 411.017 567.876 413.279Z" stroke="#5949BC" stroke-width="0.589556"/>
<path d="M547.858 413.16C547.858 415.421 545.897 417.286 543.437 417.286C540.977 417.286 539.015 415.421 539.015 413.16C539.015 410.898 540.977 409.033 543.437 409.033C545.897 409.033 547.858 410.898 547.858 413.16Z" stroke="#5949BC" stroke-width="0.589556"/>
<path d="M527.197 391.464C527.197 393.726 525.236 395.591 522.776 395.591C520.316 395.591 518.354 393.726 518.354 391.464C518.354 389.203 520.316 387.338 522.776 387.338C525.236 387.338 527.197 389.203 527.197 391.464Z" stroke="#5949BC" stroke-width="0.589556"/>
<path d="M537.808 371.417C537.808 373.679 535.847 375.544 533.387 375.544C530.927 375.544 528.966 373.679 528.966 371.417C528.966 369.156 530.927 367.291 533.387 367.291C535.847 367.291 537.808 369.156 537.808 371.417Z" stroke="#5949BC" stroke-width="0.589556"/>
<path d="M510.099 413.279C510.099 415.54 508.138 417.405 505.678 417.405C503.218 417.405 501.257 415.54 501.257 413.279C501.257 411.017 503.218 409.152 505.678 409.152C508.138 409.152 510.099 411.017 510.099 413.279Z" stroke="#5949BC" stroke-width="0.589556"/>
<path d="M556.084 392.644C556.084 394.905 554.122 396.771 551.662 396.771C549.202 396.771 547.241 394.905 547.241 392.644C547.241 390.383 549.202 388.517 551.662 388.517C554.122 388.517 556.084 390.383 556.084 392.644Z" stroke="#5949BC" stroke-width="0.589556"/>
<path d="M642.16 392.644C642.16 394.905 640.199 396.771 637.739 396.771C635.279 396.771 633.317 394.905 633.317 392.644C633.317 390.383 635.279 388.517 637.739 388.517C640.199 388.517 642.16 390.383 642.16 392.644Z" stroke="#5949BC" stroke-width="0.589556"/>
<path d="M657.488 370.83C657.488 373.091 655.527 374.956 653.067 374.956C650.607 374.956 648.645 373.091 648.645 370.83C648.645 368.568 650.607 366.703 653.067 366.703C655.527 366.703 657.488 368.568 657.488 370.83Z" stroke="#5949BC" stroke-width="0.589556"/>
<path d="M670.459 392.644C670.459 394.905 668.497 396.771 666.037 396.771C663.577 396.771 661.616 394.905 661.616 392.644C661.616 390.383 663.577 388.517 666.037 388.517C668.497 388.517 670.459 390.383 670.459 392.644Z" stroke="#5949BC" stroke-width="0.589556"/>
<path d="M684.018 370.83C684.018 373.091 682.057 374.956 679.597 374.956C677.137 374.956 675.176 373.091 675.176 370.83C675.176 368.568 677.137 366.703 679.597 366.703C682.057 366.703 684.018 368.568 684.018 370.83Z" stroke="#5949BC" stroke-width="0.589556"/>
<path d="M669.28 350.785C669.28 353.046 667.319 354.911 664.859 354.911C662.399 354.911 660.437 353.046 660.437 350.785C660.437 348.523 662.399 346.658 664.859 346.658C667.319 346.658 669.28 348.523 669.28 350.785Z" stroke="#5949BC" stroke-width="0.589556"/>
<path d="M698.757 391.464C698.757 393.726 696.795 395.591 694.335 395.591C691.875 395.591 689.914 393.726 689.914 391.464C689.914 389.203 691.875 387.338 694.335 387.338C696.795 387.338 698.757 389.203 698.757 391.464Z" stroke="#5949BC" stroke-width="0.589556"/>
<path d="M712.317 372.007C712.317 374.269 710.356 376.134 707.896 376.134C705.436 376.134 703.474 374.269 703.474 372.007C703.474 369.746 705.436 367.881 707.896 367.881C710.356 367.881 712.317 369.746 712.317 372.007Z" stroke="#5949BC" stroke-width="0.589556"/>
<path d="M725.877 391.464C725.877 393.726 723.915 395.591 721.455 395.591C718.995 395.591 717.034 393.726 717.034 391.464C717.034 389.203 718.995 387.338 721.455 387.338C723.915 387.338 725.877 389.203 725.877 391.464Z" stroke="#5949BC" stroke-width="0.589556"/>
<path d="M680.481 412.099C680.481 414.361 678.52 416.226 676.06 416.226C673.6 416.226 671.639 414.361 671.639 412.099C671.639 409.838 673.6 407.973 676.06 407.973C678.52 407.973 680.481 409.838 680.481 412.099Z" stroke="#5949BC" stroke-width="0.589556"/>
<path d="M709.959 412.099C709.959 414.361 707.997 416.226 705.537 416.226C703.077 416.226 701.116 414.361 701.116 412.099C701.116 409.838 703.077 407.973 705.537 407.973C707.997 407.973 709.959 409.838 709.959 412.099Z" stroke="#5949BC" stroke-width="0.589556"/>
<path d="M736.488 412.099C736.488 414.361 734.527 416.226 732.067 416.226C729.607 416.226 727.645 414.361 727.645 412.099C727.645 409.838 729.607 407.973 732.067 407.973C734.527 407.973 736.488 409.838 736.488 412.099Z" stroke="#5949BC" stroke-width="0.589556"/>
<path d="M725.877 435.091C725.877 437.353 723.915 439.218 721.455 439.218C718.995 439.218 717.034 437.353 717.034 435.091C717.034 432.83 718.995 430.965 721.455 430.965C723.915 430.965 725.877 432.83 725.877 435.091Z" stroke="#5949BC" stroke-width="0.589556"/>
<path d="M697.578 435.091C697.578 437.353 695.617 439.218 693.157 439.218C690.697 439.218 688.735 437.353 688.735 435.091C688.735 432.83 690.697 430.965 693.157 430.965C695.617 430.965 697.578 432.83 697.578 435.091Z" stroke="#5949BC" stroke-width="0.589556"/>
<path d="M675.97 434.947C675.97 437.208 674.009 439.073 671.549 439.073C669.089 439.073 667.128 437.208 667.128 434.947C667.128 432.685 669.089 430.82 671.549 430.82C674.009 430.82 675.97 432.685 675.97 434.947Z" stroke="#5949BC" stroke-width="0.589556"/>
<path d="M682.25 453.367C682.25 455.628 680.288 457.493 677.828 457.493C675.368 457.493 673.407 455.628 673.407 453.367C673.407 451.105 675.368 449.24 677.828 449.24C680.288 449.24 682.25 451.105 682.25 453.367Z" stroke="#5949BC" stroke-width="0.589556"/>
<path d="M709.959 453.367C709.959 455.628 707.997 457.493 705.537 457.493C703.077 457.493 701.116 455.628 701.116 453.367C701.116 451.105 703.077 449.24 705.537 449.24C707.997 449.24 709.959 451.105 709.959 453.367Z" stroke="#5949BC" stroke-width="0.589556"/>
<path d="M735.309 453.367C735.309 455.628 733.348 457.493 730.888 457.493C728.428 457.493 726.467 455.628 726.467 453.367C726.467 451.105 728.428 449.24 730.888 449.24C733.348 449.24 735.309 451.105 735.309 453.367Z" stroke="#5949BC" stroke-width="0.589556"/>
<path d="M760.661 453.367C760.661 455.628 758.7 457.493 756.24 457.493C753.78 457.493 751.818 455.628 751.818 453.367C751.818 451.105 753.78 449.24 756.24 449.24C758.7 449.24 760.661 451.105 760.661 453.367Z" stroke="#5949BC" stroke-width="0.589556"/>
<path d="M751.228 435.091C751.228 437.353 749.267 439.218 746.807 439.218C744.347 439.218 742.386 437.353 742.386 435.091C742.386 432.83 744.347 430.965 746.807 430.965C749.267 430.965 751.228 432.83 751.228 435.091Z" stroke="#5949BC" stroke-width="0.589556"/>
<path d="M725.877 475.769C725.877 478.03 723.915 479.896 721.455 479.896C718.995 479.896 717.034 478.03 717.034 475.769C717.034 473.508 718.995 471.642 721.455 471.642C723.915 471.642 725.877 473.508 725.877 475.769Z" stroke="#5949BC" stroke-width="0.589556"/>
<path d="M698.757 475.769C698.757 478.03 696.795 479.896 694.335 479.896C691.875 479.896 689.914 478.03 689.914 475.769C689.914 473.508 691.875 471.642 694.335 471.642C696.795 471.642 698.757 473.508 698.757 475.769Z" stroke="#5949BC" stroke-width="0.589556"/>
<path d="M751.228 475.769C751.228 478.03 749.267 479.896 746.807 479.896C744.347 479.896 742.386 478.03 742.386 475.769C742.386 473.508 744.347 471.642 746.807 471.642C749.267 471.642 751.228 473.508 751.228 475.769Z" stroke="#5949BC" stroke-width="0.589556"/>
<path d="M736.488 494.636C736.488 496.898 734.527 498.763 732.067 498.763C729.607 498.763 727.645 496.898 727.645 494.636C727.645 492.375 729.607 490.51 732.067 490.51C734.527 490.51 736.488 492.375 736.488 494.636Z" stroke="#5949BC" stroke-width="0.589556"/>
<path d="M709.959 498.763C709.959 501.025 707.997 502.89 705.537 502.89C703.077 502.89 701.116 501.025 701.116 498.763C701.116 496.502 703.077 494.637 705.537 494.637C707.997 494.637 709.959 496.502 709.959 498.763Z" stroke="#5949BC" stroke-width="0.589556"/>
<path d="M669.869 586.605C669.869 588.866 667.908 590.732 665.448 590.732C662.988 590.732 661.026 588.866 661.026 586.605C661.026 584.344 662.988 582.478 665.448 582.478C667.908 582.478 669.869 584.344 669.869 586.605Z" stroke="#5949BC" stroke-width="0.589556"/>
<path d="M640.981 586.605C640.981 588.866 639.02 590.732 636.56 590.732C634.1 590.732 632.139 588.866 632.139 586.605C632.139 584.344 634.1 582.478 636.56 582.478C639.02 582.478 640.981 584.344 640.981 586.605Z" stroke="#5949BC" stroke-width="0.589556"/>
<path d="M612.093 586.605C612.093 588.866 610.131 590.732 607.671 590.732C605.211 590.732 603.25 588.866 603.25 586.605C603.25 584.344 605.211 582.478 607.671 582.478C610.131 582.478 612.093 584.344 612.093 586.605Z" stroke="#5949BC" stroke-width="0.589556"/>
<path d="M625.062 607.832C625.062 610.093 623.101 611.958 620.641 611.958C618.181 611.958 616.22 610.093 616.22 607.832C616.22 605.57 618.181 603.705 620.641 603.705C623.101 603.705 625.062 605.57 625.062 607.832Z" stroke="#5949BC" stroke-width="0.589556"/>
<path d="M652.771 607.832C652.771 610.093 650.81 611.958 648.35 611.958C645.89 611.958 643.929 610.093 643.929 607.832C643.929 605.57 645.89 603.705 648.35 603.705C650.81 603.705 652.771 605.57 652.771 607.832Z" stroke="#5949BC" stroke-width="0.589556"/>
<path d="M680.481 607.832C680.481 610.093 678.52 611.958 676.06 611.958C673.6 611.958 671.639 610.093 671.639 607.832C671.639 605.57 673.6 603.705 676.06 603.705C678.52 603.705 680.481 605.57 680.481 607.832Z" stroke="#5949BC" stroke-width="0.589556"/>
<path d="M708.189 607.832C708.189 610.093 706.228 611.958 703.768 611.958C701.308 611.958 699.347 610.093 699.347 607.832C699.347 605.57 701.308 603.705 703.768 603.705C706.228 603.705 708.189 605.57 708.189 607.832Z" stroke="#5949BC" stroke-width="0.589556"/>
<path d="M735.899 607.832C735.899 610.093 733.938 611.958 731.478 611.958C729.018 611.958 727.056 610.093 727.056 607.832C727.056 605.57 729.018 603.705 731.478 603.705C733.938 603.705 735.899 605.57 735.899 607.832Z" stroke="#5949BC" stroke-width="0.589556"/>
<path d="M586.152 586.605C586.152 588.866 584.191 590.732 581.731 590.732C579.271 590.732 577.309 588.866 577.309 586.605C577.309 584.344 579.271 582.478 581.731 582.478C584.191 582.478 586.152 584.344 586.152 586.605Z" stroke="#5949BC" stroke-width="0.589556"/>
<path d="M556.084 586.605C556.084 588.866 554.122 590.732 551.662 590.732C549.202 590.732 547.241 588.866 547.241 586.605C547.241 584.344 549.202 582.478 551.662 582.478C554.122 582.478 556.084 584.344 556.084 586.605Z" stroke="#5949BC" stroke-width="0.589556"/>
<path d="M526.017 586.605C526.017 588.866 524.056 590.732 521.596 590.732C519.136 590.732 517.175 588.866 517.175 586.605C517.175 584.344 519.136 582.478 521.596 582.478C524.056 582.478 526.017 584.344 526.017 586.605Z" stroke="#5949BC" stroke-width="0.589556"/>
<path d="M540.167 607.832C540.167 610.093 538.205 611.958 535.745 611.958C533.285 611.958 531.324 610.093 531.324 607.832C531.324 605.57 533.285 603.705 535.745 603.705C538.205 603.705 540.167 605.57 540.167 607.832Z" stroke="#5949BC" stroke-width="0.589556"/>
<path d="M567.876 607.832C567.876 610.093 565.914 611.958 563.454 611.958C560.994 611.958 559.033 610.093 559.033 607.832C559.033 605.57 560.994 603.705 563.454 603.705C565.914 603.705 567.876 605.57 567.876 607.832Z" stroke="#5949BC" stroke-width="0.589556"/>
<path d="M682.25 495.816C682.25 498.077 680.288 499.942 677.828 499.942C675.368 499.942 673.407 498.077 673.407 495.816C673.407 493.554 675.368 491.689 677.828 491.689C680.288 491.689 682.25 493.554 682.25 495.816Z" stroke="#5949BC" stroke-width="0.589556"/>
<path d="M722.929 588.669C770.329 589.14 778.838 543.863 777.168 521.165C769.15 523.994 760.071 516.645 756.533 512.616C752.21 507.114 738.906 497.7 720.276 504.068C697.165 512.793 682.544 510.454 678.123 508.194L679.007 512.616L620.641 524.407C594.406 535.609 548.715 524.997 542.82 524.407C538.103 523.936 533.583 526.569 531.913 527.945C525.133 540.522 511.514 566.678 511.278 570.687C515.287 574.932 520.809 572.849 523.069 571.277L519.532 579.825C528.022 585.249 534.861 578.548 537.219 574.519C543.35 581.358 550.779 574.225 553.726 569.803C555.055 573.79 558.129 573.332 560.302 572.181C561.267 571.671 561.941 570.775 562.466 569.819C565.13 564.966 569.626 557.943 571.118 560.075C574.42 580.592 593.718 570.786 602.954 563.318C623.196 571.572 675.529 588.197 722.929 588.669Z" fill="white" stroke="black" stroke-width="1.17911" stroke-linecap="round" stroke-linejoin="round"/>
<path d="M553.736 569.93L559.327 553.887" stroke="black" stroke-width="1.17911" stroke-linecap="round" stroke-linejoin="round"/>
<path d="M559.103 567.208C557.611 565.841 556.111 565.796 555.495 565.972C551.722 573.282 556.547 573.563 559.2 572.581L559.557 568.48C559.598 568.008 559.453 567.529 559.103 567.208Z" fill="#F999AE" stroke="black" stroke-width="0.589556"/>
<path d="M541.05 566.562C543.507 566.661 547.286 569.157 543.513 576.938C539.976 578.019 534.684 577.174 541.05 566.562Z" fill="#F999AE" stroke="black" stroke-width="0.589556"/>
<path d="M519.827 578.94L523.954 569.803C530.144 569.803 527.491 575.403 525.133 581.298C521.36 582.242 520.024 580.119 519.827 578.94Z" fill="#F999AE" stroke="black" stroke-width="0.589556"/>
<path d="M518.77 562.936L517.339 562.22C516.567 561.834 515.62 562.076 515.146 562.797C508.626 572.692 513.681 573.399 517.175 572.455L519.644 565.046C519.918 564.223 519.546 563.324 518.77 562.936Z" fill="#F999AE" stroke="black" stroke-width="0.589556"/>
<path d="M522.774 571.868L536.039 545.633" stroke="black" stroke-width="1.17911" stroke-linecap="round" stroke-linejoin="round"/>
<path d="M537.219 574.814L548.42 550.053" stroke="black" stroke-width="1.17911" stroke-linecap="round" stroke-linejoin="round"/>
<path d="M75.4853 589.85C69.7863 594.566 55.3225 603.763 43.0598 602.82C39.3259 606.947 32.2119 618.266 33.6269 630.529" stroke="black" stroke-width="1.17911" stroke-linecap="round" stroke-linejoin="round"/>
<circle cx="473.252" cy="554.477" r="1.9159" stroke="black" stroke-width="0.884333"/>
</svg>
