<svg width="323" height="391" viewBox="0 0 323 391" fill="none" xmlns="http://www.w3.org/2000/svg">
<path d="M135.889 1.25857C105.356 8.32524 88.5556 23.9252 74.8223 57.7919C71.089 66.7252 66.4223 85.9252 65.889 93.3919C65.889 95.2586 64.8223 94.1919 62.8223 90.0586C60.289 84.9919 59.2223 84.0586 55.489 83.6586C51.6223 83.2586 50.9556 83.6586 48.9556 88.3252C46.8223 93.3919 45.889 100.725 47.3556 100.725C48.1556 100.725 48.5556 106.059 48.9556 122.325C49.2223 130.459 50.8223 132.059 54.689 128.059C55.889 126.992 56.1556 126.059 55.489 126.059C54.8223 126.059 54.289 121.259 54.4223 115.525C54.5556 109.659 54.1556 105.259 53.489 105.659C52.0223 106.592 52.8223 97.6586 54.4223 95.5252C55.6223 93.9252 55.489 93.7919 54.0223 94.7252C52.5556 95.5252 52.289 95.2586 52.9556 93.5252C53.489 92.1919 53.889 90.5919 53.889 89.9252C53.889 89.2586 54.8223 88.7252 56.0223 88.7252C57.3556 88.7252 57.889 89.3919 57.3556 90.8586C56.9556 92.0586 57.089 92.4586 58.0223 91.9252C58.9556 91.3919 59.3556 92.4586 59.089 94.8586C58.8223 96.9919 59.089 99.3919 59.6223 100.192C60.0223 100.992 60.689 104.725 61.089 108.459C61.489 112.325 62.0223 115.792 62.289 116.459C62.689 116.992 63.3556 122.192 63.7556 128.059C64.8223 141.392 65.489 143.392 68.689 143.392C70.4223 143.392 71.2223 142.459 71.2223 140.192C71.2223 138.459 72.0223 136.592 72.9556 136.325C73.889 135.925 74.0223 135.525 73.089 135.525C71.089 135.392 72.289 129.259 74.8223 127.259C77.889 124.592 79.7556 127.925 79.889 136.325C80.1556 146.459 79.089 155.525 77.889 154.725C77.2223 154.325 77.089 155.125 77.489 156.459C77.7556 157.792 77.3556 160.592 76.4223 162.725C75.489 164.992 74.8223 167.125 74.9556 167.659C75.089 168.325 74.5556 168.725 73.889 168.725C73.2223 168.725 72.689 169.125 72.8223 169.659C73.2223 171.925 69.7556 178.192 68.5556 177.392C67.889 176.992 67.6223 177.392 68.0223 178.459C68.4223 179.659 67.489 181.392 65.7556 182.459L62.8223 184.592L66.289 185.392C69.7556 186.325 72.5556 191.525 72.5556 196.992C72.5556 198.459 74.289 201.792 76.5556 204.459C84.4223 214.325 87.489 229.125 87.3556 257.392C87.3556 268.325 86.689 281.792 85.889 287.125C85.089 293.259 84.9556 297.792 85.7556 299.125C86.8223 301.125 87.2223 300.859 88.4223 297.659C89.2223 295.525 89.889 292.992 89.889 291.792C89.889 288.992 104.822 266.459 115.089 253.792C124.689 241.792 140.822 226.592 150.956 219.925C154.689 217.392 157.889 214.992 157.889 214.725C157.889 214.325 156.556 211.525 154.956 208.459C152.822 204.459 152.022 200.592 152.022 195.392C152.156 185.925 154.289 181.659 158.289 182.859C162.556 184.192 187.089 183.792 194.289 182.059C197.889 181.259 203.756 179.125 207.489 177.259C215.222 173.392 216.156 173.792 220.689 183.125C222.956 187.925 223.622 191.525 223.489 198.992L223.356 208.592L232.956 214.192C278.022 240.059 303.356 265.792 311.756 293.925C320.956 325.259 308.822 352.859 279.889 366.459C259.756 375.925 257.622 378.059 268.289 378.059C283.622 378.059 307.489 360.459 315.756 342.859C321.089 331.525 322.289 326.192 322.022 311.925C321.889 300.725 318.689 287.525 313.622 277.392C302.422 255.259 278.156 231.792 249.622 215.525C245.222 212.992 243.356 211.259 244.556 210.859C252.156 208.325 299.622 190.059 300.156 189.659C300.822 188.992 290.689 162.592 280.289 137.392C269.089 110.459 248.156 68.8586 238.289 54.0586C219.756 26.3252 198.022 9.25857 173.489 2.59191C162.956 -0.208093 145.222 -0.874759 135.889 1.25857ZM137.889 55.2586C137.889 55.7919 138.689 56.3252 139.622 56.4586C145.622 56.9919 152.422 58.5919 152.022 59.2586C151.622 59.7919 153.889 60.3252 156.956 60.4586C160.022 60.5919 164.956 60.8586 167.889 61.1252C170.822 61.3919 176.022 61.6586 179.489 61.7919L185.889 62.0586L183.222 66.3252C181.756 68.7252 180.556 72.4586 180.556 74.4586C180.556 76.7252 180.022 77.9252 179.089 77.3919C176.822 75.9252 181.756 86.5919 184.556 88.9919C189.489 93.1252 195.889 88.3252 194.156 81.7919C193.356 78.7252 188.822 75.3919 186.556 76.3252C185.356 76.7252 184.822 75.9252 185.089 73.7919C185.489 70.7252 188.422 64.3252 188.556 66.3252C188.556 66.8586 190.022 65.7919 191.889 63.9252C195.222 60.5919 202.822 59.7919 204.822 62.7252C205.489 63.5252 205.889 63.5252 205.889 62.4586C205.889 61.1252 206.689 61.1252 209.222 62.3252C210.956 63.1252 212.156 64.3252 211.622 64.9919C211.222 65.7919 212.156 65.6586 213.756 64.7252C216.156 63.5252 216.422 62.8586 215.089 61.2586C213.489 59.2586 213.489 59.2586 221.222 58.8586C224.956 58.7252 225.622 59.5252 230.822 70.0586C234.022 76.3252 236.289 82.7252 236.022 84.3252C235.756 85.9252 236.022 86.9919 236.689 86.7252C238.156 85.7919 240.822 100.859 240.956 111.392C241.089 118.192 239.222 130.459 237.756 132.192C237.089 132.992 236.956 134.059 237.489 134.459C237.889 134.992 237.622 135.392 236.822 135.392C236.022 135.392 235.622 136.325 236.022 137.392C236.556 138.459 236.289 139.392 235.622 139.392C234.956 139.392 234.289 140.192 234.289 141.125C234.289 144.192 226.956 155.392 225.622 154.459C224.822 154.059 224.556 154.192 224.956 154.992C226.156 156.992 212.289 170.459 209.756 169.659C209.356 169.525 207.889 170.459 206.556 171.792C205.222 173.125 203.089 173.925 201.622 173.659C200.156 173.259 199.622 173.525 200.022 174.325C200.556 175.125 200.156 175.525 199.089 175.125C198.022 174.725 196.556 175.259 195.622 176.192C194.689 176.992 191.889 177.659 189.222 177.525C186.689 177.392 184.556 177.792 184.556 178.459C184.556 179.392 174.022 178.992 162.289 177.525C155.889 176.859 145.889 173.659 145.889 172.325C145.889 171.792 145.356 171.525 144.689 172.059C143.356 172.725 133.622 167.659 132.822 165.792C132.556 165.259 131.489 164.725 130.422 164.725C129.356 164.725 128.156 163.792 127.756 162.725C127.222 161.659 126.422 160.992 125.889 161.392C125.222 161.792 123.756 160.725 122.556 159.125C121.489 157.392 120.156 156.325 119.889 156.592C119.489 156.859 117.756 156.592 116.156 156.059C114.556 155.525 110.422 154.992 106.822 154.859C99.3556 154.459 92.1556 149.392 88.1556 141.525C85.089 135.659 84.0223 123.659 86.289 120.859C87.2223 119.792 87.6223 118.859 87.3556 118.859C85.3556 118.325 89.489 112.325 92.9556 110.459C98.8223 107.525 104.956 108.059 110.956 112.059C115.489 115.125 116.022 115.259 117.622 113.125C118.422 111.925 119.222 110.059 119.222 108.992C119.222 108.059 119.889 107.659 120.822 108.192C121.756 108.725 121.889 108.592 121.356 107.659C120.822 106.859 121.356 103.125 122.422 99.5252C123.489 95.9252 124.022 92.5919 123.622 92.1919C123.089 91.7919 123.356 91.3919 124.022 91.3919C125.089 91.3919 125.356 89.7919 125.889 78.9919C126.022 76.9919 126.556 75.6586 127.089 75.9252C127.622 76.3252 127.889 74.4586 127.756 71.9252C127.489 69.3919 127.889 67.3919 128.689 67.3919C129.489 67.3919 129.622 66.7252 129.222 66.0586C128.822 65.2586 129.222 64.7252 130.156 64.7252C131.356 64.7252 131.489 64.3252 130.422 63.6586C128.822 62.5919 128.689 56.9919 130.289 54.5919C131.222 52.9919 137.889 53.6586 137.889 55.2586ZM121.756 237.659C113.489 246.592 107.222 254.459 99.489 265.925L92.689 275.659L92.289 255.525C92.0223 242.725 92.4223 235.392 93.2223 235.259C96.0223 235.125 126.556 231.659 127.089 231.525C127.356 231.525 124.956 234.192 121.756 237.659Z" fill="#1A1A1A"/>
<path d="M140.956 64.3234C138.422 64.8567 138.289 65.39 139.356 68.7234C140.822 72.59 142.156 72.8567 150.289 70.7234C153.089 69.9234 153.889 68.99 153.622 66.8567C153.356 64.7234 152.289 64.0567 148.556 63.9234C146.022 63.79 142.556 63.9234 140.956 64.3234Z" fill="#1A1A1A"/>
<path d="M160.423 77.258C160.156 77.5247 157.489 77.9247 154.556 78.1913C148.556 78.5913 142.956 80.9913 139.089 84.858C137.756 86.1913 136.823 87.3913 137.223 87.3913C137.623 87.3913 136.956 88.858 135.756 90.858C132.556 95.658 132.289 105.258 135.356 108.458C136.689 109.925 137.356 111.525 136.823 112.191C136.289 112.725 136.556 112.858 137.223 112.458C138.023 112.058 139.756 112.191 141.223 112.725C142.956 113.391 144.689 112.725 146.823 110.325C149.623 107.391 149.623 106.858 147.889 103.391C146.823 101.391 146.423 99.3913 146.823 98.858C147.223 98.458 145.756 97.658 143.489 97.258C139.623 96.458 137.223 92.7247 140.556 92.7247C141.356 92.7247 141.889 91.9247 141.889 90.9913C141.889 90.058 143.223 88.1913 144.956 86.7247C147.223 84.7247 149.623 84.1913 155.889 84.3247C160.289 84.458 165.089 84.7247 166.556 84.9913C170.156 85.5247 170.956 83.1247 167.756 81.3913C166.289 80.7247 164.823 79.3913 164.289 78.7247C163.623 77.7913 163.223 77.7913 163.223 78.7247C163.223 79.3913 162.689 79.258 162.156 78.3247C161.489 77.3913 160.823 76.9913 160.423 77.258Z" fill="#1A1A1A"/>
<path d="M182.289 110.993C179.622 111.926 180.289 114.86 183.889 119.26C187.622 123.526 192.156 123.793 189.889 119.393C189.223 118.193 189.089 116.593 189.623 116.06C190.156 115.393 189.889 115.393 189.089 115.793C187.356 116.726 182.822 112.326 184.156 110.993C185.089 109.926 184.689 109.926 182.289 110.993Z" fill="#1A1A1A"/>
<path d="M199.889 139.392C199.356 141.526 197.889 144.059 196.556 144.726C193.356 146.459 192.156 146.459 193.223 144.726C193.623 144.059 193.223 143.792 192.156 144.192C191.089 144.592 189.756 144.326 189.223 143.526C188.023 141.526 184.423 141.659 184.956 143.659C185.356 146.059 187.756 148.592 188.956 147.792C189.489 147.526 189.889 147.926 189.889 148.726C189.889 149.526 190.556 149.792 191.223 149.392C192.023 148.992 192.556 149.126 192.556 149.926C192.556 151.526 200.423 148.992 202.556 146.859C204.423 144.859 204.289 136.459 202.289 135.792C201.489 135.526 200.423 137.126 199.889 139.392Z" fill="#1A1A1A"/>
<path d="M40.0222 84.7245C38.8222 87.6578 37.6222 92.4578 37.2222 95.5245C36.8222 98.5911 36.1555 101.524 35.7555 102.191C35.3555 102.858 35.6222 103.391 36.4222 103.391C37.2222 103.391 37.7555 107.391 37.7555 112.991C37.7555 122.591 38.2889 126.191 40.0222 131.658C41.6222 136.858 43.3556 130.724 42.6889 122.724C42.1555 117.391 42.4222 115.391 43.6222 115.391C44.6889 115.391 44.6889 114.991 43.3556 114.191C41.0889 112.724 41.7556 86.9911 44.2889 84.4578C46.4222 82.3245 46.2889 79.3911 44.0222 79.3911C42.9556 79.3911 41.2222 81.7911 40.0222 84.7245Z" fill="#1A1A1A"/>
<path d="M29.089 85.3904C28.1557 87.9238 27.2224 93.3904 27.2224 97.6571L27.089 105.39L23.3557 98.0571C20.8224 92.9904 18.8224 90.5904 16.8224 90.3238C1.75568 88.0571 20.0224 163.257 38.689 180.857C41.3557 183.39 41.489 183.924 39.7557 187.124C37.3557 191.79 37.2224 202.457 39.6224 201.79C40.4224 201.39 41.489 198.324 41.889 194.99C42.8224 187.39 44.4224 185.524 48.689 187.124C52.8224 188.59 60.8224 187.257 61.6224 184.857C62.0224 183.524 61.2224 183.257 58.1557 184.057C53.489 184.99 41.089 180.324 42.5557 178.057C42.9557 177.39 42.5557 176.724 41.6224 176.724C40.689 176.724 38.9557 175.39 37.889 173.657C33.7557 167.39 26.0224 150.857 26.689 149.79C27.089 149.257 26.689 148.724 25.7557 148.724C24.8224 148.724 24.4224 148.324 24.8224 147.924C25.3557 147.524 24.8224 145.124 23.7557 142.59C22.689 140.057 22.1557 137.39 22.5557 136.724C22.9557 136.19 22.689 135.39 22.0224 135.124C21.2224 134.99 20.5557 132.324 20.289 129.39C20.0224 126.457 19.489 123.79 19.089 123.39C17.889 122.457 15.6224 107.79 15.7557 101.924C15.889 99.3904 16.5557 97.1238 17.2224 96.8571C18.5557 96.3238 23.089 106.857 23.889 112.057C24.0224 113.524 24.5557 115.657 24.8224 116.724C27.089 122.99 29.2224 130.857 28.9557 131.657C28.8224 132.057 29.6224 132.857 30.689 133.257C32.4224 133.924 32.689 131.39 31.889 111.657C31.3557 93.9238 31.6224 88.7238 33.089 85.7904C34.1557 83.7904 34.689 81.9238 34.1557 81.5238C32.5557 79.7904 30.9557 80.9904 29.089 85.3904Z" fill="#1A1A1A"/>
<path d="M206.956 184.057C206.556 184.457 207.089 187.39 208.156 190.457C209.222 193.523 209.756 197.79 209.356 200.057C208.422 204.857 209.489 206.723 212.156 204.59C214.422 202.59 214.422 193.79 212.022 188.057C210.156 183.657 208.556 182.457 206.956 184.057Z" fill="#1A1A1A"/>
<path d="M164.556 197.792C164.556 202.325 165.356 205.392 167.089 207.525C170.822 212.058 171.756 209.925 169.356 202.858C168.156 199.392 167.222 195.792 167.222 194.725C167.222 193.792 166.689 192.458 165.889 192.058C165.089 191.525 164.556 193.792 164.556 197.792Z" fill="#1A1A1A"/>
<path d="M195.889 197.526C196.955 204.859 198.689 207.659 200.022 204.326C201.089 201.259 198.822 192.326 196.822 191.659C195.355 191.259 195.222 192.593 195.889 197.526Z" fill="#1A1A1A"/>
<path d="M64.5557 197.257C64.5557 199.79 65.089 202.19 65.7557 202.59C67.2223 203.523 68.5557 198.857 67.6223 195.39C66.4223 191.123 64.5557 192.323 64.5557 197.257Z" fill="#1A1A1A"/>
<path d="M46.4224 195.925C45.3557 198.591 46.2891 202.191 47.8891 202.458C48.6891 202.591 49.3557 200.725 49.6224 198.325C50.0224 194.058 47.7557 192.325 46.4224 195.925Z" fill="#1A1A1A"/>
<path d="M56.1555 194.86C55.6222 195.393 55.2222 197.526 55.2222 199.66C55.2222 204.326 58.2888 204.193 58.9555 199.526C59.4888 196.193 57.6222 193.393 56.1555 194.86Z" fill="#1A1A1A"/>
<path d="M179.889 195.391C178.422 197.657 181.889 207.391 184.022 207.391C185.356 207.391 185.889 206.591 185.489 205.524C185.089 204.457 184.289 201.391 183.756 198.857C182.956 194.057 181.489 192.857 179.889 195.391Z" fill="#1A1A1A"/>
<path d="M28.289 209.925C10.9557 229.125 0.0223586 266.725 0.0223586 307.392C-0.110975 325.525 0.289025 329.125 2.95569 336.592C11.889 362.059 28.689 373.925 56.1557 374.059C66.8224 374.059 69.889 373.259 69.889 370.592C69.889 368.725 66.289 367.925 51.6224 366.725C38.0224 365.792 29.089 362.059 21.6224 354.459C14.1557 346.725 12.1557 342.725 8.42236 329.125C5.88903 320.059 5.62236 316.459 6.28903 302.059C8.02236 262.859 18.9557 226.592 33.2224 212.325C36.5557 208.992 39.2224 205.659 39.2224 204.859C39.2224 201.392 33.6224 203.925 28.289 209.925Z" fill="#1A1A1A"/>
<path d="M43.3557 230.993C38.9557 236.193 38.0224 240.727 41.089 240.727C42.8224 240.727 49.889 231.26 49.889 228.86C49.889 225.527 47.089 226.46 43.3557 230.993Z" fill="#1A1A1A"/>
<path d="M155.889 240.724C154.289 243.257 158.022 255.391 160.689 256.857C164.556 258.857 164.956 255.924 162.289 247.524C159.889 240.324 157.622 237.924 155.889 240.724Z" fill="#1A1A1A"/>
<path d="M222.289 246.994C217.356 247.66 214.022 250.727 216.156 252.86C217.089 253.794 220.022 253.927 224.689 253.127C230.556 252.194 231.889 251.527 231.889 249.394C231.889 246.594 229.756 246.06 222.289 246.994Z" fill="#1A1A1A"/>
<path d="M65.0891 274.19C66.0225 278.99 69.2225 283.123 70.8225 281.657C72.5558 279.79 69.3558 270.723 66.6891 270.323C64.5558 269.79 64.2891 270.323 65.0891 274.19Z" fill="#1A1A1A"/>
<path d="M117.889 287.258C111.889 288.991 113.889 292.058 121.356 292.458C128.289 292.858 132.556 290.591 130.556 287.391C129.622 285.925 123.089 285.791 117.889 287.258Z" fill="#1A1A1A"/>
<path d="M247.356 290.59C245.356 292.857 249.889 303.924 253.356 305.257C257.756 306.857 258.156 303.924 254.689 296.99C250.689 289.257 249.489 288.057 247.356 290.59Z" fill="#1A1A1A"/>
<path d="M190.022 297.525C186.689 301.791 186.156 307.658 189.222 306.591C191.889 305.525 196.956 297.125 195.889 295.391C194.556 293.258 192.956 293.791 190.022 297.525Z" fill="#1A1A1A"/>
<path d="M31.3555 309.124C24.8222 312.324 22.8222 315.391 27.0889 315.391C30.8222 315.391 39.4889 311.791 40.8222 309.657C43.7555 305.124 39.7555 304.991 31.3555 309.124Z" fill="#1A1A1A"/>
<path d="M148.956 322.592C134.289 327.392 120.422 339.925 110.689 357.125C103.889 369.259 102.022 375.659 104.556 378.725C108.022 382.859 113.756 379.925 122.022 369.392C124.422 366.459 125.889 365.259 125.356 366.725C121.889 376.059 122.289 386.325 126.022 387.125C128.556 387.659 135.089 382.592 136.689 378.859C138.022 375.792 140.822 371.125 141.889 370.059C142.289 369.659 144.156 366.459 145.889 362.992C149.889 355.125 155.756 348.325 157.222 349.792C157.756 350.325 157.889 350.059 157.489 349.125C156.956 348.325 157.489 346.725 158.556 345.659C161.356 342.725 161.089 339.525 158.022 339.792C156.556 339.792 155.756 340.459 156.022 340.992C156.422 341.659 155.756 342.459 154.689 342.859C153.622 343.259 152.289 344.725 151.889 346.192C151.356 347.659 150.422 348.459 149.756 347.925C149.089 347.525 148.689 347.659 148.822 348.325C149.356 350.192 138.422 366.192 137.222 365.125C136.689 364.459 136.556 364.725 137.089 365.659C138.022 367.392 135.356 374.059 133.622 374.059C133.089 374.059 132.556 374.992 132.556 376.059C132.556 377.125 132.022 378.059 131.222 378.059C130.556 378.059 129.889 378.992 129.889 380.059C129.889 381.125 128.956 382.059 127.889 382.059C126.822 382.059 125.889 381.125 125.889 380.059C125.889 378.992 126.422 378.059 127.089 378.059C127.756 378.059 128.022 376.859 127.622 375.525C126.822 372.459 132.956 358.992 134.556 360.459C135.222 360.992 135.222 360.725 134.822 359.925C133.889 358.325 136.689 351.792 140.822 345.792C143.756 341.659 143.756 340.725 141.356 340.725C140.289 340.725 137.222 343.392 134.422 346.592C131.622 349.925 128.822 352.192 128.022 351.792C127.356 351.392 127.222 351.659 127.756 352.592C129.089 354.592 126.022 358.325 124.156 357.125C123.356 356.725 123.222 356.992 123.756 357.792C124.956 359.792 116.689 370.325 114.822 369.125C114.022 368.725 113.889 368.859 114.289 369.659C115.356 371.259 108.956 377.525 107.622 376.192C107.089 375.659 107.489 374.725 108.556 374.059C109.622 373.259 110.022 372.725 109.356 372.725C108.689 372.725 108.956 371.792 109.889 370.725C110.822 369.659 111.089 368.725 110.689 368.725C109.622 368.725 116.556 356.459 118.289 355.259C118.956 354.859 119.489 353.925 119.489 353.259C119.489 352.592 120.022 352.192 120.822 352.459C121.489 352.592 121.756 352.192 121.222 351.525C120.289 349.792 131.756 337.659 133.089 338.992C133.622 339.659 133.889 339.259 133.622 338.192C133.089 336.192 148.422 327.125 150.956 328.059C151.756 328.325 152.556 328.192 152.556 327.525C152.556 326.859 154.956 326.059 157.889 325.659C163.756 324.859 174.156 325.925 173.356 327.259C173.089 327.659 174.822 328.192 177.222 328.325C182.156 328.592 192.956 333.659 192.022 335.125C191.622 335.659 192.556 336.192 193.889 336.325C196.689 336.592 212.556 348.325 212.556 350.192C212.556 350.992 213.089 351.259 213.756 350.859C215.222 349.925 218.156 353.392 216.822 354.592C216.289 355.125 216.556 355.392 217.222 355.125C219.089 354.592 224.822 358.725 223.622 359.792C223.222 360.325 223.489 360.725 224.556 360.725C225.489 360.725 228.289 362.459 230.822 364.725C236.556 369.792 238.556 369.792 236.022 364.859C231.622 356.592 204.822 334.992 189.089 327.125C178.689 322.059 176.689 321.525 166.156 321.125C158.822 320.859 152.422 321.392 148.956 322.592Z" fill="#1A1A1A"/>
<path d="M295.889 324.593C293.356 329.66 292.689 336.993 294.822 337.66C296.822 338.327 300.022 332.327 301.222 325.66C302.022 321.66 301.756 320.727 300.022 320.727C298.956 320.727 297.089 322.46 295.889 324.593Z" fill="#1A1A1A"/>
<path d="M74.8222 337.525C72.0222 340.325 75.0889 350.059 78.8222 350.059C80.4222 350.059 80.6889 349.125 80.1555 345.125C79.2222 340.059 76.4222 335.925 74.8222 337.525Z" fill="#1A1A1A"/>
<path d="M235.222 346.06C232.556 348.193 232.289 348.993 233.756 349.927C236.156 351.393 244.556 347.66 244.556 345.127C244.556 342.593 239.089 343.127 235.222 346.06Z" fill="#1A1A1A"/>
<path d="M163.889 348.86C162.423 349.393 161.756 349.927 162.423 349.927C163.089 350.06 162.289 351.527 160.556 353.393C158.956 355.127 156.823 356.327 156.023 355.793C155.223 355.393 154.956 355.393 155.489 356.06C156.689 357.393 153.756 362.993 149.223 367.66C147.356 369.66 145.756 371.793 145.756 372.327C145.356 375.127 144.156 376.593 142.823 375.793C142.156 375.393 141.889 375.66 142.423 376.46C142.823 377.26 142.556 378.727 141.623 379.66C134.023 387.927 133.489 388.727 135.489 388.727C138.289 388.727 153.223 373.793 151.756 372.327C151.489 372.06 152.689 370.193 154.556 368.193C156.423 366.193 157.889 364.327 157.889 363.927C157.889 363.66 159.756 361.527 161.889 359.127C165.489 355.393 168.289 349.26 167.089 348.193C166.823 347.927 165.356 348.193 163.889 348.86Z" fill="#1A1A1A"/>
<path d="M176.289 361.792C173.622 362.992 166.422 368.725 160.289 374.592C154.289 380.325 147.889 385.659 146.289 386.459C142.689 388.059 142.289 390.059 145.356 390.059C148.289 390.059 154.289 385.659 166.289 374.459C172.022 369.125 177.356 364.725 178.022 364.725C178.822 364.725 182.022 366.859 185.089 369.392C193.222 376.059 199.889 378.459 209.889 378.325C222.422 378.325 236.156 371.925 229.356 369.259C228.289 368.859 226.022 369.525 224.156 370.725C222.422 371.792 219.222 372.992 217.089 373.259C214.956 373.659 212.156 374.192 210.956 374.725C209.622 375.259 208.556 375.125 208.556 374.325C208.556 373.659 207.089 373.392 205.356 373.659C201.489 374.459 187.756 368.059 185.489 364.592C184.689 363.259 183.089 362.059 182.156 362.059C181.222 362.059 180.822 361.392 181.222 360.725C182.289 358.992 182.156 358.992 176.289 361.792Z" fill="#1A1A1A"/>
</svg>
